<svg width="25" height="28" viewBox="0 0 25 28" fill="none" xmlns="http://www.w3.org/2000/svg">
<path d="M24.6381 20.0875L22.7967 0.972266L3.67213 2.71444C3.47041 2.70614 3.26925 2.74127 3.08228 2.81747C2.89531 2.89367 2.7269 3.00915 2.58844 3.1561C2.44998 3.30304 2.34471 3.47802 2.27976 3.66918C2.2148 3.86035 2.19168 4.06324 2.21195 4.26411C2.23222 4.46499 2.29542 4.65917 2.39726 4.8335C2.49911 5.00783 2.63721 5.15825 2.80224 5.27456C2.96727 5.39088 3.15536 5.47038 3.35378 5.50768C3.55221 5.54498 3.75633 5.53922 3.95233 5.49078L18.2855 4.20763L1.0832 24.9674C0.844706 25.2552 0.73032 25.626 0.765195 25.9981C0.800069 26.3703 0.981353 26.7134 1.26916 26.9518C1.55698 27.1903 1.92774 27.3047 2.29989 27.2698C2.67205 27.235 3.0151 27.0537 3.25359 26.7659L20.4558 6.00609L21.858 20.3281C21.8943 20.7003 22.0769 21.0429 22.3657 21.2805C22.6545 21.5181 23.0259 21.6312 23.3981 21.595C23.7703 21.5588 24.1129 21.3762 24.3505 21.0874C24.5881 20.7986 24.7013 20.4272 24.6651 20.055L24.6381 20.0875Z" fill="white"/>
</svg>
