<svg width="11" height="11" viewBox="0 0 11 11" fill="none" xmlns="http://www.w3.org/2000/svg">
<path d="M2.02549 9.8811L8.99385 3.08773L8.9174 9.10001C8.91129 9.5805 9.30053 9.97976 9.78102 9.98587C9.89511 9.98744 10.0084 9.96649 10.1144 9.92422C10.2204 9.88196 10.317 9.8192 10.3987 9.73955C10.4804 9.6599 10.5456 9.56491 10.5905 9.46003C10.6355 9.35515 10.6593 9.24244 10.6606 9.12834L10.7639 1.00929C10.7654 0.895196 10.7445 0.781912 10.7022 0.675924C10.66 0.569936 10.5972 0.473325 10.5175 0.39162C10.4379 0.309917 10.3429 0.244724 10.238 0.199775C10.1332 0.154826 10.0204 0.131002 9.90634 0.129668L1.78729 0.0264314C1.67323 0.0249807 1.56 0.046012 1.45406 0.0883222C1.34812 0.130632 1.25156 0.193394 1.16988 0.273023C1.0882 0.352652 1.023 0.447591 0.978012 0.552416C0.933022 0.657242 0.909119 0.769902 0.907669 0.883965C0.906218 0.998028 0.927249 1.11126 0.969559 1.2172C1.01187 1.32313 1.07463 1.4197 1.15426 1.50138C1.23389 1.58306 1.32883 1.64825 1.43365 1.69324C1.53848 1.73823 1.65114 1.76214 1.7652 1.76359L7.77749 1.84004L0.809131 8.63341C0.466016 8.96791 0.458966 9.52232 0.793465 9.86543C1.12796 10.2085 1.68238 10.2156 2.02549 9.8811Z" fill="#FFEDC6"/>
</svg>
