<svg xmlns="http://www.w3.org/2000/svg" xmlns:xlink="http://www.w3.org/1999/xlink" width="1080" zoomAndPan="magnify" viewBox="0 0 810 809.999993" height="1080" preserveAspectRatio="xMidYMid meet" version="1.0"><defs><filter x="0%" y="0%" width="100%" height="100%" id="4cc92516e5"><feColorMatrix values="0 0 0 0 1 0 0 0 0 1 0 0 0 0 1 0 0 0 1 0" color-interpolation-filters="sRGB"/></filter><mask id="850f1b7b1f"><g filter="url(#4cc92516e5)"><rect x="-81" width="972" fill="#000000" y="-80.999999" height="971.999992" fill-opacity="0.45"/></g></mask><clipPath id="ee4f4b4f73"><path d="M 1 0.367188 L 715 0.367188 L 715 291.367188 L 1 291.367188 Z M 1 0.367188 " clip-rule="nonzero"/></clipPath><clipPath id="1b622c3ab7"><rect x="0" width="719" y="0" height="294"/></clipPath></defs><g mask="url(#850f1b7b1f)"><g transform="matrix(1, 0, 0, 1, 47, 259)"><g clip-path="url(#1b622c3ab7)"><g clip-path="url(#ee4f4b4f73)"><path fill="#fcd295" d="M 53.515625 188.089844 C 61.992188 188.089844 70 190.152344 77.0625 193.738281 C 85.070312 165.375 111.117188 144.582031 142.015625 144.582031 C 147.523438 144.582031 152.886719 145.269531 158.027344 146.5 C 166.179688 106.035156 201.933594 75.570312 244.789062 75.570312 C 260.441406 75.570312 275.148438 79.628906 287.898438 86.765625 C 308.1875 36.15625 357.707031 0.367188 415.597656 0.367188 C 491.597656 0.367188 553.21875 61.984375 553.21875 137.988281 C 553.21875 138.53125 553.21875 139.074219 553.183594 139.617188 C 557.894531 138.605469 562.78125 138.0625 567.820312 138.0625 C 600.097656 138.0625 627.300781 159.796875 635.671875 189.394531 C 643.058594 185.625 651.390625 183.488281 660.269531 183.488281 C 690.117188 183.488281 714.316406 207.6875 714.316406 237.539062 C 714.316406 267.386719 690.117188 291.585938 660.269531 291.585938 L 53.515625 291.585938 C 24.933594 291.585938 1.75 268.402344 1.75 239.820312 C 1.75 211.238281 24.933594 188.050781 53.515625 188.050781 Z M 53.515625 188.089844 " fill-opacity="1" fill-rule="nonzero"/></g></g></g></g></svg>