<svg width="395" height="261" viewBox="0 0 395 261" fill="none" xmlns="http://www.w3.org/2000/svg">
<path d="M-98.1666 156.032C-98.1666 189.87 -72.3857 217.296 -40.5758 217.296C-33.9425 217.296 -27.5799 216.08 -21.6392 213.893C-7.48151 240.602 19.4171 258.653 50.2982 258.653C77.1086 258.653 100.931 245.039 116.008 223.97C121.278 225.97 126.936 227.061 132.854 227.061C154.54 227.061 173.007 212.439 180.031 191.95C184.671 193.581 189.617 194.485 194.771 194.485C204.121 194.485 212.823 191.558 220.139 186.551C229.556 193.497 241.311 199.482 255.696 202.423C303.845 212.239 304.66 154.079 329.928 188.263C355.193 222.446 393.167 200.993 393.167 200.993C360.214 211.619 354.22 166.645 324.592 156.018C294.964 145.395 292.974 169.833 270.001 166.072C248.124 162.492 260.673 133.473 223.596 105.321C221.726 103.777 219.758 102.37 217.678 101.134C190.152 82.8821 158.456 89.9386 138.38 97.8992C133.893 70.6046 111.525 49.8406 84.5793 49.8406C74.6592 49.8406 65.3751 52.6605 57.3565 57.5769C54.627 26.4509 30.0109 2.08337 0.0364685 2.08337C-31.7733 2.08337 -57.5543 29.5086 -57.5543 63.3472C-57.5543 75.1124 -54.4344 86.0939 -49.0194 95.4343C-76.8247 99.778 -98.1666 125.251 -98.1666 156.032Z" fill="#F8E5C8"/>
<mask id="mask0_496_171" style="mask-type:luminance" maskUnits="userSpaceOnUse" x="-100" y="0" width="495" height="261">
<path d="M395 0.255493H-100V260.759H395V0.255493Z" fill="white"/>
</mask>
<g mask="url(#mask0_496_171)">
<path d="M-51.3964 94.0884C-56.326 84.7115 -58.9182 74.1285 -58.9182 63.3245C-58.9182 28.5471 -32.3514 0.255493 0.305695 0.255493C30.2133 0.255493 54.9995 23.4884 58.9695 54.7181C66.9254 50.3395 75.7999 48.0279 84.7844 48.0279C111.518 48.0279 134.35 67.8572 139.818 95.4921C161.32 87.3045 191.832 81.807 218.6 99.5759C220.723 100.849 222.777 102.303 224.655 103.874C244.773 119.167 250.628 134.913 254.909 146.397C258.587 156.29 261.021 162.809 270.299 164.333C279.834 165.894 285.499 162.3 291.489 158.501C299.536 153.409 307.851 148.146 325.131 154.347C337.925 158.943 346.243 169.452 354.277 179.603C365.13 193.315 374.495 205.168 392.634 199.312C393.462 199.05 394.343 199.493 394.667 200.337C394.991 201.181 394.667 202.169 393.909 202.598C393.515 202.823 354.412 224.32 328.604 189.375C323.787 182.853 319.685 179.533 316.055 179.211C311.585 178.819 307.47 182.792 302.264 187.828C292.898 196.863 280.079 209.238 255.434 204.206C242.716 201.61 230.859 196.397 220.185 188.709C212.575 193.684 203.846 196.303 194.883 196.303C190.221 196.303 185.618 195.586 181.158 194.196C173.334 215.024 154.188 228.9 133.01 228.9C127.467 228.9 122.012 227.972 116.771 226.129C100.69 247.992 76.6052 260.501 50.5198 260.501C20.6562 260.501 -7.04935 243.53 -22.1369 216.096C-28.0039 218.106 -34.1068 219.131 -40.2884 219.131C-72.9455 219.131 -99.5091 190.839 -99.5091 156.062C-99.4997 125.854 -78.9793 99.6831 -51.3964 94.0884ZM304.387 181.067C308.275 177.64 312.019 175.248 316.344 175.64C321.016 176.055 325.757 179.724 331.253 187.161C346.812 208.226 367.162 207.536 380.004 204.193C368.034 202.514 360.056 192.421 351.716 181.888C343.984 172.106 335.981 161.988 324.067 157.717C308.253 152.038 300.945 156.668 293.21 161.559C286.962 165.513 280.504 169.606 269.795 167.844C258.621 166.012 255.614 157.931 251.804 147.693C247.444 135.995 242.024 121.439 222.655 106.705C220.855 105.204 218.933 103.847 216.888 102.621C210.395 98.3129 203.666 95.4452 196.906 93.673C208.004 100.789 224.743 115.643 229.305 142.316C233.24 165.358 243.565 182.4 257.649 189.091C270.723 195.315 286.883 192.528 304.387 181.067ZM-40.2758 215.523C-34.0062 215.523 -27.8246 214.417 -21.9135 212.216C-21.1428 211.942 -20.3028 212.273 -19.9033 213.024C-5.57394 240.089 21.4049 256.893 50.5292 256.893C75.9666 256.893 99.4158 244.505 114.862 222.913C115.186 222.461 115.677 222.213 116.189 222.213C116.381 222.213 116.57 222.246 116.749 222.32C121.981 224.307 127.445 225.305 133.023 225.305C153.329 225.305 171.635 211.667 178.587 191.362C178.899 190.457 179.827 189.972 180.689 190.28C185.282 191.898 190.054 192.719 194.892 192.719C199.511 192.719 204.047 191.945 208.382 190.504C206.428 190.685 204.56 190.779 202.795 190.779C185.672 190.779 177.471 183.104 177.033 182.675C176.351 182.018 176.297 180.89 176.911 180.163C177.524 179.436 178.587 179.379 179.28 180.032C179.402 180.152 192.366 192.076 219.839 184.839C219.971 184.806 220.106 184.792 220.242 184.792C220.273 184.792 220.298 184.792 220.33 184.792C220.452 184.806 220.575 184.816 220.698 184.853C220.723 184.863 220.754 184.863 220.777 184.876C220.912 184.923 221.047 184.997 221.17 185.077C221.179 185.091 221.192 185.091 221.201 185.091C231.73 192.863 243.464 198.099 256.095 200.682C274.335 204.407 285.408 198.122 293.87 190.876C286.349 194.22 279.129 195.908 272.343 195.908C266.668 195.908 261.301 194.732 256.318 192.364C241.209 185.184 230.167 167.178 226.043 142.97C219.581 105.147 187.27 92.3162 185.719 91.7199C168.675 90.1018 152.09 94.4234 139.17 99.5625C138.698 99.7534 138.185 99.7066 137.748 99.4452C137.314 99.1839 137.012 98.7317 136.933 98.2057C132.507 71.214 110.59 51.6125 84.819 51.6125C75.9005 51.6125 67.1173 54.038 59.3376 58.6109C59.3942 61.1436 59.2936 67.3948 57.5036 74.286C63.0812 70.6779 73.5883 65.1804 85.7345 65.1804C94.7222 65.1804 103.002 68.2257 110.322 74.2257C111.062 74.8321 111.194 75.951 110.624 76.7249C110.064 77.5088 109.004 77.6528 108.278 77.0465C101.549 71.5356 93.9609 68.7382 85.7345 68.7382C70.7036 68.7382 57.9409 78.0917 55.6947 79.8438C54.3514 83.2107 52.53 86.5306 50.0385 89.482C44.7534 95.73 37.4771 99.1002 28.4013 99.4687C27.7533 99.4921 27.1178 99.5055 26.4792 99.5055C7.9155 99.5055 -3.42844 88.2928 -7.92072 77.5322C-12.435 66.7148 -10.8055 55.1703 -3.6864 47.4115C3.936 39.0898 13.8737 36.46 22.8803 40.3763C30.3234 43.6024 35.3316 50.6845 35.3316 57.9777C35.3316 65.3446 30.6695 71.6796 23.7203 73.75C17.9633 75.4619 9.98233 74.0582 4.83255 64.9895C4.35126 64.1452 4.60605 63.0498 5.40198 62.5372C6.19473 62.0246 7.22342 62.2993 7.70474 63.1436C11.8824 70.5004 18.2528 71.6796 22.8237 70.3228C27.3852 68.966 31.9907 64.631 31.9907 57.9911C31.9907 52.1217 27.8193 46.3864 21.6283 43.6962C13.9178 40.3528 5.35791 42.6845 -1.27039 49.9207C-7.41739 56.6209 -8.78268 66.6545 -4.84723 76.1051C-0.656952 86.1621 10.2529 96.6613 28.2786 95.9109C36.4138 95.5759 42.8974 92.6244 47.547 87.1269C56.9122 76.0582 55.9841 58.1352 55.9621 57.7063C53.2126 26.9759 29.3073 3.8267 0.305695 3.8267C-30.4954 3.8267 -55.5647 30.5102 -55.5647 63.3245C-55.5647 73.7265 -53.0165 83.9008 -48.1877 92.8623C-43.2613 89.5423 -27.2897 80.9627 -7.88611 93.3648C10.687 105.231 8.65479 124.333 7.70474 129.532C8.87814 130.377 10.8443 131.985 12.9677 134.437C15.4026 123.476 23.607 113.335 35.599 106.775C52.81 97.3749 73.365 97.5658 89.2452 107.278C90.0506 107.764 90.3274 108.859 89.8587 109.717C89.4025 110.574 88.3738 110.869 87.5685 110.37C69.7535 99.4821 49.8277 103.016 37.1185 109.955C24.9471 116.594 17.0007 127.094 15.7267 138.089C20.8701 145.837 25.2932 158.859 20.0963 178.782C18.624 184.437 15.8273 189.137 12.197 192.957C13.4365 198.015 21.2602 223.416 54.8768 233.091C72.5156 238.173 88.3046 236.005 99.3592 226.997C107.227 220.581 112.122 210.883 112.122 201.694C112.122 194.672 110.033 189.161 105.909 185.292C104.087 183.58 102.021 182.354 99.9065 181.496C99.8845 181.486 99.8499 181.472 99.8279 181.459C95.9176 179.901 91.8028 179.616 88.6192 180.055C81.1541 181.08 74.1672 187.65 75.3878 200.029C75.7432 203.62 77.5207 206.893 80.2575 208.977C82.8308 210.94 85.9044 211.62 88.9086 210.893C93.1996 209.858 96.509 206.146 98.7457 199.838C99.0697 198.91 100.042 198.457 100.901 198.802C101.772 199.148 102.209 200.183 101.873 201.097C99.2144 208.598 95.0997 213.061 89.6353 214.37C85.681 215.322 81.6449 214.441 78.2914 211.868C74.7712 209.181 72.4904 205.004 72.0437 200.384C70.6029 185.697 79.3987 177.71 88.1819 176.511C91.1894 176.092 94.9235 176.246 98.6671 177.318C98.6451 176.022 98.6671 174.307 98.8118 172.307C77.2973 163.737 66.9915 181.449 66.5573 182.223C66.2428 182.782 65.6859 183.091 65.1165 183.091C64.824 183.091 64.522 183.007 64.2546 182.843C63.4618 182.34 63.1944 181.245 63.6726 180.39C63.7953 180.176 75.5325 159.774 99.1924 168.642C99.4472 166.725 99.8405 164.655 100.388 162.501C95.5244 159.774 74.8498 150.112 58.957 172.176C58.9475 172.189 58.9349 172.199 58.9224 172.213C58.8563 172.297 58.7902 172.38 58.7116 172.451C58.677 172.487 58.6455 172.511 58.5983 172.534C58.5543 172.571 58.5228 172.605 58.4756 172.628C58.4536 172.642 58.4442 172.642 58.4222 172.652C58.3309 172.702 58.2429 172.735 58.1516 172.772C58.1076 172.786 58.073 172.809 58.0289 172.819C57.9062 172.856 57.7741 172.866 57.6389 172.879H57.6263H57.6168C57.4595 172.879 57.3022 172.843 57.1481 172.796C57.1009 172.786 57.0474 172.759 57.0002 172.735C56.8901 172.688 56.7895 172.628 56.6888 172.558C56.6668 172.534 56.6322 172.534 56.6102 172.511C56.5756 172.487 56.5535 172.451 56.5221 172.414C56.4875 172.38 56.4529 172.357 56.4214 172.32C56.3428 172.226 56.2641 172.129 56.2075 172.022C56.1981 172.012 56.1855 171.998 56.1855 171.985C56.1855 171.985 56.1729 171.975 56.1729 171.962C55.9055 171.476 51.4919 163.154 55.0561 155.526C57.8056 149.646 64.4119 146.005 74.7051 144.695C75.5985 144.564 76.4605 145.278 76.5706 146.256C76.6838 147.231 76.0232 148.122 75.1078 148.243C66.0194 149.399 60.2877 152.373 58.073 157.097C56.2987 160.893 57.1701 165.121 58.0635 167.727C74.5258 147.445 95.2916 155.908 101.404 159.074C105.047 148.089 113.396 136.139 132.24 132.353C153.194 128.139 165.579 139.851 168.216 152.514C170.182 161.978 166.652 173.057 156.066 175.951C148.847 177.915 143.886 176.33 140.799 173.271C139.459 176.427 137.572 182.377 139.626 187.375C141.315 191.459 145.427 194.22 151.863 195.563C152.769 195.754 153.364 196.695 153.185 197.66C153.027 198.514 152.323 199.097 151.539 199.097C151.429 199.097 151.329 199.087 151.215 199.064C143.65 197.479 138.723 194.029 136.565 188.816C133.501 181.412 137.113 172.94 138.509 170.142C137.94 169.06 137.515 167.915 137.223 166.749C135.625 160.253 137.997 151.791 143.549 150.219C144.446 149.968 145.361 150.528 145.606 151.479C145.852 152.43 145.317 153.409 144.42 153.67C141.146 154.598 139.201 160.631 140.475 165.844C140.768 167.037 141.193 168.082 141.74 168.987C141.784 169.047 141.828 169.117 141.872 169.178C144.298 172.987 148.991 174.199 155.261 172.498C164.17 170.072 166.539 160.846 164.975 153.301C162.594 141.898 151.753 132.092 132.9 135.878C114.661 139.543 107.082 151.231 104.018 161.61C104.018 161.928 103.943 162.24 103.785 162.538C103.773 162.548 103.773 162.561 103.763 162.571C102.958 165.546 102.499 168.394 102.266 170.869C102.297 171.141 102.275 171.429 102.187 171.7C101.942 174.806 102.021 177.235 102.109 178.568C104.245 179.543 106.321 180.866 108.19 182.601C112.993 187.114 115.541 193.707 115.541 201.68C115.541 211.965 110.143 222.749 101.47 229.818C93.7375 236.126 83.9256 239.339 72.8711 239.339C66.9254 239.339 60.6117 238.411 54.084 236.531C21.6629 227.198 11.9611 203.727 9.51358 195.563C0.941132 202.836 -10.9848 206.179 -21.8474 206.179C-22.5616 206.179 -23.2757 206.169 -23.9803 206.133C-41.2165 205.429 -62.9637 195.814 -67.5347 171.034C-71.1209 151.576 -65.9712 135.72 -53.3752 127.556C-41.918 120.119 -26.5284 120.715 -16.7606 128.95C-4.0419 139.687 -4.92587 152.598 -9.55344 160.394C-14.225 168.26 -24.5057 173.831 -34.3868 168.655C-42.6573 164.323 -43.8967 158.31 -43.9093 155.11C-43.9093 150.313 -41.2039 145.539 -37.3156 143.492C-34.5661 142.042 -31.716 142.256 -29.4919 144.065C-28.7526 144.662 -28.6205 145.777 -29.1773 146.564C-29.7372 147.348 -30.7974 147.492 -31.5241 146.896C-33.0467 145.66 -34.6982 146.099 -35.8276 146.695C-38.187 147.935 -40.5653 151.231 -40.5558 155.11C-40.5558 158.002 -39.2251 162.142 -32.9114 165.452C-24.7982 169.7 -16.2824 165.037 -12.391 158.491C-8.32339 151.633 -7.88614 141.017 -18.8526 131.757C-27.5572 124.414 -41.3391 123.938 -51.6324 130.615C-58.2796 134.936 -68.7647 145.837 -64.2378 170.357C-60.0475 193.087 -39.8512 201.918 -23.8482 202.575C-7.47403 203.218 12.2757 195.777 16.9567 177.817C21.9208 158.789 17.74 146.765 13.0244 139.817C12.8105 139.636 12.6437 139.399 12.5431 139.127C9.05429 134.283 5.44601 132.129 5.08737 131.924C4.38272 131.532 4.03665 130.665 4.26001 129.841C4.49597 128.986 9.73694 108.728 -9.54083 96.3967C-30.7974 82.8187 -46.9136 96.209 -47.5963 96.7786C-47.6088 96.792 -47.6183 96.792 -47.6309 96.802C-47.6623 96.8255 -47.6969 96.8489 -47.7315 96.8757C-47.8102 96.9327 -47.8857 96.9829 -47.9643 97.0164C-47.9989 97.0298 -48.043 97.0533 -48.0776 97.0633C-48.1656 97.1002 -48.2569 97.1236 -48.345 97.1471C-48.367 97.1471 -48.389 97.1605 -48.411 97.1705C-75.5943 101.432 -96.0801 126.725 -96.0801 156.025C-96.1462 188.839 -71.0769 215.523 -40.2758 215.523ZM1.68985 221.64C0.997772 222.297 0.941132 223.426 1.55774 224.163C1.64581 224.26 3.66861 226.675 7.53485 229.995C7.84943 230.257 8.2175 230.387 8.58557 230.387C9.07947 230.387 9.55765 230.163 9.89426 229.721C10.4762 228.96 10.363 227.831 9.63629 227.211C6.00598 224.092 4.07126 221.808 4.04926 221.784C3.44525 221.047 2.38196 220.987 1.68985 221.64ZM16.3307 234.484C15.8619 235.329 16.1199 236.424 16.9126 236.933C25.8878 242.625 40.56 249.409 59.5169 249.409C67.6961 249.409 76.1239 248.146 84.5736 245.67C85.4671 245.409 85.9924 244.421 85.747 243.479C85.5017 242.528 84.5736 241.982 83.6897 242.23C75.5325 244.622 67.4067 245.838 59.5264 245.838C41.3339 245.838 27.2499 239.329 18.646 233.865C17.8407 233.352 16.812 233.627 16.3307 234.484ZM129.49 101.361C126.237 94.1018 122.56 87.8405 118.549 82.7483C117.957 81.9979 116.894 81.8907 116.189 82.5205C115.488 83.1504 115.387 84.2827 115.979 85.0331C119.801 89.8874 123.334 95.8975 126.461 102.886C126.753 103.526 127.345 103.898 127.971 103.898C128.216 103.898 128.461 103.837 128.685 103.717C129.534 103.325 129.893 102.253 129.49 101.361ZM-8.31082 20.7849C-7.42996 20.5001 -6.92664 19.5018 -7.19403 18.5604C-7.46143 17.6191 -8.40204 17.083 -9.28601 17.3712C-10.1574 17.6559 -30.7534 24.5471 -38.7564 46.9693C-39.0804 47.8872 -38.6557 48.9224 -37.7843 49.2775C-37.583 49.3613 -37.3817 49.3981 -37.1929 49.3981C-36.5197 49.3981 -35.8842 48.9559 -35.6263 48.2423C-28.1958 27.4382 -8.51215 20.8452 -8.31082 20.7849ZM-41.4713 58.9191C-41.7072 61.0631 -41.8299 63.2977 -41.8299 65.5489C-41.8299 68.7985 -41.5845 72.2022 -41.0906 75.6528C-40.9679 76.5339 -40.2538 77.1771 -39.4391 77.1771C-39.3604 77.1771 -39.2692 77.1637 -39.1811 77.1537C-38.2657 77.0096 -37.6396 76.095 -37.7718 75.1168C-38.2405 71.8337 -38.4764 68.6076 -38.4764 65.5355C-38.4764 63.4317 -38.3663 61.3345 -38.1429 59.3244C-38.0297 58.3496 -38.6903 57.4551 -39.6152 57.3479C-40.5338 57.2407 -41.3612 57.9442 -41.4713 58.9191ZM190.344 111.787C199.284 117.144 205.658 127.486 209.3 142.517C209.489 143.328 210.172 143.851 210.921 143.851C211.053 143.851 211.201 143.837 211.345 143.791C212.239 143.543 212.777 142.578 212.553 141.613C208.662 125.569 201.735 114.477 191.942 108.635C179.493 101.207 167.108 105.097 166.583 105.278C165.702 105.563 165.199 106.561 165.466 107.502C165.734 108.444 166.674 108.98 167.555 108.692C167.734 108.645 179.191 105.11 190.344 111.787ZM-87.7625 156.528C-87.7405 157.992 -87.7184 159.456 -87.6618 160.916C-87.3378 163.821 -87.0358 166.739 -86.6017 169.606C-85.9977 172.451 -85.3937 175.295 -84.7016 178.092C-84.9124 175.188 -85.2144 172.307 -85.5164 169.452C-85.6957 166.571 -85.7523 163.704 -85.9316 160.836C-85.7963 155.121 -85.6862 149.372 -84.4436 143.851C-83.3709 138.316 -81.5494 132.926 -78.7213 128.129L-77.6046 126.367L-77.0446 125.486L-76.4185 124.665L-75.1571 123.01C-74.7198 122.474 -74.229 121.998 -73.7697 121.475C-71.8948 119.452 -69.7808 117.63 -67.3994 116.216C-69.9947 117.144 -72.351 118.762 -74.4964 120.608C-76.6765 122.44 -78.498 124.712 -80.1653 127.08C-80.9895 128.273 -81.6627 129.579 -82.3894 130.842C-83.0689 132.139 -83.5848 133.519 -84.1982 134.852C-84.343 135.198 -84.5128 135.519 -84.6229 135.878L-85.595 139.053C-85.7963 139.757 -86.0543 140.457 -86.2116 141.174L-86.6363 143.338L-87.0358 145.516C-87.1837 146.243 -87.3158 146.97 -87.3504 147.707L-87.731 152.112C-87.8758 153.586 -87.7625 155.064 -87.7625 156.528ZM-81.1468 145.221C-82.4114 149.67 -82.8235 154.347 -82.7889 158.953C-82.7889 163.583 -82.0748 168.156 -81.1594 172.642C-80.612 174.856 -79.9954 177.057 -79.3599 179.235C-78.5892 181.379 -77.8185 183.506 -76.9565 185.59C-77.3466 183.342 -77.8279 181.127 -78.2966 178.926L-79.448 172.273C-79.9954 167.821 -80.5994 163.382 -80.5554 158.92C-80.6214 154.477 -80.332 150.015 -79.4606 145.673C-78.9667 143.516 -78.4665 141.352 -77.6706 139.281C-76.9345 137.184 -76.019 135.151 -74.7984 133.281C-76.3965 134.816 -77.6171 136.782 -78.6552 138.792C-79.2026 139.79 -79.5927 140.876 -80.052 141.935C-80.4893 143.017 -80.7787 144.126 -81.1468 145.221ZM-74.811 170.142C-75.4024 171.546 -75.6164 173.117 -75.6698 174.665C-75.717 175.449 -75.6384 176.223 -75.6038 176.997C-75.5471 177.784 -75.393 178.544 -75.2798 179.318C-74.6978 182.4 -73.4457 185.281 -71.9263 187.925C-71.1776 189.255 -70.2841 190.481 -69.3907 191.697C-68.9534 192.313 -68.4281 192.849 -67.9499 193.422C-67.456 193.992 -66.9527 194.541 -66.4493 195.087C-65.3766 196.112 -64.2819 197.111 -63.1651 198.062C-61.9791 198.933 -60.8057 199.814 -59.5882 200.598C-60.5037 199.409 -61.4663 198.3 -62.4258 197.208C-63.3538 196.076 -64.2504 194.92 -65.1753 193.828C-66.8866 191.483 -68.6514 189.208 -70.0388 186.685C-71.5016 184.223 -72.7442 181.616 -73.6156 178.853C-74.0057 177.462 -74.3958 176.055 -74.5877 174.605C-74.8205 173.141 -74.9211 171.667 -74.811 170.142ZM-59.5882 110.658C-57.1754 108.169 -54.4259 106.169 -51.431 104.826C-49.9336 104.159 -48.389 103.609 -46.8129 103.264C-45.262 102.933 -43.5947 102.671 -42.1099 102.718C-41.918 102.718 -41.7513 102.681 -41.594 102.588L-41.5719 102.574C-38.9577 101.087 -36.2303 99.8372 -33.3927 99.0767C-31.9834 98.6714 -30.5426 98.3967 -29.0892 98.256C-27.6358 98.1119 -26.1824 98.0884 -24.729 98.2191C-21.8254 98.4704 -18.9627 99.3012 -16.2572 100.624C-13.5644 101.958 -11.0162 103.717 -8.78268 105.921C-10.5695 103.264 -12.9604 101.063 -15.6438 99.3749C-18.3272 97.6831 -21.3661 96.5173 -24.5183 96.1119C-27.6578 95.6496 -30.8886 95.9343 -33.9495 96.7685C-36.9224 97.5993 -39.7725 98.8958 -42.3899 100.551C-44.1107 100.635 -45.6741 100.919 -47.2502 101.408C-48.9144 101.921 -50.525 102.598 -52.035 103.492C-55.0739 105.217 -57.6787 107.717 -59.5882 110.658ZM-22.2942 104.514C-23.433 104.802 -24.4962 105.264 -25.4463 105.921C-24.3169 105.764 -23.2536 105.633 -22.1935 105.683C-21.1302 105.73 -20.1141 105.908 -19.12 106.169C-17.1412 106.752 -15.2978 107.777 -13.577 109.037C-10.1008 111.549 -7.13742 114.893 -4.05447 118.347C-4.81262 116.085 -5.98602 114.011 -7.37335 112.109C-8.76068 110.206 -10.3902 108.467 -12.3123 107.073C-14.2124 105.67 -16.4492 104.658 -18.796 104.35C-19.9694 104.192 -21.1522 104.266 -22.2942 104.514ZM-10.6922 189.828C-14.6151 191.851 -18.818 193.292 -23.1435 194.518C-18.6827 194.28 -14.225 193.315 -10.0001 191.529C-7.85468 190.709 -5.86334 189.493 -3.90976 188.233C-1.99707 186.886 -0.219666 185.305 1.40045 183.556C4.58405 179.995 6.88681 175.556 8.07278 170.856C9.25565 166.166 9.479 161.204 8.50693 156.551C8.55411 161.298 7.83685 165.951 6.40549 170.296C4.95526 174.628 2.75314 178.628 -0.232269 181.901C-3.16104 185.235 -6.78192 187.828 -10.6922 189.828ZM-4.29984 176.353C-6.35724 178.581 -8.81415 180.33 -11.4976 181.65C-12.7716 182.437 -14.2124 182.89 -15.5872 183.506C-16.9965 184.032 -18.4373 184.471 -19.8687 184.96C-21.3315 185.305 -22.7975 185.781 -24.2823 186.126C-25.7703 186.461 -27.2772 186.779 -28.7746 187.208C-27.2332 187.305 -25.6917 187.292 -24.125 187.281C-22.5836 187.198 -21.0295 186.97 -19.488 186.769C-18.7173 186.662 -17.956 186.434 -17.1978 186.256C-16.4366 186.055 -15.6658 185.901 -14.9171 185.65C-13.4417 185.054 -11.9222 184.591 -10.5129 183.781C-9.07211 183.067 -7.74142 182.116 -6.42331 181.151L-4.6113 179.472C-4.0419 178.866 -3.52911 178.213 -3.00375 177.57C-2.54446 176.856 -2.05371 176.189 -1.66364 175.439C-1.29242 174.675 -0.902313 173.938 -0.644379 173.131C-0.0969849 171.546 0.249054 169.868 0.135803 168.203C-0.232269 169.797 -0.845703 171.271 -1.62903 172.628C-2.34314 174.008 -3.32779 175.201 -4.29984 176.353ZM-14.7378 175.533C-16.4806 176.605 -18.258 177.342 -20.0574 177.962C-21.8694 178.568 -23.7003 178.96 -25.569 179.271C-27.4345 179.543 -29.322 179.687 -31.2473 179.757C-32.2067 179.794 -33.1694 179.757 -34.1509 179.807C-35.1355 179.807 -36.1076 179.757 -37.1363 179.831C-36.2177 180.27 -35.2676 180.628 -34.3082 180.96C-33.3361 181.198 -32.3514 181.486 -31.3479 181.616C-29.3472 181.901 -27.2772 181.948 -25.2544 181.627C-23.2316 181.305 -21.2309 180.675 -19.4 179.677C-17.588 178.688 -15.8672 177.355 -14.7378 175.533ZM-25.4463 138.434C-24.339 139.543 -23.3669 140.615 -22.5269 141.757C-21.6902 142.899 -20.998 144.102 -20.4947 145.385C-20.004 146.672 -19.5541 147.992 -19.3654 149.445C-19.2867 149.801 -19.2427 150.159 -19.2081 150.528L-19.0759 151.646C-18.9973 152.407 -19.0067 153.171 -18.8746 153.992C-18.516 153.288 -18.214 152.538 -17.9812 151.764C-17.8333 150.98 -17.588 150.169 -17.61 149.348C-17.4778 147.693 -17.8113 145.992 -18.4373 144.434C-19.0634 142.863 -20.0795 141.506 -21.2875 140.457C-22.4955 139.412 -23.9268 138.648 -25.4463 138.434ZM-28.0259 156.93C-28.4066 157.194 -28.8658 157.358 -29.2905 157.596L-30.6747 158.179C-31.1686 158.337 -31.6468 158.574 -32.1501 158.762C-32.6534 158.953 -33.1788 159.144 -33.7042 159.456C-33.1694 159.68 -32.6094 159.801 -32.04 159.931C-31.48 160.012 -30.8981 160.025 -30.3287 160.025C-29.7592 159.988 -29.1773 159.881 -28.5984 159.75C-28.0259 159.549 -27.4565 159.382 -26.9217 159.027C-25.849 158.407 -24.8643 157.405 -24.383 156.146C-23.9017 154.896 -23.8702 153.492 -24.4522 152.384C-25.2009 154.729 -26.4058 156.015 -28.0259 156.93ZM28.6813 194.518C29.688 197.158 31.0721 199.623 32.6042 201.968C34.1582 204.313 35.879 206.524 37.8011 208.548C39.7012 210.595 41.8026 212.441 44.0267 214.096C46.2603 215.737 48.6543 217.141 51.1332 218.344C56.1194 220.689 61.5177 221.999 66.9254 222.223C72.3363 222.437 77.7346 221.677 82.8403 220.035C77.5427 220.712 72.2576 220.927 67.0481 220.38C64.4559 220.045 61.8732 219.654 59.3722 218.903C56.8555 218.213 54.386 217.345 52.0392 216.179C47.289 213.965 42.9068 210.883 38.9839 207.205C35.0862 203.503 31.5755 199.265 28.6813 194.518ZM34.2463 189.328C32.1008 185.66 30.2227 181.804 28.6813 177.71C29.3293 182.079 30.8142 186.293 32.7489 190.243C34.6836 194.206 37.2097 197.848 40.1353 201.074C41.5667 202.729 43.2434 204.109 44.8636 205.55C46.641 206.762 48.3051 208.156 50.2398 209.074C53.9268 211.251 58.0415 212.417 62.0965 213.144C58.2649 211.452 54.4867 209.848 51.1018 207.452C49.3464 206.394 47.7798 205.027 46.1596 203.764C44.6622 202.337 43.0767 201.014 41.7334 199.409C38.9084 196.384 36.4264 192.97 34.2463 189.328ZM51.9386 199.73C52.7093 200.169 53.4926 200.588 54.2634 200.99C53.6027 200.374 52.9453 199.764 52.2846 199.181C51.6366 198.575 50.9225 198.076 50.3531 197.385C49.1325 196.112 47.871 194.896 46.8203 193.483C44.5741 190.802 42.7181 187.791 41.2332 184.601C39.7012 181.436 38.5498 178.045 37.7445 174.544C36.9517 171.034 36.461 167.429 36.2816 163.727C35.5204 167.355 35.533 171.178 36.0363 174.889C36.5145 178.628 37.6438 182.27 39.2325 185.663L39.8333 186.936C40.0472 187.352 40.3052 187.744 40.538 188.149C41.0319 188.933 41.4566 189.781 42.004 190.531C43.1428 191.995 44.1935 193.529 45.5556 194.756L46.5182 195.73C46.8297 196.065 47.1663 196.374 47.5344 196.635L49.6704 198.29C50.3751 198.873 51.1678 199.278 51.9386 199.73ZM67.2274 111.693C71.6536 111.787 76.0893 112.202 80.5281 112.99C76.3127 111.251 71.8329 110.3 67.3186 109.847C62.7917 109.395 58.1988 109.539 53.6814 110.336C49.1797 111.157 44.7408 112.631 40.7079 114.953C36.6497 117.204 33.0383 120.333 30.1567 124.012C33.6989 121.047 37.433 118.477 41.466 116.618C43.4794 115.68 45.5336 114.859 47.6476 114.239C49.7491 113.559 51.8819 113.05 54.0494 112.692C58.3876 111.857 62.8138 111.619 67.2274 111.693ZM55.6507 117.737C56.3302 117.62 57.0223 117.63 57.7049 117.573C58.051 117.549 58.3876 117.512 58.7336 117.489L59.7717 117.465C60.467 117.465 61.1465 117.415 61.8417 117.442L63.918 117.465L65.9974 117.583C67.3847 117.656 68.7815 117.787 70.1782 117.928C72.9623 118.226 75.7653 118.571 78.606 118.963C76.0232 117.62 73.2517 116.738 70.4456 116.095C67.6301 115.452 64.7579 115.084 61.8637 115.06C58.9695 115.084 56.0408 115.358 53.2252 116.202C50.4191 117.06 47.7263 118.44 45.5556 120.45C48.2296 119.285 50.8784 118.511 53.5933 118.025C54.2854 117.928 54.968 117.844 55.6507 117.737ZM145.685 212.799C142.913 213.774 140.019 214.213 137.034 214.762C139.997 215.201 143.102 215.285 146.097 214.595C147.629 214.38 149.07 213.798 150.545 213.332C151.272 213.061 151.955 212.692 152.669 212.37C153.386 212.059 154.066 211.68 154.726 211.275C157.41 209.667 159.889 207.68 161.981 205.312C164.082 202.967 165.891 200.3 167.077 197.339C165.107 199.764 163.019 201.968 160.785 203.968C158.548 205.965 156.167 207.741 153.641 209.205C151.127 210.715 148.466 211.928 145.685 212.799ZM132.218 207.288C130.843 207.489 129.456 207.586 127.98 207.858C129.311 208.561 130.752 209 132.227 209.144C133.702 209.345 135.2 209.238 136.666 208.977C138.129 208.692 139.547 208.146 140.869 207.419C142.174 206.682 143.404 205.727 144.288 204.431C141.482 205.382 138.921 206.122 136.251 206.645C134.923 206.859 133.58 207.134 132.218 207.288ZM113.811 168.213C114.481 166.524 114.972 164.799 115.598 163.144L116.649 160.729L117.152 159.513C117.341 159.121 117.577 158.752 117.778 158.37C118.203 157.62 118.615 156.859 119.018 156.099C119.486 155.382 120.002 154.705 120.484 154.002C120.738 153.67 120.952 153.288 121.21 152.966L122.047 152.028C122.629 151.419 123.107 150.705 123.768 150.196C126.115 147.814 128.965 146.028 131.982 144.672C135.024 143.328 138.286 142.471 141.671 142.079C138.286 141.496 134.744 141.841 131.403 142.933C128.059 144.018 124.863 145.874 122.27 148.434C121.924 148.732 121.6 149.05 121.32 149.422L120.436 150.467L119.556 151.516C119.276 151.884 119.04 152.276 118.794 152.668C118.313 153.456 117.81 154.229 117.363 155.027C116.973 155.861 116.605 156.705 116.237 157.549C116.057 157.978 115.856 158.384 115.699 158.812L115.309 160.132L114.569 162.776C114.201 164.585 113.987 166.417 113.811 168.213ZM117.275 174.106C117.24 175.318 117.231 176.534 117.262 177.747C117.375 178.96 117.486 180.163 117.699 181.352C117.979 180.163 118.168 178.983 118.36 177.817C118.571 176.652 118.816 175.509 118.996 174.353C119.512 172.082 119.99 169.831 120.729 167.69C121.434 165.536 122.27 163.442 123.409 161.513C124.573 159.62 125.904 157.787 127.735 156.36C126.605 156.598 125.555 157.191 124.595 157.894C124.104 158.239 123.68 158.655 123.233 159.06C122.796 159.479 122.415 159.955 122.012 160.407C120.484 162.31 119.386 164.561 118.628 166.893C117.822 169.224 117.486 171.677 117.275 174.106ZM284.628 179.188C288.919 177.235 292.807 174.461 296.151 171.131C292.25 173.677 288.214 175.901 284.002 177.449C282.961 177.864 281.878 178.139 280.815 178.484C280.28 178.638 279.733 178.735 279.195 178.866C278.66 178.997 278.113 179.117 277.562 179.174C275.395 179.58 273.183 179.7 270.991 179.58C266.599 179.426 262.273 178.186 258.24 176.199C254.217 174.189 250.439 171.499 247.076 168.203C249.756 172.166 253.377 175.425 257.457 177.854C259.493 179.08 261.682 180.022 263.941 180.745C266.209 181.436 268.556 181.831 270.915 181.962C275.609 182.186 280.359 181.174 284.628 179.188ZM271.607 174.521C268.389 173.938 265.404 172.712 262.667 171.08C259.939 169.439 257.492 167.355 255.368 164.93L253.836 163.047C253.301 162.441 252.921 161.69 252.44 161.037C251.445 159.74 250.753 158.216 249.891 156.789C249.432 156.085 249.177 155.278 248.797 154.538L247.702 152.253C247.063 150.682 246.459 149.087 245.745 147.516C245.991 149.231 246.315 150.943 246.673 152.658C247.208 154.3 247.645 156.015 248.328 157.62C249.655 160.859 251.455 163.905 253.726 166.558C256.051 169.141 258.797 171.332 261.896 172.749C264.957 174.152 268.332 174.926 271.607 174.521ZM307.561 163.75C310.49 163.536 313.34 163.928 316.055 164.678C318.77 165.452 321.362 166.618 323.787 168.095L325.587 169.261C326.191 169.643 326.716 170.152 327.308 170.571C328.506 171.379 329.51 172.464 330.639 173.392C331.221 173.844 331.668 174.437 332.215 174.95L333.791 176.521C334.785 177.627 335.77 178.769 336.852 179.854C336.173 178.474 335.411 177.117 334.628 175.784C333.725 174.544 332.876 173.238 331.857 172.082C329.834 169.75 327.522 167.667 324.907 166.049C322.268 164.487 319.396 163.312 316.388 162.869C313.428 162.407 310.311 162.561 307.561 163.75ZM168.741 140.899C170.059 142.564 171.179 144.387 172.126 146.313C173.076 148.243 173.749 150.313 174.341 152.42C175.369 156.682 175.671 161.181 175.549 165.737C176.599 161.322 176.81 156.621 176.049 152.015C175.637 149.717 174.954 147.469 174.039 145.325C173.076 143.208 171.871 141.208 170.474 139.375C167.634 135.747 163.991 132.936 160.08 130.926C156.167 128.926 151.955 127.593 147.673 127.248C151.766 128.558 155.654 130.343 159.262 132.554C161.052 133.687 162.783 134.899 164.371 136.306C165.957 137.697 167.454 139.208 168.741 140.899ZM133.19 128.129C135.47 127.76 137.773 127.486 140.151 127.261C137.861 126.497 135.448 126.259 133.045 126.283C130.642 126.306 128.238 126.688 125.891 127.331C124.718 127.663 123.579 128.105 122.45 128.568C121.89 128.806 121.355 129.127 120.808 129.402C120.26 129.677 119.722 129.975 119.219 130.343C117.108 131.616 115.309 133.412 113.799 135.365C115.922 134.152 117.879 132.889 120.012 131.995C122.126 131.057 124.249 130.223 126.461 129.64C128.675 128.986 130.922 128.511 133.19 128.129ZM32.5821 24.8084C36.7284 28.6409 40.4153 33.0195 43.2434 37.9709C44.6622 40.4466 45.8576 43.053 46.8423 45.7565C47.8364 48.4567 48.497 51.2775 49.0664 54.1351C50.029 59.8839 50.1045 65.8102 49.6043 71.75C51.0231 65.9777 51.4572 59.8839 50.7998 53.8504C50.4191 50.8487 49.7711 47.8638 48.843 44.9827C47.871 42.115 46.6315 39.3512 45.1656 36.7347C42.1487 31.5454 38.2038 27.0228 33.6895 23.3678C29.172 19.7263 24.1544 16.7748 18.7907 15.0127C23.7863 17.6928 28.4013 21.0127 32.5821 24.8084ZM36.159 84.544C38.9619 83.1738 41.4566 80.879 43.1868 78.0113C44.0708 76.5942 44.7408 75.0331 45.3008 73.4384C45.8136 71.8337 46.1596 70.1654 46.405 68.5004C46.8203 65.1436 46.729 61.7767 46.2289 58.4903C45.7129 55.2172 44.8541 52.0045 43.4668 49.053C43.9701 52.2892 44.3162 55.502 44.4955 58.6946C44.6402 61.8839 44.6182 65.0598 44.1935 68.1654C43.8034 71.2743 42.998 74.296 41.6799 77.08C40.3587 79.8673 38.4492 82.343 36.159 84.544ZM35.857 76.1419C34.8283 77.4518 33.6643 78.6177 32.4594 79.7366C31.264 80.8656 29.9207 81.8438 28.5901 82.879C27.9106 83.3648 27.2184 83.8405 26.5232 84.3765C25.8185 84.8656 25.1044 85.3413 24.4124 85.9376C25.2838 85.8405 26.1205 85.6395 26.9825 85.4351C27.7973 85.1504 28.6372 84.8757 29.4394 84.4971C31.0155 83.7098 32.5821 82.8053 33.9128 81.5457C35.253 80.3195 36.4358 78.8555 37.2978 77.1771C38.1346 75.5088 38.7291 73.6294 38.5718 71.75C37.8231 73.415 36.8731 74.8187 35.857 76.1419ZM-41.0592 33.2473C-38.9672 29.3913 -36.5763 25.6894 -33.7167 22.3226C-37.2024 24.9759 -40.0965 28.4734 -42.522 32.2724C-44.9474 36.0781 -46.9356 40.2222 -48.3104 44.6008C-49.619 48.9927 -50.6477 53.5154 -50.8365 58.1084C-51.0944 60.3965 -50.9151 62.6913 -50.8931 64.9761C-50.7578 67.2608 -50.4118 69.5221 -50.0878 71.76C-49.921 69.4753 -49.9777 67.2273 -49.7983 64.9895C-49.5624 62.7516 -49.5089 60.5137 -49.1157 58.3127L-48.6124 55.0028L-47.9203 51.7532C-47.7315 50.6611 -47.4169 49.5991 -47.1275 48.5405C-46.8129 47.4818 -46.5896 46.3998 -46.1995 45.3646L-45.1488 42.2322L-43.9093 39.187C-43.0473 37.1501 -42.0879 35.1736 -41.0592 33.2473ZM99.1924 63.7767C102.87 65.0364 106.242 67.0498 109.718 69.0464C106.802 66.2625 103.54 63.693 99.8405 62.0481C98.0505 61.0632 96.0969 60.5506 94.1842 59.8705C92.2181 59.4317 90.2614 58.9191 88.2512 58.765C84.2496 58.3496 80.2041 58.5037 76.2812 59.3479C72.3677 60.1821 68.5455 61.5389 65.126 63.6427C68.9041 62.4434 72.7138 61.6327 76.5486 61.1704C80.3834 60.7281 84.2276 60.6812 88.0278 61.1335C89.9373 61.2407 91.8028 61.7164 93.6809 62.0615C95.5244 62.5841 97.4024 63.0263 99.1924 63.7767ZM202.483 112.752C205.711 116.048 208.46 119.867 210.921 123.988C209.3 119.429 206.862 115.13 203.732 111.455C202.191 109.586 200.413 107.954 198.592 106.407C196.726 104.909 194.726 103.599 192.659 102.434C188.491 100.172 183.995 98.6345 179.424 97.8506C174.853 97.0633 170.182 96.8858 165.645 97.7065C170.216 97.8874 174.709 98.5776 179.078 99.6697C183.438 100.802 187.685 102.373 191.63 104.564C195.597 106.705 199.24 109.479 202.483 112.752ZM194.984 179.603C192.042 179.127 189.117 178.498 186.153 177.724C188.767 179.412 191.665 180.581 194.638 181.426C197.62 182.256 200.715 182.675 203.833 182.628C205.4 182.568 206.954 182.4 208.495 182.092C210.027 181.734 211.547 181.271 212.987 180.591C215.872 179.271 218.43 177.164 220.229 174.521C217.772 176.451 215.155 177.925 212.374 178.853C209.59 179.757 206.696 180.199 203.779 180.246C200.86 180.33 197.922 180.032 194.984 179.603ZM218.15 168.856C216.621 169.844 215.268 170.833 213.749 171.499C212.251 172.189 210.741 172.772 209.156 173.154C207.58 173.546 205.956 173.854 204.305 174.059C202.65 174.246 200.961 174.39 199.196 174.521C200.794 175.365 202.559 175.761 204.327 175.915C206.104 176.055 207.913 175.925 209.678 175.472C211.446 175.057 213.132 174.199 214.62 173.104C216.127 172.045 217.313 170.497 218.15 168.856ZM5.46802 19.073C8.28357 19.1199 10.9764 19.666 13.5938 20.4398C16.1985 21.2506 18.6995 22.3326 21.1029 23.6425L22.8929 24.6643C23.4938 24.9993 24.0443 25.4382 24.6231 25.7967C25.8185 26.5002 26.8818 27.4147 28.0332 28.2121C28.6152 28.594 29.128 29.0931 29.688 29.5354L31.3395 30.8654C32.4154 31.7967 33.463 32.7716 34.627 33.6627C33.8436 32.4131 32.9942 31.2104 32.1134 30.0345C31.1413 28.9491 30.2133 27.7833 29.1406 26.7849C27.0392 24.738 24.6797 22.9759 22.1316 21.5487C19.5615 20.1919 16.8246 19.1199 13.9744 18.6542C11.1463 18.1685 8.18289 18.1316 5.46802 19.073ZM93.7375 75.3915C90.8433 74.3329 87.7698 73.5959 84.6523 73.559C83.0857 73.415 81.5348 73.6294 79.9681 73.7265C79.1848 73.8069 78.4267 73.9878 77.6559 74.1185C76.8852 74.2357 76.1239 74.4267 75.3626 74.6411C73.8431 75.0465 72.3677 75.6059 70.9144 76.1889L68.7815 77.214C68.0768 77.5691 67.4067 77.9845 66.7241 78.3798C64.0312 80.0214 61.5177 82.0448 59.5043 84.5306C62.1217 82.8053 64.7799 81.3179 67.5168 80.0348C70.2569 78.7584 73.063 77.6897 75.9352 76.9393C78.7947 76.1285 81.7235 75.6059 84.6964 75.4049C87.6566 75.1068 90.6514 75.3078 93.7375 75.3915ZM98.5098 86.008C100.511 86.6613 102.367 87.6629 104.389 88.601C102.936 86.8757 101.203 85.3279 99.1924 84.2927C98.2298 83.6763 97.1476 83.3547 96.1064 82.9025C95.0336 82.5909 93.9514 82.2592 92.8315 82.1286C90.62 81.7835 88.3613 81.807 86.1718 82.1989C83.9917 82.5909 81.8462 83.3045 79.9681 84.5306C82.1356 84.2458 84.237 84.0783 86.329 84.0448C88.4179 84.008 90.4753 84.1621 92.5075 84.4837C93.5362 84.5909 94.5208 84.8757 95.537 85.08C96.531 85.3782 97.5377 85.6261 98.5098 86.008ZM9.88165 217.989C11.895 221.081 14.3299 223.868 17.0794 226.26C19.8855 228.555 22.8457 230.685 26.1111 232.116C27.6746 232.97 29.3954 233.446 31.0407 234.079C32.7268 234.592 34.4476 234.96 36.159 235.292C34.5923 234.448 32.9848 233.794 31.4402 232.984L29.15 231.744L28.0112 231.138L26.9039 230.448C26.1678 229.985 25.441 229.533 24.6923 229.104L22.5783 227.603L21.5182 226.866L20.4989 226.056C19.8289 225.509 19.1367 224.997 18.4981 224.414L16.5666 222.675C15.928 222.082 15.3586 221.426 14.7326 220.819C13.5151 219.57 12.3763 218.236 11.2784 216.856C9.1015 214.082 7.11017 211.121 5.48062 207.848C6.23877 211.499 7.88089 214.903 9.88165 217.989ZM52.5992 123.807C54.2067 123.261 55.8615 122.795 57.6263 122.39C55.8961 121.807 54.0274 121.75 52.2185 121.998C50.3971 122.259 48.5977 122.869 46.965 123.867C46.1376 124.343 45.4015 124.973 44.6748 125.606C44.3382 125.951 44.0267 126.33 43.7027 126.688C43.3661 127.033 43.0987 127.449 42.8408 127.867C41.724 129.462 41.142 131.402 40.884 133.281C42.0134 131.747 42.954 130.259 44.1809 129.057C45.3448 127.807 46.6535 126.772 48.0723 125.928C49.4911 125.07 51.0011 124.367 52.5992 123.807Z" fill="#89490B"/>
</g>
</svg>
