<svg xmlns="http://www.w3.org/2000/svg" xmlns:xlink="http://www.w3.org/1999/xlink" width="1080" zoomAndPan="magnify" viewBox="0 0 810 809.999993" height="1080" preserveAspectRatio="xMidYMid meet" version="1.0"><defs><filter x="0%" y="0%" width="100%" height="100%" id="78992f8b16"><feColorMatrix values="0 0 0 0 1 0 0 0 0 1 0 0 0 0 1 0 0 0 1 0" color-interpolation-filters="sRGB"/></filter><mask id="b1d32caac6"><g filter="url(#78992f8b16)"><rect x="-81" width="972" fill="#000000" y="-80.999999" height="971.999992" fill-opacity="0.45"/></g></mask><clipPath id="b68999fedf"><path d="M 2.574219 0.0390625 L 699.324219 0.0390625 L 699.324219 187.960938 L 2.574219 187.960938 Z M 2.574219 0.0390625 " clip-rule="nonzero"/></clipPath><clipPath id="dddce6c71d"><rect x="0" width="702" y="0" height="188"/></clipPath></defs><g mask="url(#b1d32caac6)"><g transform="matrix(1, 0, 0, 1, 54, 311)"><g clip-path="url(#dddce6c71d)"><g clip-path="url(#b68999fedf)"><path fill="#fcd295" d="M 666.613281 122.449219 C 661.253906 122.449219 656.191406 123.753906 651.722656 126.019531 C 646.660156 108.085938 630.191406 94.9375 610.648438 94.9375 C 607.167969 94.9375 603.777344 95.371094 600.523438 96.148438 C 595.371094 70.5625 572.761719 51.296875 545.660156 51.296875 C 522.042969 51.296875 501.863281 65.933594 493.640625 86.644531 C 482.527344 74.273438 466.402344 66.484375 448.464844 66.484375 C 445.441406 66.484375 442.488281 66.714844 439.601562 67.125 C 436.09375 29.511719 404.460938 0.078125 365.953125 0.078125 C 342.015625 0.078125 320.734375 11.460938 307.195312 29.101562 C 301.765625 27.496094 296.015625 26.625 290.0625 26.625 C 263.144531 26.625 240.328125 44.148438 232.378906 68.433594 C 227.476562 67.148438 222.324219 66.460938 217.03125 66.460938 C 210.25 66.460938 203.746094 67.585938 197.652344 69.644531 C 187.414062 58.375 172.660156 51.296875 156.234375 51.296875 C 129.136719 51.296875 106.527344 70.5625 101.371094 96.148438 C 98.121094 95.371094 94.753906 94.9375 91.246094 94.9375 C 71.683594 94.9375 55.214844 108.085938 50.175781 126.019531 C 45.707031 123.730469 40.644531 122.449219 35.285156 122.449219 C 17.210938 122.449219 2.550781 137.109375 2.550781 155.183594 C 2.550781 173.257812 17.210938 187.917969 35.285156 187.917969 L 666.613281 187.917969 C 684.6875 187.917969 699.347656 173.257812 699.347656 155.183594 C 699.347656 137.109375 684.6875 122.449219 666.613281 122.449219 Z M 666.613281 122.449219 " fill-opacity="1" fill-rule="nonzero"/></g></g></g></g></svg>