<svg width="366" height="373" viewBox="0 0 366 373" fill="none" xmlns="http://www.w3.org/2000/svg">
<path d="M293.085 329.578H238.443L256.637 213.798H274.889L293.085 329.578Z" fill="#603813"/>
<path d="M256.265 203.738C252.151 206.456 241.743 217.26 241.743 217.26C241.743 217.26 247.192 226.498 248.822 227.095C250.165 227.587 261.14 227.626 264.944 227.626V227.722C264.944 227.722 280.751 227.788 282.377 227.193C284.005 226.596 289.458 217.356 289.458 217.356C289.458 217.356 279.048 206.547 274.936 203.836C272.623 202.312 265.001 200.018 265.001 200.018L256.261 203.736L256.265 203.738Z" fill="#9C2525"/>
<path d="M274.613 203.841C273.432 203.399 265.368 199.25 265.368 199.25C265.368 199.25 257.772 203.298 256.59 203.738C252.875 205.129 242.176 217.022 242.176 217.022C242.176 217.022 248.703 220.198 250.927 220.73C253.951 221.456 261.829 221.421 264.948 221.374V221.451C264.948 221.451 276.473 221.748 280.276 220.831C282.501 220.297 289.03 217.122 289.03 217.122C289.03 217.122 278.328 205.232 274.613 203.841Z" fill="#C44141"/>
<path d="M280.511 227.736V226.119L250.688 226.016V227.633H250.66V229.045H252.071V227.893L279.13 227.994V229.143H280.537V227.736H280.511Z" fill="#E47A4B"/>
<path d="M278.693 233.241C276.895 232.725 271.917 237.41 271.917 237.41L266.697 237.562V237.518L259.276 237.3C259.276 237.3 254.298 232.618 252.5 233.133C246.859 234.753 230.11 247.175 230.11 247.175C230.11 247.175 237.737 258.21 240.208 258.903C242.22 259.468 258.501 259.524 264.493 259.524V259.629C264.493 259.629 288.504 259.706 290.976 259.013C293.449 258.321 301.076 247.285 301.076 247.285C301.076 247.285 284.33 234.863 278.686 233.241H278.693Z" fill="#9C2525"/>
<path d="M278.693 233.241C276.895 232.725 271.917 237.41 271.917 237.41L266.697 237.562V237.518L259.276 237.3C259.276 237.3 254.298 232.618 252.5 233.133C246.859 234.753 230.11 247.175 230.11 247.175C230.11 247.175 240.029 250.878 243.404 251.496C247.93 252.332 259.621 252.299 264.493 252.248V252.325C264.493 252.325 281.999 252.664 287.782 251.602C291.157 250.984 301.074 247.28 301.074 247.28C301.074 247.28 284.33 234.858 278.686 233.238L278.693 233.241Z" fill="#C44141"/>
<path d="M243.009 258.22V261.844H245.153V260.465L286.043 260.575V261.954H288.186V258.33L243.009 258.22Z" fill="#E47A4B"/>
<path d="M284.495 273.751C281.9 273.102 274.717 278.969 274.717 278.969L267.19 279.163V279.112L256.484 278.836C256.484 278.836 249.301 272.973 246.706 273.617C238.567 275.645 214.401 291.201 214.401 291.201C214.401 291.201 225.403 305.016 228.972 305.884C231.877 306.594 255.366 306.659 264.009 306.659V306.793C264.009 306.793 298.657 306.891 302.222 306.018C305.794 305.152 316.795 291.335 316.795 291.335C316.795 291.335 292.634 275.778 284.491 273.751H284.495Z" fill="#9C2525"/>
<path d="M284.495 273.751C281.9 273.102 274.717 278.969 274.717 278.969L267.19 279.163V279.112L256.484 278.836C256.484 278.836 249.301 272.973 246.706 273.617C238.567 275.645 214.401 291.201 214.401 291.201C214.401 291.201 228.714 295.834 233.584 296.609C240.12 297.651 256.988 297.613 264.009 297.55V297.646C264.009 297.646 289.273 298.077 297.615 296.742C302.487 295.963 316.798 291.335 316.798 291.335C316.798 291.335 292.636 275.778 284.495 273.751Z" fill="#C44141"/>
<path d="M233.008 305.025V309.567H236.098V307.839L295.101 307.977V309.7H298.193V305.158L233.008 305.025Z" fill="#E47A4B"/>
<path d="M315.841 327.457V322.183H310.224V316.875H216.789V322.183H211.168V327.457H206.346V332.76H320.526V327.457H315.841Z" fill="#E47A4B"/>
<path d="M116.853 14.0264H120.604L139.667 238.892H97.7876L116.853 14.0264Z" fill="#603813"/>
<path d="M118.625 268.123V268.087H83.5945V322.986H118.587V323.021H153.611V268.123H118.625Z" fill="#603813"/>
<path d="M83.2498 265.955H88.5706V297.852H83.2498V265.955Z" fill="#FFB27D"/>
<path d="M63.0046 322.19H174.609V340.853H63.0046V322.19Z" fill="#E47A4B"/>
<path d="M99.071 267.54V267.682H95.4619C95.4619 270.037 96.9992 272.011 99.071 272.542V293.348C97.0853 293.94 95.6232 295.871 95.6232 298.17H99.071V300.378H102.916V267.544H99.071V267.54Z" fill="#FFB27D"/>
<mask id="mask0_217_179" style="mask-type:luminance" maskUnits="userSpaceOnUse" x="117" y="0" width="3" height="12">
<path d="M117.41 0.553223H119.672V11.1232H117.41V0.553223Z" fill="white"/>
</mask>
<g mask="url(#mask0_217_179)">
<path d="M119.305 10.5356H117.748V2.73043L118.474 0.553223L119.305 2.73043V10.5356Z" fill="#603813"/>
</g>
<path d="M120.604 6.49747C120.604 6.73626 120.551 6.96334 120.445 7.18341C120.339 7.40347 120.191 7.59778 119.996 7.76399C119.8 7.93255 119.577 8.06365 119.323 8.15261C119.069 8.24391 118.804 8.29074 118.53 8.29074C118.254 8.29074 117.989 8.24391 117.735 8.15261C117.481 8.06365 117.258 7.93255 117.063 7.76399C116.869 7.59778 116.719 7.40347 116.613 7.18341C116.507 6.96334 116.456 6.73626 116.456 6.49747C116.456 6.26102 116.507 6.03159 116.613 5.81153C116.719 5.59381 116.869 5.3995 117.063 5.23094C117.258 5.06239 117.481 4.93363 117.735 4.84233C117.989 4.75102 118.254 4.70654 118.53 4.70654C118.804 4.70654 119.069 4.75102 119.323 4.84233C119.577 4.93363 119.8 5.06239 119.996 5.23094C120.191 5.3995 120.339 5.59381 120.445 5.81153C120.551 6.03159 120.604 6.26102 120.604 6.49747Z" fill="#9C2525"/>
<path d="M118.808 268.221V268.184H102.315V306.039H118.402V306.074H134.896V268.221H118.808Z" fill="#603813"/>
<path d="M153.951 297.889H148.641V265.992H153.951V297.889Z" fill="#FFB27D"/>
<path d="M138.141 293.39V272.582C140.21 272.048 141.748 270.077 141.748 267.722H138.141V267.579H134.295V300.415H138.141V298.205H141.589C141.589 295.911 140.131 293.982 138.141 293.385V293.39Z" fill="#FFB27D"/>
<path d="M115.172 11.2334C113.662 12.2307 109.834 16.2035 109.834 16.2035C109.834 16.2035 111.84 19.6004 112.436 19.8205C112.931 20.0031 116.964 20.0148 118.364 20.0148V20.0499C118.364 20.0499 124.173 20.0757 124.774 19.8556C125.37 19.6379 127.376 16.241 127.376 16.241C127.376 16.241 123.55 12.2682 122.037 11.2685C121.189 10.7113 118.386 9.86621 118.386 9.86621L115.177 11.2334H115.172Z" fill="#9C2525"/>
<path d="M121.92 11.2686C121.483 11.1071 118.521 9.58301 118.521 9.58301C118.521 9.58301 115.727 11.0719 115.296 11.2335C113.929 11.7438 109.995 16.1146 109.995 16.1146C109.995 16.1146 112.394 17.2828 113.213 17.4771C114.324 17.744 117.22 17.7323 118.368 17.7112V17.7393C118.368 17.7393 122.605 17.8494 124.005 17.5122C124.82 17.3179 127.223 16.1521 127.223 16.1521C127.223 16.1521 123.289 11.7813 121.922 11.2709L121.92 11.2686Z" fill="#C44141"/>
<path d="M124.085 20.0545V19.4598L113.125 19.4224V20.0193H113.114V20.5344H113.631V20.1106L123.577 20.1481V20.5695H124.096V20.0545H124.085Z" fill="#E47A4B"/>
<path d="M122.512 21.5106C121.977 21.335 120.491 22.9293 120.491 22.9293L118.934 22.9831V22.9667L116.718 22.8918C116.718 22.8918 115.234 21.2999 114.697 21.4731C113.014 22.0256 108.016 26.2583 108.016 26.2583C108.016 26.2583 110.293 30.0157 111.033 30.2522C111.634 30.4418 116.493 30.4629 118.28 30.4629V30.498C118.28 30.498 125.447 30.5238 126.185 30.2873C126.925 30.0532 129.202 26.2934 129.202 26.2934C129.202 26.2934 124.204 22.0608 122.521 21.5106H122.512Z" fill="#9C2525"/>
<path d="M122.512 21.5106C121.977 21.335 120.489 22.9293 120.489 22.9293L118.929 22.9831V22.9667L116.714 22.8918C116.714 22.8918 115.23 21.2999 114.695 21.4731C113.01 22.0256 108.014 26.2583 108.014 26.2583C108.014 26.2583 110.976 27.5178 111.981 27.7285C113.333 28.0141 116.822 28.0048 118.276 27.986V28.0141C118.276 28.0141 123.504 28.1312 125.229 27.766C126.236 27.5553 129.198 26.2934 129.198 26.2934C129.198 26.2934 124.199 22.0608 122.516 21.5106H122.512Z" fill="#C44141"/>
<path d="M111.864 30.0161V31.2499H112.502V30.7816L124.71 30.8191V31.285H125.348V30.0536L111.864 30.0161Z" fill="#E47A4B"/>
<path d="M123.27 32.2424C122.627 32.0528 120.844 33.7828 120.844 33.7828L119.018 33.839V33.8273L116.363 33.7454C116.363 33.7454 114.581 32.0153 113.938 32.205C111.917 32.8066 105.92 37.3998 105.92 37.3998C105.92 37.3998 108.648 41.4827 109.536 41.7378C110.251 41.9438 116.007 41.9649 118.185 41.9673V42.0047C118.185 42.0047 126.779 42.0328 127.667 41.7776C128.551 41.5225 131.283 37.4396 131.283 37.4396C131.283 37.4396 125.286 32.8464 123.265 32.2471L123.27 32.2424Z" fill="#9C2525"/>
<path d="M123.27 32.2424C122.627 32.0528 120.844 33.7828 120.844 33.7828L119.018 33.839V33.8273L116.363 33.7454C116.363 33.7454 114.581 32.0153 113.938 32.205C111.917 32.8066 105.92 37.3998 105.92 37.3998C105.92 37.3998 109.472 38.7693 110.68 38.9964C112.283 39.3008 116.412 39.2914 118.185 39.2774V39.3008C118.185 39.3008 124.451 39.4272 126.523 39.0339C127.731 38.8021 131.283 37.4349 131.283 37.4349C131.283 37.4349 125.286 32.8417 123.265 32.2424H123.27Z" fill="#C44141"/>
<path d="M126.653 42.2249V41.5062L110.554 41.4688V42.1875H110.539V42.8125H111.307V42.2998L125.902 42.3373V42.8476H126.669V42.2249H126.653Z" fill="#E47A4B"/>
<path d="M124.277 44.0109C123.53 43.7838 121.463 45.8486 121.463 45.8486L118.823 45.9282V45.9048L115.742 45.8065C115.742 45.8065 113.677 43.744 112.931 43.9711C110.589 44.6851 103.638 50.1586 103.638 50.1586C103.638 50.1586 106.804 55.0186 107.828 55.323C108.725 55.5899 116.451 55.5992 118.384 55.5945V55.6297C118.384 55.6297 128.347 55.6624 129.374 55.3581C130.399 55.0561 133.564 50.1937 133.564 50.1937C133.564 50.1937 126.614 44.7249 124.272 44.0109H124.277Z" fill="#9C2525"/>
<path d="M124.277 44.0109C123.53 43.7838 121.463 45.8486 121.463 45.8486L118.823 45.9282V45.9048L115.742 45.8065C115.742 45.8065 113.677 43.744 112.931 43.9711C110.589 44.6851 103.638 50.1539 103.638 50.1539C103.638 50.1539 107.753 51.7833 109.154 52.0548C111.201 52.4552 116.78 52.4036 118.379 52.3802V52.4083C118.379 52.4083 125.642 52.5582 128.043 52.0923C129.443 51.8207 133.556 50.189 133.556 50.189C133.556 50.189 126.607 44.7202 124.266 44.0062L124.277 44.0109Z" fill="#C44141"/>
<path d="M128.199 55.6437V54.8126L109.012 54.7705V55.6063H108.992V56.332H109.885V55.7397L127.327 55.7772V56.3718H128.215V55.6437H128.199Z" fill="#E47A4B"/>
<path d="M125.494 57.4908C124.571 57.1958 122.015 59.8717 122.015 59.8717L119 59.9723V59.9606L115.192 59.8342C115.192 59.8342 112.635 57.1584 111.714 57.4557C108.816 58.3804 100.222 65.4832 100.222 65.4832C100.222 65.4832 104.138 71.7901 105.408 72.1834C106.483 72.5205 115.468 72.5416 118.207 72.5369V72.5744C118.207 72.5744 130.532 72.6189 131.8 72.2209C133.07 71.8229 136.984 65.5184 136.984 65.5184C136.984 65.5184 128.389 58.4202 125.494 57.4908Z" fill="#9C2525"/>
<path d="M125.494 57.4908C124.571 57.1958 122.015 59.8717 122.015 59.8717L119 59.9723V59.9606L115.192 59.8342C115.192 59.8342 112.635 57.1584 111.714 57.4557C108.816 58.3804 100.222 65.4832 100.222 65.4832C100.222 65.4832 105.311 67.5996 107.044 67.9507C109.478 68.4494 115.95 68.4096 118.207 68.3768V68.4026C118.207 68.4026 127.192 68.5969 130.161 67.9882C131.895 67.63 136.984 65.5184 136.984 65.5184C136.984 65.5184 128.389 58.4202 125.494 57.4908Z" fill="#C44141"/>
<path d="M106.841 71.4692V73.4966H107.941V72.7264L129.271 72.7639V73.5341H130.368V71.5067L106.841 71.4692Z" fill="#E47A4B"/>
<path d="M127.199 75.1424C126.064 74.7819 122.914 78.0594 122.914 78.0594L118.985 78.1882V78.1765L114.293 78.022C114.293 78.022 111.148 74.7468 110.006 75.1073C106.441 76.2427 95.8528 84.9305 95.8528 84.9305C95.8528 84.9305 100.674 92.649 102.238 93.136C103.594 93.5574 115.139 93.5737 118.223 93.5691V93.6065C118.223 93.6065 133.408 93.658 134.967 93.1734C136.533 92.6865 141.355 84.9679 141.355 84.9679C141.355 84.9679 130.766 76.2755 127.197 75.1424H127.199Z" fill="#9C2525"/>
<path d="M127.199 75.1424C126.064 74.7819 122.914 78.0594 122.914 78.0594L118.985 78.1882V78.1765L114.293 78.022C114.293 78.022 111.148 74.7468 110.006 75.1073C106.441 76.2427 95.8528 84.9305 95.8528 84.9305C95.8528 84.9305 102.123 87.5174 104.259 87.9552C107.336 88.5826 115.663 88.51 118.227 88.4725V88.4983C118.227 88.4983 129.297 88.7371 132.95 87.9903C135.086 87.5572 141.359 84.9679 141.359 84.9679C141.359 84.9679 130.77 76.2755 127.203 75.1424H127.199Z" fill="#C44141"/>
<path d="M133.178 93.8291V92.4877H119.069V92.4502H104.034V93.7893H104.007V94.9575H105.361V94.0047H118.143V94.0398H131.848V94.9926H133.204V93.8291H133.178Z" fill="#E47A4B"/>
<path d="M129.388 96.7484C127.976 96.3481 124.069 99.9791 124.069 99.9791L118.969 100.129V100.113L113.145 99.944C113.145 99.944 109.238 96.3107 107.826 96.711C103.398 97.9681 90.2493 107.602 90.2493 107.602C90.2493 107.602 96.2349 116.156 98.1786 116.694C99.8925 117.17 114.779 117.177 118.245 117.174V117.209C118.245 117.209 137.096 117.27 139.035 116.732C140.977 116.193 146.965 107.639 146.965 107.639C146.965 107.639 133.821 98.0056 129.388 96.7484Z" fill="#9C2525"/>
<path d="M129.388 96.7484C127.976 96.3481 124.069 99.9791 124.069 99.9791L118.969 100.129V100.113L113.145 99.944C113.145 99.944 109.238 96.3107 107.826 96.711C103.398 97.9681 90.2493 107.602 90.2493 107.602C90.2493 107.602 98.0372 110.472 100.685 110.949C104.604 111.663 115.369 111.563 118.245 111.523V111.546C118.245 111.546 131.992 111.813 136.529 110.987C139.177 110.505 146.965 107.639 146.965 107.639C146.965 107.639 133.821 98.0056 129.388 96.7484Z" fill="#C44141"/>
<path d="M136.805 117.324V115.847H119.069V115.812H100.403V117.287H100.367V118.572H102.05V117.523H118.143V117.558H135.159V118.61H136.84V117.324H136.805Z" fill="#E47A4B"/>
<path d="M132.849 120.709C131.005 120.278 125.891 124.188 125.891 124.188L118.934 124.354V124.333L111.321 124.151C111.321 124.151 106.212 120.239 104.363 120.672C98.5696 122.027 81.3792 132.396 81.3792 132.396C81.3792 132.396 89.2091 141.613 91.7469 142.191C94.0373 142.715 114.342 142.715 118.271 142.706V142.743C118.271 142.743 142.921 142.809 145.461 142.228C147.999 141.648 155.826 132.433 155.826 132.433C155.826 132.433 138.638 122.058 132.845 120.709H132.849Z" fill="#9C2525"/>
<path d="M132.849 120.709C131.005 120.278 125.891 124.188 125.891 124.188L118.934 124.354V124.333L111.321 124.151C111.321 124.151 106.212 120.239 104.363 120.672C98.5696 122.027 81.3792 132.396 81.3792 132.396C81.3792 132.396 91.5636 135.486 95.0246 136.006C100.288 136.792 115 136.659 118.271 136.617V136.645C118.271 136.645 136.246 136.933 142.181 136.041C145.648 135.523 155.826 132.433 155.826 132.433C155.826 132.433 138.638 122.058 132.845 120.704L132.849 120.709Z" fill="#C44141"/>
<path d="M142.55 142.699V141.121H119.069V141.086H94.6623V142.661H94.616V144.036H96.8159V142.914H118.143V142.954H140.394V144.073H142.594V142.699H142.55Z" fill="#E47A4B"/>
<path d="M137.098 146.168C134.72 145.637 128.133 150.462 128.133 150.462L118.901 150.677V150.654L109.081 150.427C109.081 150.427 102.494 145.597 100.116 146.133C92.6501 147.803 70.49 160.611 70.49 160.611C70.49 160.611 80.5794 171.981 83.8527 172.7C86.8632 173.355 113.986 173.344 118.315 173.337V173.372C118.315 173.372 150.088 173.454 153.363 172.735C156.639 172.019 166.726 160.646 166.726 160.646C166.726 160.646 144.566 147.84 137.098 146.168Z" fill="#9C2525"/>
<path d="M137.098 146.169C134.72 145.626 128.133 150.54 128.133 150.54L118.901 150.76V150.734L109.081 150.502C109.081 150.502 102.494 145.591 100.116 146.134C92.6501 147.831 70.49 160.861 70.49 160.861C70.49 160.861 83.6142 164.741 88.0802 165.394C95.0112 166.403 114.675 166.206 118.315 166.162V166.19C118.315 166.19 141.485 166.55 149.134 165.431C153.6 164.778 166.726 160.899 166.726 160.899C166.726 160.899 144.566 147.868 137.098 146.169Z" fill="#C44141"/>
<path d="M149.604 173.203V171.265H118.945V171.225H87.6055V173.166H87.5481V174.851H90.3841V173.475H118.265V173.51H146.828V174.889H149.662V173.203H149.604Z" fill="#E47A4B"/>
<path d="M144.217 177.41C140.946 176.734 131.884 182.888 131.884 182.888L118.835 183.167V183.139L105.33 182.851C105.33 182.851 96.2703 176.696 92.997 177.375C82.7264 179.503 52.2483 195.832 52.2483 195.832C52.2483 195.832 66.1257 210.335 70.6315 211.248C74.8634 212.107 113.741 212.065 118.384 212.058V212.093C118.384 212.093 162.088 212.196 166.591 211.283C171.091 210.37 184.975 195.87 184.975 195.87C184.975 195.87 154.492 179.543 144.224 177.41H144.217Z" fill="#9C2525"/>
<path d="M144.217 177.41C140.946 176.734 131.884 182.888 131.884 182.888L118.835 183.167V183.139L105.33 182.851C105.33 182.851 96.2703 176.696 92.997 177.375C82.7264 179.503 52.2483 195.832 52.2483 195.832C52.2483 195.832 70.3024 200.695 76.4426 201.514C86.2272 202.813 114.468 202.514 118.38 202.467V202.497C118.38 202.497 150.247 202.949 160.772 201.549C166.916 200.734 184.968 195.87 184.968 195.87C184.968 195.87 154.483 179.543 144.217 177.41Z" fill="#C44141"/>
<path d="M161.419 211.688V209.228H119.069V209.193H75.7931V211.653H75.7114V213.788H79.612V212.047H118.143V212.082H157.6V213.831H161.498V211.688H161.419Z" fill="#E47A4B"/>
<path d="M153.233 216.502C148.814 215.549 136.575 224.202 136.575 224.202L118.877 224.592V224.569L100.635 224.164C100.635 224.164 88.3984 215.509 83.9788 216.464C70.1058 219.461 28.9353 242.415 28.9353 242.415C28.9353 242.415 47.6851 262.808 53.7657 264.089C59.5062 265.302 112.434 267.507 118.338 267.75V267.811C118.338 267.811 177.37 265.412 183.451 264.126C189.531 262.841 208.283 242.453 208.283 242.453C208.283 242.453 167.113 219.494 153.24 216.497L153.233 216.502Z" fill="#9C2525"/>
<path d="M153.233 216.502C148.814 215.549 136.575 224.202 136.575 224.202L118.877 224.592V224.569L100.635 224.164C100.635 224.164 88.3984 215.509 83.9788 216.464C70.1058 219.461 28.9353 242.415 28.9353 242.415C28.9353 242.415 53.3196 249.256 61.6199 250.403C74.8965 252.238 113.333 251.81 118.333 251.744V251.772C118.333 251.772 161.379 252.404 175.592 250.438C183.892 249.291 208.274 242.453 208.274 242.453C208.274 242.453 167.104 219.494 153.233 216.502Z" fill="#C44141"/>
<path d="M118.865 261.921V261.883H48.7585V265.018H118.344V265.053H188.449V261.921H118.865Z" fill="#603813"/>
<path d="M118.786 265.053V265.018H51.4199V268.183H51.4972L51.7336 270.082L55.029 269.939L55.5966 268.183H73.8981V317.531H77.136V268.183H118.421V268.221H160.073V317.568H163.307V268.221H181.611L182.181 269.976L185.472 270.117L185.712 268.221H185.79V265.053H118.786Z" fill="#E47A4B"/>
<path d="M83.0974 296.969H154.139V311.835H83.0974V296.969Z" fill="#E47A4B"/>
<path d="M174.203 340.888H62.5984V322.227H174.203V340.888Z" fill="#E47A4B"/>
<path d="M167.532 322.445H70.0374V316.004H167.532V322.445Z" fill="#FFB27D"/>
<path d="M21.8408 335.635H345.151V371.57H21.8408V335.635Z" fill="#FFB27D"/>
<path d="M21.5913 326.361H345.396V335.634H21.5913V326.361Z" fill="#603813"/>
<path d="M326.423 354.761H40.5687L37.768 350.018C37.0855 348.866 37.1164 347.335 37.8409 346.219L40.5731 342.012H326.423L329.193 346.488C329.893 347.619 329.893 349.15 329.193 350.283L326.423 354.759V354.761Z" fill="#E47A4B"/>
<path d="M16.7785 286.38C17.1804 286.743 20.3522 289.749 20.054 294.488C19.9656 295.906 19.5879 297.124 19.1131 298.121C18.1302 300.195 15.4356 300.195 14.4527 298.121C13.9778 297.124 13.5979 295.906 13.5096 294.488C13.2114 289.756 16.3721 286.753 16.7829 286.38H16.7785Z" fill="#E47A4B"/>
<path d="M0.274884 309.553C-0.105016 308.965 10.4571 300.022 13.5184 298.903C17.2798 297.529 21.0766 299.685 24.1224 301.883C25.6266 302.97 33.1252 309.623 33.3019 309.553C27.6277 311.789 22.1213 314.024 16.4449 316.26C16.4449 316.26 0.281509 309.553 0.274884 309.553Z" fill="#FFB27D"/>
<path d="M0.274902 309.553C3.31631 317.014 10.5477 321.656 17.9535 321.143C24.573 320.692 30.6337 316.183 33.3019 309.553C28.9131 310.487 23.4797 311.257 17.2334 311.292C10.5985 311.33 4.85137 310.527 0.274902 309.553Z" fill="#E47A4B"/>
<path d="M4.74756 320.57H28.816V371.575H4.74756V320.57Z" fill="#FFB27D"/>
<path d="M349.217 286.38C348.815 286.743 345.643 289.749 345.942 294.488C346.03 295.906 346.41 297.124 346.883 298.121C347.868 300.195 350.56 300.195 351.545 298.121C352.02 297.124 352.398 295.906 352.486 294.488C352.784 289.756 349.624 286.753 349.215 286.38H349.217Z" fill="#E47A4B"/>
<path d="M365.723 309.553C366.101 308.965 355.539 300.022 352.477 298.903C348.716 297.529 344.921 299.685 341.875 301.883C340.371 302.97 332.871 309.623 332.694 309.553C338.37 311.789 343.877 314.024 349.551 316.26C349.551 316.26 365.714 309.553 365.723 309.553Z" fill="#FFB27D"/>
<path d="M365.723 309.553C362.679 317.014 355.448 321.656 348.042 321.143C341.423 320.692 335.362 316.183 332.694 309.553C337.083 310.487 342.518 311.257 348.762 311.292C355.397 311.33 361.147 310.527 365.723 309.553Z" fill="#E47A4B"/>
<path d="M361.248 371.57H337.18V320.565H361.248V371.57Z" fill="#FFB27D"/>
<mask id="mask1_217_179" style="mask-type:luminance" maskUnits="userSpaceOnUse" x="2" y="361" width="362" height="12">
<path d="M2.6272 361.124H363.938V372.729H2.6272V361.124Z" fill="white"/>
</mask>
<g mask="url(#mask1_217_179)">
<path d="M3.06665 361.138H363.921V372.729H3.06665V361.138Z" fill="#603813"/>
</g>
</svg>
