<svg xmlns="http://www.w3.org/2000/svg" xmlns:xlink="http://www.w3.org/1999/xlink" width="1080" zoomAndPan="magnify" viewBox="0 0 810 809.999993" height="1080" preserveAspectRatio="xMidYMid meet" version="1.0"><defs><clipPath id="b714768113"><path d="M 289 94.363281 L 293 94.363281 L 293 112 L 289 112 Z M 289 94.363281 " clip-rule="nonzero"/></clipPath><clipPath id="0eee051a1f"><path d="M 86 696 L 725 696 L 725 715.363281 L 86 715.363281 Z M 86 696 " clip-rule="nonzero"/></clipPath></defs><path fill="#603813" d="M 599.691406 643.363281 L 503.054688 643.363281 L 535.230469 450.175781 L 567.511719 450.175781 Z M 599.691406 643.363281 " fill-opacity="1" fill-rule="nonzero"/><path fill="#9c2525" d="M 534.574219 433.390625 C 527.296875 437.925781 508.890625 455.953125 508.890625 455.953125 C 508.890625 455.953125 518.527344 471.367188 521.410156 472.363281 C 523.785156 473.183594 543.195312 473.25 549.921875 473.25 L 549.921875 473.410156 C 549.921875 473.410156 577.878906 473.519531 580.753906 472.527344 C 583.632812 471.53125 593.277344 456.113281 593.277344 456.113281 C 593.277344 456.113281 574.867188 438.078125 567.59375 433.554688 C 563.503906 431.011719 550.023438 427.183594 550.023438 427.183594 L 534.566406 433.386719 Z M 534.574219 433.390625 " fill-opacity="1" fill-rule="nonzero"/><path fill="#c44141" d="M 567.023438 433.5625 C 564.933594 432.824219 550.671875 425.902344 550.671875 425.902344 C 550.671875 425.902344 537.238281 432.65625 535.148438 433.390625 C 528.578125 435.710938 509.65625 455.554688 509.65625 455.554688 C 509.65625 455.554688 521.199219 460.855469 525.132812 461.742188 C 530.480469 462.953125 544.414062 462.894531 549.929688 462.816406 L 549.929688 462.945312 C 549.929688 462.945312 570.3125 463.441406 577.039062 461.910156 C 580.972656 461.019531 592.519531 455.722656 592.519531 455.722656 C 592.519531 455.722656 573.59375 435.882812 567.023438 433.5625 Z M 567.023438 433.5625 " fill-opacity="1" fill-rule="nonzero"/><path fill="#e47a4b" d="M 577.453125 473.433594 L 577.453125 470.734375 L 524.710938 470.5625 L 524.710938 473.261719 L 524.660156 473.261719 L 524.660156 475.617188 L 527.15625 475.617188 L 527.15625 473.695312 L 575.011719 473.863281 L 575.011719 475.78125 L 577.5 475.78125 L 577.5 473.433594 Z M 577.453125 473.433594 " fill-opacity="1" fill-rule="nonzero"/><path fill="#9c2525" d="M 574.238281 482.617188 C 571.058594 481.757812 562.253906 489.574219 562.253906 489.574219 L 553.023438 489.828125 L 553.023438 489.753906 L 539.898438 489.390625 C 539.898438 489.390625 531.09375 481.578125 527.914062 482.4375 C 517.9375 485.140625 488.316406 505.867188 488.316406 505.867188 C 488.316406 505.867188 501.804688 524.28125 506.175781 525.4375 C 509.734375 526.378906 538.527344 526.472656 549.125 526.472656 L 549.125 526.648438 C 549.125 526.648438 591.589844 526.777344 595.960938 525.621094 C 600.335938 524.464844 613.824219 506.050781 613.824219 506.050781 C 613.824219 506.050781 584.207031 485.324219 574.226562 482.617188 Z M 574.238281 482.617188 " fill-opacity="1" fill-rule="nonzero"/><path fill="#c44141" d="M 574.238281 482.617188 C 571.058594 481.757812 562.253906 489.574219 562.253906 489.574219 L 553.023438 489.828125 L 553.023438 489.753906 L 539.898438 489.390625 C 539.898438 489.390625 531.09375 481.578125 527.914062 482.4375 C 517.9375 485.140625 488.316406 505.867188 488.316406 505.867188 C 488.316406 505.867188 505.859375 512.046875 511.828125 513.078125 C 519.832031 514.472656 540.507812 514.417969 549.125 514.332031 L 549.125 514.460938 C 549.125 514.460938 580.085938 515.027344 590.3125 513.253906 C 596.28125 512.222656 613.820312 506.042969 613.820312 506.042969 C 613.820312 506.042969 584.207031 485.316406 574.226562 482.613281 Z M 574.238281 482.617188 " fill-opacity="1" fill-rule="nonzero"/><path fill="#e47a4b" d="M 511.128906 524.296875 L 511.128906 530.34375 L 514.921875 530.34375 L 514.921875 528.042969 L 587.238281 528.226562 L 587.238281 530.527344 L 591.027344 530.527344 L 591.027344 524.480469 Z M 511.128906 524.296875 " fill-opacity="1" fill-rule="nonzero"/><path fill="#9c2525" d="M 584.5 550.210938 C 579.910156 549.128906 567.207031 558.917969 567.207031 558.917969 L 553.894531 559.242188 L 553.894531 559.15625 L 534.960938 558.695312 C 534.960938 558.695312 522.257812 548.914062 517.667969 549.988281 C 503.273438 553.371094 460.535156 579.328125 460.535156 579.328125 C 460.535156 579.328125 479.992188 602.378906 486.304688 603.828125 C 491.441406 605.011719 532.984375 605.121094 548.269531 605.121094 L 548.269531 605.34375 C 548.269531 605.34375 609.546875 605.507812 615.851562 604.050781 C 622.167969 602.605469 641.625 579.550781 641.625 579.550781 C 641.625 579.550781 598.894531 553.59375 584.492188 550.210938 Z M 584.5 550.210938 " fill-opacity="1" fill-rule="nonzero"/><path fill="#c44141" d="M 584.5 550.210938 C 579.910156 549.128906 567.207031 558.917969 567.207031 558.917969 L 553.894531 559.242188 L 553.894531 559.15625 L 534.960938 558.695312 C 534.960938 558.695312 522.257812 548.914062 517.667969 549.988281 C 503.273438 553.371094 460.535156 579.328125 460.535156 579.328125 C 460.535156 579.328125 485.847656 587.058594 494.460938 588.351562 C 506.019531 590.089844 535.851562 590.027344 548.269531 589.921875 L 548.269531 590.082031 C 548.269531 590.082031 592.949219 590.800781 607.703125 588.574219 C 616.320312 587.273438 641.628906 579.550781 641.628906 579.550781 C 641.628906 579.550781 598.898438 553.59375 584.5 550.210938 Z M 584.5 550.210938 " fill-opacity="1" fill-rule="nonzero"/><path fill="#e47a4b" d="M 493.441406 602.394531 L 493.441406 609.972656 L 498.90625 609.972656 L 498.90625 607.089844 L 603.257812 607.320312 L 603.257812 610.195312 L 608.726562 610.195312 L 608.726562 602.617188 Z M 493.441406 602.394531 " fill-opacity="1" fill-rule="nonzero"/><path fill="#e47a4b" d="M 639.9375 639.824219 L 639.9375 631.023438 L 630.003906 631.023438 L 630.003906 622.167969 L 464.757812 622.167969 L 464.757812 631.023438 L 454.816406 631.023438 L 454.816406 639.824219 L 446.289062 639.824219 L 446.289062 648.671875 L 648.222656 648.671875 L 648.222656 639.824219 Z M 639.9375 639.824219 " fill-opacity="1" fill-rule="nonzero"/><path fill="#603813" d="M 288.015625 116.84375 L 294.648438 116.84375 L 328.363281 492.046875 L 254.296875 492.046875 Z M 288.015625 116.84375 " fill-opacity="1" fill-rule="nonzero"/><path fill="#603813" d="M 291.148438 540.820312 L 291.148438 540.761719 L 229.195312 540.761719 L 229.195312 632.363281 L 291.082031 632.363281 L 291.082031 632.421875 L 353.023438 632.421875 L 353.023438 540.820312 Z M 291.148438 540.820312 " fill-opacity="1" fill-rule="nonzero"/><path fill="#ffb27d" d="M 228.585938 537.203125 L 237.996094 537.203125 L 237.996094 590.425781 L 228.585938 590.425781 Z M 228.585938 537.203125 " fill-opacity="1" fill-rule="nonzero"/><path fill="#e47a4b" d="M 192.78125 631.035156 L 390.160156 631.035156 L 390.160156 662.175781 L 192.78125 662.175781 Z M 192.78125 631.035156 " fill-opacity="1" fill-rule="nonzero"/><path fill="#ffb27d" d="M 256.566406 539.847656 L 256.566406 540.085938 L 250.183594 540.085938 C 250.183594 544.015625 252.902344 547.308594 256.566406 548.195312 L 256.566406 582.910156 C 253.054688 583.898438 250.46875 587.121094 250.46875 590.957031 L 256.566406 590.957031 L 256.566406 594.640625 L 263.367188 594.640625 L 263.367188 539.855469 L 256.566406 539.855469 Z M 256.566406 539.847656 " fill-opacity="1" fill-rule="nonzero"/><g clip-path="url(#b714768113)"><path fill="#603813" d="M 292.351562 111.019531 L 289.597656 111.019531 L 289.597656 97.996094 L 290.882812 94.363281 L 292.351562 97.996094 Z M 292.351562 111.019531 " fill-opacity="1" fill-rule="nonzero"/></g><path fill="#9c2525" d="M 294.648438 104.28125 C 294.648438 104.679688 294.554688 105.058594 294.367188 105.425781 C 294.179688 105.792969 293.917969 106.117188 293.574219 106.394531 C 293.226562 106.675781 292.832031 106.894531 292.382812 107.042969 C 291.933594 107.195312 291.464844 107.273438 290.980469 107.273438 C 290.492188 107.273438 290.023438 107.195312 289.574219 107.042969 C 289.125 106.894531 288.730469 106.675781 288.386719 106.394531 C 288.042969 106.117188 287.777344 105.792969 287.589844 105.425781 C 287.402344 105.058594 287.3125 104.679688 287.3125 104.28125 C 287.3125 103.886719 287.402344 103.503906 287.589844 103.136719 C 287.777344 102.773438 288.042969 102.449219 288.386719 102.167969 C 288.730469 101.886719 289.125 101.671875 289.574219 101.519531 C 290.023438 101.367188 290.492188 101.292969 290.980469 101.292969 C 291.464844 101.292969 291.933594 101.367188 292.382812 101.519531 C 292.832031 101.671875 293.226562 101.886719 293.574219 102.167969 C 293.917969 102.449219 294.179688 102.773438 294.367188 103.136719 C 294.554688 103.503906 294.648438 103.886719 294.648438 104.28125 Z M 294.648438 104.28125 " fill-opacity="1" fill-rule="nonzero"/><path fill="#603813" d="M 291.472656 540.984375 L 291.472656 540.921875 L 262.304688 540.921875 L 262.304688 604.085938 L 290.753906 604.085938 L 290.753906 604.144531 L 319.925781 604.144531 L 319.925781 540.984375 Z M 291.472656 540.984375 " fill-opacity="1" fill-rule="nonzero"/><path fill="#ffb27d" d="M 353.625 590.488281 L 344.234375 590.488281 L 344.234375 537.265625 L 353.625 537.265625 Z M 353.625 590.488281 " fill-opacity="1" fill-rule="nonzero"/><path fill="#ffb27d" d="M 325.664062 582.980469 L 325.664062 548.261719 C 329.324219 547.371094 332.042969 544.082031 332.042969 540.152344 L 325.664062 540.152344 L 325.664062 539.914062 L 318.863281 539.914062 L 318.863281 594.703125 L 325.664062 594.703125 L 325.664062 591.015625 L 331.761719 591.015625 C 331.761719 587.1875 329.183594 583.96875 325.664062 582.972656 Z M 325.664062 582.980469 " fill-opacity="1" fill-rule="nonzero"/><path fill="#9c2525" d="M 285.042969 112.183594 C 282.371094 113.847656 275.601562 120.476562 275.601562 120.476562 C 275.601562 120.476562 279.148438 126.144531 280.203125 126.511719 C 281.078125 126.816406 288.210938 126.835938 290.6875 126.835938 L 290.6875 126.894531 C 290.6875 126.894531 300.960938 126.9375 302.023438 126.570312 C 303.078125 126.207031 306.625 120.539062 306.625 120.539062 C 306.625 120.539062 299.859375 113.910156 297.183594 112.242188 C 295.683594 111.3125 290.726562 109.902344 290.726562 109.902344 L 285.050781 112.183594 Z M 285.042969 112.183594 " fill-opacity="1" fill-rule="nonzero"/><path fill="#c44141" d="M 296.976562 112.242188 C 296.203125 111.972656 290.964844 109.429688 290.964844 109.429688 C 290.964844 109.429688 286.023438 111.914062 285.261719 112.183594 C 282.84375 113.035156 275.886719 120.328125 275.886719 120.328125 C 275.886719 120.328125 280.128906 122.277344 281.578125 122.601562 C 283.542969 123.046875 288.664062 123.027344 290.695312 122.992188 L 290.695312 123.039062 C 290.695312 123.039062 298.1875 123.222656 300.664062 122.660156 C 302.105469 122.335938 306.355469 120.390625 306.355469 120.390625 C 306.355469 120.390625 299.398438 113.097656 296.980469 112.246094 Z M 296.976562 112.242188 " fill-opacity="1" fill-rule="nonzero"/><path fill="#e47a4b" d="M 300.804688 126.902344 L 300.804688 125.910156 L 281.421875 125.847656 L 281.421875 126.84375 L 281.402344 126.84375 L 281.402344 127.703125 L 282.316406 127.703125 L 282.316406 126.996094 L 299.90625 127.058594 L 299.90625 127.761719 L 300.824219 127.761719 L 300.824219 126.902344 Z M 300.804688 126.902344 " fill-opacity="1" fill-rule="nonzero"/><path fill="#9c2525" d="M 298.023438 129.332031 C 297.078125 129.039062 294.449219 131.699219 294.449219 131.699219 L 291.695312 131.789062 L 291.695312 131.761719 L 287.777344 131.636719 C 287.777344 131.636719 285.152344 128.980469 284.203125 129.269531 C 281.226562 130.191406 272.386719 137.253906 272.386719 137.253906 C 272.386719 137.253906 276.414062 143.523438 277.722656 143.917969 C 278.785156 144.234375 287.378906 144.269531 290.539062 144.269531 L 290.539062 144.328125 C 290.539062 144.328125 303.214844 144.371094 304.519531 143.976562 C 305.828125 143.585938 309.855469 137.3125 309.855469 137.3125 C 309.855469 137.3125 301.015625 130.25 298.039062 129.332031 Z M 298.023438 129.332031 " fill-opacity="1" fill-rule="nonzero"/><path fill="#c44141" d="M 298.023438 129.332031 C 297.078125 129.039062 294.445312 131.699219 294.445312 131.699219 L 291.6875 131.789062 L 291.6875 131.761719 L 287.769531 131.636719 C 287.769531 131.636719 285.144531 128.980469 284.199219 129.269531 C 281.21875 130.191406 272.382812 137.253906 272.382812 137.253906 C 272.382812 137.253906 277.621094 139.355469 279.398438 139.707031 C 281.789062 140.183594 287.960938 140.167969 290.53125 140.136719 L 290.53125 140.183594 C 290.53125 140.183594 299.777344 140.378906 302.828125 139.769531 C 304.609375 139.417969 309.847656 137.3125 309.847656 137.3125 C 309.847656 137.3125 301.007812 130.25 298.03125 129.332031 Z M 298.023438 129.332031 " fill-opacity="1" fill-rule="nonzero"/><path fill="#e47a4b" d="M 279.191406 143.523438 L 279.191406 145.582031 L 280.320312 145.582031 L 280.320312 144.800781 L 301.910156 144.863281 L 301.910156 145.640625 L 303.039062 145.640625 L 303.039062 143.585938 Z M 279.191406 143.523438 " fill-opacity="1" fill-rule="nonzero"/><path fill="#9c2525" d="M 299.363281 147.238281 C 298.226562 146.921875 295.074219 149.808594 295.074219 149.808594 L 291.84375 149.902344 L 291.84375 149.882812 L 287.148438 149.746094 C 287.148438 149.746094 283.996094 146.859375 282.859375 147.175781 C 279.285156 148.179688 268.679688 155.84375 268.679688 155.84375 C 268.679688 155.84375 273.503906 162.65625 275.074219 163.082031 C 276.339844 163.425781 286.519531 163.460938 290.371094 163.464844 L 290.371094 163.527344 C 290.371094 163.527344 305.570312 163.574219 307.140625 163.148438 C 308.703125 162.722656 313.535156 155.910156 313.535156 155.910156 C 313.535156 155.910156 302.929688 148.246094 299.355469 147.246094 Z M 299.363281 147.238281 " fill-opacity="1" fill-rule="nonzero"/><path fill="#c44141" d="M 299.363281 147.238281 C 298.226562 146.921875 295.074219 149.808594 295.074219 149.808594 L 291.84375 149.902344 L 291.84375 149.882812 L 287.148438 149.746094 C 287.148438 149.746094 283.996094 146.859375 282.859375 147.175781 C 279.285156 148.179688 268.679688 155.84375 268.679688 155.84375 C 268.679688 155.84375 274.960938 158.128906 277.097656 158.507812 C 279.933594 159.015625 287.234375 159 290.371094 158.976562 L 290.371094 159.015625 C 290.371094 159.015625 301.453125 159.226562 305.117188 158.570312 C 307.253906 158.183594 313.535156 155.902344 313.535156 155.902344 C 313.535156 155.902344 302.929688 148.238281 299.355469 147.238281 Z M 299.363281 147.238281 " fill-opacity="1" fill-rule="nonzero"/><path fill="#e47a4b" d="M 305.347656 163.894531 L 305.347656 162.695312 L 276.875 162.632812 L 276.875 163.832031 L 276.847656 163.832031 L 276.847656 164.875 L 278.207031 164.875 L 278.207031 164.019531 L 304.019531 164.082031 L 304.019531 164.933594 L 305.375 164.933594 L 305.375 163.894531 Z M 305.347656 163.894531 " fill-opacity="1" fill-rule="nonzero"/><path fill="#9c2525" d="M 301.144531 166.875 C 299.824219 166.496094 296.167969 169.941406 296.167969 169.941406 L 291.5 170.074219 L 291.5 170.035156 L 286.050781 169.871094 C 286.050781 169.871094 282.398438 166.429688 281.078125 166.808594 C 276.9375 168 264.644531 177.132812 264.644531 177.132812 C 264.644531 177.132812 270.242188 185.242188 272.054688 185.75 C 273.640625 186.195312 287.304688 186.210938 290.722656 186.203125 L 290.722656 186.261719 C 290.722656 186.261719 308.34375 186.316406 310.160156 185.808594 C 311.972656 185.304688 317.570312 177.191406 317.570312 177.191406 C 317.570312 177.191406 305.277344 168.066406 301.136719 166.875 Z M 301.144531 166.875 " fill-opacity="1" fill-rule="nonzero"/><path fill="#c44141" d="M 301.144531 166.875 C 299.824219 166.496094 296.167969 169.941406 296.167969 169.941406 L 291.5 170.074219 L 291.5 170.035156 L 286.050781 169.871094 C 286.050781 169.871094 282.398438 166.429688 281.078125 166.808594 C 276.9375 168 264.644531 177.125 264.644531 177.125 C 264.644531 177.125 271.921875 179.84375 274.398438 180.296875 C 278.019531 180.964844 287.886719 180.878906 290.714844 180.839844 L 290.714844 180.886719 C 290.714844 180.886719 303.558594 181.136719 307.804688 180.359375 C 310.28125 179.90625 317.554688 177.183594 317.554688 177.183594 C 317.554688 177.183594 305.265625 168.058594 301.125 166.867188 Z M 301.144531 166.875 " fill-opacity="1" fill-rule="nonzero"/><path fill="#e47a4b" d="M 308.082031 186.285156 L 308.082031 184.898438 L 274.148438 184.828125 L 274.148438 186.222656 L 274.113281 186.222656 L 274.113281 187.433594 L 275.691406 187.433594 L 275.691406 186.445312 L 306.539062 186.507812 L 306.539062 187.5 L 308.109375 187.5 L 308.109375 186.285156 Z M 308.082031 186.285156 " fill-opacity="1" fill-rule="nonzero"/><path fill="#9c2525" d="M 303.296875 189.367188 C 301.664062 188.875 297.144531 193.339844 297.144531 193.339844 L 291.8125 193.507812 L 291.8125 193.488281 L 285.078125 193.277344 C 285.078125 193.277344 280.554688 188.8125 278.925781 189.308594 C 273.800781 190.851562 258.601562 202.703125 258.601562 202.703125 C 258.601562 202.703125 265.527344 213.226562 267.773438 213.882812 C 269.675781 214.445312 285.566406 214.480469 290.410156 214.472656 L 290.410156 214.535156 C 290.410156 214.535156 312.207031 214.609375 314.449219 213.945312 C 316.695312 213.28125 323.617188 202.761719 323.617188 202.761719 C 323.617188 202.761719 308.417969 190.917969 303.296875 189.367188 Z M 303.296875 189.367188 " fill-opacity="1" fill-rule="nonzero"/><path fill="#c44141" d="M 303.296875 189.367188 C 301.664062 188.875 297.144531 193.339844 297.144531 193.339844 L 291.8125 193.507812 L 291.8125 193.488281 L 285.078125 193.277344 C 285.078125 193.277344 280.554688 188.8125 278.925781 189.308594 C 273.800781 190.851562 258.601562 202.703125 258.601562 202.703125 C 258.601562 202.703125 267.601562 206.234375 270.667969 206.820312 C 274.972656 207.652344 286.417969 207.585938 290.410156 207.53125 L 290.410156 207.574219 C 290.410156 207.574219 306.300781 207.898438 311.550781 206.882812 C 314.617188 206.285156 323.617188 202.761719 323.617188 202.761719 C 323.617188 202.761719 308.417969 190.917969 303.296875 189.367188 Z M 303.296875 189.367188 " fill-opacity="1" fill-rule="nonzero"/><path fill="#e47a4b" d="M 270.308594 212.691406 L 270.308594 216.074219 L 272.253906 216.074219 L 272.253906 214.789062 L 309.976562 214.851562 L 309.976562 216.136719 L 311.917969 216.136719 L 311.917969 212.753906 Z M 270.308594 212.691406 " fill-opacity="1" fill-rule="nonzero"/><path fill="#9c2525" d="M 306.3125 218.820312 C 304.304688 218.21875 298.734375 223.6875 298.734375 223.6875 L 291.785156 223.902344 L 291.785156 223.882812 L 283.488281 223.625 C 283.488281 223.625 277.925781 218.160156 275.90625 218.761719 C 269.601562 220.65625 250.875 235.152344 250.875 235.152344 C 250.875 235.152344 259.402344 248.03125 262.167969 248.84375 C 264.566406 249.546875 284.984375 249.574219 290.4375 249.566406 L 290.4375 249.628906 C 290.4375 249.628906 317.292969 249.714844 320.050781 248.90625 C 322.820312 248.09375 331.347656 235.214844 331.347656 235.214844 C 331.347656 235.214844 312.621094 220.710938 306.308594 218.820312 Z M 306.3125 218.820312 " fill-opacity="1" fill-rule="nonzero"/><path fill="#c44141" d="M 306.3125 218.820312 C 304.304688 218.21875 298.734375 223.6875 298.734375 223.6875 L 291.785156 223.902344 L 291.785156 223.882812 L 283.488281 223.625 C 283.488281 223.625 277.925781 218.160156 275.90625 218.761719 C 269.601562 220.65625 250.875 235.152344 250.875 235.152344 C 250.875 235.152344 261.964844 239.46875 265.742188 240.199219 C 271.183594 241.246094 285.910156 241.125 290.445312 241.0625 L 290.445312 241.105469 C 290.445312 241.105469 310.023438 241.503906 316.484375 240.257812 C 320.261719 239.535156 331.355469 235.214844 331.355469 235.214844 C 331.355469 235.214844 312.628906 220.710938 306.320312 218.820312 Z M 306.3125 218.820312 " fill-opacity="1" fill-rule="nonzero"/><path fill="#e47a4b" d="M 316.886719 250 L 316.886719 247.761719 L 291.933594 247.761719 L 291.933594 247.699219 L 265.34375 247.699219 L 265.34375 249.933594 L 265.296875 249.933594 L 265.296875 251.882812 L 267.691406 251.882812 L 267.691406 250.292969 L 290.296875 250.292969 L 290.296875 250.351562 L 314.535156 250.351562 L 314.535156 251.941406 L 316.933594 251.941406 L 316.933594 250 Z M 316.886719 250 " fill-opacity="1" fill-rule="nonzero"/><path fill="#9c2525" d="M 310.183594 254.871094 C 307.6875 254.203125 300.777344 260.261719 300.777344 260.261719 L 291.757812 260.511719 L 291.757812 260.484375 L 281.457031 260.203125 C 281.457031 260.203125 274.546875 254.140625 272.050781 254.808594 C 264.21875 256.90625 240.964844 272.980469 240.964844 272.980469 C 240.964844 272.980469 251.550781 287.253906 254.988281 288.152344 C 258.019531 288.945312 284.347656 288.957031 290.476562 288.953125 L 290.476562 289.011719 C 290.476562 289.011719 323.816406 289.113281 327.246094 288.214844 C 330.679688 287.316406 341.269531 273.042969 341.269531 273.042969 C 341.269531 273.042969 318.023438 256.96875 310.183594 254.871094 Z M 310.183594 254.871094 " fill-opacity="1" fill-rule="nonzero"/><path fill="#c44141" d="M 310.183594 254.871094 C 307.6875 254.203125 300.777344 260.261719 300.777344 260.261719 L 291.757812 260.511719 L 291.757812 260.484375 L 281.457031 260.203125 C 281.457031 260.203125 274.546875 254.140625 272.050781 254.808594 C 264.21875 256.90625 240.964844 272.980469 240.964844 272.980469 C 240.964844 272.980469 254.738281 277.769531 259.421875 278.566406 C 266.351562 279.757812 285.390625 279.589844 290.476562 279.523438 L 290.476562 279.5625 C 290.476562 279.5625 314.789062 280.007812 322.8125 278.628906 C 327.496094 277.824219 341.269531 273.042969 341.269531 273.042969 C 341.269531 273.042969 318.023438 256.96875 310.183594 254.871094 Z M 310.183594 254.871094 " fill-opacity="1" fill-rule="nonzero"/><path fill="#e47a4b" d="M 323.300781 289.203125 L 323.300781 286.738281 L 291.933594 286.738281 L 291.933594 286.679688 L 258.921875 286.679688 L 258.921875 289.140625 L 258.859375 289.140625 L 258.859375 291.285156 L 261.835938 291.285156 L 261.835938 289.535156 L 290.296875 289.535156 L 290.296875 289.59375 L 320.390625 289.59375 L 320.390625 291.347656 L 323.363281 291.347656 L 323.363281 289.203125 Z M 323.300781 289.203125 " fill-opacity="1" fill-rule="nonzero"/><path fill="#9c2525" d="M 316.304688 294.851562 C 313.042969 294.132812 304 300.65625 304 300.65625 L 291.695312 300.933594 L 291.695312 300.898438 L 278.230469 300.59375 C 278.230469 300.59375 269.195312 294.066406 265.925781 294.789062 C 255.679688 297.050781 225.277344 314.351562 225.277344 314.351562 C 225.277344 314.351562 239.125 329.730469 243.613281 330.695312 C 247.664062 331.570312 283.574219 331.570312 290.523438 331.554688 L 290.523438 331.617188 C 290.523438 331.617188 334.117188 331.726562 338.609375 330.757812 C 343.097656 329.789062 356.941406 314.414062 356.941406 314.414062 C 356.941406 314.414062 326.542969 297.101562 316.296875 294.851562 Z M 316.304688 294.851562 " fill-opacity="1" fill-rule="nonzero"/><path fill="#c44141" d="M 316.304688 294.851562 C 313.042969 294.132812 304 300.65625 304 300.65625 L 291.695312 300.933594 L 291.695312 300.898438 L 278.230469 300.59375 C 278.230469 300.59375 269.195312 294.066406 265.925781 294.789062 C 255.679688 297.050781 225.277344 314.351562 225.277344 314.351562 C 225.277344 314.351562 243.289062 319.507812 249.410156 320.375 C 258.71875 321.6875 284.738281 321.464844 290.523438 321.394531 L 290.523438 321.441406 C 290.523438 321.441406 322.3125 321.921875 332.808594 320.433594 C 338.941406 319.570312 356.941406 314.414062 356.941406 314.414062 C 356.941406 314.414062 326.542969 297.101562 316.296875 294.84375 Z M 316.304688 294.851562 " fill-opacity="1" fill-rule="nonzero"/><path fill="#e47a4b" d="M 333.460938 331.542969 L 333.460938 328.910156 L 291.933594 328.910156 L 291.933594 328.851562 L 248.769531 328.851562 L 248.769531 331.480469 L 248.6875 331.480469 L 248.6875 333.773438 L 252.578125 333.773438 L 252.578125 331.902344 L 290.296875 331.902344 L 290.296875 331.96875 L 329.648438 331.96875 L 329.648438 333.835938 L 333.539062 333.835938 L 333.539062 331.542969 Z M 333.460938 331.542969 " fill-opacity="1" fill-rule="nonzero"/><path fill="#9c2525" d="M 323.820312 337.332031 C 319.613281 336.445312 307.964844 344.496094 307.964844 344.496094 L 291.636719 344.855469 L 291.636719 344.816406 L 274.269531 344.4375 C 274.269531 344.4375 262.621094 336.378906 258.414062 337.273438 C 245.210938 340.058594 206.019531 361.429688 206.019531 361.429688 C 206.019531 361.429688 223.863281 380.402344 229.652344 381.601562 C 234.976562 382.695312 282.945312 382.675781 290.601562 382.664062 L 290.601562 382.722656 C 290.601562 382.722656 346.792969 382.859375 352.585938 381.660156 C 358.378906 380.464844 376.21875 361.488281 376.21875 361.488281 C 376.21875 361.488281 337.027344 340.121094 323.820312 337.332031 Z M 323.820312 337.332031 " fill-opacity="1" fill-rule="nonzero"/><path fill="#c44141" d="M 323.820312 337.332031 C 319.613281 336.425781 307.964844 344.625 307.964844 344.625 L 291.636719 344.992188 L 291.636719 344.949219 L 274.269531 344.5625 C 274.269531 344.5625 262.621094 336.367188 258.414062 337.273438 C 245.210938 340.105469 206.019531 361.847656 206.019531 361.847656 C 206.019531 361.847656 229.230469 368.320312 237.128906 369.410156 C 249.386719 371.09375 284.164062 370.765625 290.601562 370.691406 L 290.601562 370.738281 C 290.601562 370.738281 331.578125 371.339844 345.105469 369.472656 C 353.003906 368.382812 376.21875 361.910156 376.21875 361.910156 C 376.21875 361.910156 337.027344 340.167969 323.820312 337.332031 Z M 323.820312 337.332031 " fill-opacity="1" fill-rule="nonzero"/><path fill="#e47a4b" d="M 345.9375 382.441406 L 345.9375 379.207031 L 291.714844 379.207031 L 291.714844 379.140625 L 236.289062 379.140625 L 236.289062 382.378906 L 236.1875 382.378906 L 236.1875 385.191406 L 241.203125 385.191406 L 241.203125 382.894531 L 290.511719 382.894531 L 290.511719 382.953125 L 341.027344 382.953125 L 341.027344 385.253906 L 346.039062 385.253906 L 346.039062 382.441406 Z M 345.9375 382.441406 " fill-opacity="1" fill-rule="nonzero"/><path fill="#9c2525" d="M 336.410156 389.460938 C 330.625 388.332031 314.597656 398.601562 314.597656 398.601562 L 291.519531 399.066406 L 291.519531 399.019531 L 267.636719 398.539062 C 267.636719 398.539062 251.613281 388.269531 245.824219 389.402344 C 227.660156 392.953125 173.757812 420.199219 173.757812 420.199219 C 173.757812 420.199219 198.300781 444.398438 206.269531 445.921875 C 213.753906 447.355469 282.511719 447.285156 290.722656 447.273438 L 290.722656 447.332031 C 290.722656 447.332031 368.015625 447.503906 375.980469 445.980469 C 383.9375 444.457031 408.492188 420.261719 408.492188 420.261719 C 408.492188 420.261719 354.582031 393.019531 336.421875 389.460938 Z M 336.410156 389.460938 " fill-opacity="1" fill-rule="nonzero"/><path fill="#c44141" d="M 336.410156 389.460938 C 330.625 388.332031 314.597656 398.601562 314.597656 398.601562 L 291.519531 399.066406 L 291.519531 399.019531 L 267.636719 398.539062 C 267.636719 398.539062 251.613281 388.269531 245.824219 389.402344 C 227.660156 392.953125 173.757812 420.199219 173.757812 420.199219 C 173.757812 420.199219 205.6875 428.3125 216.546875 429.679688 C 233.851562 431.847656 283.796875 431.347656 290.714844 431.269531 L 290.714844 431.320312 C 290.714844 431.320312 347.074219 432.074219 365.6875 429.738281 C 376.554688 428.378906 408.480469 420.261719 408.480469 420.261719 C 408.480469 420.261719 354.566406 393.019531 336.410156 389.460938 Z M 336.410156 389.460938 " fill-opacity="1" fill-rule="nonzero"/><path fill="#e47a4b" d="M 366.832031 446.65625 L 366.832031 442.550781 L 291.933594 442.550781 L 291.933594 442.492188 L 215.398438 442.492188 L 215.398438 446.597656 L 215.253906 446.597656 L 215.253906 450.160156 L 222.152344 450.160156 L 222.152344 447.253906 L 290.296875 447.253906 L 290.296875 447.3125 L 360.078125 447.3125 L 360.078125 450.230469 L 366.972656 450.230469 L 366.972656 446.65625 Z M 366.832031 446.65625 " fill-opacity="1" fill-rule="nonzero"/><path fill="#9c2525" d="M 352.355469 454.6875 C 344.539062 453.097656 322.894531 467.535156 322.894531 467.535156 L 291.59375 468.1875 L 291.59375 468.148438 L 259.332031 467.472656 C 259.332031 467.472656 237.691406 453.03125 229.875 454.625 C 205.339844 459.625 132.527344 497.925781 132.527344 497.925781 C 132.527344 497.925781 165.6875 531.953125 176.441406 534.089844 C 186.59375 536.113281 280.199219 539.792969 290.640625 540.199219 L 290.640625 540.300781 C 290.640625 540.300781 395.042969 536.296875 405.796875 534.152344 C 416.550781 532.007812 449.714844 497.988281 449.714844 497.988281 C 449.714844 497.988281 376.902344 459.679688 352.367188 454.679688 Z M 352.355469 454.6875 " fill-opacity="1" fill-rule="nonzero"/><path fill="#c44141" d="M 352.355469 454.6875 C 344.539062 453.097656 322.894531 467.535156 322.894531 467.535156 L 291.59375 468.1875 L 291.59375 468.148438 L 259.332031 467.472656 C 259.332031 467.472656 237.691406 453.03125 229.875 454.625 C 205.339844 459.625 132.527344 497.925781 132.527344 497.925781 C 132.527344 497.925781 175.652344 509.339844 190.332031 511.253906 C 213.8125 514.316406 281.789062 513.601562 290.632812 513.492188 L 290.632812 513.539062 C 290.632812 513.539062 366.761719 514.59375 391.898438 511.3125 C 406.578125 509.398438 449.699219 497.988281 449.699219 497.988281 C 449.699219 497.988281 376.886719 459.679688 352.355469 454.6875 Z M 352.355469 454.6875 " fill-opacity="1" fill-rule="nonzero"/><path fill="#603813" d="M 291.574219 530.472656 L 291.574219 530.410156 L 167.585938 530.410156 L 167.585938 535.640625 L 290.652344 535.640625 L 290.652344 535.699219 L 414.636719 535.699219 L 414.636719 530.472656 Z M 291.574219 530.472656 " fill-opacity="1" fill-rule="nonzero"/><path fill="#e47a4b" d="M 291.433594 535.699219 L 291.433594 535.640625 L 172.292969 535.640625 L 172.292969 540.921875 L 172.429688 540.921875 L 172.847656 544.089844 L 178.675781 543.851562 L 179.679688 540.921875 L 212.046875 540.921875 L 212.046875 623.261719 L 217.773438 623.261719 L 217.773438 540.921875 L 290.789062 540.921875 L 290.789062 540.984375 L 364.453125 540.984375 L 364.453125 623.324219 L 370.171875 623.324219 L 370.171875 540.984375 L 402.542969 540.984375 L 403.550781 543.914062 L 409.371094 544.148438 L 409.796875 540.984375 L 409.933594 540.984375 L 409.933594 535.699219 Z M 291.433594 535.699219 " fill-opacity="1" fill-rule="nonzero"/><path fill="#e47a4b" d="M 228.316406 588.953125 L 353.957031 588.953125 L 353.957031 613.757812 L 228.316406 613.757812 Z M 228.316406 588.953125 " fill-opacity="1" fill-rule="nonzero"/><path fill="#e47a4b" d="M 389.441406 662.234375 L 192.0625 662.234375 L 192.0625 631.097656 L 389.441406 631.097656 Z M 389.441406 662.234375 " fill-opacity="1" fill-rule="nonzero"/><path fill="#ffb27d" d="M 377.644531 631.460938 L 205.21875 631.460938 L 205.21875 620.714844 L 377.644531 620.714844 Z M 377.644531 631.460938 " fill-opacity="1" fill-rule="nonzero"/><path fill="#ffb27d" d="M 119.980469 653.46875 L 691.773438 653.46875 L 691.773438 713.429688 L 119.980469 713.429688 Z M 119.980469 653.46875 " fill-opacity="1" fill-rule="nonzero"/><path fill="#603813" d="M 119.539062 637.996094 L 692.207031 637.996094 L 692.207031 653.46875 L 119.539062 653.46875 Z M 119.539062 637.996094 " fill-opacity="1" fill-rule="nonzero"/><path fill="#e47a4b" d="M 658.652344 685.382812 L 153.101562 685.382812 L 148.148438 677.46875 C 146.941406 675.546875 146.996094 672.992188 148.277344 671.128906 L 153.109375 664.109375 L 658.652344 664.109375 L 663.550781 671.578125 C 664.789062 673.464844 664.789062 676.019531 663.550781 677.910156 L 658.652344 685.378906 Z M 658.652344 685.382812 " fill-opacity="1" fill-rule="nonzero"/><path fill="#e47a4b" d="M 111.027344 571.285156 C 111.738281 571.890625 117.347656 576.90625 116.820312 584.8125 C 116.664062 587.179688 115.996094 589.210938 115.15625 590.875 C 113.417969 594.335938 108.652344 594.335938 106.914062 590.875 C 106.074219 589.210938 105.402344 587.179688 105.246094 584.8125 C 104.71875 576.917969 110.308594 571.90625 111.035156 571.285156 Z M 111.027344 571.285156 " fill-opacity="1" fill-rule="nonzero"/><path fill="#ffb27d" d="M 81.839844 609.949219 C 81.167969 608.96875 99.847656 594.046875 105.261719 592.179688 C 111.914062 589.886719 118.628906 593.484375 124.015625 597.152344 C 126.675781 598.964844 139.9375 610.066406 140.25 609.949219 C 130.214844 613.679688 120.476562 617.410156 110.4375 621.140625 C 110.4375 621.140625 81.851562 609.949219 81.839844 609.949219 Z M 81.839844 609.949219 " fill-opacity="1" fill-rule="nonzero"/><path fill="#e47a4b" d="M 81.839844 609.949219 C 87.21875 622.398438 100.007812 630.144531 113.105469 629.289062 C 124.8125 628.535156 135.53125 621.011719 140.25 609.949219 C 132.488281 611.507812 122.878906 612.792969 111.832031 612.851562 C 100.097656 612.914062 89.933594 611.574219 81.839844 609.949219 Z M 81.839844 609.949219 " fill-opacity="1" fill-rule="nonzero"/><path fill="#ffb27d" d="M 89.75 628.332031 L 132.316406 628.332031 L 132.316406 713.4375 L 89.75 713.4375 Z M 89.75 628.332031 " fill-opacity="1" fill-rule="nonzero"/><path fill="#e47a4b" d="M 698.964844 571.285156 C 698.253906 571.890625 692.644531 576.90625 693.171875 584.8125 C 693.328125 587.179688 694 589.210938 694.835938 590.875 C 696.578125 594.335938 701.339844 594.335938 703.082031 590.875 C 703.921875 589.210938 704.589844 587.179688 704.746094 584.8125 C 705.273438 576.917969 699.683594 571.90625 698.960938 571.285156 Z M 698.964844 571.285156 " fill-opacity="1" fill-rule="nonzero"/><path fill="#ffb27d" d="M 728.15625 609.949219 C 728.824219 608.96875 710.144531 594.046875 704.730469 592.179688 C 698.078125 589.886719 691.367188 593.484375 685.980469 597.152344 C 683.320312 598.964844 670.054688 610.066406 669.742188 609.949219 C 679.78125 613.679688 689.519531 617.410156 699.554688 621.140625 C 699.554688 621.140625 728.140625 609.949219 728.15625 609.949219 Z M 728.15625 609.949219 " fill-opacity="1" fill-rule="nonzero"/><path fill="#e47a4b" d="M 728.15625 609.949219 C 722.773438 622.398438 709.984375 630.144531 696.886719 629.289062 C 685.179688 628.535156 674.460938 621.011719 669.742188 609.949219 C 677.503906 611.507812 687.117188 612.792969 698.160156 612.851562 C 709.894531 612.914062 720.0625 611.574219 728.15625 609.949219 Z M 728.15625 609.949219 " fill-opacity="1" fill-rule="nonzero"/><path fill="#ffb27d" d="M 720.242188 713.429688 L 677.675781 713.429688 L 677.675781 628.324219 L 720.242188 628.324219 Z M 720.242188 713.429688 " fill-opacity="1" fill-rule="nonzero"/><g clip-path="url(#0eee051a1f)"><path fill="#603813" d="M 86.777344 696.023438 L 724.96875 696.023438 L 724.96875 715.363281 L 86.777344 715.363281 Z M 86.777344 696.023438 " fill-opacity="1" fill-rule="nonzero"/></g></svg>