<svg width="370" height="269" viewBox="0 0 370 269" fill="none" xmlns="http://www.w3.org/2000/svg">
<mask id="mask0_289_28981" style="mask-type:luminance" maskUnits="userSpaceOnUse" x="184" y="0" width="2" height="53">
<path d="M184.189 0H185.711V52.736H184.189V0Z" fill="white"/>
</mask>
<g mask="url(#mask0_289_28981)">
<path d="M185.424 52.3483H184.3V0.00195312H185.424V52.3483Z" fill="#373535"/>
</g>
<mask id="mask1_289_28981" style="mask-type:luminance" maskUnits="userSpaceOnUse" x="126" y="108" width="118" height="161">
<path d="M126.852 108.098H243.048V268.321H126.852V108.098Z" fill="white"/>
</mask>
<g mask="url(#mask1_289_28981)">
<path d="M242.578 268.191H127.145V108.261H242.578V268.191Z" fill="#E8EEF2"/>
</g>
<path d="M242.578 129.365H127.145V108.261H242.578V129.365Z" fill="#C7D0D6"/>
<path d="M242.578 124.237H127.145V113.386H242.578V124.237Z" fill="#DCE0E3"/>
<path d="M201.034 195.719H168.689V152.259H201.034V195.719Z" fill="#BCC0AE"/>
<path d="M201.034 195.719H168.689V184.93H201.034V195.719Z" fill="#A8AE98"/>
<path d="M197.195 183.347H172.528V157.965H197.195V183.347Z" fill="#858B76"/>
<path d="M203.042 152.259H166.681V147.858H203.042V152.259Z" fill="#858B76"/>
<path d="M203.042 147.859H166.681V142.36H203.042V147.859Z" fill="#BCC0AE"/>
<path d="M226.093 108.261H143.63V81.2026H226.093V108.261Z" fill="#B2BEC2"/>
<path d="M159.29 102.314H150.024V87.1494H159.29V102.314Z" fill="#7F9299"/>
<path d="M174.394 102.314H165.127V87.1494H174.394V102.314Z" fill="#7F9299"/>
<path d="M189.495 102.314H180.229V87.1494H189.495V102.314Z" fill="#7F9299"/>
<path d="M204.596 102.314H195.33V87.1494H204.596V102.314Z" fill="#7F9299"/>
<path d="M219.698 102.314H210.431V87.1494H219.698V102.314Z" fill="#7F9299"/>
<path d="M235.473 77.7605H134.249L147.745 63.5264H221.097L235.473 77.7605Z" fill="#555658"/>
<path d="M235.473 77.7607H134.249V81.2025H235.473V77.7607Z" fill="#373535"/>
<path d="M226.22 63.0738H143.505L154.531 51.4429H214.469L226.22 63.0738Z" fill="#555658"/>
<path d="M226.22 63.0737H143.505V64.6773H226.22V63.0737Z" fill="#373535"/>
<path d="M217.836 50.2595H151.885L184.861 35.1113L217.836 50.2595Z" fill="#555658"/>
<path d="M217.836 50.2593H151.885V52.3484H217.836V50.2593Z" fill="#373535"/>
<path d="M181.475 28.5724C181.475 26.6485 182.992 25.0898 184.861 25.0898C186.73 25.0898 188.246 26.6485 188.246 28.5724C188.246 30.4963 186.73 32.0549 184.861 32.0549C182.992 32.0549 181.475 30.4963 181.475 28.5724Z" fill="#373535"/>
<path d="M181.475 19.6246C181.475 17.7008 182.992 16.1421 184.861 16.1421C186.73 16.1421 188.246 17.7008 188.246 19.6246C188.246 21.5485 186.73 23.1072 184.861 23.1072C182.992 23.1072 181.475 21.5485 181.475 19.6246Z" fill="#373535"/>
<path d="M164.796 210.106H0.0375977L19.5113 185.877H145.323L164.796 210.106Z" fill="#555658"/>
<path d="M164.796 215.09H0.0375977V210.105H164.796V215.09Z" fill="#373535"/>
<mask id="mask2_289_28981" style="mask-type:luminance" maskUnits="userSpaceOnUse" x="0" y="214" width="165" height="55">
<path d="M0 214.643H164.907V268.322H0V214.643Z" fill="white"/>
</mask>
<g mask="url(#mask2_289_28981)">
<path d="M164.796 268.191H0.0377197V215.09H164.796V268.191Z" fill="#E2E8EE"/>
</g>
<mask id="mask3_289_28981" style="mask-type:luminance" maskUnits="userSpaceOnUse" x="0" y="253" width="165" height="16">
<path d="M0 253.292H164.907V268.322H0V253.292Z" fill="white"/>
</mask>
<g mask="url(#mask3_289_28981)">
<path d="M164.796 268.191H0.0377197V253.49H164.796V268.191Z" fill="#9AA4AA"/>
</g>
<path d="M145.323 185.877H19.5115V154.867H145.323V185.877Z" fill="#E2E8EE"/>
<path d="M145.323 185.877H19.5115V173.98H145.323V185.877Z" fill="#B8C3CB"/>
<path d="M145.323 154.866H19.5115L36.2857 123.833H127.452L145.323 154.866Z" fill="#555658"/>
<path d="M145.323 154.867H19.5115V159.145H145.323V154.867Z" fill="#373535"/>
<path d="M27.9769 184.502C27.1721 184.502 26.5181 183.828 26.5181 183V169.231C26.5181 168.403 27.1721 167.731 27.9769 167.731C28.7836 167.731 29.4357 168.403 29.4357 169.231V183C29.4357 183.828 28.7836 184.502 27.9769 184.502Z" fill="#555658"/>
<path d="M32.1033 184.502C31.2986 184.502 30.6445 183.828 30.6445 183V169.231C30.6445 168.403 31.2986 167.731 32.1033 167.731C32.91 167.731 33.5621 168.403 33.5621 169.231V183C33.5621 183.828 32.91 184.502 32.1033 184.502Z" fill="#555658"/>
<path d="M36.2281 184.502C35.4233 184.502 34.7712 183.828 34.7712 183V169.231C34.7712 168.403 35.4233 167.731 36.2281 167.731C37.0348 167.731 37.6869 168.403 37.6869 169.231V183C37.6869 183.828 37.0348 184.502 36.2281 184.502Z" fill="#555658"/>
<path d="M48.1026 184.502C47.2959 184.502 46.6438 183.828 46.6438 183V169.231C46.6438 168.403 47.2959 167.731 48.1026 167.731C48.9073 167.731 49.5614 168.403 49.5614 169.231V183C49.5614 183.828 48.9073 184.502 48.1026 184.502Z" fill="#555658"/>
<path d="M52.2274 184.502C51.4226 184.502 50.7686 183.828 50.7686 183V169.231C50.7686 168.403 51.4226 167.731 52.2274 167.731C53.034 167.731 53.6881 168.403 53.6881 169.231V183C53.6881 183.828 53.034 184.502 52.2274 184.502Z" fill="#555658"/>
<path d="M56.3538 184.502C55.5491 184.502 54.895 183.828 54.895 183V169.231C54.895 168.403 55.5491 167.731 56.3538 167.731C57.1605 167.731 57.8126 168.403 57.8126 169.231V183C57.8126 183.828 57.1605 184.502 56.3538 184.502Z" fill="#555658"/>
<path d="M68.2283 184.502C67.4216 184.502 66.7695 183.828 66.7695 183V169.231C66.7695 168.403 67.4216 167.731 68.2283 167.731C69.033 167.731 69.6871 168.403 69.6871 169.231V183C69.6871 183.828 69.033 184.502 68.2283 184.502Z" fill="#555658"/>
<path d="M72.355 184.502C71.5483 184.502 70.8962 183.828 70.8962 183V169.231C70.8962 168.403 71.5483 167.731 72.355 167.731C73.1598 167.731 73.8119 168.403 73.8119 169.231V183C73.8119 183.828 73.1598 184.502 72.355 184.502Z" fill="#555658"/>
<path d="M76.4798 184.502C75.6731 184.502 75.021 183.828 75.021 183V169.231C75.021 168.403 75.6731 167.731 76.4798 167.731C77.2845 167.731 77.9386 168.403 77.9386 169.231V183C77.9386 183.828 77.2845 184.502 76.4798 184.502Z" fill="#555658"/>
<path d="M88.3523 184.502C87.5476 184.502 86.8955 183.828 86.8955 183V169.231C86.8955 168.403 87.5476 167.731 88.3523 167.731C89.159 167.731 89.8111 168.403 89.8111 169.231V183C89.8111 183.828 89.159 184.502 88.3523 184.502Z" fill="#555658"/>
<path d="M92.4791 184.502C91.6743 184.502 91.0203 183.828 91.0203 183V169.231C91.0203 168.403 91.6743 167.731 92.4791 167.731C93.2838 167.731 93.9379 168.403 93.9379 169.231V183C93.9379 183.828 93.2838 184.502 92.4791 184.502Z" fill="#555658"/>
<path d="M96.6055 184.502C95.8008 184.502 95.1467 183.828 95.1467 183V169.231C95.1467 168.403 95.8008 167.731 96.6055 167.731C97.4102 167.731 98.0643 168.403 98.0643 169.231V183C98.0643 183.828 97.4102 184.502 96.6055 184.502Z" fill="#555658"/>
<path d="M108.48 184.502C107.673 184.502 107.019 183.828 107.019 183V169.231C107.019 168.403 107.673 167.731 108.48 167.731C109.285 167.731 109.939 168.403 109.939 169.231V183C109.939 183.828 109.285 184.502 108.48 184.502Z" fill="#555658"/>
<path d="M112.605 184.502C111.8 184.502 111.146 183.828 111.146 183V169.231C111.146 168.403 111.8 167.731 112.605 167.731C113.411 167.731 114.064 168.403 114.064 169.231V183C114.064 183.828 113.411 184.502 112.605 184.502Z" fill="#555658"/>
<path d="M116.73 184.502C115.925 184.502 115.271 183.828 115.271 183V169.231C115.271 168.403 115.925 167.731 116.73 167.731C117.536 167.731 118.188 168.403 118.188 169.231V183C118.188 183.828 117.536 184.502 116.73 184.502Z" fill="#555658"/>
<path d="M128.604 184.502C127.797 184.502 127.145 183.828 127.145 183V169.231C127.145 168.403 127.797 167.731 128.604 167.731C129.409 167.731 130.063 168.403 130.063 169.231V183C130.063 183.828 129.409 184.502 128.604 184.502Z" fill="#555658"/>
<path d="M132.731 184.502C131.924 184.502 131.272 183.828 131.272 183V169.231C131.272 168.403 131.924 167.731 132.731 167.731C133.535 167.731 134.19 168.403 134.19 169.231V183C134.19 183.828 133.535 184.502 132.731 184.502Z" fill="#555658"/>
<path d="M136.857 184.502C136.051 184.502 135.398 183.828 135.398 183V169.231C135.398 168.403 136.051 167.731 136.857 167.731C137.662 167.731 138.314 168.403 138.314 169.231V183C138.314 183.828 137.662 184.502 136.857 184.502Z" fill="#555658"/>
<path d="M19.1069 260.106H7.80127V244.503C7.80127 241.639 10.0569 239.317 12.8397 239.317H14.0685C16.8514 239.317 19.1069 241.639 19.1069 244.503V260.106Z" fill="#555658"/>
<path d="M38.8108 260.106H27.5051V244.503C27.5051 241.639 29.7607 239.317 32.5435 239.317H33.7724C36.5552 239.317 38.8108 241.639 38.8108 244.503V260.106Z" fill="#555658"/>
<path d="M58.5144 260.106H47.2087V244.503C47.2087 241.639 49.4643 239.317 52.2471 239.317H53.476C56.2588 239.317 58.5144 241.639 58.5144 244.503V260.106Z" fill="#555658"/>
<path d="M78.2181 260.106H66.9104V244.503C66.9104 241.639 69.168 239.317 71.9508 239.317H73.1797C75.9625 239.317 78.2181 241.639 78.2181 244.503V260.106Z" fill="#555658"/>
<path d="M97.9217 260.106H86.614V244.503C86.614 241.639 88.8716 239.317 91.6544 239.317H92.8833C95.6661 239.317 97.9217 241.639 97.9217 244.503V260.106Z" fill="#555658"/>
<path d="M117.625 260.106H106.318V244.503C106.318 241.639 108.575 239.317 111.358 239.317H112.585C115.37 239.317 117.625 241.639 117.625 244.503V260.106Z" fill="#555658"/>
<path d="M137.329 260.106H126.021V244.503C126.021 241.639 128.279 239.317 131.06 239.317H132.289C135.074 239.317 137.329 241.639 137.329 244.503V260.106Z" fill="#555658"/>
<path d="M157.033 260.106H145.725V244.503C145.725 241.639 147.983 239.317 150.763 239.317H151.992C154.775 239.317 157.033 241.639 157.033 244.503V260.106Z" fill="#555658"/>
<path d="M19.1069 260.106H7.80127V251.543H19.1069V260.106Z" fill="#434143"/>
<path d="M38.8108 260.106H27.5051V251.543H38.8108V260.106Z" fill="#434143"/>
<path d="M58.5144 260.106H47.2087V251.543H58.5144V260.106Z" fill="#434143"/>
<path d="M78.2181 260.106H66.9104V251.543H78.2181V260.106Z" fill="#434143"/>
<path d="M97.9217 260.106H86.614V251.543H97.9217V260.106Z" fill="#434143"/>
<path d="M117.625 260.106H106.318V251.543H117.625V260.106Z" fill="#434143"/>
<path d="M137.329 260.106H126.021V251.543H137.329V260.106Z" fill="#434143"/>
<path d="M157.033 260.106H145.725V251.543H157.033V260.106Z" fill="#434143"/>
<path d="M16.3223 234.073H10.5862V222.44H16.3223V234.073Z" fill="#58686F"/>
<path d="M16.3223 234.073H10.5862V228.255H16.3223V234.073Z" fill="#465257"/>
<path d="M36.0259 234.073H30.2878V222.44H36.0259V234.073Z" fill="#58686F"/>
<path d="M36.0259 234.073H30.2878V228.255H36.0259V234.073Z" fill="#465257"/>
<path d="M55.7315 234.073H49.9915V222.44H55.7315V234.073Z" fill="#58686F"/>
<path d="M55.7315 234.073H49.9915V228.255H55.7315V234.073Z" fill="#465257"/>
<path d="M75.4351 234.073H69.6951V222.44H75.4351V234.073Z" fill="#58686F"/>
<path d="M75.4351 234.073H69.6951V228.255H75.4351V234.073Z" fill="#465257"/>
<path d="M95.139 234.073H89.3989V222.44H95.139V234.073Z" fill="#58686F"/>
<path d="M95.139 234.073H89.3989V228.255H95.139V234.073Z" fill="#465257"/>
<path d="M114.841 234.073H109.103V222.44H114.841V234.073Z" fill="#58686F"/>
<path d="M114.841 234.073H109.103V228.255H114.841V234.073Z" fill="#465257"/>
<path d="M134.544 234.073H128.804V222.44H134.544V234.073Z" fill="#58686F"/>
<path d="M134.544 234.073H128.804V228.255H134.544V234.073Z" fill="#465257"/>
<path d="M154.248 234.073H148.51V222.44H154.248V234.073Z" fill="#58686F"/>
<path d="M154.248 234.073H148.51V228.255H154.248V234.073Z" fill="#465257"/>
<path d="M369.355 210.106H204.596L224.07 185.877H349.881L369.355 210.106Z" fill="#555658"/>
<path d="M369.355 215.09H204.596V210.105H369.355V215.09Z" fill="#373535"/>
<mask id="mask4_289_28981" style="mask-type:luminance" maskUnits="userSpaceOnUse" x="204" y="214" width="166" height="55">
<path d="M204.485 214.643H369.393V268.322H204.485V214.643Z" fill="white"/>
</mask>
<g mask="url(#mask4_289_28981)">
<path d="M369.355 268.191H204.596V215.09H369.355V268.191Z" fill="#E2E8EE"/>
</g>
<mask id="mask5_289_28981" style="mask-type:luminance" maskUnits="userSpaceOnUse" x="204" y="253" width="166" height="16">
<path d="M204.485 253.292H369.393V268.322H204.485V253.292Z" fill="white"/>
</mask>
<g mask="url(#mask5_289_28981)">
<path d="M369.355 268.191H204.596V253.49H369.355V268.191Z" fill="#9AA4AA"/>
</g>
<path d="M349.881 185.877H224.07V154.867H349.881V185.877Z" fill="#E2E8EE"/>
<path d="M349.881 185.877H224.07V173.98H349.881V185.877Z" fill="#B8C3CB"/>
<path d="M349.881 154.866H224.07L240.844 123.833H332.013L349.881 154.866Z" fill="#555658"/>
<path d="M349.881 154.867H224.07V159.145H349.881V154.867Z" fill="#373535"/>
<path d="M232.535 184.502C231.731 184.502 231.079 183.828 231.079 183V169.231C231.079 168.403 231.731 167.731 232.535 167.731C233.342 167.731 233.996 168.403 233.996 169.231V183C233.996 183.828 233.342 184.502 232.535 184.502Z" fill="#555658"/>
<path d="M236.662 184.502C235.857 184.502 235.203 183.828 235.203 183V169.231C235.203 168.403 235.857 167.731 236.662 167.731C237.469 167.731 238.121 168.403 238.121 169.231V183C238.121 183.828 237.469 184.502 236.662 184.502Z" fill="#555658"/>
<path d="M240.789 184.502C239.984 184.502 239.33 183.828 239.33 183V169.231C239.33 168.403 239.984 167.731 240.789 167.731C241.595 167.731 242.247 168.403 242.247 169.231V183C242.247 183.828 241.595 184.502 240.789 184.502Z" fill="#555658"/>
<path d="M252.663 184.502C251.856 184.502 251.204 183.828 251.204 183V169.231C251.204 168.403 251.856 167.731 252.663 167.731C253.47 167.731 254.122 168.403 254.122 169.231V183C254.122 183.828 253.47 184.502 252.663 184.502Z" fill="#555658"/>
<path d="M256.788 184.502C255.981 184.502 255.329 183.828 255.329 183V169.231C255.329 168.403 255.981 167.731 256.788 167.731C257.593 167.731 258.247 168.403 258.247 169.231V183C258.247 183.828 257.593 184.502 256.788 184.502Z" fill="#555658"/>
<path d="M260.914 184.502C260.108 184.502 259.456 183.828 259.456 183V169.231C259.456 168.403 260.108 167.731 260.914 167.731C261.719 167.731 262.373 168.403 262.373 169.231V183C262.373 183.828 261.719 184.502 260.914 184.502Z" fill="#555658"/>
<path d="M272.787 184.502C271.982 184.502 271.328 183.828 271.328 183V169.231C271.328 168.403 271.982 167.731 272.787 167.731C273.594 167.731 274.246 168.403 274.246 169.231V183C274.246 183.828 273.594 184.502 272.787 184.502Z" fill="#555658"/>
<path d="M276.914 184.502C276.109 184.502 275.455 183.828 275.455 183V169.231C275.455 168.403 276.109 167.731 276.914 167.731C277.718 167.731 278.372 168.403 278.372 169.231V183C278.372 183.828 277.718 184.502 276.914 184.502Z" fill="#555658"/>
<path d="M281.04 184.502C280.234 184.502 279.58 183.828 279.58 183V169.231C279.58 168.403 280.234 167.731 281.04 167.731C281.845 167.731 282.497 168.403 282.497 169.231V183C282.497 183.828 281.845 184.502 281.04 184.502Z" fill="#555658"/>
<path d="M292.913 184.502C292.108 184.502 291.454 183.828 291.454 183V169.231C291.454 168.403 292.108 167.731 292.913 167.731C293.72 167.731 294.372 168.403 294.372 169.231V183C294.372 183.828 293.72 184.502 292.913 184.502Z" fill="#555658"/>
<path d="M297.037 184.502C296.233 184.502 295.581 183.828 295.581 183V169.231C295.581 168.403 296.233 167.731 297.037 167.731C297.844 167.731 298.498 168.403 298.498 169.231V183C298.498 183.828 297.844 184.502 297.037 184.502Z" fill="#555658"/>
<path d="M301.164 184.502C300.359 184.502 299.705 183.828 299.705 183V169.231C299.705 168.403 300.359 167.731 301.164 167.731C301.969 167.731 302.625 168.403 302.625 169.231V183C302.625 183.828 301.969 184.502 301.164 184.502Z" fill="#555658"/>
<path d="M313.039 184.502C312.232 184.502 311.58 183.828 311.58 183V169.231C311.58 168.403 312.232 167.731 313.039 167.731C313.843 167.731 314.497 168.403 314.497 169.231V183C314.497 183.828 313.843 184.502 313.039 184.502Z" fill="#555658"/>
<path d="M317.165 184.502C316.359 184.502 315.705 183.828 315.705 183V169.231C315.705 168.403 316.359 167.731 317.165 167.731C317.97 167.731 318.624 168.403 318.624 169.231V183C318.624 183.828 317.97 184.502 317.165 184.502Z" fill="#555658"/>
<path d="M321.29 184.502C320.483 184.502 319.831 183.828 319.831 183V169.231C319.831 168.403 320.483 167.731 321.29 167.731C322.097 167.731 322.749 168.403 322.749 169.231V183C322.749 183.828 322.097 184.502 321.29 184.502Z" fill="#555658"/>
<path d="M333.165 184.502C332.358 184.502 331.706 183.828 331.706 183V169.231C331.706 168.403 332.358 167.731 333.165 167.731C333.969 167.731 334.621 168.403 334.621 169.231V183C334.621 183.828 333.969 184.502 333.165 184.502Z" fill="#555658"/>
<path d="M337.289 184.502C336.482 184.502 335.83 183.828 335.83 183V169.231C335.83 168.403 336.482 167.731 337.289 167.731C338.094 167.731 338.748 168.403 338.748 169.231V183C338.748 183.828 338.094 184.502 337.289 184.502Z" fill="#555658"/>
<path d="M341.416 184.502C340.609 184.502 339.957 183.828 339.957 183V169.231C339.957 168.403 340.609 167.731 341.416 167.731C342.221 167.731 342.875 168.403 342.875 169.231V183C342.875 183.828 342.221 184.502 341.416 184.502Z" fill="#555658"/>
<path d="M223.668 260.106H212.36V244.503C212.36 241.639 214.617 239.317 217.4 239.317H218.629C221.41 239.317 223.668 241.639 223.668 244.503V260.106Z" fill="#555658"/>
<path d="M243.371 260.106H232.063V244.503C232.063 241.639 234.321 239.317 237.104 239.317H238.333C241.114 239.317 243.371 241.639 243.371 244.503V260.106Z" fill="#555658"/>
<path d="M263.075 260.106H251.767V244.503C251.767 241.639 254.025 239.317 256.807 239.317H258.034C260.817 239.317 263.075 241.639 263.075 244.503V260.106Z" fill="#555658"/>
<path d="M282.779 260.106H271.471V244.503C271.471 241.639 273.727 239.317 276.511 239.317H277.738C280.521 239.317 282.779 241.639 282.779 244.503V260.106Z" fill="#555658"/>
<path d="M302.482 260.106H291.175V244.503C291.175 241.639 293.43 239.317 296.213 239.317H297.442C300.225 239.317 302.482 241.639 302.482 244.503V260.106Z" fill="#555658"/>
<path d="M322.184 260.106H310.878V244.503C310.878 241.639 313.134 239.317 315.917 239.317H317.145C319.928 239.317 322.184 241.639 322.184 244.503V260.106Z" fill="#555658"/>
<path d="M341.889 260.106H330.582V244.503C330.582 241.639 332.837 239.317 335.62 239.317H336.849C339.632 239.317 341.889 241.639 341.889 244.503V260.106Z" fill="#555658"/>
<path d="M361.591 260.106H350.286V244.503C350.286 241.639 352.541 239.317 355.324 239.317H356.553C359.336 239.317 361.591 241.639 361.591 244.503V260.106Z" fill="#555658"/>
<path d="M223.668 260.106H212.36V251.543H223.668V260.106Z" fill="#434143"/>
<path d="M243.371 260.106H232.063V251.543H243.371V260.106Z" fill="#434143"/>
<path d="M263.075 260.106H251.767V251.543H263.075V260.106Z" fill="#434143"/>
<path d="M282.779 260.106H271.471V251.543H282.779V260.106Z" fill="#434143"/>
<path d="M302.482 260.106H291.175V251.543H302.482V260.106Z" fill="#434143"/>
<path d="M322.184 260.106H310.878V251.543H322.184V260.106Z" fill="#434143"/>
<path d="M341.889 260.106H330.582V251.543H341.889V260.106Z" fill="#434143"/>
<path d="M361.591 260.106H350.286V251.543H361.591V260.106Z" fill="#434143"/>
<path d="M220.883 234.073H215.145V222.44H220.883V234.073Z" fill="#58686F"/>
<path d="M220.883 234.073H215.145V228.255H220.883V234.073Z" fill="#465257"/>
<path d="M240.588 234.073H234.848V222.44H240.588V234.073Z" fill="#58686F"/>
<path d="M240.588 234.073H234.848V228.255H240.588V234.073Z" fill="#465257"/>
<path d="M260.29 234.073H254.55V222.44H260.29V234.073Z" fill="#58686F"/>
<path d="M260.29 234.073H254.55V228.255H260.29V234.073Z" fill="#465257"/>
<path d="M279.994 234.073H274.254V222.44H279.994V234.073Z" fill="#58686F"/>
<path d="M279.994 234.073H274.254V228.255H279.994V234.073Z" fill="#465257"/>
<path d="M299.697 234.073H293.957V222.44H299.697V234.073Z" fill="#58686F"/>
<path d="M299.697 234.073H293.957V228.255H299.697V234.073Z" fill="#465257"/>
<path d="M319.399 234.073H313.661V222.44H319.399V234.073Z" fill="#58686F"/>
<path d="M319.399 234.073H313.661V228.255H319.399V234.073Z" fill="#465257"/>
<path d="M339.105 234.073H333.367V222.44H339.105V234.073Z" fill="#58686F"/>
<path d="M339.105 234.073H333.367V228.255H339.105V234.073Z" fill="#465257"/>
<path d="M358.806 234.073H353.068V222.44H358.806V234.073Z" fill="#58686F"/>
<path d="M358.806 234.073H353.068V228.255H358.806V234.073Z" fill="#465257"/>
<path d="M299.705 126.121H240.844V123.833H299.705V126.121Z" fill="#6B6C6E"/>
<path d="M333.367 188.225H230.383V185.877H333.367V188.225Z" fill="#6B6C6E"/>
<path d="M254.504 237.319H128.695L145.467 206.287H236.636L254.504 237.319Z" fill="#555658"/>
<mask id="mask6_289_28981" style="mask-type:luminance" maskUnits="userSpaceOnUse" x="128" y="237" width="127" height="32">
<path d="M128.56 237.124H254.718V268.322H128.56V237.124Z" fill="white"/>
</mask>
<g mask="url(#mask6_289_28981)">
<path d="M254.504 268.33H128.695V237.319H254.504V268.33Z" fill="#E2E8EE"/>
</g>
<mask id="mask7_289_28981" style="mask-type:luminance" maskUnits="userSpaceOnUse" x="128" y="256" width="127" height="13">
<path d="M128.56 256.425H254.718V268.321H128.56V256.425Z" fill="white"/>
</mask>
<g mask="url(#mask7_289_28981)">
<path d="M254.504 268.33H128.695V256.432H254.504V268.33Z" fill="#B8C3CB"/>
</g>
<path d="M254.504 237.319H128.695V241.598H254.504V237.319Z" fill="#373535"/>
<mask id="mask8_289_28981" style="mask-type:luminance" maskUnits="userSpaceOnUse" x="180" y="244" width="24" height="25">
<path d="M180.13 244.723H203.163V268.322H180.13V244.723Z" fill="white"/>
</mask>
<g mask="url(#mask8_289_28981)">
<path d="M203.042 268.33H180.159V244.785H203.042V268.33Z" fill="#555658"/>
</g>
<mask id="mask9_289_28981" style="mask-type:luminance" maskUnits="userSpaceOnUse" x="180" y="253" width="24" height="16">
<path d="M180.13 253.463H203.163V268.321H180.13V253.463Z" fill="white"/>
</mask>
<g mask="url(#mask9_289_28981)">
<path d="M203.042 268.33H180.159V253.49H203.042V268.33Z" fill="#3C3C3F"/>
</g>
<path d="M95.1469 126.121H36.2856V123.833H95.1469V126.121Z" fill="#6B6C6E"/>
<path d="M128.804 188.225H25.8223V185.877H128.804V188.225Z" fill="#6B6C6E"/>
<path d="M234.277 209.465H145.467V206.287H234.277V209.465Z" fill="#6B6C6E"/>
</svg>
