<svg xmlns="http://www.w3.org/2000/svg" xmlns:xlink="http://www.w3.org/1999/xlink" width="1080" zoomAndPan="magnify" viewBox="0 0 810 809.999993" height="1080" preserveAspectRatio="xMidYMid meet" version="1.0"><defs><clipPath id="dce70ea349"><path d="M 404 148.027344 L 407 148.027344 L 407 249 L 404 249 Z M 404 148.027344 " clip-rule="nonzero"/></clipPath><clipPath id="cf51a42fe3"><path d="M 291 355 L 520 355 L 520 661.777344 L 291 661.777344 Z M 291 355 " clip-rule="nonzero"/></clipPath><clipPath id="e74c3e47ba"><path d="M 41 559 L 366 559 L 366 661.777344 L 41 661.777344 Z M 41 559 " clip-rule="nonzero"/></clipPath><clipPath id="7847e0de09"><path d="M 41 633 L 366 633 L 366 661.777344 L 41 661.777344 Z M 41 633 " clip-rule="nonzero"/></clipPath><clipPath id="80757e1e89"><path d="M 444 559 L 769 559 L 769 661.777344 L 444 661.777344 Z M 444 559 " clip-rule="nonzero"/></clipPath><clipPath id="6ffa99cb7b"><path d="M 444 633 L 769 633 L 769 661.777344 L 444 661.777344 Z M 444 633 " clip-rule="nonzero"/></clipPath><clipPath id="9bd47d2b4c"><path d="M 294.367188 602.042969 L 543 602.042969 L 543 661.777344 L 294.367188 661.777344 Z M 294.367188 602.042969 " clip-rule="nonzero"/></clipPath><clipPath id="523dbd3583"><path d="M 294.367188 639 L 543 639 L 543 661.777344 L 294.367188 661.777344 Z M 294.367188 639 " clip-rule="nonzero"/></clipPath><clipPath id="978700fcf8"><path d="M 396 616.59375 L 441.394531 616.59375 L 441.394531 661.777344 L 396 661.777344 Z M 396 616.59375 " clip-rule="nonzero"/></clipPath><clipPath id="e6602e1c65"><path d="M 396 633.328125 L 441.394531 633.328125 L 441.394531 661.777344 L 396 661.777344 Z M 396 633.328125 " clip-rule="nonzero"/></clipPath></defs><g clip-path="url(#dce70ea349)"><path fill="#373535" d="M 406.433594 248.257812 L 404.21875 248.257812 L 404.21875 148.03125 L 406.433594 148.03125 L 406.433594 248.257812 " fill-opacity="1" fill-rule="nonzero"/></g><g clip-path="url(#cf51a42fe3)"><path fill="#e8eef2" d="M 519.074219 661.527344 L 291.578125 661.527344 L 291.578125 355.3125 L 519.074219 355.3125 L 519.074219 661.527344 " fill-opacity="1" fill-rule="nonzero"/></g><path fill="#c7d0d6" d="M 519.074219 395.71875 L 291.578125 395.71875 L 291.578125 355.3125 L 519.074219 355.3125 L 519.074219 395.71875 " fill-opacity="1" fill-rule="nonzero"/><path fill="#dce0e3" d="M 519.074219 385.902344 L 291.578125 385.902344 L 291.578125 365.125 L 519.074219 365.125 L 519.074219 385.902344 " fill-opacity="1" fill-rule="nonzero"/><path fill="#bcc0ae" d="M 437.199219 522.765625 L 373.453125 522.765625 L 373.453125 439.554688 L 437.199219 439.554688 L 437.199219 522.765625 " fill-opacity="1" fill-rule="nonzero"/><path fill="#a8ae98" d="M 437.199219 522.765625 L 373.453125 522.765625 L 373.453125 502.109375 L 437.199219 502.109375 L 437.199219 522.765625 " fill-opacity="1" fill-rule="nonzero"/><path fill="#858b76" d="M 429.632812 499.078125 L 381.019531 499.078125 L 381.019531 450.480469 L 429.632812 450.480469 L 429.632812 499.078125 " fill-opacity="1" fill-rule="nonzero"/><path fill="#858b76" d="M 441.15625 439.554688 L 369.496094 439.554688 L 369.496094 431.128906 L 441.15625 431.128906 L 441.15625 439.554688 " fill-opacity="1" fill-rule="nonzero"/><path fill="#bcc0ae" d="M 441.15625 431.128906 L 369.496094 431.128906 L 369.496094 420.601562 L 441.15625 420.601562 L 441.15625 431.128906 " fill-opacity="1" fill-rule="nonzero"/><path fill="#b2bec2" d="M 486.585938 355.3125 L 324.066406 355.3125 L 324.066406 303.503906 L 486.585938 303.503906 L 486.585938 355.3125 " fill-opacity="1" fill-rule="nonzero"/><path fill="#7f9299" d="M 354.929688 343.925781 L 336.667969 343.925781 L 336.667969 314.890625 L 354.929688 314.890625 L 354.929688 343.925781 " fill-opacity="1" fill-rule="nonzero"/><path fill="#7f9299" d="M 384.695312 343.925781 L 366.433594 343.925781 L 366.433594 314.890625 L 384.695312 314.890625 L 384.695312 343.925781 " fill-opacity="1" fill-rule="nonzero"/><path fill="#7f9299" d="M 414.457031 343.925781 L 396.195312 343.925781 L 396.195312 314.890625 L 414.457031 314.890625 L 414.457031 343.925781 " fill-opacity="1" fill-rule="nonzero"/><path fill="#7f9299" d="M 444.21875 343.925781 L 425.957031 343.925781 L 425.957031 314.890625 L 444.21875 314.890625 L 444.21875 343.925781 " fill-opacity="1" fill-rule="nonzero"/><path fill="#7f9299" d="M 473.980469 343.925781 L 455.71875 343.925781 L 455.71875 314.890625 L 473.980469 314.890625 L 473.980469 343.925781 " fill-opacity="1" fill-rule="nonzero"/><path fill="#555658" d="M 505.070312 296.914062 L 305.578125 296.914062 L 332.175781 269.660156 L 476.738281 269.660156 L 505.070312 296.914062 " fill-opacity="1" fill-rule="nonzero"/><path fill="#373535" d="M 505.070312 296.914062 L 305.578125 296.914062 L 305.578125 303.503906 L 505.070312 303.503906 L 505.070312 296.914062 " fill-opacity="1" fill-rule="nonzero"/><path fill="#555658" d="M 486.835938 268.792969 L 323.820312 268.792969 L 345.550781 246.523438 L 463.675781 246.523438 L 486.835938 268.792969 " fill-opacity="1" fill-rule="nonzero"/><path fill="#373535" d="M 486.835938 268.792969 L 323.820312 268.792969 L 323.820312 271.863281 L 486.835938 271.863281 L 486.835938 268.792969 " fill-opacity="1" fill-rule="nonzero"/><path fill="#555658" d="M 470.3125 244.257812 L 340.335938 244.257812 L 405.324219 215.253906 L 470.3125 244.257812 " fill-opacity="1" fill-rule="nonzero"/><path fill="#373535" d="M 470.3125 244.257812 L 340.335938 244.257812 L 340.335938 248.257812 L 470.3125 248.257812 L 470.3125 244.257812 " fill-opacity="1" fill-rule="nonzero"/><path fill="#373535" d="M 398.652344 202.734375 C 398.652344 199.050781 401.640625 196.066406 405.324219 196.066406 C 409.007812 196.066406 411.996094 199.050781 411.996094 202.734375 C 411.996094 206.417969 409.007812 209.402344 405.324219 209.402344 C 401.640625 209.402344 398.652344 206.417969 398.652344 202.734375 " fill-opacity="1" fill-rule="nonzero"/><path fill="#373535" d="M 398.652344 185.601562 C 398.652344 181.917969 401.640625 178.933594 405.324219 178.933594 C 409.007812 178.933594 411.996094 181.917969 411.996094 185.601562 C 411.996094 189.285156 409.007812 192.269531 405.324219 192.269531 C 401.640625 192.269531 398.652344 189.285156 398.652344 185.601562 " fill-opacity="1" fill-rule="nonzero"/><path fill="#555658" d="M 365.78125 550.3125 L 41.074219 550.3125 L 79.453125 503.921875 L 327.402344 503.921875 L 365.78125 550.3125 " fill-opacity="1" fill-rule="nonzero"/><path fill="#373535" d="M 365.78125 559.855469 L 41.074219 559.855469 L 41.074219 550.3125 L 365.78125 550.3125 L 365.78125 559.855469 " fill-opacity="1" fill-rule="nonzero"/><g clip-path="url(#e74c3e47ba)"><path fill="#e2e8ee" d="M 365.78125 661.527344 L 41.074219 661.527344 L 41.074219 559.855469 L 365.78125 559.855469 L 365.78125 661.527344 " fill-opacity="1" fill-rule="nonzero"/></g><g clip-path="url(#7847e0de09)"><path fill="#9aa4aa" d="M 365.78125 661.527344 L 41.074219 661.527344 L 41.074219 633.378906 L 365.78125 633.378906 L 365.78125 661.527344 " fill-opacity="1" fill-rule="nonzero"/></g><path fill="#e2e8ee" d="M 327.402344 503.921875 L 79.453125 503.921875 L 79.453125 444.546875 L 327.402344 444.546875 L 327.402344 503.921875 " fill-opacity="1" fill-rule="nonzero"/><path fill="#b8c3cb" d="M 327.402344 503.921875 L 79.453125 503.921875 L 79.453125 481.144531 L 327.402344 481.144531 L 327.402344 503.921875 " fill-opacity="1" fill-rule="nonzero"/><path fill="#555658" d="M 327.402344 444.546875 L 79.453125 444.546875 L 112.511719 385.128906 L 292.183594 385.128906 L 327.402344 444.546875 " fill-opacity="1" fill-rule="nonzero"/><path fill="#373535" d="M 327.402344 444.546875 L 79.453125 444.546875 L 79.453125 452.738281 L 327.402344 452.738281 L 327.402344 444.546875 " fill-opacity="1" fill-rule="nonzero"/><path fill="#555658" d="M 96.136719 501.289062 C 94.550781 501.289062 93.261719 500 93.261719 498.414062 L 93.261719 472.050781 C 93.261719 470.464844 94.550781 469.179688 96.136719 469.179688 C 97.726562 469.179688 99.011719 470.464844 99.011719 472.050781 L 99.011719 498.414062 C 99.011719 500 97.726562 501.289062 96.136719 501.289062 " fill-opacity="1" fill-rule="nonzero"/><path fill="#555658" d="M 104.269531 501.289062 C 102.683594 501.289062 101.394531 500 101.394531 498.414062 L 101.394531 472.050781 C 101.394531 470.464844 102.683594 469.179688 104.269531 469.179688 C 105.859375 469.179688 107.144531 470.464844 107.144531 472.050781 L 107.144531 498.414062 C 107.144531 500 105.859375 501.289062 104.269531 501.289062 " fill-opacity="1" fill-rule="nonzero"/><path fill="#555658" d="M 112.398438 501.289062 C 110.8125 501.289062 109.527344 500 109.527344 498.414062 L 109.527344 472.050781 C 109.527344 470.464844 110.8125 469.179688 112.398438 469.179688 C 113.988281 469.179688 115.273438 470.464844 115.273438 472.050781 L 115.273438 498.414062 C 115.273438 500 113.988281 501.289062 112.398438 501.289062 " fill-opacity="1" fill-rule="nonzero"/><path fill="#555658" d="M 135.800781 501.289062 C 134.210938 501.289062 132.925781 500 132.925781 498.414062 L 132.925781 472.050781 C 132.925781 470.464844 134.210938 469.179688 135.800781 469.179688 C 137.386719 469.179688 138.675781 470.464844 138.675781 472.050781 L 138.675781 498.414062 C 138.675781 500 137.386719 501.289062 135.800781 501.289062 " fill-opacity="1" fill-rule="nonzero"/><path fill="#555658" d="M 143.929688 501.289062 C 142.34375 501.289062 141.054688 500 141.054688 498.414062 L 141.054688 472.050781 C 141.054688 470.464844 142.34375 469.179688 143.929688 469.179688 C 145.519531 469.179688 146.808594 470.464844 146.808594 472.050781 L 146.808594 498.414062 C 146.808594 500 145.519531 501.289062 143.929688 501.289062 " fill-opacity="1" fill-rule="nonzero"/><path fill="#555658" d="M 152.0625 501.289062 C 150.476562 501.289062 149.1875 500 149.1875 498.414062 L 149.1875 472.050781 C 149.1875 470.464844 150.476562 469.179688 152.0625 469.179688 C 153.652344 469.179688 154.9375 470.464844 154.9375 472.050781 L 154.9375 498.414062 C 154.9375 500 153.652344 501.289062 152.0625 501.289062 " fill-opacity="1" fill-rule="nonzero"/><path fill="#555658" d="M 175.464844 501.289062 C 173.875 501.289062 172.589844 500 172.589844 498.414062 L 172.589844 472.050781 C 172.589844 470.464844 173.875 469.179688 175.464844 469.179688 C 177.050781 469.179688 178.339844 470.464844 178.339844 472.050781 L 178.339844 498.414062 C 178.339844 500 177.050781 501.289062 175.464844 501.289062 " fill-opacity="1" fill-rule="nonzero"/><path fill="#555658" d="M 183.597656 501.289062 C 182.007812 501.289062 180.722656 500 180.722656 498.414062 L 180.722656 472.050781 C 180.722656 470.464844 182.007812 469.179688 183.597656 469.179688 C 185.183594 469.179688 186.46875 470.464844 186.46875 472.050781 L 186.46875 498.414062 C 186.46875 500 185.183594 501.289062 183.597656 501.289062 " fill-opacity="1" fill-rule="nonzero"/><path fill="#555658" d="M 191.726562 501.289062 C 190.136719 501.289062 188.851562 500 188.851562 498.414062 L 188.851562 472.050781 C 188.851562 470.464844 190.136719 469.179688 191.726562 469.179688 C 193.3125 469.179688 194.601562 470.464844 194.601562 472.050781 L 194.601562 498.414062 C 194.601562 500 193.3125 501.289062 191.726562 501.289062 " fill-opacity="1" fill-rule="nonzero"/><path fill="#555658" d="M 215.125 501.289062 C 213.539062 501.289062 212.253906 500 212.253906 498.414062 L 212.253906 472.050781 C 212.253906 470.464844 213.539062 469.179688 215.125 469.179688 C 216.714844 469.179688 218 470.464844 218 472.050781 L 218 498.414062 C 218 500 216.714844 501.289062 215.125 501.289062 " fill-opacity="1" fill-rule="nonzero"/><path fill="#555658" d="M 223.257812 501.289062 C 221.671875 501.289062 220.382812 500 220.382812 498.414062 L 220.382812 472.050781 C 220.382812 470.464844 221.671875 469.179688 223.257812 469.179688 C 224.84375 469.179688 226.132812 470.464844 226.132812 472.050781 L 226.132812 498.414062 C 226.132812 500 224.84375 501.289062 223.257812 501.289062 " fill-opacity="1" fill-rule="nonzero"/><path fill="#555658" d="M 231.390625 501.289062 C 229.804688 501.289062 228.515625 500 228.515625 498.414062 L 228.515625 472.050781 C 228.515625 470.464844 229.804688 469.179688 231.390625 469.179688 C 232.976562 469.179688 234.265625 470.464844 234.265625 472.050781 L 234.265625 498.414062 C 234.265625 500 232.976562 501.289062 231.390625 501.289062 " fill-opacity="1" fill-rule="nonzero"/><path fill="#555658" d="M 254.792969 501.289062 C 253.203125 501.289062 251.914062 500 251.914062 498.414062 L 251.914062 472.050781 C 251.914062 470.464844 253.203125 469.179688 254.792969 469.179688 C 256.378906 469.179688 257.667969 470.464844 257.667969 472.050781 L 257.667969 498.414062 C 257.667969 500 256.378906 501.289062 254.792969 501.289062 " fill-opacity="1" fill-rule="nonzero"/><path fill="#555658" d="M 262.921875 501.289062 C 261.335938 501.289062 260.046875 500 260.046875 498.414062 L 260.046875 472.050781 C 260.046875 470.464844 261.335938 469.179688 262.921875 469.179688 C 264.511719 469.179688 265.796875 470.464844 265.796875 472.050781 L 265.796875 498.414062 C 265.796875 500 264.511719 501.289062 262.921875 501.289062 " fill-opacity="1" fill-rule="nonzero"/><path fill="#555658" d="M 271.050781 501.289062 C 269.464844 501.289062 268.175781 500 268.175781 498.414062 L 268.175781 472.050781 C 268.175781 470.464844 269.464844 469.179688 271.050781 469.179688 C 272.640625 469.179688 273.925781 470.464844 273.925781 472.050781 L 273.925781 498.414062 C 273.925781 500 272.640625 501.289062 271.050781 501.289062 " fill-opacity="1" fill-rule="nonzero"/><path fill="#555658" d="M 294.453125 501.289062 C 292.863281 501.289062 291.578125 500 291.578125 498.414062 L 291.578125 472.050781 C 291.578125 470.464844 292.863281 469.179688 294.453125 469.179688 C 296.039062 469.179688 297.328125 470.464844 297.328125 472.050781 L 297.328125 498.414062 C 297.328125 500 296.039062 501.289062 294.453125 501.289062 " fill-opacity="1" fill-rule="nonzero"/><path fill="#555658" d="M 302.585938 501.289062 C 300.996094 501.289062 299.710938 500 299.710938 498.414062 L 299.710938 472.050781 C 299.710938 470.464844 300.996094 469.179688 302.585938 469.179688 C 304.171875 469.179688 305.460938 470.464844 305.460938 472.050781 L 305.460938 498.414062 C 305.460938 500 304.171875 501.289062 302.585938 501.289062 " fill-opacity="1" fill-rule="nonzero"/><path fill="#555658" d="M 310.71875 501.289062 C 309.128906 501.289062 307.84375 500 307.84375 498.414062 L 307.84375 472.050781 C 307.84375 470.464844 309.128906 469.179688 310.71875 469.179688 C 312.304688 469.179688 313.589844 470.464844 313.589844 472.050781 L 313.589844 498.414062 C 313.589844 500 312.304688 501.289062 310.71875 501.289062 " fill-opacity="1" fill-rule="nonzero"/><path fill="#555658" d="M 78.65625 646.046875 L 56.375 646.046875 L 56.375 616.171875 C 56.375 610.6875 60.820312 606.242188 66.304688 606.242188 L 68.726562 606.242188 C 74.210938 606.242188 78.65625 610.6875 78.65625 616.171875 L 78.65625 646.046875 " fill-opacity="1" fill-rule="nonzero"/><path fill="#555658" d="M 117.488281 646.046875 L 95.207031 646.046875 L 95.207031 616.171875 C 95.207031 610.6875 99.652344 606.242188 105.136719 606.242188 L 107.558594 606.242188 C 113.042969 606.242188 117.488281 610.6875 117.488281 616.171875 L 117.488281 646.046875 " fill-opacity="1" fill-rule="nonzero"/><path fill="#555658" d="M 156.320312 646.046875 L 134.039062 646.046875 L 134.039062 616.171875 C 134.039062 610.6875 138.484375 606.242188 143.96875 606.242188 L 146.390625 606.242188 C 151.875 606.242188 156.320312 610.6875 156.320312 616.171875 L 156.320312 646.046875 " fill-opacity="1" fill-rule="nonzero"/><path fill="#555658" d="M 195.152344 646.046875 L 172.867188 646.046875 L 172.867188 616.171875 C 172.867188 610.6875 177.316406 606.242188 182.800781 606.242188 L 185.222656 606.242188 C 190.707031 606.242188 195.152344 610.6875 195.152344 616.171875 L 195.152344 646.046875 " fill-opacity="1" fill-rule="nonzero"/><path fill="#555658" d="M 233.984375 646.046875 L 211.699219 646.046875 L 211.699219 616.171875 C 211.699219 610.6875 216.148438 606.242188 221.632812 606.242188 L 224.054688 606.242188 C 229.539062 606.242188 233.984375 610.6875 233.984375 616.171875 L 233.984375 646.046875 " fill-opacity="1" fill-rule="nonzero"/><path fill="#555658" d="M 272.816406 646.046875 L 250.53125 646.046875 L 250.53125 616.171875 C 250.53125 610.6875 254.980469 606.242188 260.464844 606.242188 L 262.882812 606.242188 C 268.371094 606.242188 272.816406 610.6875 272.816406 616.171875 L 272.816406 646.046875 " fill-opacity="1" fill-rule="nonzero"/><path fill="#555658" d="M 311.648438 646.046875 L 289.363281 646.046875 L 289.363281 616.171875 C 289.363281 610.6875 293.8125 606.242188 299.292969 606.242188 L 301.714844 606.242188 C 307.203125 606.242188 311.648438 610.6875 311.648438 616.171875 L 311.648438 646.046875 " fill-opacity="1" fill-rule="nonzero"/><path fill="#555658" d="M 350.480469 646.046875 L 328.195312 646.046875 L 328.195312 616.171875 C 328.195312 610.6875 332.644531 606.242188 338.125 606.242188 L 340.546875 606.242188 C 346.03125 606.242188 350.480469 610.6875 350.480469 616.171875 L 350.480469 646.046875 " fill-opacity="1" fill-rule="nonzero"/><path fill="#434143" d="M 78.65625 646.046875 L 56.375 646.046875 L 56.375 629.652344 L 78.65625 629.652344 L 78.65625 646.046875 " fill-opacity="1" fill-rule="nonzero"/><path fill="#434143" d="M 117.488281 646.046875 L 95.207031 646.046875 L 95.207031 629.652344 L 117.488281 629.652344 L 117.488281 646.046875 " fill-opacity="1" fill-rule="nonzero"/><path fill="#434143" d="M 156.320312 646.046875 L 134.039062 646.046875 L 134.039062 629.652344 L 156.320312 629.652344 L 156.320312 646.046875 " fill-opacity="1" fill-rule="nonzero"/><path fill="#434143" d="M 195.152344 646.046875 L 172.867188 646.046875 L 172.867188 629.652344 L 195.152344 629.652344 L 195.152344 646.046875 " fill-opacity="1" fill-rule="nonzero"/><path fill="#434143" d="M 233.984375 646.046875 L 211.699219 646.046875 L 211.699219 629.652344 L 233.984375 629.652344 L 233.984375 646.046875 " fill-opacity="1" fill-rule="nonzero"/><path fill="#434143" d="M 272.816406 646.046875 L 250.53125 646.046875 L 250.53125 629.652344 L 272.816406 629.652344 L 272.816406 646.046875 " fill-opacity="1" fill-rule="nonzero"/><path fill="#434143" d="M 311.648438 646.046875 L 289.363281 646.046875 L 289.363281 629.652344 L 311.648438 629.652344 L 311.648438 646.046875 " fill-opacity="1" fill-rule="nonzero"/><path fill="#434143" d="M 350.480469 646.046875 L 328.195312 646.046875 L 328.195312 629.652344 L 350.480469 629.652344 L 350.480469 646.046875 " fill-opacity="1" fill-rule="nonzero"/><path fill="#58686f" d="M 73.167969 596.203125 L 61.863281 596.203125 L 61.863281 573.929688 L 73.167969 573.929688 L 73.167969 596.203125 " fill-opacity="1" fill-rule="nonzero"/><path fill="#465257" d="M 73.167969 596.203125 L 61.863281 596.203125 L 61.863281 585.0625 L 73.167969 585.0625 L 73.167969 596.203125 " fill-opacity="1" fill-rule="nonzero"/><path fill="#58686f" d="M 112 596.203125 L 100.691406 596.203125 L 100.691406 573.929688 L 112 573.929688 L 112 596.203125 " fill-opacity="1" fill-rule="nonzero"/><path fill="#465257" d="M 112 596.203125 L 100.691406 596.203125 L 100.691406 585.0625 L 112 585.0625 L 112 596.203125 " fill-opacity="1" fill-rule="nonzero"/><path fill="#58686f" d="M 150.835938 596.203125 L 139.523438 596.203125 L 139.523438 573.929688 L 150.835938 573.929688 L 150.835938 596.203125 " fill-opacity="1" fill-rule="nonzero"/><path fill="#465257" d="M 150.835938 596.203125 L 139.523438 596.203125 L 139.523438 585.0625 L 150.835938 585.0625 L 150.835938 596.203125 " fill-opacity="1" fill-rule="nonzero"/><path fill="#58686f" d="M 189.667969 596.203125 L 178.355469 596.203125 L 178.355469 573.929688 L 189.667969 573.929688 L 189.667969 596.203125 " fill-opacity="1" fill-rule="nonzero"/><path fill="#465257" d="M 189.667969 596.203125 L 178.355469 596.203125 L 178.355469 585.0625 L 189.667969 585.0625 L 189.667969 596.203125 " fill-opacity="1" fill-rule="nonzero"/><path fill="#58686f" d="M 228.5 596.203125 L 217.1875 596.203125 L 217.1875 573.929688 L 228.5 573.929688 L 228.5 596.203125 " fill-opacity="1" fill-rule="nonzero"/><path fill="#465257" d="M 228.5 596.203125 L 217.1875 596.203125 L 217.1875 585.0625 L 228.5 585.0625 L 228.5 596.203125 " fill-opacity="1" fill-rule="nonzero"/><path fill="#58686f" d="M 267.328125 596.203125 L 256.019531 596.203125 L 256.019531 573.929688 L 267.328125 573.929688 L 267.328125 596.203125 " fill-opacity="1" fill-rule="nonzero"/><path fill="#465257" d="M 267.328125 596.203125 L 256.019531 596.203125 L 256.019531 585.0625 L 267.328125 585.0625 L 267.328125 596.203125 " fill-opacity="1" fill-rule="nonzero"/><path fill="#58686f" d="M 306.160156 596.203125 L 294.847656 596.203125 L 294.847656 573.929688 L 306.160156 573.929688 L 306.160156 596.203125 " fill-opacity="1" fill-rule="nonzero"/><path fill="#465257" d="M 306.160156 596.203125 L 294.847656 596.203125 L 294.847656 585.0625 L 306.160156 585.0625 L 306.160156 596.203125 " fill-opacity="1" fill-rule="nonzero"/><path fill="#58686f" d="M 344.992188 596.203125 L 333.683594 596.203125 L 333.683594 573.929688 L 344.992188 573.929688 L 344.992188 596.203125 " fill-opacity="1" fill-rule="nonzero"/><path fill="#465257" d="M 344.992188 596.203125 L 333.683594 596.203125 L 333.683594 585.0625 L 344.992188 585.0625 L 344.992188 596.203125 " fill-opacity="1" fill-rule="nonzero"/><path fill="#555658" d="M 768.925781 550.3125 L 444.21875 550.3125 L 482.597656 503.921875 L 730.546875 503.921875 L 768.925781 550.3125 " fill-opacity="1" fill-rule="nonzero"/><path fill="#373535" d="M 768.925781 559.855469 L 444.21875 559.855469 L 444.21875 550.3125 L 768.925781 550.3125 L 768.925781 559.855469 " fill-opacity="1" fill-rule="nonzero"/><g clip-path="url(#80757e1e89)"><path fill="#e2e8ee" d="M 768.925781 661.527344 L 444.21875 661.527344 L 444.21875 559.855469 L 768.925781 559.855469 L 768.925781 661.527344 " fill-opacity="1" fill-rule="nonzero"/></g><g clip-path="url(#6ffa99cb7b)"><path fill="#9aa4aa" d="M 768.925781 661.527344 L 444.21875 661.527344 L 444.21875 633.378906 L 768.925781 633.378906 L 768.925781 661.527344 " fill-opacity="1" fill-rule="nonzero"/></g><path fill="#e2e8ee" d="M 730.546875 503.921875 L 482.597656 503.921875 L 482.597656 444.546875 L 730.546875 444.546875 L 730.546875 503.921875 " fill-opacity="1" fill-rule="nonzero"/><path fill="#b8c3cb" d="M 730.546875 503.921875 L 482.597656 503.921875 L 482.597656 481.144531 L 730.546875 481.144531 L 730.546875 503.921875 " fill-opacity="1" fill-rule="nonzero"/><path fill="#555658" d="M 730.546875 444.546875 L 482.597656 444.546875 L 515.65625 385.128906 L 695.332031 385.128906 L 730.546875 444.546875 " fill-opacity="1" fill-rule="nonzero"/><path fill="#373535" d="M 730.546875 444.546875 L 482.597656 444.546875 L 482.597656 452.738281 L 730.546875 452.738281 L 730.546875 444.546875 " fill-opacity="1" fill-rule="nonzero"/><path fill="#555658" d="M 499.28125 501.289062 C 497.695312 501.289062 496.410156 500 496.410156 498.414062 L 496.410156 472.050781 C 496.410156 470.464844 497.695312 469.179688 499.28125 469.179688 C 500.871094 469.179688 502.160156 470.464844 502.160156 472.050781 L 502.160156 498.414062 C 502.160156 500 500.871094 501.289062 499.28125 501.289062 " fill-opacity="1" fill-rule="nonzero"/><path fill="#555658" d="M 507.414062 501.289062 C 505.828125 501.289062 504.539062 500 504.539062 498.414062 L 504.539062 472.050781 C 504.539062 470.464844 505.828125 469.179688 507.414062 469.179688 C 509.003906 469.179688 510.289062 470.464844 510.289062 472.050781 L 510.289062 498.414062 C 510.289062 500 509.003906 501.289062 507.414062 501.289062 " fill-opacity="1" fill-rule="nonzero"/><path fill="#555658" d="M 515.546875 501.289062 C 513.960938 501.289062 512.671875 500 512.671875 498.414062 L 512.671875 472.050781 C 512.671875 470.464844 513.960938 469.179688 515.546875 469.179688 C 517.136719 469.179688 518.421875 470.464844 518.421875 472.050781 L 518.421875 498.414062 C 518.421875 500 517.136719 501.289062 515.546875 501.289062 " fill-opacity="1" fill-rule="nonzero"/><path fill="#555658" d="M 538.949219 501.289062 C 537.359375 501.289062 536.074219 500 536.074219 498.414062 L 536.074219 472.050781 C 536.074219 470.464844 537.359375 469.179688 538.949219 469.179688 C 540.539062 469.179688 541.824219 470.464844 541.824219 472.050781 L 541.824219 498.414062 C 541.824219 500 540.539062 501.289062 538.949219 501.289062 " fill-opacity="1" fill-rule="nonzero"/><path fill="#555658" d="M 547.078125 501.289062 C 545.488281 501.289062 544.203125 500 544.203125 498.414062 L 544.203125 472.050781 C 544.203125 470.464844 545.488281 469.179688 547.078125 469.179688 C 548.664062 469.179688 549.953125 470.464844 549.953125 472.050781 L 549.953125 498.414062 C 549.953125 500 548.664062 501.289062 547.078125 501.289062 " fill-opacity="1" fill-rule="nonzero"/><path fill="#555658" d="M 555.210938 501.289062 C 553.621094 501.289062 552.335938 500 552.335938 498.414062 L 552.335938 472.050781 C 552.335938 470.464844 553.621094 469.179688 555.210938 469.179688 C 556.796875 469.179688 558.085938 470.464844 558.085938 472.050781 L 558.085938 498.414062 C 558.085938 500 556.796875 501.289062 555.210938 501.289062 " fill-opacity="1" fill-rule="nonzero"/><path fill="#555658" d="M 578.609375 501.289062 C 577.023438 501.289062 575.734375 500 575.734375 498.414062 L 575.734375 472.050781 C 575.734375 470.464844 577.023438 469.179688 578.609375 469.179688 C 580.199219 469.179688 581.484375 470.464844 581.484375 472.050781 L 581.484375 498.414062 C 581.484375 500 580.199219 501.289062 578.609375 501.289062 " fill-opacity="1" fill-rule="nonzero"/><path fill="#555658" d="M 586.742188 501.289062 C 585.15625 501.289062 583.867188 500 583.867188 498.414062 L 583.867188 472.050781 C 583.867188 470.464844 585.15625 469.179688 586.742188 469.179688 C 588.328125 469.179688 589.617188 470.464844 589.617188 472.050781 L 589.617188 498.414062 C 589.617188 500 588.328125 501.289062 586.742188 501.289062 " fill-opacity="1" fill-rule="nonzero"/><path fill="#555658" d="M 594.875 501.289062 C 593.285156 501.289062 591.996094 500 591.996094 498.414062 L 591.996094 472.050781 C 591.996094 470.464844 593.285156 469.179688 594.875 469.179688 C 596.460938 469.179688 597.746094 470.464844 597.746094 472.050781 L 597.746094 498.414062 C 597.746094 500 596.460938 501.289062 594.875 501.289062 " fill-opacity="1" fill-rule="nonzero"/><path fill="#555658" d="M 618.273438 501.289062 C 616.6875 501.289062 615.398438 500 615.398438 498.414062 L 615.398438 472.050781 C 615.398438 470.464844 616.6875 469.179688 618.273438 469.179688 C 619.863281 469.179688 621.148438 470.464844 621.148438 472.050781 L 621.148438 498.414062 C 621.148438 500 619.863281 501.289062 618.273438 501.289062 " fill-opacity="1" fill-rule="nonzero"/><path fill="#555658" d="M 626.402344 501.289062 C 624.816406 501.289062 623.53125 500 623.53125 498.414062 L 623.53125 472.050781 C 623.53125 470.464844 624.816406 469.179688 626.402344 469.179688 C 627.992188 469.179688 629.28125 470.464844 629.28125 472.050781 L 629.28125 498.414062 C 629.28125 500 627.992188 501.289062 626.402344 501.289062 " fill-opacity="1" fill-rule="nonzero"/><path fill="#555658" d="M 634.535156 501.289062 C 632.949219 501.289062 631.660156 500 631.660156 498.414062 L 631.660156 472.050781 C 631.660156 470.464844 632.949219 469.179688 634.535156 469.179688 C 636.121094 469.179688 637.414062 470.464844 637.414062 472.050781 L 637.414062 498.414062 C 637.414062 500 636.121094 501.289062 634.535156 501.289062 " fill-opacity="1" fill-rule="nonzero"/><path fill="#555658" d="M 657.9375 501.289062 C 656.347656 501.289062 655.0625 500 655.0625 498.414062 L 655.0625 472.050781 C 655.0625 470.464844 656.347656 469.179688 657.9375 469.179688 C 659.523438 469.179688 660.8125 470.464844 660.8125 472.050781 L 660.8125 498.414062 C 660.8125 500 659.523438 501.289062 657.9375 501.289062 " fill-opacity="1" fill-rule="nonzero"/><path fill="#555658" d="M 666.070312 501.289062 C 664.480469 501.289062 663.191406 500 663.191406 498.414062 L 663.191406 472.050781 C 663.191406 470.464844 664.480469 469.179688 666.070312 469.179688 C 667.65625 469.179688 668.945312 470.464844 668.945312 472.050781 L 668.945312 498.414062 C 668.945312 500 667.65625 501.289062 666.070312 501.289062 " fill-opacity="1" fill-rule="nonzero"/><path fill="#555658" d="M 674.199219 501.289062 C 672.609375 501.289062 671.324219 500 671.324219 498.414062 L 671.324219 472.050781 C 671.324219 470.464844 672.609375 469.179688 674.199219 469.179688 C 675.789062 469.179688 677.074219 470.464844 677.074219 472.050781 L 677.074219 498.414062 C 677.074219 500 675.789062 501.289062 674.199219 501.289062 " fill-opacity="1" fill-rule="nonzero"/><path fill="#555658" d="M 697.601562 501.289062 C 696.011719 501.289062 694.726562 500 694.726562 498.414062 L 694.726562 472.050781 C 694.726562 470.464844 696.011719 469.179688 697.601562 469.179688 C 699.1875 469.179688 700.472656 470.464844 700.472656 472.050781 L 700.472656 498.414062 C 700.472656 500 699.1875 501.289062 697.601562 501.289062 " fill-opacity="1" fill-rule="nonzero"/><path fill="#555658" d="M 705.730469 501.289062 C 704.140625 501.289062 702.855469 500 702.855469 498.414062 L 702.855469 472.050781 C 702.855469 470.464844 704.140625 469.179688 705.730469 469.179688 C 707.316406 469.179688 708.605469 470.464844 708.605469 472.050781 L 708.605469 498.414062 C 708.605469 500 707.316406 501.289062 705.730469 501.289062 " fill-opacity="1" fill-rule="nonzero"/><path fill="#555658" d="M 713.863281 501.289062 C 712.273438 501.289062 710.988281 500 710.988281 498.414062 L 710.988281 472.050781 C 710.988281 470.464844 712.273438 469.179688 713.863281 469.179688 C 715.449219 469.179688 716.738281 470.464844 716.738281 472.050781 L 716.738281 498.414062 C 716.738281 500 715.449219 501.289062 713.863281 501.289062 " fill-opacity="1" fill-rule="nonzero"/><path fill="#555658" d="M 481.804688 646.046875 L 459.519531 646.046875 L 459.519531 616.171875 C 459.519531 610.6875 463.96875 606.242188 469.453125 606.242188 L 471.875 606.242188 C 477.355469 606.242188 481.804688 610.6875 481.804688 616.171875 L 481.804688 646.046875 " fill-opacity="1" fill-rule="nonzero"/><path fill="#555658" d="M 520.636719 646.046875 L 498.351562 646.046875 L 498.351562 616.171875 C 498.351562 610.6875 502.800781 606.242188 508.285156 606.242188 L 510.707031 606.242188 C 516.1875 606.242188 520.636719 610.6875 520.636719 616.171875 L 520.636719 646.046875 " fill-opacity="1" fill-rule="nonzero"/><path fill="#555658" d="M 559.46875 646.046875 L 537.183594 646.046875 L 537.183594 616.171875 C 537.183594 610.6875 541.632812 606.242188 547.117188 606.242188 L 549.535156 606.242188 C 555.019531 606.242188 559.46875 610.6875 559.46875 616.171875 L 559.46875 646.046875 " fill-opacity="1" fill-rule="nonzero"/><path fill="#555658" d="M 598.300781 646.046875 L 576.015625 646.046875 L 576.015625 616.171875 C 576.015625 610.6875 580.460938 606.242188 585.949219 606.242188 L 588.367188 606.242188 C 593.851562 606.242188 598.300781 610.6875 598.300781 616.171875 L 598.300781 646.046875 " fill-opacity="1" fill-rule="nonzero"/><path fill="#555658" d="M 637.132812 646.046875 L 614.847656 646.046875 L 614.847656 616.171875 C 614.847656 610.6875 619.292969 606.242188 624.777344 606.242188 L 627.199219 606.242188 C 632.683594 606.242188 637.132812 610.6875 637.132812 616.171875 L 637.132812 646.046875 " fill-opacity="1" fill-rule="nonzero"/><path fill="#555658" d="M 675.960938 646.046875 L 653.679688 646.046875 L 653.679688 616.171875 C 653.679688 610.6875 658.125 606.242188 663.609375 606.242188 L 666.03125 606.242188 C 671.515625 606.242188 675.960938 610.6875 675.960938 616.171875 L 675.960938 646.046875 " fill-opacity="1" fill-rule="nonzero"/><path fill="#555658" d="M 714.796875 646.046875 L 692.511719 646.046875 L 692.511719 616.171875 C 692.511719 610.6875 696.957031 606.242188 702.441406 606.242188 L 704.863281 606.242188 C 710.347656 606.242188 714.796875 610.6875 714.796875 616.171875 L 714.796875 646.046875 " fill-opacity="1" fill-rule="nonzero"/><path fill="#555658" d="M 753.625 646.046875 L 731.34375 646.046875 L 731.34375 616.171875 C 731.34375 610.6875 735.789062 606.242188 741.273438 606.242188 L 743.695312 606.242188 C 749.179688 606.242188 753.625 610.6875 753.625 616.171875 L 753.625 646.046875 " fill-opacity="1" fill-rule="nonzero"/><path fill="#434143" d="M 481.804688 646.046875 L 459.519531 646.046875 L 459.519531 629.652344 L 481.804688 629.652344 L 481.804688 646.046875 " fill-opacity="1" fill-rule="nonzero"/><path fill="#434143" d="M 520.636719 646.046875 L 498.351562 646.046875 L 498.351562 629.652344 L 520.636719 629.652344 L 520.636719 646.046875 " fill-opacity="1" fill-rule="nonzero"/><path fill="#434143" d="M 559.46875 646.046875 L 537.183594 646.046875 L 537.183594 629.652344 L 559.46875 629.652344 L 559.46875 646.046875 " fill-opacity="1" fill-rule="nonzero"/><path fill="#434143" d="M 598.300781 646.046875 L 576.015625 646.046875 L 576.015625 629.652344 L 598.300781 629.652344 L 598.300781 646.046875 " fill-opacity="1" fill-rule="nonzero"/><path fill="#434143" d="M 637.132812 646.046875 L 614.847656 646.046875 L 614.847656 629.652344 L 637.132812 629.652344 L 637.132812 646.046875 " fill-opacity="1" fill-rule="nonzero"/><path fill="#434143" d="M 675.960938 646.046875 L 653.679688 646.046875 L 653.679688 629.652344 L 675.960938 629.652344 L 675.960938 646.046875 " fill-opacity="1" fill-rule="nonzero"/><path fill="#434143" d="M 714.796875 646.046875 L 692.511719 646.046875 L 692.511719 629.652344 L 714.796875 629.652344 L 714.796875 646.046875 " fill-opacity="1" fill-rule="nonzero"/><path fill="#434143" d="M 753.625 646.046875 L 731.34375 646.046875 L 731.34375 629.652344 L 753.625 629.652344 L 753.625 646.046875 " fill-opacity="1" fill-rule="nonzero"/><path fill="#58686f" d="M 476.316406 596.203125 L 465.007812 596.203125 L 465.007812 573.929688 L 476.316406 573.929688 L 476.316406 596.203125 " fill-opacity="1" fill-rule="nonzero"/><path fill="#465257" d="M 476.316406 596.203125 L 465.007812 596.203125 L 465.007812 585.0625 L 476.316406 585.0625 L 476.316406 596.203125 " fill-opacity="1" fill-rule="nonzero"/><path fill="#58686f" d="M 515.152344 596.203125 L 503.839844 596.203125 L 503.839844 573.929688 L 515.152344 573.929688 L 515.152344 596.203125 " fill-opacity="1" fill-rule="nonzero"/><path fill="#465257" d="M 515.152344 596.203125 L 503.839844 596.203125 L 503.839844 585.0625 L 515.152344 585.0625 L 515.152344 596.203125 " fill-opacity="1" fill-rule="nonzero"/><path fill="#58686f" d="M 553.980469 596.203125 L 542.667969 596.203125 L 542.667969 573.929688 L 553.980469 573.929688 L 553.980469 596.203125 " fill-opacity="1" fill-rule="nonzero"/><path fill="#465257" d="M 553.980469 596.203125 L 542.667969 596.203125 L 542.667969 585.0625 L 553.980469 585.0625 L 553.980469 596.203125 " fill-opacity="1" fill-rule="nonzero"/><path fill="#58686f" d="M 592.8125 596.203125 L 581.5 596.203125 L 581.5 573.929688 L 592.8125 573.929688 L 592.8125 596.203125 " fill-opacity="1" fill-rule="nonzero"/><path fill="#465257" d="M 592.8125 596.203125 L 581.5 596.203125 L 581.5 585.0625 L 592.8125 585.0625 L 592.8125 596.203125 " fill-opacity="1" fill-rule="nonzero"/><path fill="#58686f" d="M 631.644531 596.203125 L 620.332031 596.203125 L 620.332031 573.929688 L 631.644531 573.929688 L 631.644531 596.203125 " fill-opacity="1" fill-rule="nonzero"/><path fill="#465257" d="M 631.644531 596.203125 L 620.332031 596.203125 L 620.332031 585.0625 L 631.644531 585.0625 L 631.644531 596.203125 " fill-opacity="1" fill-rule="nonzero"/><path fill="#58686f" d="M 670.472656 596.203125 L 659.164062 596.203125 L 659.164062 573.929688 L 670.472656 573.929688 L 670.472656 596.203125 " fill-opacity="1" fill-rule="nonzero"/><path fill="#465257" d="M 670.472656 596.203125 L 659.164062 596.203125 L 659.164062 585.0625 L 670.472656 585.0625 L 670.472656 596.203125 " fill-opacity="1" fill-rule="nonzero"/><path fill="#58686f" d="M 709.308594 596.203125 L 698 596.203125 L 698 573.929688 L 709.308594 573.929688 L 709.308594 596.203125 " fill-opacity="1" fill-rule="nonzero"/><path fill="#465257" d="M 709.308594 596.203125 L 698 596.203125 L 698 585.0625 L 709.308594 585.0625 L 709.308594 596.203125 " fill-opacity="1" fill-rule="nonzero"/><path fill="#58686f" d="M 748.136719 596.203125 L 736.828125 596.203125 L 736.828125 573.929688 L 748.136719 573.929688 L 748.136719 596.203125 " fill-opacity="1" fill-rule="nonzero"/><path fill="#465257" d="M 748.136719 596.203125 L 736.828125 596.203125 L 736.828125 585.0625 L 748.136719 585.0625 L 748.136719 596.203125 " fill-opacity="1" fill-rule="nonzero"/><path fill="#6b6c6e" d="M 631.660156 389.507812 L 515.65625 389.507812 L 515.65625 385.128906 L 631.660156 385.128906 L 631.660156 389.507812 " fill-opacity="1" fill-rule="nonzero"/><path fill="#6b6c6e" d="M 698 508.417969 L 495.039062 508.417969 L 495.039062 503.921875 L 698 503.921875 L 698 508.417969 " fill-opacity="1" fill-rule="nonzero"/><path fill="#555658" d="M 542.578125 602.417969 L 294.632812 602.417969 L 327.6875 543 L 507.363281 543 L 542.578125 602.417969 " fill-opacity="1" fill-rule="nonzero"/><g clip-path="url(#9bd47d2b4c)"><path fill="#e2e8ee" d="M 542.578125 661.792969 L 294.632812 661.792969 L 294.632812 602.417969 L 542.578125 602.417969 L 542.578125 661.792969 " fill-opacity="1" fill-rule="nonzero"/></g><g clip-path="url(#523dbd3583)"><path fill="#b8c3cb" d="M 542.578125 661.792969 L 294.632812 661.792969 L 294.632812 639.011719 L 542.578125 639.011719 L 542.578125 661.792969 " fill-opacity="1" fill-rule="nonzero"/></g><path fill="#373535" d="M 542.578125 602.417969 L 294.632812 602.417969 L 294.632812 610.609375 L 542.578125 610.609375 L 542.578125 602.417969 " fill-opacity="1" fill-rule="nonzero"/><g clip-path="url(#978700fcf8)"><path fill="#555658" d="M 441.15625 661.792969 L 396.058594 661.792969 L 396.058594 616.710938 L 441.15625 616.710938 L 441.15625 661.792969 " fill-opacity="1" fill-rule="nonzero"/></g><g clip-path="url(#e6602e1c65)"><path fill="#3c3c3f" d="M 441.15625 661.792969 L 396.058594 661.792969 L 396.058594 633.378906 L 441.15625 633.378906 L 441.15625 661.792969 " fill-opacity="1" fill-rule="nonzero"/></g><path fill="#6b6c6e" d="M 228.515625 389.507812 L 112.511719 389.507812 L 112.511719 385.128906 L 228.515625 385.128906 L 228.515625 389.507812 " fill-opacity="1" fill-rule="nonzero"/><path fill="#6b6c6e" d="M 294.847656 508.417969 L 91.890625 508.417969 L 91.890625 503.921875 L 294.847656 503.921875 L 294.847656 508.417969 " fill-opacity="1" fill-rule="nonzero"/><path fill="#6b6c6e" d="M 502.714844 549.085938 L 327.6875 549.085938 L 327.6875 543 L 502.714844 543 L 502.714844 549.085938 " fill-opacity="1" fill-rule="nonzero"/></svg>