<svg xmlns="http://www.w3.org/2000/svg" xmlns:xlink="http://www.w3.org/1999/xlink" width="1080" zoomAndPan="magnify" viewBox="0 0 810 809.999993" height="1080" preserveAspectRatio="xMidYMid meet" version="1.0"><defs><filter x="0%" y="0%" width="100%" height="100%" id="6179a85068"><feColorMatrix values="0 0 0 0 1 0 0 0 0 1 0 0 0 0 1 0 0 0 1 0" color-interpolation-filters="sRGB"/></filter><mask id="4b95092783"><g filter="url(#6179a85068)"><rect x="-81" width="972" fill="#000000" y="-80.999999" height="971.999992" fill-opacity="0.9"/></g></mask><clipPath id="54331fe739"><path d="M 0.21875 0.0390625 L 663.96875 0.0390625 L 663.96875 404 L 0.21875 404 Z M 0.21875 0.0390625 " clip-rule="nonzero"/></clipPath><clipPath id="2e14e20a6e"><rect x="0" width="665" y="0" height="405"/></clipPath></defs><g mask="url(#4b95092783)"><g transform="matrix(1, 0, 0, 1, 73, 203)"><g clip-path="url(#2e14e20a6e)"><g clip-path="url(#54331fe739)"><path fill="#fcd295" d="M 637.4375 39.941406 C 645.621094 44.386719 655.402344 45.632812 663.054688 51.503906 C 648.464844 49.722656 633.878906 47.765625 619.292969 46.523438 C 543.15625 39.761719 479.648438 66.265625 426.457031 119.992188 C 420.765625 125.859375 417.03125 125.683594 412.761719 119.101562 C 409.382812 113.941406 405.289062 109.140625 401.554688 104.15625 C 347.476562 34.78125 275.785156 5.605469 188.441406 10.230469 C 201.605469 4.183594 229 -0.0859375 253.90625 0.449219 C 316.699219 1.691406 370.777344 23.929688 416.496094 66.980469 C 422.1875 72.316406 425.390625 72.316406 431.796875 68.222656 C 493.167969 29.089844 559.164062 18.769531 629.609375 38.160156 C 632.277344 38.695312 634.769531 39.226562 637.4375 39.941406 Z M 663.585938 51.503906 L 663.054688 51.503906 L 663.410156 51.679688 Z M 345.695312 210.003906 L 345.519531 209.824219 Z M 319.722656 205.023438 C 266.535156 201.285156 220.996094 218.1875 182.75 255.007812 C 178.835938 258.921875 176.523438 259.457031 171.71875 256.433594 C 132.9375 232.238281 91.132812 224.234375 45.949219 232.238281 C 27.984375 235.441406 8.949219 242.378906 0.410156 248.605469 C 62.136719 232.773438 117.460938 243.269531 166.203125 285.074219 C 169.585938 288.097656 173.140625 290.945312 176.34375 294.144531 C 180.433594 298.238281 183.105469 297.703125 186.304688 292.722656 C 216.546875 246.828125 258.171875 218.542969 313.496094 212.492188 C 324.171875 211.25 334.84375 210.714844 345.519531 209.824219 C 339.113281 206.625 332 207.335938 325.59375 205.199219 C 323.460938 205.199219 321.679688 205.199219 319.722656 205.023438 Z M 570.90625 361.921875 C 542.265625 356.761719 516.472656 362.988281 493.34375 380.777344 C 490.855469 382.558594 489.789062 382.734375 487.296875 380.777344 C 468.441406 365.480469 444.601562 358.007812 420.410156 359.964844 C 410.449219 360.675781 399.773438 363.34375 394.792969 366.191406 C 429.304688 361.210938 458.835938 370.460938 482.671875 396.078125 C 484.273438 397.855469 486.050781 399.636719 487.652344 401.589844 C 489.609375 404.082031 491.03125 403.902344 493.167969 401.414062 C 512.378906 378.289062 536.75 365.480469 567.171875 365.480469 C 573.039062 365.480469 578.910156 365.835938 584.78125 365.835938 C 581.578125 363.699219 577.664062 363.699219 574.109375 362.101562 C 572.863281 362.277344 571.972656 362.101562 570.90625 361.921875 Z M 584.78125 366.191406 L 584.601562 366.191406 Z M 584.78125 366.191406 " fill-opacity="1" fill-rule="nonzero"/></g></g></g></g></svg>