<svg xmlns="http://www.w3.org/2000/svg" xmlns:xlink="http://www.w3.org/1999/xlink" width="1080" zoomAndPan="magnify" viewBox="0 0 810 809.999993" height="1080" preserveAspectRatio="xMidYMid meet" version="1.0"><defs><filter x="0%" y="0%" width="100%" height="100%" id="99aa1cfd4e"><feColorMatrix values="0 0 0 0 1 0 0 0 0 1 0 0 0 0 1 0 0 0 1 0" color-interpolation-filters="sRGB"/></filter><mask id="17f5645f88"><g filter="url(#99aa1cfd4e)"><rect x="-81" width="972" fill="#000000" y="-80.999999" height="971.999992" fill-opacity="0.9"/></g></mask><clipPath id="c7ca7849a1"><path d="M 4 1.003906 L 652 1.003906 L 652 226 L 4 226 Z M 4 1.003906 " clip-rule="nonzero"/></clipPath><clipPath id="eb26d4f0ec"><rect x="0" width="656" y="0" height="228"/></clipPath></defs><g mask="url(#17f5645f88)"><g transform="matrix(1, 0, 0, 1, 77, 291)"><g clip-path="url(#eb26d4f0ec)"><g clip-path="url(#c7ca7849a1)"><path fill="#fcd295" d="M 608.160156 8.683594 C 593.550781 10.195312 578.433594 10.195312 563.820312 8.683594 C 531.570312 4.148438 499.320312 1.125 466.570312 2.636719 C 440.367188 4.148438 411.644531 6.667969 389.472656 22.792969 C 369.824219 36.902344 357.730469 57.058594 345.636719 77.214844 C 332.03125 99.382812 315.402344 124.578125 288.695312 131.632812 C 275.59375 135.160156 261.992188 135.664062 248.890625 138.183594 C 241.332031 139.695312 232.765625 142.214844 225.207031 139.695312 C 219.160156 138.183594 214.121094 135.160156 208.578125 132.640625 C 167.257812 113.996094 109.3125 95.351562 70.511719 128.105469 C 70.007812 128.105469 70.007812 128.105469 69.503906 128.609375 C 69 129.113281 68.496094 129.113281 67.992188 129.617188 C 48.34375 145.742188 29.699219 162.875 6.519531 173.960938 C 4 175.472656 4.503906 180.511719 8.03125 180.511719 C 32.21875 180.007812 58.921875 185.550781 82.101562 175.976562 C 97.722656 169.425781 110.824219 158.339844 126.445312 152.292969 C 142.570312 146.246094 160.207031 147.253906 177.335938 150.277344 C 181.871094 150.78125 215.128906 161.363281 217.648438 158.339844 C 206.058594 170.433594 201.019531 187.566406 191.445312 201.671875 C 189.933594 204.191406 192.957031 207.71875 195.476562 206.207031 C 207.570312 199.152344 218.65625 189.078125 233.773438 194.621094 C 245.867188 198.652344 256.953125 205.199219 268.542969 210.742188 C 286.175781 219.308594 305.324219 226.867188 324.976562 224.851562 C 348.15625 222.332031 370.328125 211.246094 391.992188 202.175781 C 416.683594 191.597656 441.878906 182.023438 469.089844 182.527344 C 472.617188 182.527344 473.625 177.488281 470.097656 176.480469 C 453.46875 171.441406 436.335938 175.472656 419.203125 173.960938 C 411.140625 173.457031 399.046875 171.441406 398.039062 161.363281 C 396.527344 149.269531 407.109375 129.617188 412.652344 119.539062 C 437.34375 75.199219 479.167969 31.863281 534.089844 35.390625 C 542.65625 35.894531 551.222656 36.398438 560.292969 36.902344 C 585.488281 37.910156 619.75 38.917969 639.90625 21.28125 C 646.457031 15.738281 647.96875 8.179688 652 1.628906 C 645.953125 1.125 637.386719 4.652344 630.835938 5.660156 C 623.277344 6.667969 615.71875 7.675781 608.160156 8.683594 Z M 608.160156 8.683594 " fill-opacity="1" fill-rule="nonzero"/></g></g></g></g></svg>