<svg xmlns="http://www.w3.org/2000/svg" xmlns:xlink="http://www.w3.org/1999/xlink" width="1080" zoomAndPan="magnify" viewBox="0 0 810 809.999993" height="1080" preserveAspectRatio="xMidYMid meet" version="1.0"><path fill="#155940" d="M 211.953125 482.628906 C 215.269531 477.3125 218.699219 472.191406 222.226562 467.324219 L 223.824219 466.882812 C 250.308594 432.652344 317.777344 350.351562 391.574219 298.425781 C 529.808594 201.167969 596.847656 180.726562 596.847656 180.726562 C 596.847656 180.726562 372.9375 280.476562 235.613281 463.652344 L 242.675781 461.710938 C 242.675781 461.710938 185.222656 534.753906 174.453125 641.972656 C 174.453125 641.972656 162.625 674.972656 148.070312 652.425781 C 144.878906 647.472656 169.964844 549.785156 211.941406 482.632812 Z M 211.953125 482.628906 " fill-opacity="1" fill-rule="evenodd"/><path fill="#2d873d" d="M 212.292969 482.164062 L 213.429688 476.089844 C 207.722656 462.445312 202.148438 446.722656 211.160156 393.0625 C 220.171875 339.390625 247.566406 314.730469 260.617188 293.097656 C 273.664062 271.449219 287.003906 256.242188 310.871094 241.71875 C 334.738281 227.179688 328.265625 215.363281 372.335938 195.824219 C 416.421875 176.289062 454.128906 187.714844 492.289062 168.300781 C 530.4375 148.882812 542.496094 135.042969 586.707031 140.664062 C 630.914062 146.289062 665.0625 190.496094 632.984375 250.65625 C 600.910156 310.832031 562.324219 275.621094 544.347656 297.304688 C 526.375 319 485.75 394.871094 437.527344 406.148438 C 389.308594 417.445312 345.707031 439.296875 327.8125 450.089844 C 309.9375 460.882812 299.886719 459.164062 273.824219 458.234375 C 256.570312 457.621094 240.175781 464.832031 231.082031 469.757812 C 367.960938 282.695312 596.847656 180.726562 596.847656 180.726562 C 596.847656 180.726562 529.8125 201.164062 391.574219 298.425781 C 300.042969 362.832031 218.257812 473.960938 212.292969 482.164062 Z M 212.210938 482.613281 L 212.988281 482.542969 L 212.085938 483.246094 Z M 212.210938 482.613281 " fill-opacity="1" fill-rule="evenodd"/></svg>