<svg width="28" height="27" viewBox="0 0 28 27" fill="none" xmlns="http://www.w3.org/2000/svg">
<path d="M14.2775 2.41772C17.8647 2.41772 18.2895 2.43345 19.7003 2.49638C21.0114 2.55407 21.7194 2.77434 22.1914 2.9579C22.8155 3.19915 23.2666 3.49284 23.7333 3.9596C24.2053 4.4316 24.4938 4.87739 24.735 5.50148C24.9186 5.97349 25.1389 6.68674 25.1965 7.99262C25.2595 9.40864 25.2752 9.83344 25.2752 13.4154C25.2752 17.0027 25.2595 17.4275 25.1965 18.8383C25.1389 20.1494 24.9186 20.8574 24.735 21.3294C24.4938 21.9535 24.2001 22.4045 23.7333 22.8713C23.2613 23.3433 22.8155 23.6317 22.1914 23.873C21.7194 24.0565 21.0062 24.2768 19.7003 24.3345C18.2843 24.3974 17.8595 24.4132 14.2775 24.4132C10.6903 24.4132 10.2654 24.3974 8.85467 24.3345C7.54355 24.2768 6.83554 24.0565 6.36353 23.873C5.73944 23.6317 5.28841 23.338 4.82165 22.8713C4.34965 22.3993 4.0612 21.9535 3.81995 21.3294C3.63639 20.8574 3.41612 20.1441 3.35843 18.8383C3.2955 17.4222 3.27977 16.9974 3.27977 13.4154C3.27977 9.8282 3.2955 9.40339 3.35843 7.99262C3.41612 6.6815 3.63639 5.97349 3.81995 5.50148C4.0612 4.87739 4.35489 4.42636 4.82165 3.9596C5.29366 3.48759 5.73944 3.19915 6.36353 2.9579C6.83554 2.77434 7.54879 2.55407 8.85467 2.49638C10.2654 2.43345 10.6903 2.41772 14.2775 2.41772ZM14.2775 0C10.6326 0 10.1763 0.0157335 8.74454 0.0786675C7.31803 0.141602 6.33731 0.37236 5.4877 0.702763C4.60138 1.0489 3.85142 1.50517 3.1067 2.25514C2.35673 2.99986 1.90046 3.74982 1.55433 4.6309C1.22392 5.48575 0.993164 6.46123 0.93023 7.88773C0.867296 9.32473 0.851562 9.781 0.851562 13.4259C0.851562 17.0709 0.867296 17.5271 0.93023 18.9589C0.993164 20.3854 1.22392 21.3661 1.55433 22.2157C1.90046 23.102 2.35673 23.852 3.1067 24.5967C3.85142 25.3414 4.60138 25.803 5.48246 26.1438C6.33731 26.4742 7.31279 26.705 8.73929 26.7679C10.171 26.8309 10.6273 26.8466 14.2722 26.8466C17.9172 26.8466 18.3734 26.8309 19.8052 26.7679C21.2317 26.705 22.2124 26.4742 23.062 26.1438C23.9431 25.803 24.6931 25.3414 25.4378 24.5967C26.1825 23.852 26.644 23.102 26.9849 22.221C27.3153 21.3661 27.5461 20.3906 27.609 18.9641C27.672 17.5324 27.6877 17.0761 27.6877 13.4312C27.6877 9.78624 27.672 9.32997 27.609 7.89822C27.5461 6.47172 27.3153 5.49099 26.9849 4.64138C26.6545 3.74982 26.1982 2.99986 25.4483 2.25514C24.7036 1.51042 23.9536 1.0489 23.0725 0.708008C22.2177 0.377604 21.2422 0.146846 19.8157 0.083912C18.3787 0.0157335 17.9224 0 14.2775 0Z" fill="#B7351F"/>
<path d="M14.2791 6.52942C10.4716 6.52942 7.38257 9.61843 7.38257 13.4259C7.38257 17.2334 10.4716 20.3225 14.2791 20.3225C18.0866 20.3225 21.1756 17.2334 21.1756 13.4259C21.1756 9.61843 18.0866 6.52942 14.2791 6.52942ZM14.2791 17.8995C11.8089 17.8995 9.80553 15.8961 9.80553 13.4259C9.80553 10.9558 11.8089 8.95238 14.2791 8.95238C16.7492 8.95238 18.7526 10.9558 18.7526 13.4259C18.7526 15.8961 16.7492 17.8995 14.2791 17.8995Z" fill="#B7351F"/>
<path d="M23.0565 6.25667C23.0565 7.14824 22.3328 7.86673 21.4465 7.86673C20.5549 7.86673 19.8364 7.14299 19.8364 6.25667C19.8364 5.3651 20.5602 4.64661 21.4465 4.64661C22.3328 4.64661 23.0565 5.37035 23.0565 6.25667Z" fill="#B7351F"/>
</svg>
