<svg width="28" height="27" viewBox="0 0 28 27" fill="none" xmlns="http://www.w3.org/2000/svg">
<path d="M25.5673 0H2.68555C1.58945 0 0.703125 0.865343 0.703125 1.93522V24.9114C0.703125 25.9813 1.58945 26.8519 2.68555 26.8519H25.5673C26.6634 26.8519 27.555 25.9813 27.555 24.9166V1.93522C27.555 0.865343 26.6634 0 25.5673 0ZM8.66952 22.8818H4.6837V10.0642H8.66952V22.8818ZM6.67661 8.31778C5.39696 8.31778 4.36379 7.28461 4.36379 6.0102C4.36379 4.73579 5.39696 3.70262 6.67661 3.70262C7.95103 3.70262 8.98419 4.73579 8.98419 6.0102C8.98419 7.27937 7.95103 8.31778 6.67661 8.31778ZM23.5849 22.8818H19.6043V16.6513C19.6043 15.1671 19.5781 13.2529 17.5327 13.2529C15.4612 13.2529 15.1465 14.8734 15.1465 16.5464V22.8818H11.1712V10.0642H14.9891V11.8159H15.0416C15.5713 10.8089 16.8719 9.74429 18.8071 9.74429C22.8402 9.74429 23.5849 12.398 23.5849 15.8489V22.8818Z" fill="#B7351F"/>
</svg>
