<svg width="26" height="21" viewBox="0 0 26 21" fill="none" xmlns="http://www.w3.org/2000/svg">
<path d="M0.389193 9.23487C1.08952 6.5979 2.71147 4.25617 4.99677 2.58267C7.28209 0.909143 10.0994 0 13 0C15.9006 0 18.7179 0.909143 21.0032 2.58267C23.2886 4.25617 24.9104 6.5979 25.6108 9.23487H24.4717C22.5501 9.20837 20.668 9.74638 19.0895 10.7733C18.9983 10.8351 18.9032 10.8916 18.8047 10.9423H18.6718C18.5732 10.8916 18.4781 10.8351 18.387 10.7733C16.7945 9.77013 14.919 9.23434 13 9.23434C11.081 9.23434 9.20546 9.77013 7.613 10.7733C7.52187 10.8351 7.42675 10.8916 7.32822 10.9423H7.19533C7.09679 10.8916 7.00168 10.8351 6.91055 10.7733C5.33204 9.74638 3.44986 9.20837 1.52829 9.23487H0.389193ZM22.4213 14.8106C23.0061 14.384 23.7308 14.1608 24.4717 14.1792H26V11.3247H24.4717C23.1667 11.3099 21.8915 11.6904 20.8361 12.4096C20.2421 12.8198 19.5236 13.0412 18.7857 13.0412C18.0477 13.0412 17.3293 12.8198 16.7353 12.4096C15.6531 11.7039 14.3661 11.3255 13.0475 11.3255C11.7289 11.3255 10.4419 11.7039 9.35962 12.4096C8.76567 12.8198 8.04718 13.0412 7.30924 13.0412C6.57129 13.0412 5.8528 12.8198 5.25885 12.4096C4.19038 11.6812 2.89693 11.3002 1.57576 11.3247H0V14.1792H1.52829C2.2692 14.1608 2.99394 14.384 3.57868 14.8106C4.65893 15.5169 5.9445 15.8956 7.26177 15.8956C8.57905 15.8956 9.86462 15.5169 10.9449 14.8106C11.5304 14.3854 12.2546 14.1624 12.9953 14.1792C13.7364 14.1593 14.4617 14.3827 15.0456 14.8106C16.1279 15.5165 17.4149 15.8948 18.7335 15.8948C20.0521 15.8948 21.3391 15.5165 22.4213 14.8106ZM22.4213 19.9151C23.0061 19.4885 23.7308 19.2653 24.4717 19.2837H26V16.4291H24.4717C23.1667 16.4144 21.8915 16.7949 20.8361 17.514C20.2421 17.9243 19.5236 18.1456 18.7857 18.1456C18.0477 18.1456 17.3293 17.9243 16.7353 17.514C15.6531 16.8083 14.3661 16.43 13.0475 16.43C11.7289 16.43 10.4419 16.8083 9.35962 17.514C8.76567 17.9243 8.04718 18.1456 7.30924 18.1456C6.57129 18.1456 5.8528 17.9243 5.25885 17.514C4.19038 16.7857 2.89693 16.4047 1.57576 16.4291H0V19.2837H1.52829C2.2692 19.2653 2.99394 19.4885 3.57868 19.9151C4.65893 20.6213 5.9445 21 7.26177 21C8.57905 21 9.86462 20.6213 10.9449 19.9151C11.5304 19.4898 12.2546 19.2668 12.9953 19.2837C13.7364 19.2638 14.4617 19.4872 15.0456 19.9151C16.1279 20.6209 17.4149 20.9992 18.7335 20.9992C20.0521 20.9992 21.3391 20.6209 22.4213 19.9151Z" fill="#89490B"/>
</svg>
