<svg xmlns="http://www.w3.org/2000/svg" xmlns:xlink="http://www.w3.org/1999/xlink" width="1080" zoomAndPan="magnify" viewBox="0 0 810 809.999993" height="1080" preserveAspectRatio="xMidYMid meet" version="1.0"><defs><clipPath id="b98ab6843a"><path d="M 548 106 L 693.925781 106 L 693.925781 471 L 548 471 Z M 548 106 " clip-rule="nonzero"/></clipPath><clipPath id="ad0b61103d"><path d="M 406 81 L 693.925781 81 L 693.925781 488 L 406 488 Z M 406 81 " clip-rule="nonzero"/></clipPath><clipPath id="700bf072e2"><path d="M 524 695 L 592 695 L 592 742.5 L 524 742.5 Z M 524 695 " clip-rule="nonzero"/></clipPath></defs><path fill="#edbe7e" d="M 313.683594 665.660156 L 298.929688 669.414062 L 290.171875 665.660156 L 290.171875 398.925781 L 313.683594 398.925781 Z M 313.683594 665.660156 " fill-opacity="1" fill-rule="nonzero"/><path fill="#c44141" d="M 259.003906 712.945312 L 252.082031 714.398438 L 247.171875 712.945312 L 247.171875 446.210938 L 259.003906 446.210938 Z M 259.003906 712.945312 " fill-opacity="1" fill-rule="nonzero"/><path fill="#c44141" d="M 294.386719 713.710938 L 286.695312 715.164062 L 282.550781 713.710938 L 282.550781 446.984375 L 294.386719 446.984375 Z M 294.386719 713.710938 " fill-opacity="1" fill-rule="nonzero"/><path fill="#c44141" d="M 359.03125 726.453125 L 357.492188 729.777344 L 350.695312 730.035156 L 273.722656 552.1875 L 282.046875 548.605469 Z M 359.03125 726.453125 " fill-opacity="1" fill-rule="nonzero"/><path fill="#473735" d="M 284.203125 576.171875 L 256.039062 577.039062 L 255.859375 569.109375 L 284.03125 568.242188 Z M 284.203125 576.171875 " fill-opacity="1" fill-rule="nonzero"/><path fill="#473735" d="M 293.742188 597.699219 L 265.570312 598.570312 L 265.394531 590.640625 L 293.558594 589.769531 Z M 293.742188 597.699219 " fill-opacity="1" fill-rule="nonzero"/><path fill="#473735" d="M 304.320312 621.183594 L 276.15625 622.046875 L 275.984375 614.113281 L 304.148438 613.253906 Z M 304.320312 621.183594 " fill-opacity="1" fill-rule="nonzero"/><path fill="#473735" d="M 314.929688 645.652344 L 286.765625 646.515625 L 286.589844 638.585938 L 314.753906 637.722656 Z M 314.929688 645.652344 " fill-opacity="1" fill-rule="nonzero"/><path fill="#473735" d="M 323.414062 665.226562 L 295.25 666.097656 L 295.070312 658.167969 L 323.242188 657.296875 Z M 323.414062 665.226562 " fill-opacity="1" fill-rule="nonzero"/><path fill="#473735" d="M 331.921875 685.796875 L 303.757812 686.660156 L 303.578125 678.730469 L 331.75 677.867188 Z M 331.921875 685.796875 " fill-opacity="1" fill-rule="nonzero"/><path fill="#473735" d="M 341.480469 708.3125 L 313.308594 709.183594 L 313.132812 701.253906 L 341.304688 700.382812 Z M 341.480469 708.3125 " fill-opacity="1" fill-rule="nonzero"/><path fill="#c44141" d="M 325.667969 726.824219 L 322.84375 731.316406 L 314.53125 731.59375 L 233.410156 544.515625 L 244.542969 539.742188 Z M 325.667969 726.824219 " fill-opacity="1" fill-rule="nonzero"/><path fill="#edbe7e" d="M 457.511719 674.117188 L 439.683594 677.109375 L 434 674.117188 L 434 407.382812 L 457.511719 407.382812 Z M 457.511719 674.117188 " fill-opacity="1" fill-rule="nonzero"/><path fill="#edbe7e" d="M 556.628906 730.824219 L 539.738281 733.625 L 533.117188 730.824219 L 533.117188 464.097656 L 556.628906 464.097656 Z M 556.628906 730.824219 " fill-opacity="1" fill-rule="nonzero"/><path fill="#edbe7e" d="M 206.097656 710.710938 L 189.785156 714.398438 L 182.59375 710.710938 L 182.59375 443.980469 L 206.097656 443.980469 Z M 206.097656 710.710938 " fill-opacity="1" fill-rule="nonzero"/><path fill="#edbe7e" d="M 382.902344 658.730469 L 367.382812 660.957031 L 359.398438 658.730469 L 359.398438 392.003906 L 382.902344 392.003906 Z M 382.902344 658.730469 " fill-opacity="1" fill-rule="nonzero"/><path fill="#edbe7e" d="M 393.113281 730.824219 L 375.910156 732.855469 L 369.609375 730.824219 L 369.609375 464.097656 L 393.113281 464.097656 Z M 393.113281 730.824219 " fill-opacity="1" fill-rule="nonzero"/><g clip-path="url(#b98ab6843a)"><path fill="#9c2525" d="M 693.570312 112.464844 C 693.082031 114.300781 692.601562 116.128906 692.125 117.972656 C 663.796875 225.644531 595.054688 449.613281 584.738281 455.816406 C 571.195312 463.96875 559.703125 469.855469 552.539062 470.578125 L 552.539062 470.398438 L 548.585938 210.273438 L 642.449219 106.21875 Z M 693.570312 112.464844 " fill-opacity="1" fill-rule="nonzero"/></g><path fill="#c44141" d="M 183.097656 445.023438 L 183.097656 571.496094 L 369.316406 597.296875 L 556.628906 569.703125 L 556.628906 247.042969 L 369.859375 382.988281 Z M 183.097656 445.023438 " fill-opacity="1" fill-rule="nonzero"/><path fill="#edbe7e" d="M 369.003906 523.679688 L 368.566406 523.625 L 181.910156 497.628906 L 182.757812 491.539062 L 368.976562 517.46875 L 556.210938 489.75 L 557.109375 495.835938 Z M 369.003906 523.679688 " fill-opacity="1" fill-rule="nonzero"/><path fill="#473735" d="M 297.300781 584.523438 L 297.300781 490.75 C 283.59375 484.316406 270.355469 482.027344 253.621094 484.726562 L 253.328125 572.082031 L 253.328125 577.074219 L 297.296875 584.523438 Z M 297.300781 584.523438 " fill-opacity="1" fill-rule="nonzero"/><path fill="#473735" d="M 436.234375 475.628906 L 556.789062 457.878906 C 557.414062 431.390625 558.9375 425.21875 562.046875 395.976562 C 570.476562 316.636719 587.339844 246.917969 606.300781 188.355469 L 536.652344 308.8125 L 436.242188 475.628906 Z M 436.234375 475.628906 " fill-opacity="1" fill-rule="nonzero"/><path fill="#473735" d="M 369.316406 597.296875 C 368.769531 556.707031 368.761719 511.167969 369.316406 470.578125 C 369.875 511.167969 369.867188 556.707031 369.316406 597.296875 Z M 369.316406 597.296875 " fill-opacity="1" fill-rule="nonzero"/><path fill="#9c2525" d="M 648.085938 119.539062 C 617.484375 164.941406 586.261719 211.175781 556.621094 255.339844 C 490.492188 353.863281 432.226562 442.085938 406.394531 487.898438 L 367.558594 482.792969 C 317.605469 469.785156 254.085938 463.878906 183.097656 461.871094 C 174.855469 461.640625 166.503906 461.453125 158.066406 461.320312 C 171.171875 418.882812 173.214844 321.121094 168.277344 188.464844 L 204.050781 173.132812 L 240.839844 182.324219 C 334.84375 399.96875 490.148438 286.601562 602.550781 106.796875 C 602.574219 106.769531 602.59375 106.734375 602.613281 106.707031 L 630.207031 101.597656 L 648.09375 119.546875 Z M 648.085938 119.539062 " fill-opacity="1" fill-rule="nonzero"/><g clip-path="url(#ad0b61103d)"><path fill="#edbe7e" d="M 693.570312 112.832031 L 649.628906 81.15625 L 602.621094 106.707031 L 623.664062 131.417969 L 593.371094 181.121094 L 588.996094 188.296875 L 522.925781 296.707031 L 518.550781 303.886719 L 486.226562 356.925781 L 481.84375 364.109375 L 406.40625 487.890625 L 415.074219 485.855469 C 429.640625 482.425781 442.140625 473.125 449.605469 460.152344 L 469.519531 425.609375 C 469.519531 425.609375 569.136719 425.503906 569.136719 425.503906 L 552.546875 470.40625 L 552.546875 470.585938 C 559.703125 469.863281 571.195312 463.976562 584.746094 455.824219 C 594.324219 450.066406 654.277344 256.542969 685.472656 142.722656 L 685.882812 142.9375 L 693.578125 112.847656 Z M 571.785156 418.320312 L 473.648438 418.421875 C 473.648438 418.421875 504.972656 364.082031 504.972656 364.082031 L 591.867188 363.992188 L 571.785156 418.324219 Z M 594.515625 356.8125 L 509.113281 356.90625 L 539.683594 303.863281 L 614.113281 303.789062 Z M 616.769531 296.601562 L 543.820312 296.679688 L 572.878906 246.269531 C 572.878906 246.269531 635.390625 246.207031 635.390625 246.207031 L 616.761719 296.601562 Z M 638.046875 239.027344 L 577.015625 239.089844 L 606.308594 188.277344 L 656.820312 188.222656 L 638.046875 239.023438 Z M 658.847656 182.742188 L 658.804688 181.042969 L 610.445312 181.09375 L 632.941406 142.070312 L 656.648438 127.539062 L 675.566406 137.5 Z M 658.847656 182.742188 " fill-opacity="1" fill-rule="nonzero"/></g><path fill="#edbe7e" d="M 602.808594 106.78125 C 521.277344 264.453125 366.390625 368.390625 288.230469 332.140625 C 216.914062 299.058594 205.261719 186.414062 204.050781 173.132812 L 240.839844 182.324219 C 334.84375 399.96875 490.148438 286.601562 602.550781 106.796875 L 602.816406 106.78125 Z M 602.808594 106.78125 " fill-opacity="1" fill-rule="nonzero"/><path fill="#473735" d="M 456.996094 580.566406 C 456.511719 548.507812 456.503906 512.539062 456.996094 480.484375 C 457.492188 512.542969 457.484375 548.511719 456.996094 580.566406 Z M 456.996094 580.566406 " fill-opacity="1" fill-rule="nonzero"/><path fill="#473735" d="M 406.238281 589.601562 C 405.878906 571.925781 405.871094 552.089844 406.238281 534.421875 C 406.609375 552.097656 406.601562 571.933594 406.238281 589.601562 Z M 406.238281 589.601562 " fill-opacity="1" fill-rule="nonzero"/><path fill="#473735" d="M 518.53125 564.992188 C 518.210938 551.261719 518.210938 535.847656 518.53125 522.117188 C 518.851562 535.847656 518.851562 551.261719 518.53125 564.992188 Z M 518.53125 564.992188 " fill-opacity="1" fill-rule="nonzero"/><path fill="#473735" d="M 548.523438 570.375 C 548.246094 560.058594 548.246094 548.589844 548.523438 538.265625 C 548.800781 548.589844 548.800781 560.058594 548.523438 570.375 Z M 548.523438 570.375 " fill-opacity="1" fill-rule="nonzero"/><path fill="#473735" d="M 426.230469 534.226562 C 425.882812 518.03125 425.882812 499.847656 426.230469 483.65625 C 426.578125 499.847656 426.578125 518.03125 426.230469 534.226562 Z M 426.230469 534.226562 " fill-opacity="1" fill-rule="nonzero"/><path fill="#473735" d="M 534.683594 520.382812 C 534.320312 502.707031 534.3125 482.871094 534.683594 465.203125 C 535.050781 482.875 535.042969 502.714844 534.683594 520.382812 Z M 534.683594 520.382812 " fill-opacity="1" fill-rule="nonzero"/><path fill="#9c2525" d="M 606.683594 730.496094 C 605.808594 729.035156 604.324219 727.914062 603.003906 726.886719 C 600.804688 725.167969 598.566406 723.519531 596.285156 721.917969 C 594.039062 720.347656 591.777344 718.796875 589.507812 717.257812 C 587.769531 716.082031 585.941406 715.21875 583.804688 715.378906 C 579.457031 715.699219 575.324219 719.804688 572.53125 722.753906 C 569.78125 725.652344 568.078125 728.902344 567.0625 732.632812 C 566.984375 732.699219 566.921875 732.785156 566.910156 732.847656 C 566.769531 733.410156 566.652344 733.972656 566.609375 734.523438 C 566.589844 734.621094 566.566406 734.710938 566.546875 734.808594 C 566.535156 734.890625 566.546875 734.925781 566.589844 734.941406 C 566.574219 735.78125 566.757812 736.601562 567.292969 737.375 C 568.460938 739.042969 571.257812 739.578125 573.101562 739.878906 C 578.566406 740.761719 584.339844 740.769531 589.855469 740.5625 C 593.878906 740.40625 611.609375 738.703125 606.691406 730.496094 Z M 606.683594 730.496094 " fill-opacity="1" fill-rule="nonzero"/><path fill="#9c2525" d="M 542.300781 726.507812 C 542.390625 723.753906 542.605469 721.339844 541.4375 718.746094 C 540.335938 716.3125 538.089844 714.335938 536.144531 712.605469 C 533.546875 710.300781 530.621094 708.394531 527.726562 706.503906 C 522.203125 702.886719 516.296875 699.570312 510.21875 696.988281 C 507.539062 695.855469 504.722656 695.214844 501.816406 695.484375 C 498.894531 695.765625 496.109375 697.164062 493.507812 698.402344 C 487.542969 701.246094 481.136719 705.210938 477.300781 710.734375 C 473.289062 716.519531 475.222656 721.558594 477.949219 728.859375 C 479.203125 730.824219 480.597656 732.609375 482.402344 734.125 C 484.488281 735.886719 487.367188 736.519531 489.96875 737.054688 C 492.9375 737.667969 495.964844 737.582031 498.976562 737.613281 C 502.363281 737.640625 505.648438 738.257812 509.050781 738.015625 C 512.152344 737.792969 515.210938 737.367188 518.328125 737.277344 C 521.730469 737.179688 525.132812 737.160156 528.511719 736.664062 C 531.664062 736.207031 534.78125 735.34375 537.890625 734.664062 C 539.378906 734.335938 540.933594 734.441406 541.957031 733.109375 C 542.277344 732.695312 542.375 731.957031 542.332031 731.460938 C 542.171875 729.765625 542.242188 728.191406 542.304688 726.496094 Z M 542.300781 726.507812 " fill-opacity="1" fill-rule="nonzero"/><path fill="#473735" d="M 530.4375 734.125 C 530.480469 732.949219 530.570312 731.914062 530.070312 730.800781 C 529.597656 729.757812 528.636719 728.917969 527.800781 728.171875 C 526.695312 727.183594 525.4375 726.371094 524.199219 725.5625 C 521.835938 724.011719 519.308594 722.59375 516.707031 721.496094 C 515.558594 721.007812 514.355469 720.734375 513.113281 720.855469 C 511.859375 720.972656 510.671875 721.570312 509.558594 722.101562 C 507.003906 723.316406 504.261719 725.015625 502.621094 727.378906 C 500.902344 729.855469 501.730469 732.011719 502.898438 735.136719 C 503.4375 735.96875 504.035156 736.742188 504.804688 737.390625 C 505.695312 738.140625 506.933594 738.410156 508.046875 738.640625 C 509.320312 738.90625 510.613281 738.871094 511.902344 738.878906 C 513.347656 738.890625 514.761719 739.15625 516.214844 739.050781 C 517.542969 738.953125 518.851562 738.773438 520.1875 738.738281 C 521.640625 738.695312 523.101562 738.691406 524.539062 738.472656 C 525.890625 738.277344 527.226562 737.910156 528.554688 737.617188 C 529.195312 737.480469 529.855469 737.519531 530.292969 736.957031 C 530.433594 736.777344 530.472656 736.464844 530.453125 736.253906 C 530.382812 735.53125 530.417969 734.855469 530.4375 734.125 Z M 530.4375 734.125 " fill-opacity="1" fill-rule="nonzero"/><g clip-path="url(#700bf072e2)"><path fill="#473735" d="M 591.375 721.382812 C 590.441406 718.335938 589.566406 715.351562 587.894531 712.613281 C 584.675781 707.339844 578.929688 704.222656 574.699219 699.882812 C 573.378906 698.527344 572.710938 696.648438 571.054688 695.625 C 569.898438 694.910156 568.328125 695.011719 567.042969 695.136719 C 562.832031 695.546875 558.644531 696.988281 554.667969 698.324219 C 546.679688 701.007812 538.933594 704.398438 531.664062 708.648438 C 527.878906 710.273438 524.21875 714.789062 524.207031 719.03125 C 524.199219 722.128906 524.742188 725.320312 525.144531 728.386719 C 525.5 731.074219 525.785156 733.980469 526.65625 736.5625 C 527.386719 738.746094 528.492188 739.984375 530.75 740.554688 C 533.882812 741.339844 537.347656 741.332031 540.554688 741.589844 C 547.347656 742.125 554.132812 742.285156 560.941406 741.992188 C 566.5625 741.757812 573.59375 741.777344 578.46875 738.558594 C 580.917969 736.945312 583.144531 734.820312 585.417969 732.972656 C 587.492188 731.289062 589.566406 729.492188 591.011719 727.226562 C 592.167969 725.410156 591.976562 723.359375 591.375 721.382812 Z M 591.375 721.382812 " fill-opacity="1" fill-rule="nonzero"/></g><path fill="#473735" d="M 477.933594 678.011719 C 477.253906 676.878906 476.105469 676.015625 475.082031 675.210938 C 473.378906 673.875 471.640625 672.601562 469.867188 671.355469 C 468.128906 670.136719 466.375 668.933594 464.613281 667.738281 C 463.265625 666.828125 461.847656 666.160156 460.191406 666.285156 C 456.816406 666.535156 453.609375 669.714844 451.445312 672.003906 C 449.3125 674.257812 447.996094 676.773438 447.203125 679.660156 C 447.148438 679.71875 447.097656 679.78125 447.085938 679.828125 C 446.972656 680.265625 446.890625 680.699219 446.855469 681.128906 C 446.84375 681.207031 446.820312 681.273438 446.808594 681.351562 C 446.792969 681.414062 446.808594 681.441406 446.835938 681.457031 C 446.828125 682.109375 446.96875 682.75 447.382812 683.339844 C 448.289062 684.636719 450.460938 685.050781 451.886719 685.28125 C 456.121094 685.96875 460.601562 685.976562 464.878906 685.808594 C 467.996094 685.691406 481.746094 684.371094 477.933594 678.003906 Z M 477.933594 678.011719 " fill-opacity="1" fill-rule="nonzero"/><path fill="#9c2525" d="M 399.527344 679.097656 C 399.457031 676.960938 399.292969 675.085938 400.195312 673.074219 C 401.050781 671.1875 402.789062 669.652344 404.300781 668.308594 C 406.308594 666.523438 408.585938 665.046875 410.824219 663.578125 C 415.109375 660.777344 419.6875 658.203125 424.402344 656.199219 C 426.476562 655.324219 428.660156 654.820312 430.917969 655.039062 C 433.1875 655.253906 435.34375 656.339844 437.359375 657.296875 C 441.988281 659.511719 446.960938 662.578125 449.929688 666.863281 C 453.039062 671.347656 451.542969 675.257812 449.429688 680.921875 C 448.457031 682.4375 447.378906 683.828125 445.980469 685.003906 C 444.359375 686.367188 442.125 686.859375 440.109375 687.277344 C 437.804688 687.75 435.460938 687.6875 433.117188 687.710938 C 430.496094 687.730469 427.941406 688.210938 425.304688 688.023438 C 422.898438 687.847656 420.527344 687.523438 418.113281 687.453125 C 415.476562 687.375 412.835938 687.355469 410.21875 686.980469 C 407.769531 686.625 405.355469 685.957031 402.941406 685.429688 C 401.789062 685.171875 400.578125 685.253906 399.785156 684.222656 C 399.535156 683.898438 399.457031 683.328125 399.492188 682.945312 C 399.617188 681.628906 399.5625 680.40625 399.515625 679.089844 Z M 399.527344 679.097656 " fill-opacity="1" fill-rule="nonzero"/><path fill="#473735" d="M 450.808594 685.691406 C 450.835938 684.78125 450.910156 683.972656 450.523438 683.117188 C 450.160156 682.3125 449.410156 681.65625 448.761719 681.082031 C 447.898438 680.316406 446.925781 679.683594 445.964844 679.054688 C 444.136719 677.851562 442.175781 676.753906 440.152344 675.898438 C 439.261719 675.523438 438.328125 675.308594 437.359375 675.398438 C 436.394531 675.488281 435.46875 675.953125 434.605469 676.363281 C 432.625 677.308594 430.503906 678.625 429.230469 680.453125 C 427.902344 682.375 428.539062 684.042969 429.445312 686.472656 C 429.863281 687.117188 430.320312 687.714844 430.917969 688.21875 C 431.617188 688.800781 432.570312 689.011719 433.429688 689.191406 C 434.417969 689.394531 435.421875 689.363281 436.421875 689.378906 C 437.550781 689.386719 438.632812 689.59375 439.769531 689.511719 C 440.796875 689.433594 441.8125 689.296875 442.847656 689.269531 C 443.976562 689.234375 445.109375 689.226562 446.230469 689.066406 C 447.273438 688.914062 448.308594 688.628906 449.347656 688.398438 C 449.839844 688.285156 450.355469 688.320312 450.695312 687.882812 C 450.800781 687.746094 450.835938 687.5 450.820312 687.332031 C 450.765625 686.769531 450.792969 686.25 450.8125 685.683594 Z M 450.808594 685.691406 " fill-opacity="1" fill-rule="nonzero"/><path fill="#9c2525" d="M 257.847656 718.710938 C 256.617188 716.652344 254.53125 715.089844 252.671875 713.628906 C 249.585938 711.207031 246.425781 708.890625 243.214844 706.644531 C 240.054688 704.429688 236.871094 702.246094 233.683594 700.085938 C 231.242188 698.429688 228.660156 697.21875 225.65625 697.441406 C 219.535156 697.894531 213.71875 703.667969 209.78125 707.820312 C 205.914062 711.902344 203.523438 716.480469 202.082031 721.71875 C 201.976562 721.816406 201.886719 721.925781 201.867188 722.023438 C 201.671875 722.816406 201.511719 723.609375 201.441406 724.382812 C 201.414062 724.511719 201.386719 724.644531 201.359375 724.777344 C 201.339844 724.890625 201.359375 724.945312 201.414062 724.964844 C 201.402344 726.15625 201.652344 727.308594 202.410156 728.394531 C 204.050781 730.746094 207.996094 731.496094 210.582031 731.921875 C 218.277344 733.167969 226.402344 733.179688 234.164062 732.882812 C 239.820312 732.664062 264.777344 730.265625 257.847656 718.71875 Z M 257.847656 718.710938 " fill-opacity="1" fill-rule="nonzero"/><path fill="#9c2525" d="M 171.550781 721.210938 C 171.628906 719.011719 171.796875 717.085938 170.863281 715.011719 C 169.988281 713.070312 168.191406 711.492188 166.636719 710.109375 C 164.5625 708.269531 162.226562 706.746094 159.914062 705.238281 C 155.503906 702.351562 150.796875 699.703125 145.933594 697.640625 C 143.796875 696.738281 141.550781 696.222656 139.226562 696.445312 C 136.898438 696.667969 134.679688 697.78125 132.597656 698.777344 C 127.835938 701.050781 122.722656 704.207031 119.660156 708.617188 C 116.460938 713.238281 118 717.257812 120.175781 723.085938 C 121.175781 724.652344 122.289062 726.078125 123.730469 727.289062 C 125.394531 728.695312 127.695312 729.203125 129.773438 729.625 C 132.148438 730.113281 134.5625 730.050781 136.96875 730.070312 C 139.671875 730.09375 142.296875 730.585938 145.007812 730.390625 C 147.484375 730.210938 149.933594 729.875 152.417969 729.808594 C 155.136719 729.730469 157.847656 729.710938 160.542969 729.320312 C 163.058594 728.953125 165.542969 728.261719 168.027344 727.71875 C 169.214844 727.457031 170.460938 727.539062 171.273438 726.480469 C 171.53125 726.148438 171.609375 725.558594 171.574219 725.167969 C 171.449219 723.8125 171.503906 722.558594 171.546875 721.203125 Z M 171.550781 721.210938 " fill-opacity="1" fill-rule="nonzero"/><path fill="#473735" d="M 220.621094 710.949219 C 219.6875 707.902344 218.8125 704.917969 217.140625 702.179688 C 213.921875 696.90625 208.175781 693.789062 203.945312 689.449219 C 202.625 688.09375 201.957031 686.214844 200.300781 685.191406 C 199.148438 684.476562 197.574219 684.578125 196.289062 684.703125 C 192.078125 685.113281 187.890625 686.554688 183.914062 687.890625 C 175.929688 690.574219 168.179688 693.960938 160.910156 698.214844 C 157.125 699.839844 153.46875 704.355469 153.453125 708.597656 C 153.445312 711.695312 153.988281 714.886719 154.390625 717.953125 C 154.746094 720.640625 155.03125 723.546875 155.902344 726.128906 C 156.632812 728.3125 157.738281 729.550781 160 730.121094 C 163.128906 730.90625 166.59375 730.898438 169.800781 731.15625 C 176.597656 731.691406 183.378906 731.851562 190.1875 731.558594 C 195.808594 731.324219 202.839844 731.34375 207.714844 728.125 C 210.164062 726.511719 212.390625 724.386719 214.664062 722.539062 C 216.738281 720.855469 218.8125 719.058594 220.257812 716.792969 C 221.414062 714.976562 221.226562 712.925781 220.621094 710.949219 Z M 220.621094 710.949219 " fill-opacity="1" fill-rule="nonzero"/><path fill="#473735" d="M 198.777344 464.097656 C 199.246094 482.5 199.238281 501.957031 198.777344 520.382812 C 198.320312 501.941406 198.3125 482.507812 198.777344 464.097656 Z M 198.777344 464.097656 " fill-opacity="1" fill-rule="nonzero"/><path fill="#473735" d="M 229.53125 516.949219 C 229.988281 536.292969 229.988281 557.6875 229.53125 577.039062 C 229.070312 557.6875 229.070312 536.292969 229.53125 516.949219 Z M 229.53125 516.949219 " fill-opacity="1" fill-rule="nonzero"/><path fill="#473735" d="M 311.292969 589.253906 C 310.824219 575.738281 310.824219 562.125 311.292969 548.605469 C 311.757812 562.125 311.757812 575.738281 311.292969 589.253906 Z M 311.292969 589.253906 " fill-opacity="1" fill-rule="nonzero"/><path fill="#473735" d="M 328.515625 483.65625 C 328.972656 506.734375 328.964844 532.398438 328.515625 555.492188 C 328.0625 532.390625 328.054688 506.734375 328.515625 483.65625 Z M 328.515625 483.65625 " fill-opacity="1" fill-rule="nonzero"/><path fill="#473735" d="M 352.367188 539.742188 C 352.832031 552.144531 352.832031 564.636719 352.367188 577.039062 C 351.898438 564.636719 351.898438 552.144531 352.367188 539.742188 Z M 352.367188 539.742188 " fill-opacity="1" fill-rule="nonzero"/></svg>