<svg width="187" height="234" viewBox="0 0 187 234" fill="none" xmlns="http://www.w3.org/2000/svg">
<path d="M63.4632 206.113L58.6909 207.431L55.8582 206.113V112.427H63.4632V206.113Z" fill="#EDBE7E"/>
<path d="M45.7766 222.721L43.5377 223.231L41.9495 222.721V129.035H45.7766V222.721Z" fill="#C44141"/>
<path d="M57.2215 222.989L54.7336 223.5L53.3931 222.989V129.306H57.2215V222.989Z" fill="#C44141"/>
<path d="M78.131 227.465L77.6332 228.633L75.4347 228.723L50.5374 166.257L53.2299 164.999L78.131 227.465Z" fill="#C44141"/>
<path d="M53.9275 174.681L44.8176 174.986L44.7595 172.201L53.8719 171.896L53.9275 174.681Z" fill="#473735"/>
<path d="M57.013 182.243L47.9006 182.549L47.8438 179.763L56.9536 179.458L57.013 182.243Z" fill="#473735"/>
<path d="M60.4345 190.491L51.3246 190.794L51.269 188.007L60.3789 187.706L60.4345 190.491Z" fill="#473735"/>
<path d="M63.8662 199.085L54.7563 199.388L54.6995 196.603L63.8093 196.3L63.8662 199.085Z" fill="#473735"/>
<path d="M66.6104 205.96L57.5005 206.266L57.4424 203.481L66.5548 203.175L66.6104 205.96Z" fill="#473735"/>
<path d="M69.3623 213.185L60.2525 213.488L60.1943 210.703L69.3067 210.4L69.3623 213.185Z" fill="#473735"/>
<path d="M72.4542 221.094L63.3418 221.4L63.2849 218.615L72.3973 218.309L72.4542 221.094Z" fill="#473735"/>
<path d="M67.3395 227.596L66.426 229.173L63.7372 229.271L37.498 163.563L41.099 161.886L67.3395 227.596Z" fill="#C44141"/>
<path d="M109.985 209.083L104.219 210.134L102.38 209.083V115.397H109.985V209.083Z" fill="#EDBE7E"/>
<path d="M142.045 229.001L136.582 229.984L134.44 229.001V135.317H142.045V229.001Z" fill="#EDBE7E"/>
<path d="M28.6638 221.936L23.3874 223.231L21.0613 221.936V128.251H28.6638V221.936Z" fill="#EDBE7E"/>
<path d="M85.8523 203.679L80.8324 204.461L78.2498 203.679V109.996H85.8523V203.679Z" fill="#EDBE7E"/>
<path d="M89.1552 229.001L83.5908 229.714L81.5527 229.001V135.317H89.1552V229.001Z" fill="#EDBE7E"/>
<mask id="mask0_219_206" style="mask-type:luminance" maskUnits="userSpaceOnUse" x="139" y="9" width="48" height="129">
<path d="M139.254 9.5415H186.455V137.742H139.254V9.5415Z" fill="white"/>
</mask>
<g mask="url(#mask0_219_206)">
<path d="M186.34 11.812C186.182 12.4568 186.027 13.0989 185.873 13.7465C176.71 51.5645 154.474 130.23 151.138 132.409C146.757 135.272 143.04 137.34 140.723 137.593V137.53L139.444 46.1656L169.805 9.61816L186.34 11.812Z" fill="#9C2525"/>
</g>
<path d="M21.2241 128.617V173.039L81.4578 182.101L142.045 172.409V59.0801L81.6335 106.829L21.2241 128.617Z" fill="#C44141"/>
<path d="M81.3568 156.244L81.2153 156.225L20.8401 147.094L21.1143 144.956L81.348 154.063L141.91 144.327L142.201 146.465L81.3568 156.244Z" fill="#EDBE7E"/>
<path d="M58.1639 177.615V144.678C53.7303 142.419 49.4483 141.615 44.0354 142.563L43.9407 173.245V174.998L58.1627 177.615H58.1639Z" fill="#473735"/>
<path d="M103.103 139.367L142.097 133.133C142.299 123.829 142.792 121.662 143.798 111.391C146.525 83.5239 151.979 59.0364 158.112 38.4673L135.584 80.7758L103.106 139.367H103.103Z" fill="#473735"/>
<path d="M81.4578 182.101C81.2809 167.845 81.2784 151.85 81.4578 137.593C81.6385 151.85 81.636 167.845 81.4578 182.101Z" fill="#473735"/>
<path d="M171.628 14.2967C161.73 30.2436 151.63 46.4826 142.043 61.9945C120.653 96.5992 101.807 127.586 93.4511 143.677L80.8894 141.884C64.7317 137.315 44.1859 135.24 21.2242 134.535C18.5582 134.454 15.8569 134.388 13.1277 134.342C17.3667 119.436 18.0276 85.0991 16.4305 38.5058L28.0016 33.1207L39.9013 36.349C70.3075 112.793 120.542 72.9747 156.899 9.82126C156.907 9.81165 156.913 9.7993 156.919 9.7897L165.845 7.99512L171.63 14.2995L171.628 14.2967Z" fill="#9C2525"/>
<mask id="mask1_219_206" style="mask-type:luminance" maskUnits="userSpaceOnUse" x="93" y="0" width="94" height="144">
<path d="M93.3235 0.760254H186.455V143.712H93.3235V0.760254Z" fill="white"/>
</mask>
<g mask="url(#mask1_219_206)">
<path d="M186.34 11.9405L172.127 0.814941L156.922 9.78923L163.728 18.4685L153.93 35.9259L152.515 38.4463L131.144 76.5236L129.729 79.0453L119.273 97.6744L117.856 100.198L93.4548 143.674L96.2585 142.959C100.97 141.754 105.013 138.487 107.428 133.931L113.869 121.798L146.091 121.761L140.725 137.533V137.596C143.04 137.342 146.757 135.274 151.14 132.411C154.238 130.388 173.63 62.4166 183.721 22.4391L183.853 22.5146L186.343 11.946L186.34 11.9405ZM146.948 119.238L115.205 119.274L125.337 100.188L153.443 100.156L146.948 119.24V119.238ZM154.3 97.6346L126.676 97.6675L136.564 79.0371L160.639 79.011L154.3 97.6346ZM161.498 76.4865L137.902 76.514L147.302 58.8082L167.521 58.7863L161.496 76.4865H161.498ZM168.381 56.2645L148.64 56.2865L158.115 38.4394L174.453 38.4202L168.381 56.2632V56.2645ZM175.109 36.4953L175.095 35.8985L159.453 35.9163L166.729 22.21L174.397 17.1061L180.517 20.6047L175.109 36.4953Z" fill="#EDBE7E"/>
</g>
<path d="M156.983 9.81592C130.611 65.1955 80.5116 101.702 55.2302 88.9697C32.1624 77.3501 28.3934 37.7856 28.0017 33.1208L39.9014 36.3491C70.3076 112.793 120.542 72.9748 156.899 9.82141L156.985 9.81592H156.983Z" fill="#EDBE7E"/>
<path d="M109.818 176.225C109.662 164.965 109.659 152.331 109.818 141.073C109.979 152.333 109.976 164.966 109.818 176.225Z" fill="#473735"/>
<path d="M93.4006 179.399C93.2844 173.19 93.2819 166.223 93.4006 160.018C93.5207 166.226 93.5181 173.193 93.4006 179.399Z" fill="#473735"/>
<path d="M129.722 170.754C129.619 165.932 129.619 160.518 129.722 155.695C129.826 160.518 129.826 165.932 129.722 170.754Z" fill="#473735"/>
<path d="M139.424 172.645C139.334 169.022 139.334 164.993 139.424 161.367C139.513 164.993 139.513 169.022 139.424 172.645Z" fill="#473735"/>
<path d="M99.8671 159.949C99.7546 154.26 99.7546 147.873 99.8671 142.187C99.9795 147.873 99.9795 154.26 99.8671 159.949Z" fill="#473735"/>
<path d="M134.947 155.087C134.829 148.878 134.827 141.911 134.947 135.706C135.066 141.913 135.063 148.881 134.947 155.087Z" fill="#473735"/>
<path d="M158.236 228.885C157.953 228.372 157.473 227.978 157.046 227.618C156.334 227.014 155.61 226.435 154.872 225.872C154.146 225.321 153.414 224.776 152.68 224.236C152.118 223.823 151.527 223.519 150.835 223.576C149.429 223.688 148.092 225.13 147.189 226.166C146.3 227.184 145.749 228.325 145.42 229.636C145.395 229.659 145.375 229.689 145.371 229.711C145.325 229.909 145.287 230.106 145.274 230.3C145.267 230.334 145.26 230.366 145.253 230.4C145.25 230.429 145.253 230.441 145.267 230.447C145.262 230.742 145.322 231.03 145.495 231.301C145.872 231.887 146.777 232.075 147.373 232.181C149.141 232.491 151.009 232.494 152.793 232.421C154.094 232.366 159.829 231.768 158.238 228.885H158.236Z" fill="#9C2525"/>
<path d="M137.411 227.484C137.44 226.517 137.509 225.669 137.132 224.758C136.775 223.903 136.049 223.209 135.42 222.601C134.579 221.792 133.633 221.122 132.697 220.458C130.91 219.188 129 218.023 127.034 217.116C126.167 216.718 125.256 216.493 124.316 216.588C123.371 216.687 122.47 217.178 121.628 217.613C119.699 218.612 117.627 220.004 116.386 221.944C115.089 223.976 115.714 225.746 116.596 228.31C117.001 229 117.453 229.627 118.036 230.16C118.711 230.779 119.642 231.001 120.484 231.189C121.444 231.404 122.423 231.374 123.397 231.385C124.493 231.395 125.555 231.611 126.656 231.526C127.659 231.448 128.648 231.299 129.657 231.267C130.757 231.233 131.858 231.226 132.951 231.052C133.97 230.891 134.979 230.588 135.984 230.349C136.466 230.234 136.969 230.271 137.3 229.803C137.403 229.658 137.435 229.398 137.421 229.224C137.369 228.629 137.392 228.076 137.412 227.48L137.411 227.484Z" fill="#9C2525"/>
<path d="M133.574 230.16C133.587 229.747 133.616 229.383 133.455 228.992C133.302 228.626 132.991 228.331 132.721 228.069C132.363 227.721 131.956 227.436 131.556 227.152C130.791 226.607 129.974 226.109 129.132 225.724C128.761 225.552 128.372 225.456 127.97 225.499C127.564 225.54 127.18 225.75 126.82 225.936C125.994 226.363 125.107 226.96 124.576 227.79C124.02 228.66 124.288 229.417 124.666 230.515C124.84 230.807 125.033 231.079 125.282 231.307C125.57 231.57 125.971 231.665 126.331 231.746C126.743 231.839 127.161 231.826 127.578 231.829C128.046 231.833 128.503 231.927 128.973 231.89C129.403 231.855 129.826 231.792 130.258 231.78C130.728 231.765 131.201 231.763 131.666 231.687C132.103 231.618 132.535 231.489 132.965 231.386C133.172 231.338 133.385 231.352 133.527 231.154C133.572 231.091 133.585 230.981 133.579 230.907C133.556 230.653 133.567 230.416 133.574 230.16Z" fill="#473735"/>
<mask id="mask2_219_206" style="mask-type:luminance" maskUnits="userSpaceOnUse" x="131" y="216" width="23" height="18">
<path d="M131.491 216.418H153.487V233.102H131.491V216.418Z" fill="white"/>
</mask>
<g mask="url(#mask2_219_206)">
<path d="M153.284 225.684C152.982 224.614 152.699 223.566 152.159 222.604C151.117 220.752 149.259 219.657 147.89 218.133C147.463 217.657 147.247 216.997 146.712 216.637C146.338 216.386 145.83 216.422 145.414 216.466C144.052 216.61 142.697 217.116 141.411 217.585C138.827 218.528 136.322 219.719 133.97 221.212C132.746 221.782 131.562 223.368 131.558 224.858C131.556 225.946 131.731 227.067 131.862 228.144C131.977 229.088 132.069 230.109 132.351 231.016C132.587 231.783 132.944 232.218 133.675 232.418C134.688 232.694 135.809 232.691 136.846 232.782C139.043 232.97 141.238 233.026 143.44 232.923C145.259 232.841 147.533 232.848 149.11 231.717C149.902 231.15 150.622 230.404 151.357 229.755C152.028 229.164 152.699 228.533 153.167 227.737C153.541 227.099 153.479 226.379 153.284 225.684Z" fill="#473735"/>
</g>
<path d="M116.591 210.451C116.371 210.053 116 209.75 115.668 209.467C115.118 208.998 114.555 208.55 113.982 208.113C113.419 207.685 112.852 207.262 112.282 206.842C111.846 206.523 111.388 206.288 110.852 206.332C109.76 206.42 108.723 207.537 108.023 208.341C107.333 209.132 106.907 210.016 106.651 211.03C106.633 211.05 106.617 211.072 106.613 211.089C106.576 211.242 106.55 211.395 106.538 211.546C106.535 211.573 106.527 211.596 106.523 211.624C106.518 211.646 106.523 211.655 106.532 211.661C106.53 211.89 106.575 212.115 106.709 212.322C107.002 212.778 107.705 212.923 108.166 213.004C109.535 213.245 110.985 213.248 112.368 213.189C113.376 213.148 117.824 212.684 116.591 210.448V210.451Z" fill="#473735"/>
<path d="M91.2299 210.832C91.2072 210.082 91.1541 209.423 91.446 208.717C91.7227 208.054 92.2849 207.515 92.7739 207.043C93.4233 206.416 94.16 205.897 94.884 205.381C96.27 204.398 97.7508 203.493 99.2759 202.79C99.9468 202.482 100.653 202.305 101.383 202.382C102.118 202.458 102.815 202.839 103.467 203.175C104.964 203.953 106.573 205.03 107.533 206.535C108.539 208.11 108.055 209.484 107.371 211.473C107.057 212.005 106.708 212.494 106.255 212.907C105.731 213.386 105.008 213.559 104.356 213.705C103.611 213.871 102.853 213.849 102.095 213.858C101.247 213.864 100.421 214.033 99.5678 213.967C98.7894 213.906 98.0225 213.792 97.2417 213.767C96.3888 213.74 95.5347 213.733 94.6881 213.601C93.8959 213.476 93.115 213.242 92.3342 213.056C91.9615 212.966 91.5698 212.995 91.3133 212.632C91.2324 212.519 91.2072 212.318 91.2185 212.184C91.259 211.721 91.2413 211.292 91.2261 210.83L91.2299 210.832Z" fill="#9C2525"/>
<path d="M107.817 213.148C107.826 212.829 107.85 212.545 107.725 212.244C107.607 211.961 107.365 211.731 107.155 211.529C106.876 211.26 106.561 211.038 106.25 210.817C105.659 210.395 105.025 210.009 104.37 209.709C104.082 209.577 103.78 209.501 103.467 209.533C103.155 209.565 102.855 209.728 102.576 209.872C101.935 210.204 101.249 210.666 100.837 211.308C100.408 211.983 100.614 212.569 100.907 213.423C101.042 213.649 101.19 213.859 101.383 214.036C101.609 214.24 101.918 214.314 102.196 214.378C102.515 214.449 102.84 214.438 103.164 214.443C103.529 214.446 103.879 214.519 104.246 214.49C104.579 214.463 104.907 214.415 105.242 214.405C105.607 214.393 105.974 214.39 106.336 214.334C106.674 214.28 107.008 214.18 107.345 214.099C107.504 214.059 107.671 214.072 107.78 213.918C107.815 213.87 107.826 213.784 107.821 213.725C107.803 213.527 107.812 213.344 107.818 213.146L107.817 213.148Z" fill="#473735"/>
<path d="M45.4026 224.746C45.0046 224.023 44.3299 223.474 43.7284 222.961C42.7303 222.11 41.7081 221.297 40.6695 220.508C39.6473 219.73 38.6176 218.963 37.5865 218.204C36.7968 217.623 35.9617 217.197 34.99 217.275C33.0101 217.435 31.1288 219.462 29.8552 220.921C28.6043 222.355 27.831 223.963 27.3648 225.802C27.3307 225.837 27.3016 225.875 27.2953 225.909C27.2321 226.188 27.1803 226.466 27.1576 226.738C27.1487 226.783 27.1399 226.83 27.1311 226.877C27.1247 226.916 27.1311 226.936 27.1487 226.943C27.145 227.361 27.2258 227.766 27.4709 228.147C28.0016 228.973 29.2777 229.237 30.1142 229.386C32.6033 229.824 35.2314 229.828 37.7419 229.724C39.5715 229.647 47.644 228.804 45.4026 224.749V224.746Z" fill="#9C2525"/>
<path d="M17.4892 225.624C17.5145 224.851 17.5688 224.175 17.2669 223.447C16.9838 222.765 16.4026 222.21 15.8998 221.725C15.2288 221.078 14.4733 220.543 13.7253 220.014C12.2988 219 10.7763 218.07 9.20319 217.345C8.51206 217.028 7.78554 216.847 7.03376 216.925C6.28071 217.004 5.56304 217.395 4.88959 217.744C3.34938 218.543 1.69546 219.652 0.704872 221.201C-0.329937 222.824 0.167884 224.235 0.871655 226.282C1.19511 226.833 1.55521 227.333 2.02144 227.759C2.55969 228.253 3.3039 228.431 3.97608 228.579C4.74429 228.751 5.52514 228.729 6.30345 228.736C7.1778 228.744 8.02687 228.917 8.90374 228.848C9.70481 228.785 10.497 228.667 11.3006 228.644C12.18 228.616 13.0569 228.609 13.9287 228.472C14.7424 228.343 15.546 228.1 16.3496 227.91C16.7337 227.818 17.1367 227.847 17.3995 227.475C17.4829 227.358 17.5082 227.151 17.4968 227.014C17.4564 226.538 17.4741 226.097 17.488 225.621L17.4892 225.624Z" fill="#9C2525"/>
<path d="M33.3615 222.02C33.0595 220.95 32.7765 219.901 32.2357 218.94C31.1946 217.087 29.3359 215.993 27.9676 214.468C27.5405 213.992 27.3244 213.332 26.7887 212.973C26.416 212.722 25.9068 212.757 25.4911 212.801C24.129 212.945 22.7746 213.452 21.4883 213.921C18.9057 214.863 16.3989 216.053 14.0476 217.547C12.8232 218.118 11.6406 219.704 11.6355 221.194C11.633 222.282 11.8086 223.403 11.9388 224.48C12.0537 225.424 12.146 226.444 12.4277 227.351C12.664 228.118 13.0216 228.553 13.7532 228.754C14.7652 229.029 15.8859 229.027 16.9233 229.117C19.1218 229.305 21.3152 229.361 23.5175 229.258C25.3357 229.176 27.61 229.183 29.1868 228.052C29.9791 227.486 30.6993 226.739 31.4346 226.091C32.1055 225.499 32.7765 224.868 33.244 224.072C33.618 223.434 33.5573 222.714 33.3615 222.02Z" fill="#473735"/>
<path d="M26.2959 135.317C26.4475 141.781 26.445 148.615 26.2959 155.087C26.1481 148.609 26.1455 141.784 26.2959 135.317Z" fill="#473735"/>
<path d="M36.2434 153.88C36.3912 160.675 36.3912 168.189 36.2434 174.986C36.0943 168.189 36.0943 160.675 36.2434 153.88Z" fill="#473735"/>
<path d="M62.6899 179.276C62.5383 174.529 62.5383 169.748 62.6899 164.999C62.8402 169.748 62.8402 174.529 62.6899 179.276Z" fill="#473735"/>
<path d="M68.2605 142.187C68.4084 150.292 68.4058 159.306 68.2605 167.418C68.114 159.304 68.1114 150.292 68.2605 142.187Z" fill="#473735"/>
<path d="M75.9755 161.886C76.1259 166.242 76.1259 170.63 75.9755 174.986C75.8239 170.63 75.8239 166.242 75.9755 161.886Z" fill="#473735"/>
</svg>
