<svg xmlns="http://www.w3.org/2000/svg" xmlns:xlink="http://www.w3.org/1999/xlink" width="1080" zoomAndPan="magnify" viewBox="0 0 810 809.999993" height="1080" preserveAspectRatio="xMidYMid meet" version="1.0"><defs><clipPath id="649cba2ece"><path d="M 377 81 L 437 81 L 437 172 L 377 172 Z M 377 81 " clip-rule="nonzero"/></clipPath><clipPath id="e4f976a670"><path d="M 227.359375 660 L 582 660 L 582 674 L 227.359375 674 Z M 227.359375 660 " clip-rule="nonzero"/></clipPath><clipPath id="a31758cad5"><path d="M 294 741 L 512 741 L 512 754.5 L 294 754.5 Z M 294 741 " clip-rule="nonzero"/></clipPath></defs><path fill="#f4dbbd" d="M 462.15625 661.851562 L 363.011719 661.851562 L 349.066406 662.238281 L 350.925781 636.230469 L 382.53125 202.90625 L 431.019531 202.90625 L 448.214844 455.40625 L 448.832031 464.230469 Z M 462.15625 661.851562 " fill-opacity="1" fill-rule="nonzero"/><g clip-path="url(#649cba2ece)"><path fill="#ffbc00" d="M 426.316406 168.011719 L 389.820312 171.480469 C 389.820312 171.480469 381.460938 167.164062 378.625 159.511719 C 377.347656 156.328125 377.136719 152.574219 378.835938 148.324219 C 384.71875 133.949219 399.386719 123.042969 403.640625 107.460938 C 408.953125 87.914062 405.835938 81.472656 405.339844 80.621094 C 406.96875 81.96875 430.710938 102.222656 435.527344 128.777344 C 437.726562 140.886719 435.953125 154.414062 426.316406 168.011719 Z M 426.316406 168.011719 " fill-opacity="1" fill-rule="nonzero"/></g><path fill="#f47400" d="M 426.316406 168.011719 L 389.820312 171.480469 C 389.820312 171.480469 381.460938 167.164062 378.625 159.511719 C 382.804688 161.851562 390.671875 162.203125 404.703125 158.238281 C 426.03125 152.21875 433.472656 139.898438 435.527344 128.777344 C 437.726562 140.886719 435.953125 154.414062 426.316406 168.011719 Z M 426.316406 168.011719 " fill-opacity="1" fill-rule="nonzero"/><path fill="#e2c3a1" d="M 462.144531 661.851562 L 363.019531 661.851562 L 349.078125 662.238281 L 350.9375 636.234375 L 430.238281 624.394531 L 448.824219 464.265625 Z M 462.144531 661.851562 " fill-opacity="1" fill-rule="nonzero"/><path fill="#f4dbbd" d="M 574.476562 670.59375 C 565.308594 673.195312 557.183594 676.421875 550.097656 680.171875 C 526.65625 692.457031 513.425781 709.535156 506.234375 722.550781 C 500.191406 733.585938 498.421875 741.8125 498.421875 741.8125 L 307.757812 741.8125 C 307.757812 734.628906 305.777344 727.652344 302.546875 721.195312 C 292.546875 701.414062 270.355469 685.792969 254.207031 677.359375 C 245.871094 672.988281 240.035156 670.59375 240.035156 670.59375 Z M 574.476562 670.59375 " fill-opacity="1" fill-rule="nonzero"/><path fill="#e2c3a1" d="M 573.648438 670.59375 C 564.527344 673.183594 556.441406 676.394531 549.390625 680.125 C 526.0625 692.351562 512.898438 709.339844 505.746094 722.292969 L 454.53125 703.125 L 352.828125 703.125 L 303.066406 720.945312 C 293.113281 701.261719 271.03125 685.71875 254.964844 677.328125 C 246.671875 672.976562 240.863281 670.59375 240.863281 670.59375 Z M 573.648438 670.59375 " fill-opacity="1" fill-rule="nonzero"/><path fill="#876553" d="M 574.558594 670.59375 C 565.386719 673.222656 557.253906 676.480469 550.167969 680.265625 L 254.128906 677.425781 C 245.792969 673.011719 239.953125 670.59375 239.953125 670.59375 Z M 574.558594 670.59375 " fill-opacity="1" fill-rule="nonzero"/><g clip-path="url(#e4f976a670)"><path fill="#f4dbbd" d="M 227.886719 660.042969 L 581.570312 660.042969 L 581.570312 673.234375 L 227.886719 673.234375 Z M 227.886719 660.042969 " fill-opacity="1" fill-rule="nonzero"/></g><g clip-path="url(#a31758cad5)"><path fill="#876553" d="M 313.730469 741.8125 L 299.019531 741.8125 L 294.117188 754.121094 L 511.828125 754.121094 L 506.175781 741.8125 Z M 313.730469 741.8125 " fill-opacity="1" fill-rule="nonzero"/></g><path fill="#e2c3a1" d="M 453.628906 175.816406 L 453.628906 195.027344 L 431.167969 207.546875 L 382.378906 207.546875 L 359.917969 194.777344 L 359.917969 175.816406 Z M 453.628906 175.816406 " fill-opacity="1" fill-rule="nonzero"/><path fill="#f4dbbd" d="M 359.921875 175.8125 L 453.628906 175.8125 L 453.628906 194.390625 L 359.921875 194.390625 Z M 359.921875 175.8125 " fill-opacity="1" fill-rule="nonzero"/><path fill="#876553" d="M 359.921875 175.039062 L 453.628906 175.039062 L 453.628906 180.457031 L 359.921875 180.457031 Z M 359.921875 175.039062 " fill-opacity="1" fill-rule="nonzero"/><path fill="#f4dbbd" d="M 359.921875 167.304688 L 453.628906 167.304688 L 453.628906 175.046875 L 359.921875 175.046875 Z M 359.921875 167.304688 " fill-opacity="1" fill-rule="nonzero"/><path fill="#876553" d="M 394.171875 725.105469 L 416.164062 725.105469 L 416.164062 747.082031 L 394.171875 747.082031 Z M 394.171875 725.105469 " fill-opacity="1" fill-rule="nonzero"/></svg>