<svg width="500" height="400" viewBox="0 0 565 598" fill="none" xmlns="http://www.w3.org/2000/svg">
<g clip-path="url(#clip0_216_72)">
<path d="M330 517.062H247.591L236 517.401L237.546 494.583L263.816 114.401H304.119L318.412 335.935L318.925 343.677L330 517.062Z" fill="#F4DBBD"/>
<mask id="mask0_216_72" style="mask-type:luminance" maskUnits="userSpaceOnUse" x="258" y="7" width="50" height="80">
<path d="M258 7H307.804V86.8875H258V7Z" fill="white"/>
</mask>
<g mask="url(#mask0_216_72)">
<path d="M298.935 83.3864L268.642 86.4316C268.642 86.4316 261.703 82.6423 259.349 75.9244C258.288 73.1296 258.113 69.8341 259.524 66.103C264.407 53.4834 276.582 43.909 280.113 30.2298C284.523 13.0699 281.935 7.41505 281.524 6.66748C282.876 7.85057 302.583 25.6312 306.581 48.9431C308.407 59.5738 306.934 71.4492 298.935 83.3864Z" fill="#FFBC00"/>
</g>
<path d="M298.816 83.3954L269.112 86.4009C269.112 86.4009 262.308 82.6609 260 76.0306C263.402 78.0579 269.805 78.3626 281.225 74.9272C298.584 69.7116 304.641 59.0367 306.313 49.4009C308.103 59.893 306.66 71.6137 298.816 83.3954Z" fill="#F47400"/>
<path d="M330 517.061H247.59L236 517.401L237.546 494.546L303.474 484.14L318.926 343.401L330 517.061Z" fill="#E2C3A1"/>
<path d="M422 524.401C414.407 526.702 407.677 529.556 401.808 532.874C382.393 543.741 371.435 558.848 365.479 570.362C360.474 580.124 359.008 587.401 359.008 587.401H201.091C201.091 581.046 199.451 574.875 196.775 569.163C188.493 551.664 170.113 537.846 156.738 530.386C149.834 526.519 145 524.401 145 524.401H422Z" fill="#F4DBBD"/>
<path d="M421 524.401C413.435 526.705 406.729 529.562 400.881 532.881C381.534 543.76 370.616 558.876 364.684 570.401L322.209 553.346H237.86L196.589 569.202C188.334 551.688 170.02 537.859 156.695 530.393C149.817 526.521 145 524.401 145 524.401H421Z" fill="#E2C3A1"/>
<path d="M422 524.401C414.38 526.847 407.623 529.879 401.736 533.401L155.778 530.758C148.852 526.651 144 524.401 144 524.401H422Z" fill="#876553"/>
<mask id="mask1_216_72" style="mask-type:luminance" maskUnits="userSpaceOnUse" x="136" y="515" width="295" height="13">
<path d="M136 515.295H430.373V527.586H136V515.295Z" fill="white"/>
</mask>
<g mask="url(#mask1_216_72)">
<path d="M136.438 515.333H430.016V526.914H136.438V515.333Z" fill="#F4DBBD"/>
</g>
<mask id="mask2_216_72" style="mask-type:luminance" maskUnits="userSpaceOnUse" x="193" y="586" width="181" height="13">
<path d="M193 586.404H373.953V598.256H193V586.404Z" fill="white"/>
</mask>
<g mask="url(#mask2_216_72)">
<path d="M209.378 587.118H197.167L193.097 597.923H373.81L369.119 587.118H209.378Z" fill="#876553"/>
</g>
<path d="M322 90.4009V107.353L303.305 118.401H262.695L244 107.133V90.4009H322Z" fill="#E2C3A1"/>
<path d="M244 90.4009H322V106.401H244V90.4009Z" fill="#F4DBBD"/>
<path d="M244 89.4009H322V94.4009H244V89.4009Z" fill="#876553"/>
<path d="M244 82.4009H322V89.4009H244V82.4009Z" fill="#F4DBBD"/>
<path d="M274 572.401H293V591.401H274V572.401Z" fill="#876553"/>
</g>
<defs>
<clipPath id="clip0_216_72">
<rect width="565" height="597.554" fill="white"/>
</clipPath>
</defs>
</svg>
