<svg width="78" height="143" viewBox="0 0 78 143" fill="none" xmlns="http://www.w3.org/2000/svg">
<path d="M13.763 30.698C16.9923 27.8512 21.9155 20.6689 24.3705 14.9222L12.8781 1.62256C12.5532 3.3198 13.8125 13.1482 8.38709 18.7798C2.96087 24.4097 -0.720376 34.0332 0.441559 43.8625C0.441559 43.8625 4.95983 45.3888 8.23618 49.3153C8.56027 44.2323 9.94073 34.0689 13.763 30.698ZM67.1073 105.651C67.1147 106.527 66.8014 124.813 66.8014 124.813C66.1829 125.829 64.1641 126.419 64.1641 126.419C63.9687 127.33 63.8475 127.861 63.8475 127.861C63.8475 127.861 58.8327 126.699 55.3304 126.554C51.8265 126.41 50.178 123.142 50.178 123.142C49.5604 121.328 48.8734 112.765 48.6673 109.135C48.4611 105.506 47.7989 99.0017 47.4979 97.3891C49.83 97.5609 54.0794 97.7598 59.0991 97.4693L59.6978 96.1419V97.6167C59.6978 97.6167 64.1336 97.7807 66.5622 96.5553C66.5622 96.5562 66.5622 96.5562 66.5622 96.5562C66.5622 96.5562 66.6942 96.8798 67.0751 104.127C67.1015 104.606 67.1106 105.117 67.1073 105.651Z" fill="#D63023"/>
<path d="M33.0095 24.9183L24.3704 14.9224C21.9154 20.6691 16.9922 27.8514 13.7629 30.6981C9.94064 34.069 8.56017 44.2324 8.23608 49.3154C8.38452 49.4951 8.53378 49.6765 8.67727 49.8657C11.9709 54.203 15.9441 59.5791 19.3351 61.8057C19.3351 61.8057 18.6572 50.2835 23.0163 43.2852C27.3771 36.2861 32.7307 32.6971 33.0095 24.9183ZM74.5712 67.6614C74.2289 68.0487 73.2006 68.9139 73.2006 68.9139C72.7421 68.8807 72.4295 68.9941 72.2176 69.1563L67.1617 66.0732C67.2252 68.6539 67.4058 76.0552 67.3464 79.1941C67.2755 82.988 67.5377 89.4377 67.6853 91.0189C67.8321 92.6002 67.6853 95.699 67.6853 95.699C65.9758 97.8497 59.6977 97.6169 59.6977 97.6169V96.142L59.099 97.4695C51.4388 97.9125 45.5731 97.2165 45.5731 97.2165C45.7528 96.395 45.4535 89.0592 45.3166 87.9829C45.1789 86.9084 45.5731 84.9478 45.5731 84.9478C45.5731 84.9478 45.2143 83.493 45.0783 80.6471C44.943 77.8021 45.5731 75.9051 45.5731 75.9051C45.5731 75.9051 45.0939 75.1455 45.0832 74.3239C45.0717 73.5015 45.0832 69.6535 45.0832 69.6535C44.2643 69.6578 43.504 69.4956 42.7742 69.2618C40.8808 68.6522 40.7992 65.0859 40.7992 65.0859C39.5638 63.9983 40.0982 61.9976 40.0982 61.9976C39.7692 60.1268 41.9924 53.8629 42.6505 52.2092C43.3094 50.5565 44.1324 49.3006 44.1324 49.3006C44.1324 49.3006 44.2561 48.9909 44.5851 48.6857C46.4513 46.9614 49.5669 45.9889 50.596 45.4238C51.6252 44.8586 52.1736 43.8548 52.4235 43.2852C52.4235 43.2852 52.3822 43.8792 52.6742 44.2847C53.512 45.5939 54.9758 46.4276 55.9563 46.6867C57.0597 46.9771 58.3882 47.558 58.5135 49.3006C58.5135 49.3006 59.5328 48.6473 59.5328 47.0495C59.5328 46.3962 60.308 46.6492 60.3014 46.0186L60.2643 45.4072C60.4844 45.7552 61.0221 46.2489 61.5128 46.398C62.0051 46.5463 64.0403 47.0905 64.3686 47.6583C64.3686 47.6583 66.5217 48.6473 68.0663 50.7989C69.6092 52.9497 74.5712 61.3565 75.1789 62.5924C75.7875 63.8291 75.569 66.5285 74.5712 67.6614Z" fill="#E4DDA9"/>
<path d="M55.3187 48.6733L13.7504 0.585449C12.934 1.10439 12.8779 1.62246 12.8779 1.62246L54.5658 49.8655C54.5658 49.8655 54.8676 50.1812 55.082 49.9702C55.2972 49.7582 55.6246 49.2846 55.7434 49.139C55.8613 48.9925 55.7459 48.7535 55.3187 48.6733ZM63.2353 31.3163C62.9797 30.7293 62.4684 31.0502 62.2482 30.2566C62.1179 29.7891 61.5382 29.7036 61.0962 29.5632C59.517 29.0626 57.8867 28.7399 56.2431 28.6047C55.6172 28.5541 54.9839 28.5297 54.3629 28.63C53.5086 28.7695 52.7037 29.1411 51.9261 29.5431C50.4986 30.2801 48.5013 30.8322 48.0865 32.4536C48.0015 32.7876 47.83 33.0972 47.5942 33.3388C47.3633 33.576 47.0672 33.7566 46.9188 34.0575C46.7373 34.4264 46.8495 34.9262 47.1678 35.1695C46.3407 36.258 47.0812 37.4284 47.5942 37.7354C47.5026 38.3634 47.7508 38.837 48.1005 39.0986C48.4493 39.3603 48.9037 39.4597 49.3218 39.3681C49.2047 39.7178 49.2732 40.1426 49.556 40.3641C49.8389 40.5857 50.2001 40.6607 50.5497 40.7025C50.6998 40.7217 50.8738 40.7269 50.9802 40.6118C51.0643 40.8813 51.2861 41.1081 51.5377 41.2075C51.79 41.3061 52.0836 41.2747 52.3136 41.1273C53.0237 40.6694 53.8871 40.829 54.6837 40.5734C55.4655 40.3231 56.2547 40.0632 56.9597 39.6245C57.3861 39.3585 57.7679 39.0306 58.1299 38.6765C57.5156 38.7881 56.8756 38.7881 56.2629 38.6782C55.6485 38.5675 54.9732 38.2962 54.7447 37.6822C54.6705 37.4851 54.6524 37.2679 54.659 37.0551C54.6779 36.4437 54.9105 35.8358 55.3187 35.4015C55.7277 34.9671 56.3091 34.7133 56.888 34.7447L57.6797 34.2991C58.1002 34.0636 58.6288 34.1342 59.0494 34.3688C59.47 34.6043 59.8015 34.982 60.1066 35.3675C60.2666 35.5698 60.4233 35.7966 60.5363 36.0356C60.9148 35.6596 61.2999 35.2925 61.61 34.8546C61.8326 34.5407 62.0165 34.1892 62.2952 33.9328C62.6787 33.5787 62.9599 33.4478 63.2057 32.976C63.4267 32.553 63.4267 31.7558 63.2353 31.3163ZM71.7977 69.8303L76.7951 75.099C76.7951 75.099 77.5439 75.2438 77.6544 73.8972L73.2005 68.9136C73.2005 68.9136 72.2298 68.5953 71.7977 69.8303ZM60.5429 54.3336L68.2921 63.1155C68.2921 63.1155 67.507 63.6649 67.3462 64.1525C67.3462 64.1525 59.3545 55.4639 59.4238 55.4046C59.4238 55.4046 60.4967 54.474 60.5429 54.3336Z" fill="#777155"/>
<path d="M63.181 34.9125C63.1464 35.0041 63.1035 35.0966 63.0524 35.1873C63.1175 35.0599 63.1678 34.9457 63.181 34.9125ZM62.5353 41.9745C61.7478 43.349 61.1227 44.3546 60.0803 44.6991C60.0803 44.7 60.0803 44.7 60.0811 44.7C60.0811 44.7 60.2923 45.0271 60.3013 46.0187C60.3079 46.6493 59.5327 46.3964 59.5327 47.0496C59.5327 48.6474 58.5135 49.3007 58.5135 49.3007C58.3881 47.5581 57.0596 46.9772 55.9562 46.6868C54.9757 46.4278 53.512 45.594 52.6741 44.2848C52.4869 43.9918 52.4135 43.6377 52.4234 43.2853C52.4622 41.8681 52.209 39.7269 52.1628 39.4958C52.1595 39.494 52.1587 39.4914 52.1554 39.4897C51.7291 39.4565 51.2862 39.201 51.019 38.6698C50.5564 37.7549 49.1133 37.3878 49.5173 36.1065C49.9206 34.8262 51.019 35.1306 51.8181 35.5231C52.2148 35.7167 52.6906 35.5231 53.1268 35.5231C53.2497 35.5231 53.3808 35.5204 53.4847 35.4498C53.5911 35.3765 53.6472 35.2448 53.6942 35.1184C53.949 34.4381 54.1758 33.6558 54.7869 33.3112C55.2066 33.074 55.7732 33.0697 56.0494 32.6597C56.2308 32.3894 56.2234 32.0178 56.39 31.7379C56.6159 31.3585 57.0827 31.2521 57.4901 31.1317C57.7647 31.0506 57.9337 31.0384 58.116 30.8221C58.2496 30.6651 58.4244 30.6407 58.5943 30.5299C59.0074 30.263 59.4866 30.1148 59.9715 30.0903C60.1463 30.3337 60.4456 30.7192 60.6081 30.7593C60.872 30.8221 61.4435 31.0925 61.6059 31.321C61.77 31.5495 61.8937 31.8146 62.0982 32.0004C62.2838 32.1696 62.5213 32.2585 62.7563 32.3283C62.8792 32.3649 63.1142 32.4059 63.1695 32.6667C63.1695 32.6667 63.2189 32.6999 63.2965 32.7548C63.2717 32.8289 63.2429 32.9031 63.2074 32.9728C63.2445 33.2711 63.2816 33.5868 63.2948 33.7124C63.2948 33.7124 63.4103 34.2916 63.1868 34.8995L62.7868 35.5641C62.8446 35.6391 63.2297 36.1946 63.3253 37.6782C63.4284 39.2838 63.6972 39.9441 62.5353 41.9745ZM60.5429 54.334C60.2114 54.8721 56.8666 57.4711 56.6564 57.7389C56.3751 57.0752 55.562 55.466 54.1544 55.118C54.2344 54.7796 53.9911 50.8488 54.5659 49.8658C54.5659 49.8658 54.7654 50.1013 54.9196 50.0778C55.0755 50.0534 55.7393 49.305 55.7624 49.0713C55.7839 48.8376 55.3188 48.6736 55.3188 48.6736C55.3188 48.6736 57.2452 48.1119 57.6872 48.3221C58.13 48.5332 58.2628 48.9222 58.285 49.3007C58.285 49.3007 58.972 49.1184 59.2153 50.3351C59.2153 50.3351 59.9904 50.2409 60.1001 51.4105C60.1001 51.4105 60.4984 51.1296 60.7425 52.1823C60.9866 53.235 60.8753 53.7967 60.5429 54.334ZM69.5473 139.619C69.5473 139.619 68.5858 140.2 67.5566 139.619C67.5566 139.619 66.5967 140.352 66.0797 139.877C66.0797 139.877 65.1676 140.417 64.164 140.417C63.1604 140.417 60.618 140.417 59.2449 139.401C57.8719 138.385 54.5057 137.877 54.4364 137.151C54.3688 136.426 54.7885 134.4 55.1926 133.377C55.5365 132.506 55.0656 126.535 55.0656 126.535L62.0512 127.481C62.0611 129.094 61.5614 131.707 62.0512 133.087C62.5419 134.465 64.5343 136.644 66.5951 137.079C68.6551 137.513 69.6859 137.659 69.892 137.804C70.0982 137.949 70.9212 139.328 69.5473 139.619ZM49.8587 127.861C49.3623 126.289 48.6811 123.669 48.9104 123.082C49.1396 122.495 49.8893 121.865 49.8893 121.865V121.864C49.5454 119.878 49.2073 116.401 48.9632 113.366V113.363C47.6998 114.612 44.9842 116.409 43.2178 118.346C41.4506 120.282 41.5487 121.664 41.9421 122.943C42.3338 124.222 44.2643 124.81 44.6238 126.712C44.9842 128.614 45.1475 129.927 45.7371 130.722C46.3259 131.518 47.144 132.589 47.962 132.865C48.7801 133.142 49.6303 132.865 49.6303 132.865C49.6303 132.865 50.3172 133.354 51.0372 132.988C51.0372 132.988 51.626 133.039 51.8222 132.555C51.8222 132.555 52.0845 131.898 51.8222 131.379C51.56 130.861 50.4484 129.72 49.8587 127.861ZM74.5711 67.6615C74.2289 68.0488 73.2005 68.914 73.2005 68.914C72.1491 68.8363 71.8696 69.5332 71.7978 69.8306C71.7797 69.9056 71.7145 69.9571 71.6411 69.951L70.969 69.896C70.1633 69.8306 70.2565 69.3727 70.2565 69.3727C68.7342 69.6021 68.7383 68.4552 68.7383 68.4552C67.3133 67.9642 67.6853 66.5574 67.6853 66.5574C67.0338 65.9678 66.9719 64.6578 67.4676 63.9374C67.9632 63.217 68.7853 62.712 69.4195 62.6283C70.1633 62.5306 70.5658 63.1524 70.5658 63.1524C70.5658 63.1524 71.5265 63.217 71.8984 64.2322C71.8984 64.2322 72.921 64.854 73.137 65.673C73.137 65.673 74.04 66.0332 74.1629 67.1792L74.5711 67.6615Z" fill="#C3704B"/>
<mask id="mask0_301_29174" style="mask-type:luminance" maskUnits="userSpaceOnUse" x="0" y="0" width="78" height="143">
<path d="M0.0778809 0.405273H77.8723V142.241H0.0778809V0.405273Z" fill="white"/>
</mask>
<g mask="url(#mask0_301_29174)">
<path d="M8.77878 39.3161C9.62323 41.5454 10.678 43.697 11.9149 45.7126L12.1392 45.5591C10.9122 43.5592 9.86567 41.4233 9.02783 39.2106L8.77878 39.3161ZM18.4652 23.379C18.4957 23.7366 18.527 24.0916 18.5641 24.4474C18.8915 27.589 19.7021 30.6337 20.9721 33.4962L21.2137 33.3767C19.957 30.5421 19.1546 27.5271 18.8305 24.4169C18.7934 24.0628 18.7637 23.7087 18.7315 23.3537C18.6383 22.2714 18.5418 21.1524 18.2639 20.0831C17.8887 18.6388 17.1977 17.3183 16.5289 16.0415L16.2947 16.1793C16.9552 17.4413 17.6389 18.7461 18.0058 20.1581C18.2771 21.203 18.3736 22.3089 18.4652 23.379ZM53.0206 33.5153L52.821 33.3278C52.6726 33.5049 52.4211 33.5773 52.2091 33.504L52.1275 33.7735C52.2075 33.8014 52.2924 33.8145 52.3774 33.8145C52.6182 33.8145 52.8614 33.7072 53.0206 33.5153ZM49.9578 34.398C49.5216 34.5759 49.0301 34.6134 48.5749 34.5009L48.5147 34.7782C48.706 34.8245 48.9039 34.8471 49.101 34.8471C49.4276 34.8471 49.7525 34.7852 50.0543 34.6622L49.9578 34.398ZM58.4847 35.3923C58.1813 35.2815 57.5553 35.3504 57.2296 35.4306C56.8371 35.5283 56.4891 35.8824 56.3802 36.1667L56.6284 36.2731C56.7101 36.0586 56.9954 35.7786 57.2915 35.7054C57.3013 35.7036 57.3154 35.701 57.3269 35.6984C57.3013 35.9042 57.3121 36.2478 57.6625 36.2574C58.027 36.2688 58.1417 35.8475 58.1763 35.6216C58.2654 35.6269 58.3421 35.6391 58.3965 35.66C58.5523 35.7167 58.6637 36.0289 58.6901 36.1336L58.949 36.0612C58.935 36.0054 58.803 35.51 58.4847 35.3923ZM58.7478 34.193L58.8913 33.9549C58.5441 33.7212 58.0922 33.6034 57.5892 33.6104C57.1463 33.6183 56.7134 33.7159 56.2953 33.8101L56.3514 34.0866C56.7563 33.995 57.176 33.9008 57.5933 33.8939C58.0402 33.886 58.4443 33.9889 58.7478 34.193ZM59.5279 41.4233L59.4438 41.6928C59.6772 41.7739 59.9229 41.8131 60.1695 41.8131C60.5579 41.8131 60.9455 41.7146 61.2852 41.5218L61.1583 41.2724C60.6668 41.5524 60.0573 41.6082 59.5279 41.4233ZM61.5087 40.1447C61.5384 40.2729 61.4089 40.4142 61.2754 40.4552C61.1302 40.4997 60.9686 40.4761 60.7987 40.4517L60.7146 40.4395C60.0813 40.3575 59.4323 40.4377 58.8344 40.6732L58.9292 40.9392C59.4859 40.7186 60.0912 40.6436 60.6816 40.7212L60.7632 40.7317C60.9529 40.7596 61.15 40.7875 61.3487 40.7273C61.6044 40.6497 61.8378 40.3793 61.7701 40.0784L61.5087 40.1447ZM60.4383 38.4527L60.4985 38.7283C60.8218 38.6489 61.0346 38.355 61.1846 38.1082C61.2531 37.9965 61.3273 37.8631 61.3504 37.7096C61.3883 37.4488 61.2729 37.2125 61.1681 36.997C60.9488 36.5505 60.7006 35.9592 60.7253 35.3591C60.736 35.0975 60.7995 34.8628 60.9092 34.6823L60.6833 34.5297C60.548 34.7521 60.4705 35.0355 60.4581 35.3469C60.4301 36.015 60.6964 36.649 60.9339 37.1348C61.0205 37.3128 61.1104 37.4968 61.0849 37.6651C61.0708 37.7654 61.0148 37.864 60.9595 37.9564C60.8375 38.1579 60.6676 38.3977 60.4383 38.4527ZM49.0284 80.1178C49.1233 80.0193 49.2198 79.9233 49.3146 79.8265C49.7855 79.3512 50.272 78.8602 50.5441 78.2174L50.3001 78.1023C50.0494 78.6945 49.581 79.1654 49.129 79.6216C49.0326 79.7193 48.9361 79.8169 48.8412 79.9155C47.8104 80.99 46.9858 82.2433 46.3937 83.6397L46.6378 83.7557C47.2167 82.3916 48.0224 81.1671 49.0284 80.1178ZM68.4432 61.7073L68.6354 61.9044C69.4031 61.0723 70.4257 60.5316 71.5159 60.3833L71.4813 60.1025C70.3309 60.2586 69.253 60.8281 68.4432 61.7073ZM77.5152 73.9481L73.1429 69.0562C72.3364 69.0152 72.0486 69.4661 71.9497 69.7914L76.8547 74.9625C76.919 74.9633 77.0361 74.9503 77.1598 74.8491C77.3487 74.693 77.4715 74.3825 77.5152 73.9481ZM73.1561 68.7701C73.3483 68.607 74.1787 67.8979 74.4723 67.5656C75.4462 66.4606 75.6317 63.8214 75.0594 62.6579C74.4492 61.416 69.4625 52.9795 67.9583 50.8846C66.455 48.7887 64.3356 47.798 64.315 47.7884L64.2763 47.7709L64.254 47.7317C63.9843 47.2642 62.2311 46.7531 61.6547 46.5865L61.4766 46.5342C61.1079 46.4225 60.7138 46.1321 60.4284 45.8303C60.4309 45.8923 60.435 45.9498 60.4359 46.0179C60.4392 46.4208 60.1753 46.5542 59.9823 46.6511C59.7753 46.7557 59.6673 46.8203 59.6673 47.0496C59.6673 48.2305 59.1337 48.9222 58.8162 49.2292C58.8014 49.2431 58.7824 49.2519 58.7643 49.2623C58.7717 49.2667 58.7791 49.2702 58.7857 49.2745C59.0364 49.4394 59.2162 49.749 59.3209 50.1938C59.4405 50.2051 59.6277 50.2487 59.805 50.3979C60.0169 50.5784 60.1538 50.8601 60.214 51.2343C60.2602 51.2334 60.3105 51.2413 60.3658 51.2631C60.5868 51.3555 60.7583 51.6538 60.8721 52.1483C61.0915 53.0981 61.0444 53.7174 60.7088 54.3148L66.1458 60.4775C66.0666 59.5565 65.8283 58.0991 65.6765 57.1772C65.6147 56.797 65.5652 56.4969 65.5438 56.3382C65.477 55.8419 65.4242 53.6423 66.0188 52.9141L66.2216 53.0999C65.7507 53.6764 65.7178 55.6283 65.8093 56.2981C65.8307 56.4551 65.8786 56.7525 65.9404 57.1284C66.1243 58.2509 66.3997 59.9333 66.4369 60.8063L66.7807 61.1962C66.9828 60.6537 67.7621 58.919 69.5994 58.3503L69.6744 58.6224C67.8503 59.1858 67.0751 61.0654 66.9836 61.4256L68.3121 62.93C68.6684 62.6954 69.051 62.535 69.4031 62.4879C70.0934 62.3972 70.5123 62.8559 70.6376 63.0181C70.8669 63.0513 71.6511 63.2309 72.0057 64.1345C72.2012 64.261 73.0126 64.8244 73.2477 65.5684C73.4678 65.6782 74.1836 66.1117 74.295 67.1636L74.0286 67.1941C73.9173 66.1475 73.0984 65.8091 73.0902 65.8056L73.0275 65.7803L73.0093 65.7105C72.8089 64.957 71.8416 64.3613 71.8317 64.3552L71.7905 64.3299L71.7732 64.2837C71.4384 63.3696 70.5931 63.2964 70.5576 63.2929L70.4933 63.2885L70.4562 63.2327C70.4414 63.21 70.0876 62.6815 69.4353 62.7687C68.8003 62.8524 68.0177 63.3792 67.5765 64.0211C67.1535 64.636 67.1881 65.68 67.6087 66.2626C67.8346 65.4244 68.6238 64.3569 69.559 63.6583L69.7132 63.8903C68.6667 64.6709 67.9509 65.8082 67.8305 66.5016L67.8363 66.5077L67.8132 66.5949C67.8008 66.6446 67.5295 67.7636 68.6115 68.2511C68.7162 67.1941 69.8155 65.9975 70.8595 65.1986L71.017 65.4271C69.6885 66.4449 68.8473 67.631 68.8729 68.45V68.4561C68.8729 68.4587 68.877 68.7919 69.1318 69.0239C69.3454 69.2201 69.6802 69.289 70.1173 69.2419C70.1486 68.4308 71.0928 66.8243 71.8053 66.4318L71.929 66.6821C71.313 67.0223 70.4331 68.4988 70.3853 69.2096L70.4274 69.2035L70.3869 69.4015C70.3869 69.4015 70.377 69.4739 70.4339 69.548C70.4925 69.6265 70.6352 69.7277 70.979 69.7548L71.6511 69.8097C71.7287 69.5376 72.0132 68.7099 73.1561 68.7701ZM67.0083 65.1619L67.01 65.1628C67.0026 64.8218 67.0586 64.4781 67.184 64.1781C61.2638 57.7415 59.7794 56.067 59.4108 55.5986C59.2962 55.6954 59.1758 55.7983 59.0496 55.9039C59.2302 57.8314 59.2863 69.2367 59.2863 72.3468C59.2863 74.9023 59.5617 81.8535 59.8306 84.1944C60.1043 86.5762 59.8858 95.516 59.8322 96.1457V97.4783C60.7278 97.4975 66.0014 97.5123 67.5534 95.6433C67.5708 95.2447 67.6862 92.4791 67.551 91.033C67.3943 89.3393 67.1419 82.9271 67.2137 79.1907C67.2714 76.1033 67.0974 68.9009 67.0314 66.1902C67.0141 65.4881 67.0067 65.2012 67.0083 65.1619ZM66.4583 96.7623C64.5261 97.6632 61.5458 97.7679 60.2833 97.7679C59.9501 97.7679 59.7366 97.76 59.6928 97.7583L59.5634 97.7539V96.7684L59.1857 97.6065L59.1065 97.6118C54.2237 97.8926 50.0386 97.7103 47.6603 97.5411C47.9663 99.3709 48.5963 105.524 48.8008 109.127C49.0202 113 49.7096 121.349 50.3042 123.095C50.3124 123.109 51.9527 126.273 55.3354 126.412C58.4979 126.543 62.9395 127.512 63.7477 127.694C64.0965 126.133 67.3275 111.483 66.9415 104.135C66.6587 98.7595 66.5127 97.2001 66.4583 96.7623ZM66.8987 110.931C66.2794 116.717 64.9797 123.215 64.3447 126.212C64.8634 126.034 66.1812 125.519 66.6669 124.768C66.6785 124.127 66.8121 116.372 66.8987 110.931ZM61.8172 129.283C61.8666 128.671 61.9112 128.094 61.9153 127.599C60.1349 127.25 57.4407 126.784 55.3247 126.695C55.2859 126.694 55.2496 126.691 55.2117 126.687C55.2851 127.668 55.6397 132.61 55.3164 133.432C54.9115 134.458 54.5066 136.467 54.5701 137.137C54.5751 137.192 54.6188 137.25 54.6905 137.308L54.6987 137.309L54.7268 137.332C54.8092 137.394 54.9148 137.455 55.0393 137.517C55.0459 137.52 55.0525 137.522 55.0583 137.526C55.1053 137.549 55.1573 137.571 55.2092 137.595C55.2554 137.615 55.304 137.636 55.3535 137.656C55.375 137.664 55.3964 137.673 55.4195 137.683C55.4632 137.7 55.5086 137.717 55.5531 137.735C55.5754 137.743 55.5976 137.752 55.6207 137.761C55.6801 137.783 55.7403 137.805 55.8021 137.827C55.8673 137.85 55.9333 137.874 56.0009 137.898C56.0033 137.899 56.0058 137.899 56.0066 137.901C56.1897 137.963 56.3819 138.029 56.5773 138.094C57.5529 138.422 58.6596 138.795 59.3226 139.286C59.5197 139.431 59.7448 139.553 59.9864 139.66C60.0095 139.232 60.2726 138.053 61.2589 137.308C62.0439 136.715 63.1646 136.129 64.0058 135.865C62.9906 135.009 62.2113 133.938 61.926 133.137C61.5846 132.176 61.7083 130.639 61.8172 129.283ZM69.8171 137.922C69.7074 137.845 69.178 137.741 68.3764 137.583C68.3492 137.578 68.3179 137.571 68.2907 137.566C68.1191 137.583 66.3 137.783 65.3994 138.454C64.6754 138.994 64.4107 139.901 64.329 140.27C65.1537 140.221 65.8901 139.824 66.0006 139.762C66.2719 139.506 66.2348 139.173 66.2175 139.078C66.1886 138.927 66.1169 138.808 66.0377 138.78L66.1227 138.512C66.2958 138.573 66.4319 138.769 66.4797 139.023C66.5243 139.259 66.4896 139.581 66.2892 139.847C66.6554 140.011 67.2227 139.692 67.4561 139.52C67.6037 139.298 67.6532 138.941 67.5658 138.714C67.5229 138.602 67.4545 138.538 67.358 138.522L67.4025 138.243C67.5897 138.276 67.7365 138.406 67.814 138.607C67.9204 138.882 67.8874 139.265 67.7472 139.558C68.4251 139.875 69.0568 139.685 69.3339 139.566C69.4064 139.359 69.5887 138.646 68.9141 138.261L69.0411 138.012C69.672 138.372 69.7355 138.993 69.6456 139.444C69.6728 139.437 69.7033 139.43 69.7272 139.421C69.7363 139.416 69.747 139.413 69.7553 139.41C69.8155 139.386 69.8674 139.359 69.9152 139.328C69.9218 139.324 69.9284 139.319 69.935 139.315C69.982 139.282 70.0249 139.246 70.0587 139.205C70.095 139.161 70.1247 139.114 70.1453 139.062L70.156 139.035C70.1651 139.008 70.1742 138.98 70.1791 138.952C70.2575 138.532 69.9152 137.991 69.8171 137.922ZM49.7451 121.808C49.407 119.826 49.0862 116.524 48.8536 113.659C48.3489 114.126 47.6711 114.666 46.9577 115.233C45.7397 116.202 44.3593 117.298 43.3144 118.443C42.5945 119.234 42.1987 119.923 42.0016 120.54C41.7468 121.348 41.8358 122.047 41.9941 122.639C41.995 122.646 41.9974 122.651 41.9983 122.656C42.0205 122.74 42.0445 122.82 42.0684 122.9C42.2086 123.352 42.5698 123.727 42.9771 124.109C43.0349 124.163 43.0934 124.217 43.1528 124.273C43.8051 124.876 44.544 125.559 44.7567 126.685C44.7798 126.808 44.8013 126.929 44.8235 127.047C45.2433 126.781 45.9591 126.628 46.7136 126.467L47.0344 126.398C47.6257 126.268 48.6178 126.333 49.3195 126.493C48.9451 125.116 48.598 123.513 48.7868 123.028C48.9897 122.507 49.557 121.975 49.7451 121.808ZM51.3292 130.885C51.2599 130.79 51.1857 130.685 51.109 130.576C50.6711 130.554 47.9226 130.472 46.5619 131.557C46.7755 131.809 47.0056 132.055 47.2439 132.26C47.4921 132.475 47.7494 132.645 48.0017 132.731C48.7497 132.983 49.5323 132.749 49.5867 132.732C49.7286 132.678 49.7739 132.546 49.7871 132.446C49.8176 132.211 49.7022 131.863 49.4218 131.654L49.5768 131.422C49.9067 131.668 50.1013 132.105 50.0518 132.484C50.0337 132.631 49.9735 132.753 49.8885 132.847C50.117 132.952 50.5285 133.072 50.9491 132.874C51.0711 132.694 51.0315 132.047 50.7619 131.617L50.9853 131.46C51.2402 131.867 51.3391 132.457 51.2484 132.832C51.3639 132.812 51.5032 132.761 51.6063 132.643C51.6434 132.604 51.6756 132.557 51.6995 132.498C51.6995 132.498 51.7209 132.438 51.7448 132.351C51.7993 132.146 51.8644 131.762 51.7036 131.446C51.6368 131.311 51.5016 131.123 51.3292 130.885ZM45.7265 97.092C46.6534 97.1905 52.13 97.7243 59.0133 97.3335L59.5658 96.1047C59.6211 95.4008 59.8363 86.585 59.5642 84.2292C59.2937 81.8787 59.0191 74.9075 59.0191 72.3468C59.0191 69.3265 58.9655 58.4724 58.7981 56.1149C58.5367 56.3321 58.2612 56.5597 57.9751 56.797C57.4869 57.1973 56.9888 57.609 56.8173 57.7712C56.8635 57.8863 56.8915 57.9648 56.8964 57.9814L56.9237 58.0616L56.8692 58.1244C56.8618 58.1331 56.0685 59.062 55.6941 59.7615L55.5044 60.1173C54.387 62.2175 52.3064 66.1283 49.6436 68.0732C47.93 69.3239 46.4761 69.7582 45.2169 69.7949C45.2144 70.4935 45.207 73.5993 45.2169 74.3214C45.2243 74.8281 45.4222 75.3148 45.5575 75.5913C46.2205 74.0676 47.5911 72.018 47.6529 71.9273L47.8706 72.0913C47.855 72.114 46.2931 74.4479 45.6985 75.9585C45.6737 76.0317 45.0816 77.9008 45.2128 80.6411C45.3455 83.4356 45.6993 84.8982 45.7034 84.913L45.7109 84.9444L45.7043 84.9784C45.7001 84.9967 45.3167 86.9268 45.4486 87.9656C45.5773 88.9747 45.8609 95.7375 45.7265 97.092ZM49.4911 67.8403C52.1036 65.932 54.1644 62.0596 55.2702 59.9786L55.4616 59.6219C55.7955 58.9966 56.4247 58.2273 56.6161 57.9997C56.4602 57.5906 55.6628 55.6876 54.1899 55.2733C54.0151 55.4329 53.4214 55.9719 52.699 56.599C53.2985 56.9505 54.3268 57.7319 54.8843 58.7829L54.6509 58.9216C54.0737 57.8375 52.9497 57.0551 52.4747 56.7926C51.7003 57.4607 50.8179 58.1942 50.1392 58.6765C49.7995 58.9181 49.4177 59.1693 49.0128 59.437C47.5672 60.3903 45.9286 61.4709 44.9687 62.8472L44.7534 62.6789C45.409 61.7404 46.3895 60.9223 47.3824 60.2098C47.2703 60.2446 47.1598 60.2787 47.0501 60.3127C46.4052 60.5124 45.795 60.7008 45.1501 61.0924L45.0165 60.8473C45.6886 60.4383 46.3434 60.2368 46.9751 60.0414C47.314 59.9368 47.662 59.8286 48.0174 59.6882C47.9943 59.4152 48.0694 58.9303 48.2013 58.127C48.3514 57.206 48.5386 56.0591 48.5386 55.0884C48.5386 53.0248 46.3879 51.4454 45.9558 51.1506L46.1026 50.9125C47.3264 51.7506 48.6285 53.1792 48.7893 54.7631C49.0829 53.9589 49.6139 52.4954 49.4902 52.0088L49.7484 51.9346C49.8853 52.471 49.4688 53.6868 49.0309 54.8878C48.9163 55.2027 48.7967 55.528 48.7918 55.5969H48.7909C48.7431 56.4629 48.5922 57.3979 48.4644 58.1741C48.3704 58.7515 48.2821 59.2966 48.2813 59.5792C48.2928 59.574 48.3044 59.5696 48.3168 59.5644C48.5056 59.4379 48.6912 59.3158 48.8718 59.1963C49.2734 58.9312 49.6535 58.68 49.99 58.4419C51.3977 57.4398 53.7141 55.3343 54.03 55.0457C54.0415 54.9157 54.039 54.5564 54.0374 54.1779C54.0283 52.8705 54.0151 50.7206 54.4052 49.8894L50.6555 45.5504C50.371 45.7074 49.9273 45.8949 49.4144 46.1121C48.0619 46.6851 46.016 47.5511 44.6743 48.7922C44.3749 49.0696 44.257 49.353 44.2562 49.3565L44.243 49.3809C44.2356 49.394 43.4191 50.6447 42.7743 52.2643C42.0568 54.0653 40.278 59.1841 40.2022 61.409C40.6046 60.6764 41.3089 59.9629 41.346 59.9263L41.5307 60.1313C41.5191 60.1426 40.4422 61.2319 40.2269 62.0352V62.0361C40.2228 62.0535 39.7899 63.7368 40.692 64.7817C40.8231 63.9644 41.4309 62.6178 42.4642 61.6846L42.6382 61.9009C41.5406 62.8908 40.9328 64.411 40.932 65.0843C40.9345 65.1532 41.0441 68.5573 42.813 69.1259C44.5019 69.6702 46.6147 69.9405 49.4911 67.8403ZM32.8718 24.9699L12.9746 1.94465C12.9474 2.30136 12.9441 2.82728 12.9408 3.45524C12.9243 6.97792 12.8864 14.3076 8.48026 18.8804C2.6244 24.9585 -0.478772 34.7137 0.563589 43.7572C1.22579 43.9997 5.73169 45.7632 8.78208 49.7786L9.35604 50.5357C12.5046 54.6872 16.0638 59.3821 19.1892 61.5398C19.1241 59.7423 18.9451 49.565 22.9059 43.2077C24.2377 41.0674 25.6446 39.2708 27.0044 37.5317C30.0408 33.6514 32.6632 30.2962 32.8718 24.9699ZM13.0257 1.58357L54.5454 49.633V49.6321L54.6649 49.7717C54.7441 49.8624 54.8612 49.9435 54.9008 49.9374C55.0138 49.8912 55.478 49.312 55.5745 49.1114C55.5712 49.1018 55.5366 49.0242 55.3832 48.8969C55.3618 48.8777 55.3445 48.8541 55.3313 48.8289L13.7275 0.768967C13.2162 1.11871 13.067 1.45362 13.0257 1.58357ZM51.9007 44.4471L55.4162 48.5079C55.4319 48.4983 55.4475 48.4913 55.4657 48.4861C56.1534 48.2994 57.3624 48.0134 57.7434 48.1939C57.9957 48.3134 58.1722 48.5035 58.2843 48.746C57.9479 47.5145 56.861 47.0706 55.925 46.8246C54.8538 46.542 53.3999 45.6716 52.5629 44.3634C52.4516 44.1907 52.3782 43.9883 52.3345 43.7712C52.2034 44.0127 52.0582 44.2395 51.9007 44.4471ZM52.1976 41.0291C52.144 40.3889 52.0813 39.8525 52.0475 39.6231C52.031 39.6205 52.0153 39.6214 51.9997 39.6188C51.5403 39.5324 51.1395 39.2097 50.9004 38.7361C50.7478 38.4326 50.4642 38.1823 50.1904 37.9407C49.6799 37.4889 49.101 36.977 49.3896 36.0612C49.534 35.6068 49.7739 35.2989 50.1046 35.148C50.5474 34.9466 51.1264 35.0277 51.8751 35.394C52.1036 35.5056 52.3749 35.4664 52.6635 35.4254C52.8144 35.4045 52.9719 35.3809 53.1261 35.3809C53.1278 35.3809 53.1303 35.3809 53.1319 35.3809C53.2457 35.3809 53.3447 35.3766 53.4123 35.3312C53.4849 35.2815 53.5294 35.1725 53.5706 35.0661L53.6498 34.8463C53.8774 34.2244 54.1347 33.5188 54.7243 33.1857C54.8851 33.0941 55.0649 33.0365 55.2364 32.9807C55.5209 32.8883 55.7906 32.8002 55.9407 32.5778C56.0215 32.4565 56.0602 32.3048 56.1007 32.1452C56.1427 31.983 56.1856 31.8155 56.2771 31.662C56.5122 31.2678 56.9599 31.1378 57.3541 31.0244L57.4547 30.9957C57.5009 30.9817 57.5438 30.9695 57.5859 30.959C57.7829 30.9058 57.8918 30.8753 58.018 30.7279C58.1219 30.6067 58.3619 30.4942 58.4089 30.4724L58.6142 30.3607C53.7248 30.7183 49.7649 32.3746 47.8772 33.2127C47.8195 33.2921 47.7568 33.3688 47.6876 33.4395C47.6133 33.5162 47.5325 33.5869 47.4517 33.6584C47.2851 33.8032 47.1276 33.941 47.0369 34.1232C46.8876 34.4285 46.9841 34.855 47.2472 35.0556L47.361 35.1419L47.2736 35.2579C46.9816 35.6408 46.8761 36.0586 46.9569 36.4999C47.0484 37.0101 47.38 37.4453 47.6603 37.6119L47.6686 37.6171C47.8071 37.6485 47.9688 37.6276 48.1312 37.55C48.3085 37.4654 48.4701 37.3311 48.6252 37.202L48.7909 37.4244C48.6227 37.5639 48.4479 37.7096 48.2409 37.8082C48.0892 37.8797 47.9349 37.9163 47.789 37.9163C47.7642 37.9163 47.7387 37.9128 47.7123 37.9111C47.6892 38.355 47.8541 38.7405 48.1782 38.9838C48.4866 39.215 48.8874 39.3057 49.2593 39.235C49.3913 38.976 49.6131 38.7675 49.8795 38.6733L49.9644 38.9411C49.7335 39.0231 49.5422 39.2141 49.4515 39.4513L49.4408 39.447C49.3476 39.7583 49.4243 40.0854 49.6362 40.2502C49.9026 40.4587 50.2555 40.525 50.5664 40.5633C50.6802 40.5773 50.8196 40.5834 50.8839 40.5136L51.0381 40.3462L51.1074 40.5677C51.1767 40.7901 51.3639 40.9889 51.584 41.0744C51.7811 41.1512 52.0112 41.1311 52.1976 41.0291ZM60.299 30.2927C60.4441 30.4715 60.5769 30.6067 60.6387 30.6206C60.9092 30.686 61.5236 30.9686 61.7132 31.2355C61.7685 31.3123 61.8188 31.3916 61.8699 31.4727C61.9681 31.6315 62.0612 31.7806 62.1866 31.894C62.3581 32.0492 62.589 32.1321 62.7935 32.1923L62.8257 32.2019C62.9255 32.2298 63.1069 32.2795 63.2191 32.4417C63.2685 32.0789 63.2347 31.6533 63.1143 31.375C63.0203 31.1579 62.8909 31.0968 62.7284 31.0201C62.5272 30.9233 62.2781 30.8003 62.1371 30.3485C61.5137 30.3058 60.901 30.2883 60.299 30.2927ZM60.6123 52.2164C60.4886 51.6791 60.3344 51.557 60.2734 51.5308C60.2181 51.5047 60.1769 51.5282 60.172 51.5308L59.9922 51.639L59.9675 51.4253C59.8718 50.4214 59.255 50.4729 59.2294 50.4755L59.1098 50.4877L59.0843 50.3639C59.0001 49.947 58.85 49.6548 58.6505 49.5196C58.4773 49.4019 58.3231 49.4376 58.3165 49.4385L58.1639 49.4751L58.1524 49.3085C58.1268 48.8812 57.9611 48.6082 57.6329 48.4521C57.425 48.3535 56.64 48.4643 55.6207 48.7373C55.8186 48.923 55.8838 49.0922 55.8137 49.2388C55.7279 49.4184 55.1787 50.1807 54.9387 50.2173C54.8183 50.2348 54.6971 50.1676 54.6064 50.0961C54.2839 50.9212 54.2971 53.0153 54.3054 54.1752C54.3079 54.5974 54.3087 54.8625 54.2996 55.0177C55.5861 55.4041 56.3662 56.7647 56.7018 57.5034C56.894 57.3299 57.2552 57.0298 57.8093 56.5737C58.7758 55.7765 60.2355 54.5729 60.4309 54.2572C60.7245 53.7819 60.8573 53.2743 60.6123 52.2164ZM60.5497 54.5485C60.374 54.7483 60.0417 55.0544 59.6087 55.4285C60.1984 56.1463 64.4041 60.7496 67.3192 63.92C67.3333 63.8982 67.3456 63.8755 67.3596 63.8545C67.5567 63.5685 67.8099 63.3103 68.0895 63.0931L66.7436 61.5686V61.5677L60.5497 54.5485ZM62.6789 35.6478L62.5964 35.5475L62.6855 35.4533C62.7911 35.3434 62.8752 35.2257 62.942 35.1062C62.8389 35.1306 62.7168 35.1594 62.589 35.1847C62.5536 35.4018 62.4538 35.81 62.199 35.865C61.9689 35.9164 61.9087 35.6469 61.8938 35.4542C61.7017 35.6417 61.5747 35.8955 61.5277 35.9984L61.2852 35.8763C61.3991 35.6269 61.7174 35.039 62.246 34.9597C62.5519 34.9134 62.9337 34.8184 63.0863 34.7791C63.2603 34.2453 63.1655 33.7491 63.1646 33.7421C63.1564 33.6688 63.144 33.5607 63.13 33.4412C62.6129 33.4744 62.1041 33.634 61.6563 33.9096L61.5211 33.6662C62.0002 33.3697 62.5428 33.1996 63.0954 33.1604C63.0648 32.9092 63.0368 32.685 63.0368 32.685C63.0096 32.5551 62.8991 32.5141 62.7589 32.4757L62.721 32.4644C62.4892 32.3964 62.2229 32.3004 62.0118 32.1077C61.8592 31.969 61.7504 31.7963 61.6464 31.6289C61.5978 31.5538 61.5508 31.4788 61.5005 31.4064C61.3669 31.2215 60.8325 30.9573 60.5785 30.8971C60.4029 30.8544 60.1456 30.5543 59.9526 30.2971C59.7242 30.3032 59.4966 30.3093 59.2706 30.3206L58.5235 30.7279C58.4188 30.7759 58.2645 30.8613 58.2167 30.9163C58.0369 31.1291 57.8588 31.1771 57.6518 31.2338C57.6122 31.2434 57.571 31.2547 57.5273 31.2678L57.425 31.2974C57.0606 31.403 56.6829 31.512 56.5039 31.8129C56.4346 31.9297 56.3975 32.0702 56.3596 32.2184C56.3134 32.3972 56.2672 32.5795 56.1584 32.7417C55.9563 33.0426 55.6298 33.149 55.3156 33.2511C55.1474 33.306 54.989 33.3566 54.8497 33.4351C54.3483 33.7186 54.1207 34.3439 53.9005 34.9474L53.8188 35.1707C53.7652 35.3138 53.696 35.4734 53.5566 35.5693C53.4172 35.6644 53.2581 35.6626 53.1261 35.6644C52.9892 35.6644 52.8491 35.6844 52.699 35.7054C52.3856 35.7516 52.0607 35.7978 51.7613 35.6504C51.0958 35.3242 50.573 35.2422 50.2118 35.4088C49.9537 35.5266 49.7624 35.776 49.6445 36.151C49.4136 36.8837 49.8531 37.2726 50.3627 37.7236C50.6563 37.9826 50.959 38.2512 51.1362 38.6027C51.3399 39.0056 51.6632 39.2673 52.0467 39.3405C52.3617 39.399 52.6767 39.3153 52.8928 39.112L53.0701 39.324C52.8697 39.5124 52.6025 39.617 52.3196 39.6353C52.4004 40.2232 52.5909 42.0399 52.5571 43.2897C52.5481 43.6412 52.6264 43.9578 52.7847 44.2046C53.578 45.4448 55.0022 46.2891 55.9885 46.5499C56.9979 46.8141 58.366 47.3593 58.6175 49.0181C58.921 48.7434 59.156 48.2759 59.2912 47.0662C59.3374 46.6502 59.6698 46.4949 59.8668 46.3955C60.0656 46.2961 60.1695 46.2324 60.1678 46.0196C60.1612 45.3646 60.0656 45.0184 60.0095 44.8701C59.7712 44.9372 59.5139 44.9739 59.2302 44.9739C58.9251 44.9739 58.5903 44.9338 58.2184 44.8509C55.8862 44.3293 53.7916 41.3492 53.4758 40.5162L53.7248 40.4107C53.992 41.1154 56.033 44.0729 58.2728 44.5736C60.4862 45.0689 61.2547 43.9404 62.4208 41.9012C63.4005 40.1883 63.3395 39.4792 63.2389 38.3035C63.2232 38.1117 63.2059 37.9085 63.1918 37.6878C63.0937 36.1676 62.683 35.653 62.6789 35.6478ZM77.7932 73.8461L77.7882 73.9098C77.742 74.4697 77.5837 74.863 77.3165 75.0776C77.14 75.2206 76.9594 75.2442 76.8572 75.2442C76.8069 75.2442 76.7739 75.2389 76.7706 75.2381L76.7302 75.2302L71.807 70.0408C71.7616 70.0722 71.7105 70.0932 71.6528 70.0932C71.6462 70.0932 71.6379 70.0932 71.6313 70.0923L70.9593 70.0373C70.5964 70.0077 70.3465 69.8978 70.2146 69.712C70.1701 69.6484 70.1453 69.5864 70.1329 69.5315C69.6192 69.5847 69.2225 69.4844 68.952 69.2358C68.7038 69.0064 68.6321 68.7134 68.6123 68.5599C67.3844 68.0854 67.4833 66.9342 67.5386 66.6071C67.4471 66.5138 67.3695 66.4056 67.3019 66.287C67.3687 69.0727 67.5386 76.1399 67.4809 79.196C67.4116 82.8547 67.6648 89.3593 67.819 91.006C67.9641 92.5785 67.8206 95.6756 67.819 95.7052L67.8165 95.7532L67.7868 95.7898C67.5204 96.1256 67.1494 96.4047 66.7123 96.6376C66.77 97.0318 66.9143 98.5188 67.2096 104.119C67.2343 104.601 67.2442 105.112 67.2409 105.651C67.2491 106.518 66.9374 124.632 66.9349 124.815L66.9333 124.855L66.9135 124.889C66.3346 125.839 64.6515 126.414 64.2763 126.533C64.0957 127.371 63.9835 127.866 63.9777 127.894L63.9472 128.029L63.8178 127.998C63.8013 127.995 63.1572 127.846 62.1833 127.652C62.1759 128.145 62.133 128.71 62.0843 129.307C61.978 130.634 61.8567 132.136 62.1767 133.037C62.4579 133.826 63.2867 134.928 64.3414 135.773C64.6465 135.704 64.8931 135.695 65.0358 135.771L65.1488 135.832C65.604 136.074 66.2909 136.441 67.1246 136.551C67.9402 136.657 68.28 137.119 68.3814 137.296C68.3954 137.3 68.4119 137.302 68.4251 137.305C69.3759 137.492 69.8097 137.577 69.9664 137.686C70.1255 137.799 70.5469 138.446 70.4422 139.007C70.4348 139.044 70.4249 139.082 70.4117 139.123C70.4719 139.336 70.6888 140.195 70.448 140.776C70.1709 141.444 69.5912 141.769 68.2338 142.018C67.6532 142.125 66.7543 142.241 65.5957 142.241C64.4437 142.241 63.0343 142.126 61.4246 141.773C58.7519 141.187 54.3549 139.57 54.2971 139.152C54.2922 139.115 54.279 139.052 54.2625 138.971C54.1231 138.276 54.0077 137.525 54.3483 137.315C54.3244 137.267 54.3087 137.217 54.3046 137.165C54.2303 136.389 54.6798 134.309 55.069 133.323C55.3346 132.65 55.074 128.399 54.9412 126.666C51.6632 126.309 50.0766 123.241 50.0593 123.209C49.9743 122.958 49.8885 122.589 49.8028 122.13C49.5752 122.346 49.1826 122.756 49.0342 123.136C48.8899 123.507 49.1859 125.007 49.6189 126.572C49.8572 126.648 50.032 126.735 50.098 126.829C50.1689 126.931 50.2159 127.115 50.2885 127.392C50.4468 128.008 50.7107 129.037 51.4587 129.827L51.4859 129.855L51.4941 129.893C51.5007 129.919 51.5445 130.151 51.3465 130.439C51.4142 130.536 51.4801 130.628 51.542 130.713C51.7218 130.962 51.8619 131.158 51.9411 131.312C52.139 131.705 52.0731 132.15 52.0079 132.404L52.0063 132.416C52.0005 132.465 52.0186 132.694 52.0335 132.896C52.0632 133.296 52.1019 133.796 52.0722 134.058C51.9997 134.689 51.3408 135.025 49.9991 135.116C49.8877 135.124 49.7739 135.127 49.6601 135.127C48.2755 135.127 46.8068 134.577 46.0655 133.758C45.5369 133.174 42.8782 128.181 41.2907 125.198C40.7126 124.113 40.2566 123.254 40.1956 123.163C39.9193 122.744 40.184 121.569 40.4817 120.975C40.7827 120.374 41.3979 120.202 41.7962 120.311C42.0197 119.685 42.4296 119.005 43.1214 118.247C44.1811 117.086 45.5715 115.981 46.7969 115.006C47.5803 114.384 48.3201 113.795 48.8256 113.304C48.6903 111.606 48.5872 110.091 48.5336 109.144C48.3258 105.499 47.6843 99.2427 47.3841 97.5219C46.2395 97.4365 45.5773 97.3597 45.5583 97.358L45.409 97.3397L45.442 97.1844C45.616 96.3899 45.3134 89.0201 45.1831 88.0031C45.0536 86.9792 45.3835 85.2209 45.4362 84.9514C45.3818 84.715 45.0701 83.2856 44.9456 80.6551C44.8219 78.0735 45.315 76.2873 45.4264 75.9236C45.3109 75.723 44.9588 75.0549 44.9497 74.3258C44.939 73.601 44.9472 70.4987 44.9497 69.7957C44.1349 69.7835 43.4027 69.6126 42.7355 69.3972C40.8924 68.8041 40.6879 65.6582 40.6665 65.1532C39.5086 64.077 39.8946 62.2646 39.9622 61.9907C39.6464 59.9908 41.9397 53.6301 42.5277 52.1553C43.152 50.5889 43.9321 49.36 44.0162 49.2309C44.0459 49.162 44.1861 48.8672 44.4986 48.5794C45.8741 47.3078 47.944 46.4295 49.3146 45.8495C49.7838 45.6507 50.1928 45.4771 50.4675 45.3332L33.1217 25.2585C32.8298 30.5168 30.2255 33.8599 27.2114 37.7113C25.8557 39.4443 24.4538 41.2366 23.1286 43.363C18.8428 50.2426 19.4622 61.682 19.4688 61.7971L19.4844 62.071L19.2642 61.9253C16.0481 59.8155 12.3825 54.9785 9.1474 50.7119L8.57262 49.9548C5.34245 45.7039 0.449787 44.0145 0.401133 43.9979L0.319492 43.97L0.308772 43.8802C-0.773997 34.7277 2.36051 24.8355 8.29224 18.678C12.6192 14.1881 12.6563 6.9378 12.6736 3.4535C12.6777 2.57959 12.681 1.94814 12.7462 1.60189C12.7544 1.54432 12.846 0.994858 13.6813 0.465453L13.7762 0.405273L13.8496 0.490746L51.7176 44.236C51.9353 43.9421 52.1283 43.6133 52.2899 43.2505C52.304 42.6687 52.2701 41.9684 52.2215 41.3308C52.1019 41.3788 51.9741 41.4067 51.8455 41.4067C51.7259 41.4067 51.6055 41.3849 51.4917 41.3404C51.2468 41.2454 51.0381 41.0526 50.9185 40.8171C50.7734 40.8738 50.6167 40.8538 50.5343 40.8442C50.1895 40.8023 49.7945 40.7256 49.4762 40.4787C49.2156 40.2746 49.0928 39.9075 49.1447 39.5377C48.7505 39.5708 48.344 39.4548 48.0232 39.2141C47.6059 38.9019 47.3948 38.3803 47.4509 37.8082C47.1441 37.5875 46.7969 37.1261 46.6922 36.5548C46.6064 36.076 46.707 35.6085 46.9858 35.1917C46.6955 34.8873 46.6097 34.3797 46.8002 33.9924C46.9149 33.7604 47.1012 33.5973 47.281 33.4395C47.356 33.3741 47.4319 33.3078 47.5012 33.2371C47.5581 33.1778 47.6109 33.115 47.6603 33.0487C48.1898 30.7706 49.6544 27.8227 50.0972 26.9662C50.2291 26.7107 50.4262 26.4979 50.6728 26.3688C54.8158 24.205 59.9089 25.0579 59.9089 25.0579C59.9089 25.0579 62.5239 27.2741 62.3895 30.2595C62.4934 30.5945 62.6468 30.6695 62.8389 30.7619C63.0178 30.8465 63.2215 30.9442 63.3576 31.2582C63.5671 31.7396 63.558 32.5298 63.3452 32.992C63.3757 33.2389 63.4129 33.5485 63.4277 33.6968C63.4351 33.7299 63.6363 34.7748 62.9527 35.5676C63.0912 35.7969 63.3782 36.4136 63.459 37.6686C63.4731 37.8875 63.4904 38.0881 63.5069 38.2774C63.6083 39.4688 63.6751 40.2555 62.6501 42.0478C61.8815 43.3918 61.2531 44.3869 60.266 44.7829C60.3072 44.8989 60.3575 45.0794 60.393 45.3515C60.6173 45.6934 61.1269 46.1339 61.5508 46.2612L61.7256 46.3135C62.8974 46.6545 64.1303 47.0662 64.4577 47.5459C64.7587 47.6907 66.7156 48.6849 68.1719 50.7136C69.7346 52.8897 74.6685 61.2494 75.2978 62.528C75.9204 63.7935 75.7274 66.5574 74.6685 67.7584C74.3882 68.075 73.6765 68.6898 73.3961 68.9288L77.7932 73.8461ZM51.5007 36.6447C51.838 37.052 52.0071 37.5936 51.965 38.1326L51.6978 38.1091C51.7333 37.6538 51.584 37.175 51.2987 36.8313L51.5007 36.6447Z" fill="#5F583F"/>
</g>
</svg>
