<svg width="56" height="161" viewBox="0 0 56 161" fill="none" xmlns="http://www.w3.org/2000/svg">
<path d="M34.3116 2.18457L24.5182 3.03195C24.5182 3.03195 24.0217 3.28626 23.6692 3.35327C23.4427 3.39642 23.2092 3.13294 23.0712 2.93831L22.5903 3.91881C22.5963 3.90687 34.408 2.82906 34.408 2.82906C34.408 2.82906 34.6962 2.40491 34.3116 2.18457ZM30.3628 48.0073C30.4054 48.3213 30.2934 48.6334 30.1666 48.9217C29.6102 50.1831 28.717 51.2766 27.6206 52.0459C26.842 52.5912 25.9722 52.9704 25.0911 53.2972C22.5607 54.2392 19.7691 54.7661 17.2005 53.9463C16.7022 53.7856 16.2118 53.5736 15.7882 53.2513C15.0738 52.706 14.5894 51.8705 14.3125 50.9855C14.0347 50.1005 13.9496 49.1613 13.9071 48.2295C13.8298 46.5448 13.8359 44.6417 14.0269 42.9671C14.0269 42.9671 14.1988 41.2999 13.513 38.3648C12.8264 35.4297 12.8897 31.6372 14.4479 29.0648C16.0078 26.4923 19.3125 25.9984 19.967 26.2279C20.6736 26.0572 21.934 25.8414 23.8628 27.2148C25.7908 28.5864 26.513 32.3542 26.5225 33.264C26.5382 34.7265 27.2352 36.0384 27.4036 37.4899C27.4036 37.4899 27.4687 41.9315 28.5772 43.6676C29.6883 45.4027 29.8533 46.8386 29.8889 46.8496C30.0156 47.3821 30.2864 47.4647 30.3628 48.0073Z" fill="#777155"/>
<path d="M45.4306 13.2712C45.4063 10.9549 45.2804 8.64135 45.0548 6.33607C44.9419 5.18389 44.8039 4.03539 44.6416 2.89055C44.5712 2.39663 44.3985 1.80998 44.29 1.2417L34.3117 2.18456L34.5122 2.43244L34.4081 2.82904L33.9141 2.87403C33.9141 2.87403 34.5504 16.1861 35.0001 26.0186C35.4471 35.852 34.5122 39.4454 34.5122 39.4454C34.5122 39.4454 37.7284 40.9372 42.5834 39.8521C43.4176 39.6657 44.2127 39.4692 44.9714 39.2709C44.5747 37.5541 44.3291 35.7988 44.2431 34.0324C44.0287 29.69 44.7605 25.3668 45.1363 21.0371C45.3612 18.4555 45.4593 15.8638 45.4306 13.2712ZM37.0834 50.4429C36.4766 49.5065 35.3126 49.1117 35.3126 49.1117C35.3126 49.1117 35.0322 48.5701 34.4263 48.2249C33.8204 47.8797 30.0921 46.9433 29.3933 46.6972C28.6936 46.4512 27.6685 45.612 27.4341 44.8537C27.2015 44.0945 27.0617 43.1966 26.619 42.8652C26.8429 44.1909 25.7232 46.8413 25.5487 49.4689C25.3811 51.9807 24.6164 55.3078 23.8074 59.3271C24.2405 53.7884 23.0886 49.6855 22.1789 48.0183C20.79 45.4743 19.0105 44.5618 19.3976 43.8383C19.3985 43.8374 19.4002 43.8356 19.4002 43.8356C19.1363 43.6152 18.8916 43.3646 18.6667 43.0938C18.665 43.0938 18.665 43.0938 18.665 43.0938C18.3534 43.1167 18.1398 44.1211 17.7952 44.4048C17.4515 44.6885 16.9879 44.4819 16.5252 44.4048C16.0626 44.3277 15.8916 44.4883 15.6468 44.5498C15.6468 44.5498 14.2344 43.4518 13.527 42.2657C12.8204 41.0786 11.1737 37.4614 11.1737 35.5766C11.1737 33.6909 9.65892 28.4138 9.65892 28.4138C9.65892 28.4138 12.9619 21.8157 14.1624 19.2708C15.3612 16.7259 19.2292 10.4114 19.2292 10.4114C19.2292 10.4114 16.4679 6.82999 14.8447 6.73543C14.8447 6.73543 4.6676 20.4028 3.4202 23.3241C2.1728 26.2454 4.48964 43.2104 6.36117 47.9238C8.23183 52.6362 8.40978 54.3144 8.50006 55.1719C8.57992 55.9413 8.94798 58.5109 9.46013 62.0712L9.63982 63.3106C9.04867 67.4227 13.6919 73.3635 18.1798 74.2889C18.4836 74.3513 21.2388 69.0541 21.5469 69.1055C21.9801 67.979 22.3386 66.8782 22.6407 65.8059C22.4714 66.9058 22.3152 68.0368 22.1789 69.2055C22.1789 76.9284 29.9471 72.5877 30.8395 69.5489L31.139 68.887C31.3855 68.3168 31.6146 67.7486 31.8629 67.2528C33.5877 63.8027 33.8204 61.0421 33.8204 61.0421C33.8204 61.5846 34.3325 62.9149 35.0799 64.7878C35.8247 66.6607 36.3369 70.2586 36.3369 70.2586C35.4515 70.7525 34.1468 73.6123 33.0747 74.7461C32.0027 75.879 29.1381 78.6222 28.5791 78.6222C28.5339 79.2373 28.5244 79.9213 28.7943 80.4675C28.9992 80.8816 29.3586 81.1836 29.6624 81.5251C30.1181 82.0383 30.4159 82.8481 30.6103 83.5219C38.6277 77.6068 42.257 71.9855 42.3959 71.1968C42.5357 70.4073 42.9089 69.6187 41.9298 63.6549C40.9515 57.6893 37.6884 51.3794 37.0834 50.4429ZM29.7197 97.5198C29.4853 96.7798 27.9011 94.2165 28.0409 93.0341C28.1806 91.8516 27.4341 90.9629 27.4341 90.9629C27.5747 90.2229 27.2015 88.8936 27.2015 88.8936C27.2015 88.8936 27.4818 88.2528 27.6216 87.365C27.7501 86.5479 28.2692 84.8302 27.7136 80.3656C25.5487 79.4833 21.9306 77.9382 20.6329 79.3842C20.3985 83.5219 19.4723 92.576 19.7561 94.2973C19.9237 95.3136 24.599 104.02 26.0799 104.918C30.6294 107.675 29.9054 100.28 29.9054 100.28C29.9054 100.28 29.9523 98.2588 29.7197 97.5198ZM20.4766 76.7897C18.5122 94.682 13.8299 108.262 13.8299 108.262C9.90892 107.579 3.78565 103.469 2.5643 99.9673C1.20405 99.1594 0.532179 98.5287 0.532179 98.5287C0.176276 96.3612 0.621588 91.8892 2.40805 87.4586C3.26742 85.325 4.54433 80.3674 7.55041 75.5063C7.55041 75.5081 14.408 75.3511 20.4766 76.7897Z" fill="#E4DDA9"/>
<mask id="mask0_302_29180" style="mask-type:luminance" maskUnits="userSpaceOnUse" x="2" y="0" width="54" height="148">
<path d="M2.44434 0.184082H55.7777V147.529H2.44434V0.184082Z" fill="white"/>
</mask>
<g mask="url(#mask0_302_29180)">
<path d="M33.7916 121.223C33.6797 116.825 30.7569 102.202 29.9054 100.28C29.9054 100.28 27.5911 103.171 26.9765 102.006C26.1441 100.428 25.2361 92.3703 25.0686 91.354C24.7864 89.6317 23.7751 82.7296 21.4357 79.722C21.4357 79.7211 21.434 79.7211 21.434 79.7211C23.5781 80.1251 25.7344 80.384 27.7135 80.3656C27.8819 80.3647 28.0104 80.3004 28.1154 80.1811C27.8724 80.0498 27.5937 79.9369 27.3142 79.9066C26.5512 79.8249 26.3984 79.0362 26.8446 78.647C27.1319 78.3991 27.9479 78.3798 28.6007 78.4817C28.6745 78.0236 28.7578 77.4875 28.8741 76.8659C29.4826 73.6086 31.5147 70.5826 31.5147 70.1557C31.5173 69.2597 31.1389 68.887 31.1389 68.887L30.8394 69.5489C30.5521 69.5819 28.5547 69.6866 26.0338 69.5663C24.8255 69.5085 23.4974 69.3993 22.1797 69.2055C22.1788 69.2055 22.1788 69.2055 22.1788 69.2055C23.7942 66.2595 24.9991 61.6232 25.7951 57.3551C24.8246 57.4653 22.2187 56.9107 22.2187 56.9107C22.2187 56.9107 22.2187 56.9107 22.2179 56.9107C22.5017 60.9695 22.3958 65.6168 21.5469 69.1055C21.2387 69.0541 20.9323 68.9971 20.6284 68.9347C20.4713 68.9017 20.3151 68.8668 20.1571 68.8291C20.118 68.819 20.0772 68.8089 20.0382 68.7988C19.914 68.7685 19.7908 68.7364 19.6658 68.7024C19.6302 68.6933 19.5946 68.6822 19.559 68.6731C19.4236 68.6354 19.2882 68.5959 19.1519 68.5555C19.1302 68.5482 19.1076 68.5418 19.0868 68.5353C18.9262 68.4867 18.7673 68.4353 18.6067 68.382C14.6988 67.0793 10.7864 64.5243 9.63973 63.3106L9.46004 62.0712C9.46004 62.0712 8.82983 62.331 8.82983 63.5631C8.82983 64.6914 7.15275 73.8905 7.03035 74.5625C6.90709 75.2354 7.44355 75.4613 7.55032 75.5063C7.55032 75.5063 12.8897 77.7546 18.9583 79.1932C15.2491 95.9324 10.9948 102.964 10.9948 102.964C7.07202 102.283 4.27428 100.983 2.56421 99.9673C2.92532 102.795 4.67966 111.117 4.90362 115.873C5.12931 120.629 4.56681 133.706 5.5781 138.224C5.5781 138.224 10.6988 142.267 17.5555 140.959C17.6623 143.331 17.7179 144.881 17.7179 144.881C17.7179 144.881 19.8533 145.595 23.3594 146.784C26.8654 147.973 31.5147 146.784 31.5147 146.784C31.5989 145.12 33.9045 125.623 33.7916 121.223ZM52.5026 37.3779C51.3342 37.3503 48.625 38.3207 44.9713 39.2709C44.5746 37.5541 44.329 35.7988 44.243 34.0324C44.0286 29.6899 44.7604 25.3668 45.1363 21.0371C45.3611 18.4555 45.4592 15.8638 45.4305 13.2712C45.4062 10.9549 45.2804 8.64135 45.0547 6.33607C44.9418 5.18389 44.8038 4.03539 44.6415 2.89055C44.5712 2.39663 44.3984 1.80998 44.2899 1.2417L55.5078 0.184082C55.9496 0.658724 55.4505 1.06543 55.4505 1.06543C55.4505 1.06543 55.7074 4.65968 55.1319 8.32094C54.5538 11.9822 55.2595 22.832 55.1319 26.2903C55.0034 29.7478 52.5026 37.3779 52.5026 37.3779Z" fill="#D63023"/>
</g>
<path d="M34.4548 153.681C34.1727 153.496 31.4808 150.04 30.7777 149.526C30.0755 149.012 29.9574 147.911 30.105 147.059C28.9183 147.246 27.1388 147.426 25.3775 147.22C25.3064 147.519 24.9183 148.489 24.9183 148.9C24.9183 149.31 26.5789 152.076 29.7925 153.608C33.0069 155.139 34.7022 155.19 35.1614 155.035C35.6206 154.878 34.7378 153.868 34.4548 153.681ZM14.0025 145.538C13.9314 144.753 13.967 141.219 13.967 141.219L13.8185 141.185C11.9635 141.062 10.3315 140.609 9.02165 140.092L9.01904 140.091C9.1996 140.569 9.7647 146.285 9.7647 146.996C9.7647 147.704 9.37495 148.34 9.58762 149.012C9.79856 149.685 9.94092 150.358 9.7647 150.917C9.58762 151.479 8.72304 154.617 9.8437 155.513C10.9652 156.41 13.8619 156.41 14.3567 153.906C14.8506 151.403 14.6388 148.639 14.5677 147.892C14.4982 147.144 14.0729 146.323 14.0025 145.538ZM25.592 3.63704C23.8732 3.79587 22.592 3.91522 22.5902 3.91889L23.0711 2.93839C23.2091 3.13302 23.4427 3.39651 23.6692 3.35336C24.0216 3.28634 24.5182 3.03204 24.5182 3.03204L24.8993 2.9999C25.065 2.37929 24.5164 1.70451 24.1015 1.76051C23.605 1.82845 23.3593 2.08367 23.3593 2.08367C22.7135 1.55761 22.0017 1.82753 22.0017 1.82753C22.0017 1.82753 21.73 1.4043 21.1527 1.4043C20.5763 1.4043 20.4314 1.93035 20.4314 1.93035C20.4314 1.93035 20.2222 1.86241 19.8376 1.82845C19.4531 1.79448 18.4279 2.52434 18.059 2.76121C17.6909 2.99807 16.1041 5.04996 15.9756 5.43922C15.8472 5.8294 15.7682 6.66025 15.5329 6.93751L15.5373 6.94118C16.7968 7.54711 18.3446 9.32725 18.9591 10.0755C19.1545 9.67703 20.8159 8.79568 21.8411 8.16772C22.868 7.5416 23.3003 6.57487 23.7977 5.5246C24.2951 4.47341 25.8975 3.98132 25.8975 3.98132C25.8055 3.83627 25.7013 3.72243 25.592 3.63704ZM28.8446 80.6916C28.3576 80.7816 27.1683 81.2507 26.7769 81.506C26.3862 81.7621 26.5121 82.5764 26.9678 82.6737C27.4244 82.7711 28.4939 82.055 28.9539 82.0724C29.4114 82.0889 29.4114 82.0889 29.4114 82.0889C29.4114 82.0889 28.7847 82.9023 27.947 82.9795C27.1093 83.0575 26.7291 82.9896 26.6371 83.444C26.5451 83.9003 26.8671 84.2088 27.4808 84.1775C28.0946 84.1463 29.3489 84.0297 29.3489 84.0297C29.3489 84.0297 28.526 84.5934 27.8888 84.7862C27.2499 84.9781 26.7543 85.3114 26.8159 85.7731C26.8775 86.234 28.9036 85.9301 29.2907 85.808C29.6779 85.6878 30.2239 85.3839 30.2873 84.9542C30.3532 84.5255 30.8124 83.7598 30.5112 82.8307C30.2091 81.9016 30.3741 80.7412 30.1275 80.4933C29.8802 80.2427 29.8168 79.0529 29.4192 78.7416C29.0216 78.4304 27.2907 78.2597 26.8446 78.6489C26.3984 79.0363 26.5512 79.825 27.3142 79.9067C28.0763 79.9884 28.8446 80.6916 28.8446 80.6916ZM18.6935 43.1242C18.355 42.7248 18.0564 42.2851 17.7951 41.8471C17.618 42.0996 17.006 42.1574 16.7248 41.8269C16.4435 41.4974 15.6953 40.706 15.0399 40.2479C14.3862 39.7897 14.1987 38.991 14.638 38.7275C15.0772 38.4641 15.9765 39.0241 15.9765 38.5963C15.9765 38.1666 15.1657 36.7151 15.2682 36.5233C15.3038 35.1562 14.8446 34.0555 14.8446 34.0555C14.8168 34.0518 14.8428 33.9921 14.8767 33.926C15.2109 32.5498 16.5025 31.4362 18.2031 30.7972C19.342 30.3703 20.1935 29.2631 20.6293 28.4139C20.6319 28.4185 20.6345 28.4222 20.6371 28.4277C21.0998 29.3623 22.0538 29.6313 22.6736 29.7809C22.8072 29.8131 23.0347 29.8232 23.1545 29.9186C23.1614 29.9141 23.1675 29.9076 23.1753 29.9021C23.2543 29.9242 23.776 30.6779 24.5963 31.6345C25.1736 32.3075 25.539 33.0539 25.7951 33.8204C25.8168 33.8856 25.8394 33.9683 25.8619 34.0555C25.8619 34.0555 26.2178 33.8214 26.2916 33.5276C26.3663 33.2338 26.9774 32.9997 27.2552 33.254C27.5329 33.5092 27.7378 34.2538 27.5885 35.1562C27.44 36.0578 27.6631 37.1953 27.4036 37.49C27.1449 37.7838 26.7569 37.8343 26.7569 37.8343C26.8602 38.3741 26.9262 38.8469 26.9166 39.1462C26.888 40.0128 26.4218 41.2587 26.3368 41.5047C26.3368 41.5047 26.4739 42.0078 26.6223 42.8864C26.8454 44.2139 27.0911 46.3989 26.9183 49.0127C26.8333 50.2714 26.6414 52.0524 26.3437 54.0749C26.3029 54.343 26.2612 54.6157 26.2178 54.892C26.2161 54.9049 26.2144 54.9168 26.2118 54.9306C26.0885 55.7155 25.9479 56.528 25.7942 57.3552C24.822 57.4654 22.2187 56.9108 22.2187 56.9108C22.2187 56.9108 22.2187 56.9108 22.2178 56.9108C21.9461 52.9953 21.3107 49.6269 20.6284 48.3783C19.2395 45.8334 19.0104 44.5619 19.4001 43.8357C19.2751 43.7301 19.1545 43.6172 19.0381 43.5006C18.9227 43.384 18.8116 43.2619 18.7039 43.137C18.7005 43.1315 18.697 43.1278 18.6935 43.1242Z" fill="#E5907A"/>
<mask id="mask1_302_29180" style="mask-type:luminance" maskUnits="userSpaceOnUse" x="0" y="0" width="56" height="161">
<path d="M0.267334 0.0170898H55.8429V160.705H0.267334V0.0170898Z" fill="white"/>
</mask>
<g mask="url(#mask1_302_29180)">
<path d="M45.0713 14.2766L45.3065 14.4804C46.7397 12.625 48.4532 11.0596 50.3985 9.82943L50.2432 9.55401C48.2675 10.8035 46.5279 12.3927 45.0713 14.2766ZM46.2432 22.9624C45.8378 23.4664 45.4202 23.987 45.0331 24.5158C43.6051 26.4695 42.5157 28.6508 41.7944 30.9983L42.0826 31.0975C42.7935 28.7848 43.8664 26.6356 45.2727 24.7114C45.6555 24.1881 46.0704 23.6712 46.4741 23.1708C47.4775 21.9223 48.5149 20.6305 49.1555 19.1065L48.8777 18.9752C48.2544 20.4579 47.2319 21.7313 46.2432 22.9624ZM49.5765 1.71277L49.5557 2.03317C50.0366 2.0699 50.5192 2.08826 51.0027 2.08826C51.8951 2.08826 52.7874 2.02583 53.672 1.90097L53.6303 1.5824C52.29 1.77152 50.9272 1.81559 49.5765 1.71277ZM22.8942 41.2394L23.0097 41.5359C23.2614 41.4267 23.481 41.2339 23.6294 40.9924L23.3751 40.818C23.2597 41.0053 23.0886 41.154 22.8942 41.2394ZM21.0583 40.4214L20.9975 40.7354C21.2171 40.7831 21.4402 40.807 21.6633 40.807C22.7006 40.807 23.7432 40.3112 24.402 39.4638L24.1668 39.2591C23.4359 40.2001 22.1867 40.6674 21.0583 40.4214ZM21.6919 36.8134C21.8039 36.9786 21.9202 37.1494 22.0175 37.3238C22.1503 37.5625 22.2388 37.8792 22.0947 38.0537L22.3213 38.2657C22.5357 38.0096 22.5209 37.5965 22.2788 37.1613C22.1737 36.974 22.0539 36.7968 21.9376 36.6261C21.8005 36.4232 21.6694 36.2322 21.5626 36.022C21.2649 35.4408 21.1755 34.7385 21.3169 34.094L21.0218 34.0215C20.8638 34.7404 20.9636 35.5262 21.2952 36.1753C21.4116 36.403 21.5539 36.6114 21.6919 36.8134ZM17.9628 36.3562C17.8317 36.4856 17.7232 36.6334 17.6173 36.7766C17.4697 36.9768 17.33 37.165 17.1459 37.2908L17.31 37.5607C17.5374 37.4055 17.6989 37.1861 17.8569 36.974C17.8959 36.9189 17.935 36.8675 17.9758 36.817C18.1043 36.9639 18.3508 37.1613 18.6633 36.9924C19.0001 36.8106 18.948 36.414 18.8942 36.212C19.1755 36.1569 19.4715 36.1845 19.7327 36.3047L19.8534 36.01C19.2336 35.7245 18.4567 35.8668 17.9628 36.3562ZM22.5574 34.8358C22.4732 34.9249 22.4029 35.024 22.3369 35.1195C22.2414 35.2545 22.1529 35.3793 22.0374 35.4629L22.2058 35.7291C22.3647 35.6153 22.4741 35.461 22.58 35.3123C22.6425 35.2214 22.7032 35.136 22.7718 35.0635C22.7892 35.0442 22.81 35.0305 22.8291 35.0139C22.9168 35.193 23.1025 35.4473 23.4202 35.3683C23.7788 35.2783 23.8039 34.9478 23.7406 34.7284C23.9888 34.7468 24.251 34.8294 24.5192 34.9754L24.6581 34.6908C24.2952 34.4934 23.9376 34.4034 23.5982 34.3988C23.1937 34.4043 22.8135 34.5641 22.5574 34.8358ZM17.6972 35.6061C18.1624 35.4812 18.6555 35.473 19.1242 35.5804L19.1885 35.2682C18.6746 35.1489 18.1321 35.1572 17.6216 35.2939C17.4723 35.3343 17.2788 35.3977 17.106 35.5216C16.9263 35.652 16.797 35.8292 16.6729 36.0009C16.5548 36.1634 16.4446 36.3148 16.3013 36.4168L16.468 36.6839C16.6546 36.5535 16.7848 36.3718 16.9133 36.1973C17.0288 36.0376 17.1381 35.8879 17.2779 35.786C17.3812 35.7108 17.5105 35.6557 17.6972 35.6061ZM22.948 33.8691C23.0253 33.8177 23.1025 33.7663 23.1789 33.7176C23.7076 33.3761 24.1208 33.2641 24.4767 33.3623L24.5522 33.052C23.9732 32.8914 23.4011 33.198 23.0218 33.4422C22.9419 33.4945 22.8638 33.5459 22.7848 33.5983C22.4385 33.8315 22.1121 34.0518 21.738 34.1216L21.7926 34.4383C22.2241 34.3557 22.5921 34.1078 22.948 33.8691ZM20.238 60.5978L20.5418 60.585C20.4246 57.6664 19.9428 54.7736 19.1077 51.99L18.8187 52.0864C19.6442 54.8443 20.1225 57.7077 20.238 60.5978ZM26.8551 95.5019C26.9428 94.9841 27.1138 94.4875 27.3595 94.0284L27.0965 93.8705C26.8326 94.3608 26.6511 94.8923 26.5565 95.4459L26.8551 95.5019ZM26.0435 92.2667C26.4411 92.0904 26.8039 91.8186 27.0947 91.4835L26.8716 91.2669C26.6095 91.568 26.2831 91.8122 25.9255 91.971L26.0435 92.2667ZM12.0791 78.155L11.7796 78.1063C11.7527 78.2927 11.6789 78.4681 11.5687 78.6149L11.8048 78.816C11.9498 78.626 12.0444 78.3974 12.0791 78.155ZM26.6451 68.9458L26.9038 69.1129C27.0982 68.7769 27.2319 68.3932 27.2909 68.0057L26.9932 67.9543C26.9393 68.3023 26.8196 68.6447 26.6451 68.9458ZM18.4116 66.3394C18.238 66.7443 18.2058 67.2199 18.3248 67.6458L18.6156 67.554C18.5183 67.2024 18.5444 66.8076 18.6876 66.4725L18.4116 66.3394ZM19.0383 46.7496C18.8673 46.0115 18.4628 45.3432 17.8994 44.8703L17.711 45.121C18.2215 45.5506 18.5878 46.1556 18.744 46.8258L19.0383 46.7496ZM26.731 33.9885C26.7458 33.9949 26.7675 33.9986 26.7935 33.9921C26.8517 33.9802 26.8933 33.9269 26.8942 33.8654L26.7579 33.8645L26.731 33.9885ZM26.7197 34.0389L26.5904 33.8636C26.5921 33.7736 26.6503 33.6974 26.731 33.6791C26.7753 33.6699 26.8447 33.6726 26.9185 33.7424C27.1294 33.9471 27.2501 34.2501 27.2397 34.554L26.9359 34.542C26.9428 34.3392 26.8656 34.1372 26.7293 33.9949L26.7197 34.0389ZM15.1946 39.3996L14.8977 39.4657C14.9463 39.7053 15.0982 39.9128 15.3065 40.0211L15.4402 39.7337C15.3178 39.6695 15.2232 39.5409 15.1946 39.3996ZM16.4081 39.4207L16.1182 39.3243C15.9932 39.7383 16.0852 40.2203 16.3499 40.5527L16.5808 40.3461C16.3821 40.0964 16.3143 39.7337 16.4081 39.4207ZM54.9819 8.29533C55.5496 4.69466 55.3031 1.11327 55.3005 1.07654L55.2944 0.991163L55.3595 0.938833C55.3612 0.936996 55.5279 0.795614 55.5392 0.611081C55.5435 0.523865 55.5131 0.437566 55.4463 0.349431L34.6286 2.31594C34.6381 2.34164 34.6459 2.36827 34.6511 2.39122C34.665 2.45365 34.665 2.51424 34.659 2.57208L36.8196 2.58402C37.8899 2.59136 38.994 2.59779 40.0756 2.49772C40.4307 2.46467 40.7848 2.4206 41.139 2.37561C41.83 2.28931 42.5444 2.19843 43.2562 2.19843C43.2709 2.19843 43.284 2.19843 43.297 2.19843L43.2952 2.51975C42.5904 2.51791 41.869 2.60697 41.1746 2.6951C40.8169 2.73825 40.4602 2.78415 40.1025 2.81812C39.2788 2.8934 38.4472 2.90809 37.6277 2.90809C37.356 2.90809 37.0852 2.90718 36.8169 2.90534L34.5505 2.89157C34.5418 2.90718 34.5348 2.91819 34.5314 2.92186L34.4906 2.98246L34.4211 2.98888C34.3083 2.99806 34.1902 3.01 34.0722 3.0201C34.1442 4.53124 34.7327 16.8554 35.1511 26.0123C35.5531 34.8211 34.8577 38.5944 34.6911 39.3482C35.3109 39.5942 38.3187 40.6426 42.5513 39.6961C44.7683 39.1994 46.7553 38.6275 48.3534 38.1675C50.218 37.6323 51.5886 37.2366 52.3951 37.2173C52.6972 36.2772 54.8621 29.4569 54.9801 26.2849C55.0261 25.0244 54.9636 22.8073 54.8899 20.2394C54.7605 15.7354 54.613 10.6309 54.9819 8.29533ZM25.54 3.80229C24.0591 3.93909 22.9558 4.04191 22.6807 4.06945C22.4176 4.52757 22.1242 4.95264 21.9463 5.02884C21.8977 5.04995 21.8447 5.05822 21.7926 5.05822C21.6364 5.05822 21.4732 4.98293 21.3777 4.92969C21.2788 4.87368 21.1685 4.79473 21.0808 4.70476C20.9263 4.90949 20.7553 5.03985 20.5244 5.03985C20.2562 5.03985 20.0886 4.87552 19.988 4.70935C19.738 5.18124 19.4663 5.28406 19.284 5.28406C19.2006 5.28406 19.1364 5.26478 19.0999 5.25101C18.83 5.14176 18.6616 4.81401 18.731 4.53491C18.744 4.48075 18.751 4.41557 18.7571 4.34671L16.7571 4.5239C16.3369 5.09035 16.1494 5.39974 16.119 5.49154C16.0774 5.61548 16.0409 5.79634 16.0018 5.9873C15.9341 6.31138 15.8656 6.64189 15.751 6.87416C16.9428 7.51773 18.3031 9.04356 18.9576 9.82943C19.2562 9.51545 19.9628 9.08946 20.9515 8.512C21.2397 8.34399 21.5209 8.17966 21.7657 8.03001C22.7215 7.44612 23.1355 6.56752 23.6164 5.5503L23.6624 5.45299C24.0765 4.57531 25.1789 4.07772 25.6442 3.90145C25.6121 3.86472 25.5765 3.83443 25.54 3.80229ZM19.0418 10.4243C18.6121 9.88451 16.3196 7.08256 14.9133 6.90354C14.1347 7.95197 4.73969 20.6241 3.55913 23.3893C2.35167 26.217 4.62597 43.1389 6.50184 47.8605C8.38552 52.6069 8.56434 54.3274 8.65115 55.1546C8.72841 55.9074 9.08171 58.3798 9.58257 61.8482L9.72493 62.8425C9.73622 62.9187 9.7475 62.9921 9.75879 63.0683L9.76921 63.1464L9.78223 63.2336C10.1399 63.6027 10.7293 64.0791 11.4793 64.5988C11.3855 64.339 11.3274 64.0635 11.3196 63.7826L11.6234 63.7734C11.6338 64.1608 11.7432 64.5382 11.9393 64.8659L11.9081 64.887C14.1798 66.3899 17.6242 68.1517 20.6581 68.7769C20.9133 68.8292 21.172 68.8779 21.4324 68.9238C23.0617 62.0015 21.8013 50.8442 20.4984 48.4582C19.2484 46.1694 18.8473 44.7464 19.211 43.8797C19.014 43.7053 18.8196 43.5079 18.6286 43.2858C18.5409 43.3739 18.4159 43.6429 18.3421 43.7999C18.2093 44.0845 18.073 44.3792 17.8881 44.5316C17.5635 44.7997 17.1737 44.7106 16.7944 44.6243C16.6972 44.6013 16.5999 44.5802 16.5018 44.5628C16.231 44.5187 16.08 44.5628 15.935 44.6179C16.6416 45.3716 17.7249 47.003 18.251 48.2874L17.9723 48.4141C17.4133 47.0498 16.2128 45.2862 15.5505 44.6748C15.4532 44.5977 14.1017 43.53 13.3985 42.3512C12.7223 41.2155 11.0218 37.534 11.0218 35.5767C11.0218 33.8884 9.76573 29.354 9.54611 28.5764L9.08344 28.7903C8.93153 28.8592 8.75879 28.94 8.56695 28.9482C8.55653 28.9482 8.54525 28.9501 8.53483 28.9501C8.31 28.9501 8.10775 28.8381 8.01139 28.66L8.27441 28.5002C8.32563 28.5957 8.4541 28.6324 8.55393 28.6278C8.68934 28.6223 8.82823 28.5581 8.96191 28.4956L9.59039 28.2064C10.0565 27.2746 12.9333 21.5192 14.027 19.2002C15.1329 16.8517 18.5444 11.2396 19.0418 10.4243ZM14.1833 42.9149C14.7744 43.6236 15.4749 44.2084 15.6789 44.3746C15.7136 44.3617 15.7475 44.3498 15.7814 44.3351C15.9541 44.2681 16.1702 44.1827 16.5487 44.2461C16.652 44.2644 16.7553 44.2883 16.8586 44.3103C17.1963 44.3874 17.4888 44.4545 17.7024 44.2791C17.8317 44.1726 17.9576 43.899 18.0704 43.6576C18.1867 43.4051 18.2952 43.1783 18.4289 43.048C18.2032 42.7625 17.9801 42.4448 17.7605 42.0886C17.6459 42.1611 17.4958 42.2061 17.33 42.2153C17.0383 42.2281 16.7753 42.1272 16.6121 41.9353C16.3821 41.6626 15.6338 40.8547 14.9576 40.381C14.5131 40.0698 14.2345 39.5914 14.2484 39.1618C14.2571 38.9084 14.3682 38.7055 14.5635 38.588C14.8196 38.4338 15.1581 38.4989 15.4558 38.5568C15.5878 38.5834 15.7866 38.621 15.836 38.5944C15.8248 38.4163 15.6147 37.9306 15.4472 37.5405C15.1789 36.9189 15.0748 36.6518 15.1173 36.492C15.1321 35.7925 15.0131 35.1627 14.8994 34.7284C14.777 35.7273 14.79 36.4994 14.7909 36.5086L14.4871 36.5159C14.4862 36.4627 14.4628 35.1948 14.7449 33.7562C15.0105 32.4066 16.0947 31.4188 18.1529 30.6467C19.8942 29.993 20.8612 27.7795 20.7996 27.4481L21.0965 27.3857C21.1321 27.5767 21.0261 27.9604 20.8065 28.4121C21.211 29.1667 21.9558 29.4431 22.7067 29.6239L22.8256 29.6524C22.9428 29.6799 23.0748 29.713 23.2128 29.7479V29.747C23.2163 29.7479 23.2189 29.7497 23.2223 29.7506C23.8222 29.9076 24.56 30.1546 25.1208 30.677L24.9202 30.9184C24.5513 30.5742 24.086 30.3584 23.6407 30.2078C23.6616 30.2335 23.6781 30.2565 23.7006 30.284C23.948 30.6008 24.2883 31.035 24.7093 31.528C25.2406 32.1486 25.6433 32.8813 25.9376 33.7681C25.9385 33.7727 25.9411 33.7791 25.9428 33.7837C26.0288 33.7011 26.1173 33.5974 26.1442 33.4863C26.1763 33.3614 26.2631 33.2604 26.3673 33.1815C26.3196 32.2147 25.6104 28.6508 23.7779 27.3462C21.8091 25.9452 20.5418 26.2546 20.0018 26.385L19.9602 26.3951L19.9202 26.3813C19.2718 26.1527 16.0539 26.7127 14.5765 29.1521C12.9454 31.8411 13.0643 35.775 13.6598 38.3263C14.277 40.9658 14.2084 42.5715 14.1833 42.9149ZM26.7397 33.3385C26.5669 33.3954 26.455 33.5 26.4385 33.5698C26.3742 33.8214 26.1624 34.0224 26.0348 34.1234C26.1121 34.442 26.1772 34.7908 26.1807 34.811L25.8829 34.8726C25.8821 34.8661 25.7562 34.1858 25.652 33.8746C25.3708 33.0282 24.988 32.3313 24.4845 31.7429C24.0574 31.2462 23.7154 30.8073 23.4663 30.4888C23.3083 30.2868 23.1616 30.0995 23.1112 30.0518C22.9871 30.0206 22.8673 29.9903 22.7588 29.9655L22.639 29.9361C22.1538 29.8195 21.1902 29.5863 20.6355 28.7334C20.1529 29.5799 19.3204 30.5494 18.2544 30.9478C16.3048 31.6804 15.284 32.5939 15.0418 33.8232C15.0288 33.8948 15.0157 33.9664 15.0027 34.038C15.0886 34.2602 15.4524 35.2783 15.4202 36.5269L15.4107 36.5811C15.4194 36.7014 15.5939 37.1071 15.7232 37.4073C15.9671 37.9747 16.1277 38.364 16.1277 38.5963C16.1277 38.7266 16.073 38.8028 16.027 38.8432C15.8864 38.9662 15.6624 38.924 15.4011 38.8726C15.1546 38.8249 14.8734 38.7707 14.7128 38.8671C14.6104 38.9286 14.5565 39.0314 14.5513 39.1737C14.5426 39.4354 14.7171 39.8283 15.1242 40.1138C15.8274 40.6059 16.5991 41.4404 16.8378 41.7204C16.9385 41.8398 17.1173 41.9022 17.3161 41.8949C17.4307 41.8885 17.5209 41.8591 17.5852 41.8223C17.3977 41.569 17.0383 41.1063 17.0348 41.1017L17.2683 40.8969C17.2848 40.9199 17.5982 41.3211 17.7926 41.5827L17.8057 41.5653L17.9237 41.7618C18.751 43.1453 19.6043 43.989 20.5348 44.3415C21.7683 44.8098 23.3751 44.8125 24.3569 44.347C25.3326 43.8853 26.1086 41.6966 26.1937 41.4496L26.2249 41.3615C26.3534 41.0016 26.7397 39.9054 26.7649 39.1397C26.7718 38.902 26.7258 38.5072 26.6277 37.9756C26.3369 37.8903 26.1051 37.6194 26.0643 37.3009L26.3664 37.2577C26.3907 37.4615 26.5513 37.6359 26.7397 37.6745C26.7553 37.6718 27.08 37.6222 27.2935 37.3798C27.3977 37.2623 27.3907 36.7996 27.3847 36.3901C27.3786 35.9908 27.3725 35.5391 27.4402 35.1287C27.5878 34.2336 27.363 33.5643 27.1564 33.3752C27.0722 33.2981 26.9098 33.2843 26.7397 33.3385ZM28.4532 43.7567C27.4914 42.2529 27.2979 38.8625 27.2614 37.8076C27.1425 37.882 27.0235 37.9306 26.935 37.9573C27.0331 38.5008 27.0756 38.8919 27.0687 39.1508C27.0418 39.9678 26.6407 41.1017 26.5097 41.4735L26.4958 41.5111C26.5322 41.6553 26.6407 42.0996 26.7571 42.7799C27.1077 43.0856 27.2683 43.6686 27.4341 44.2901C27.481 44.4627 27.5279 44.6372 27.5791 44.8042C27.7892 45.4891 28.7518 46.3016 29.4402 46.5449C29.4984 46.5651 29.5791 46.5899 29.6755 46.6202C29.5617 46.1318 29.2657 45.0301 28.4532 43.7567ZM30.9576 47.3142C30.5357 47.1977 30.1511 47.0912 29.8499 47.0049C29.8499 47.0049 29.8499 47.0049 29.8491 47.0049C29.6277 46.9406 29.4515 46.8864 29.3456 46.8488C29.2128 46.802 29.0713 46.7359 28.9281 46.6569C29.2753 49.1899 29.0036 51.7476 28.6451 54.1429L28.3447 54.0924C28.7128 51.642 28.9932 49.0219 28.5939 46.4485C28.0123 46.0446 27.4584 45.4478 27.2909 44.9034C27.2388 44.7326 27.1902 44.5536 27.1433 44.3773C27.0609 44.0707 26.9767 43.7595 26.8682 43.5024C27.0583 44.8566 27.2171 46.7909 27.0687 49.0246C26.7866 53.2698 25.2822 63.6632 22.4194 69.078C25.2241 69.4673 28.08 69.4866 29.6494 69.4471L29.961 68.8182L30.2293 68.9669L29.9966 69.4352C30.3413 69.4241 30.5973 69.4095 30.7397 69.3975L31.0036 68.8155C31.0678 68.6676 31.1303 68.5189 31.1937 68.372C31.3742 67.9479 31.5452 67.5476 31.7284 67.1785C33.4176 63.7991 33.6668 61.055 33.6694 61.0275L33.9723 61.0422C33.9723 61.5544 34.5123 62.9517 35.2189 64.7255C35.8768 66.3798 36.3473 69.3039 36.461 70.0567C37.2484 69.9364 38.0496 69.8657 38.8456 69.8566L38.8491 70.1779C38.0444 70.188 37.2336 70.2587 36.4376 70.3844L36.4081 70.4019C35.9506 70.6571 35.3204 71.6752 34.7102 72.6603C34.198 73.4875 33.6694 74.3441 33.1815 74.8591C32.4133 75.6707 30.3378 77.7005 29.2267 78.4708C29.3439 78.513 29.4428 78.5608 29.5097 78.6122C29.7779 78.8233 29.9029 79.3154 30.0149 79.7497C30.0817 80.0067 30.1564 80.2996 30.2319 80.3758C30.3968 80.5429 30.4185 80.8936 30.4489 81.3802C30.4758 81.8025 30.5088 82.3285 30.6546 82.7775C30.7032 82.9317 30.731 83.0804 30.7475 83.2237C38.5895 77.382 42.1251 71.857 42.2475 71.1666C42.2597 71.0969 42.2735 71.0253 42.2892 70.9509C42.4402 70.2091 42.6676 69.089 41.7814 63.6825C40.7779 57.57 37.402 51.2216 36.9576 50.533C36.5669 49.9307 35.9202 49.5589 35.5487 49.3845C35.8074 50.7809 35.1459 54.2337 35.1156 54.3935L34.8187 54.3292C35.0444 53.1642 35.547 49.9693 35.1772 49.1862C35.1659 49.166 34.9011 48.6776 34.3543 48.3664C33.9784 48.1515 32.2319 47.6686 30.9576 47.3142ZM30.3673 82.8821C30.2084 82.3919 30.1737 81.8429 30.1468 81.4004C30.1268 81.0662 30.1017 80.6889 30.0235 80.6081C29.8855 80.4704 29.8135 80.1894 29.7215 79.8323C29.6294 79.4688 29.5131 79.0152 29.3291 78.8711C28.9836 78.6012 27.336 78.4295 26.9411 78.7719C26.7753 78.9161 26.7093 79.1318 26.7683 79.3356C26.8334 79.5651 27.0383 79.7157 27.3291 79.7469C28.1312 79.8323 28.9124 80.5411 28.9446 80.5704L29.1867 80.7917L28.8716 80.8495C28.6546 80.8899 28.2701 81.0129 27.843 81.181C27.4107 81.3508 27.0331 81.5289 26.856 81.6427C26.7119 81.7382 26.6763 81.9558 26.7058 82.1284C26.7319 82.2845 26.8248 82.48 26.9992 82.5167C27.2006 82.559 27.6208 82.3772 27.9923 82.2165C28.3638 82.055 28.7093 81.909 28.9584 81.9117L29.7215 81.9393L29.5296 82.1899C29.5018 82.2257 28.8525 83.0575 27.961 83.1392C27.8143 83.153 27.6815 83.1621 27.5626 83.1704C26.9558 83.2117 26.8326 83.2411 26.7866 83.478C26.7571 83.6203 26.7796 83.7378 26.8508 83.8268C26.961 83.9655 27.1815 84.0306 27.4732 84.0178C28.0774 83.9857 29.323 83.8709 29.3352 83.87L29.9428 83.8131L29.4307 84.1647C29.3968 84.1876 28.5826 84.744 27.9307 84.9395C27.6208 85.0332 26.9064 85.2994 26.9671 85.7502C27.0973 85.9751 28.7189 85.8209 29.2484 85.6547C29.6425 85.5317 30.0895 85.2517 30.1381 84.9294C30.1572 84.8037 30.2024 84.6641 30.2544 84.5034C30.3968 84.0646 30.5739 83.5184 30.3673 82.8821ZM28.1095 84.5356C28.3065 84.452 28.5097 84.3492 28.6902 84.2491C28.5088 84.2638 28.3083 84.2804 28.1147 84.2951C28.113 84.3768 28.1112 84.4576 28.1095 84.5356ZM29.0626 82.2367L28.948 82.2312C28.764 82.2165 28.4324 82.3726 28.1077 82.5131C28.0947 82.5195 28.0817 82.5241 28.0687 82.5296C28.0739 82.6196 28.0791 82.7086 28.0834 82.7949C28.4966 82.7095 28.8473 82.4415 29.0626 82.2367ZM27.672 86.1789C27.6555 86.1798 27.6373 86.1798 27.6199 86.1798C27.2805 86.1798 26.9801 86.1413 26.8204 86.033C26.7093 85.9568 26.6746 85.8613 26.6668 85.7943C26.5999 85.3049 27.0044 84.8982 27.8022 84.6467C27.8057 84.5411 27.8083 84.4309 27.8109 84.318C27.6928 84.3253 27.5817 84.3318 27.4888 84.3373C27.0982 84.3566 26.7926 84.2501 26.6199 84.0352C26.4862 83.8691 26.4411 83.6524 26.4888 83.4119C26.5878 82.9161 26.968 82.8895 27.5426 82.8509C27.6164 82.8454 27.698 82.839 27.7822 82.8326C27.7788 82.7756 27.7762 82.715 27.7727 82.6545C27.4489 82.7867 27.1555 82.8785 26.9385 82.8316C26.6729 82.7756 26.4636 82.5213 26.4081 82.1853C26.3499 81.8438 26.4636 81.5234 26.6972 81.3701C26.8751 81.2535 27.2189 81.0901 27.626 80.9257C27.6112 80.7954 27.5956 80.6622 27.5791 80.5264C27.56 80.5264 27.5409 80.5264 27.5235 80.5264C26.6008 80.5282 25.6407 80.4667 24.6616 80.362C24.8057 80.7192 24.8673 81.1139 24.8265 81.4986L24.5253 81.4646C24.5652 81.0781 24.4923 80.6778 24.3213 80.3345L24.3326 80.3271C23.494 80.2308 22.6425 80.1004 21.7918 79.9471C23.869 82.9638 24.8395 88.9809 25.1685 91.0172L25.2189 91.3266C25.2501 91.5212 25.3083 91.9637 25.3881 92.5751C25.7058 94.9988 26.448 100.675 27.1095 101.928C27.172 102.048 27.2544 102.108 27.3682 102.119C28.0105 102.187 29.2753 100.811 29.7553 100.22C29.7597 99.8894 29.7753 98.2075 29.5748 97.5713C29.5097 97.3601 29.3161 96.9727 29.093 96.5201C28.5409 95.4101 27.7866 93.8916 27.8899 93.014C28.0192 91.9205 27.3291 91.0787 27.3213 91.0695L27.2718 91.0107L27.2857 90.9327C27.3794 90.4397 27.2258 89.6474 27.1286 89.2269C26.9298 89.4234 26.6772 89.5583 26.4055 89.6015L26.3595 89.2848C26.6294 89.2416 26.8873 89.0764 27.0487 88.8413L27.0548 88.8459L27.0643 88.8257C27.0678 88.8202 27.3386 88.1923 27.4723 87.3385C27.488 87.2384 27.5097 87.1236 27.534 86.9933C27.5756 86.7738 27.626 86.5058 27.672 86.1789ZM33.6399 121.227C33.5331 117.008 30.797 103.203 29.8595 100.58C29.4107 101.11 28.2058 102.442 27.4072 102.443C27.3847 102.443 27.3612 102.441 27.3395 102.44C27.126 102.417 26.955 102.294 26.8447 102.085C26.1564 100.779 25.4341 95.2678 25.0878 92.6183C25.0079 92.0114 24.9515 91.5717 24.9202 91.3816L24.8699 91.0704C24.534 88.9891 23.5183 82.7013 21.3491 79.8626C20.5843 79.7185 19.8239 79.5551 19.0722 79.3797C16.9741 88.8074 14.6876 95.1742 13.1077 98.908C13.1911 99.5901 14.7614 112.391 15.9567 119.053C17.1303 125.605 17.8074 143.18 17.8656 144.762C18.3282 144.918 20.3447 145.593 23.4064 146.631C26.5383 147.693 30.6555 146.819 31.3716 146.654C31.4176 146.023 31.6112 144.198 31.8734 141.738C32.5635 135.239 33.7206 124.359 33.6399 121.227ZM29.9281 147.245C29.1321 147.362 28.113 147.468 27.0227 147.468C26.5209 147.468 26.0044 147.444 25.4871 147.389C25.4593 147.479 25.4237 147.588 25.3812 147.716C25.2562 148.086 25.0687 148.646 25.0687 148.9C25.0756 149.179 26.5791 151.9 29.8543 153.462C32.9645 154.943 34.6546 155.037 35.1156 154.882L35.1095 154.76C35.0331 154.499 34.6164 153.978 34.3742 153.819C34.2475 153.734 33.8525 153.263 33.1069 152.367C32.2571 151.347 31.0939 149.952 30.6911 149.657C29.9749 149.133 29.8317 148.077 29.9281 147.245ZM17.3968 140.823C17.1225 134.868 16.5279 123.957 15.659 119.114C14.5765 113.081 13.1876 102.03 12.8699 99.4625C11.8239 101.872 11.1399 103.023 11.1225 103.051L11.0687 103.14L10.9706 103.122C7.24229 102.475 4.50618 101.257 2.75705 100.255C2.88726 101.169 3.12337 102.516 3.3942 104.054C4.03049 107.671 4.90288 112.624 5.05566 115.866C5.12945 117.43 5.11903 119.846 5.10601 122.645C5.0817 128.19 5.05132 135.082 5.71365 138.129C6.22406 138.51 11.0843 141.967 17.3968 140.823ZM13.8152 141.342C12.0643 141.223 10.5088 140.812 9.22754 140.33C9.46191 141.638 9.91677 146.351 9.91677 146.996C9.91677 147.298 9.8508 147.58 9.7883 147.855C9.70063 148.24 9.61816 148.602 9.73101 148.961C9.73969 148.986 9.74664 149.012 9.75358 149.036L9.76486 149.01L9.86382 149.425C9.90462 149.584 9.93761 149.747 9.96105 149.91C9.96105 149.914 9.96278 149.918 9.96278 149.921C9.98014 150.04 9.98969 150.157 9.99316 150.276C9.99316 150.302 9.99316 150.327 9.99316 150.352C9.99316 150.434 9.98882 150.513 9.98014 150.594C9.97667 150.623 9.9758 150.653 9.97059 150.683C9.95671 150.779 9.93761 150.874 9.90809 150.969C9.90549 150.975 9.86643 151.103 9.81087 151.311C9.79177 151.381 9.77181 151.461 9.75011 151.547C9.73969 151.59 9.72841 151.636 9.71712 151.681C9.46278 152.758 9.12945 154.74 9.935 155.385C10.4567 155.801 11.4715 156.037 12.402 155.801C12.5166 155.771 12.6321 155.739 12.744 155.693C13.1529 155.532 13.6485 155.214 13.9636 154.596C13.9732 154.576 13.9801 154.552 13.9914 154.531C14.0817 154.339 14.1581 154.124 14.2084 153.874C14.244 153.691 14.2761 153.502 14.3057 153.308C14.3143 153.259 14.3213 153.207 14.3282 153.157C14.3508 152.997 14.3725 152.834 14.3907 152.667C14.3959 152.63 14.4003 152.592 14.4055 152.555C14.4263 152.348 14.4454 152.14 14.4628 151.925C14.4636 151.896 14.4663 151.868 14.4671 151.838C14.4827 151.624 14.494 151.405 14.5036 151.181C14.5036 151.171 14.5053 151.159 14.5053 151.149L14.5071 151.087C14.5583 149.629 14.4636 148.391 14.4176 147.908C14.3838 147.557 14.2701 147.188 14.1477 146.799C14.0209 146.392 13.8899 145.969 13.8525 145.553C13.7883 144.844 13.8091 141.985 13.8152 141.342ZM0.67285 98.4453C1.07216 98.796 4.47407 101.644 10.9194 102.789C11.4142 101.921 15.3456 94.7253 18.777 79.3081C14.4663 78.2734 10.5357 76.8458 8.65809 76.1196C8.45063 76.4997 8.29177 76.9064 8.19021 77.3315L7.89594 77.2525C8.00098 76.8174 8.15983 76.3987 8.36816 76.0076C8.00445 75.8644 7.7475 75.7598 7.61122 75.7047C5.37077 79.3595 4.09559 83.0832 3.25011 85.5537C2.98361 86.335 2.75358 87.0107 2.54698 87.5221C0.849065 91.7323 0.321287 96.1841 0.67285 98.4453ZM28.4992 80.6136C28.3994 80.5411 28.2735 80.4557 28.1338 80.374C28.0696 80.3951 27.9602 80.4373 27.8786 80.4695C27.8925 80.586 27.9055 80.699 27.9176 80.8119C28.1312 80.7311 28.3291 80.6641 28.4992 80.6136ZM28.8204 78.3579C29.7249 77.8355 31.9897 75.6661 32.9671 74.6333C33.4324 74.1403 33.9532 73.2984 34.4567 72.485C35.0774 71.4815 35.665 70.5313 36.1711 70.1779C36.08 69.5701 35.5982 66.5056 34.9393 64.8494C34.4411 63.5981 34.0539 62.6084 33.8439 61.9107C33.6433 63.0004 33.1494 65.022 31.9966 67.3282C31.8169 67.6881 31.6477 68.0847 31.4697 68.5042C31.4194 68.6217 31.3682 68.7411 31.3169 68.8595C31.4402 69.0285 31.6694 69.4407 31.6668 70.1558C31.6668 70.3229 31.5209 70.6158 31.1607 71.3172C30.5157 72.574 29.4367 74.6792 29.0227 76.8972C28.9263 77.4132 28.8525 77.8741 28.7874 78.2771L28.777 78.3478C28.7909 78.3515 28.8057 78.3551 28.8204 78.3579ZM22.3959 57.1101C22.659 61.0293 22.5522 65.4774 21.7336 68.9734C21.8543 68.9936 21.9758 69.0128 22.0965 69.0303C23.6503 66.1475 24.8161 61.6701 25.6008 57.5269C25.5661 57.5287 25.5314 57.5296 25.4949 57.5296C24.56 57.5296 22.9619 57.2257 22.3959 57.1101ZM20.7605 48.2975C21.4324 49.5268 22.0852 52.8621 22.3725 56.7786C22.8742 56.8815 24.7805 57.2533 25.6624 57.2028C26.2796 53.8739 26.6459 50.7992 26.7666 49.0017C26.9862 45.7003 26.5261 43.0663 26.3031 42.028C25.9888 42.8194 25.323 44.2405 24.481 44.639C23.9567 44.8878 23.2657 45.0136 22.5444 45.0136C21.8274 45.0136 21.08 44.8905 20.4315 44.6445C20.0982 44.5178 19.7735 44.3296 19.4584 44.0854C19.1998 44.8557 19.6164 46.2034 20.7605 48.2975ZM7.60514 75.3576C7.62424 75.3659 7.9541 75.5027 8.52181 75.7249C8.56955 75.7074 8.62337 75.7102 8.66851 75.7414C8.69108 75.7561 8.70844 75.7781 8.72233 75.8029C10.9515 76.6668 16.2024 78.5709 21.5071 79.5679L21.5114 79.5642C21.5131 79.5661 21.514 79.5679 21.5149 79.5707C23.5678 79.9553 25.6277 80.2069 27.5227 80.2069C27.573 80.2069 27.626 80.2069 27.6781 80.2069C27.6928 80.1977 27.711 80.1894 27.731 80.1793C27.5895 80.1243 27.4437 80.082 27.2987 80.0664C26.8864 80.0223 26.58 79.7837 26.4775 79.4284C26.3855 79.1034 26.4906 78.7481 26.7484 78.5241C27.0531 78.2597 27.8152 78.2183 28.4767 78.301L28.4897 78.2229C28.5539 77.8181 28.6286 77.3544 28.7249 76.8348C29.1485 74.569 30.2414 72.4382 30.8933 71.1639C31.1225 70.7195 31.3569 70.2587 31.3647 70.1549C31.3656 69.6867 31.2579 69.3792 31.1659 69.1992L30.9393 69.6996L30.856 69.7097C30.2744 69.7748 25.0782 70.0154 20.5999 69.0918C16.0114 68.1462 10.8829 64.8521 9.53309 63.4245L9.4975 63.3869L9.46018 63.1308L9.45844 63.117C9.42111 62.8572 9.38466 62.601 9.3482 62.3504C9.19108 62.5157 8.98101 62.8664 8.98101 63.5632C8.98101 64.7245 7.25271 74.1908 7.17893 74.5938C7.11382 74.95 7.25792 75.2062 7.60514 75.3576ZM17.5913 3.46904L18.7041 3.38641C18.6833 3.24227 18.6581 3.10915 18.6329 3.00357L18.9281 2.92554C19.0288 3.35336 19.1294 4.18697 19.0235 4.61571C18.9966 4.7222 19.0739 4.89663 19.2076 4.9508C19.3777 5.01874 19.5808 4.85165 19.751 4.50095C20.3048 3.36988 20.4767 2.61339 20.31 2.06347C20.2215 2.04144 20.0574 2.0093 19.8265 1.98819C19.5409 1.96248 18.6928 2.52985 18.3291 2.77222C18.2544 2.8218 18.1902 2.86403 18.1381 2.898C18.0661 2.94482 17.8864 3.12109 17.5913 3.46904ZM20.593 1.93494C20.8256 2.66481 20.5183 3.57461 20.1607 4.35314C20.1937 4.46331 20.2952 4.71945 20.5244 4.71945C20.7579 4.71945 20.9202 4.4275 21.1885 3.90879C21.2319 3.82616 21.2779 3.73803 21.3256 3.64898C21.6824 2.97879 21.8751 2.0956 21.8543 1.88904C21.7892 1.80549 21.5626 1.56496 21.1529 1.56496C20.7796 1.56496 20.6347 1.83212 20.593 1.93494ZM22.1581 1.95055C22.1416 2.36092 21.9055 3.21198 21.5886 3.80597C21.5426 3.89502 21.4975 3.98132 21.455 4.06303C21.3855 4.19615 21.3213 4.32009 21.2562 4.43485C21.3039 4.49636 21.4168 4.59826 21.5696 4.67171C21.6989 4.73505 21.7952 4.74699 21.8334 4.73046C21.9333 4.68089 22.205 4.28428 22.461 3.83443C22.4628 3.83075 22.4645 3.82708 22.4671 3.82433C22.6355 3.53055 22.7961 3.21565 22.8994 2.95951C22.8551 2.89432 22.8265 2.84199 22.8169 2.82363L22.7744 2.74651L22.8152 2.66848C22.8222 2.65195 22.9784 2.34715 23.1355 2.12223C22.7388 1.87251 22.3413 1.90923 22.1581 1.95055ZM23.468 2.19659C23.3612 2.31318 23.2076 2.58034 23.1234 2.74009C23.2614 2.96226 23.4923 3.2285 23.6425 3.19545C23.9697 3.13302 24.448 2.89065 24.4532 2.8879L24.5062 2.87321L24.7735 2.84934C24.8031 2.58402 24.6867 2.32971 24.5565 2.16721C24.4194 2.00012 24.2501 1.90005 24.1216 1.92025C23.698 1.97809 23.4793 2.18465 23.468 2.19659ZM34.2744 2.34807L24.5583 3.18902C24.4489 3.24411 24.0218 3.44884 23.6954 3.51035C23.4758 3.5535 23.2709 3.40661 23.1112 3.23676C23.0452 3.38549 22.9576 3.56176 22.8586 3.74629C23.6746 3.64898 26.2189 3.41487 34.3178 2.67582C34.3447 2.61798 34.3708 2.5326 34.3551 2.46099C34.3517 2.44447 34.3413 2.39673 34.2744 2.34807ZM55.2814 8.34766C54.9168 10.6529 55.0704 15.9631 55.1919 20.2312C55.2657 22.8036 55.33 25.0253 55.2822 26.2969C55.1555 29.7396 52.7484 37.1182 52.6459 37.4312L52.6095 37.5414L52.4992 37.5386C51.7432 37.523 50.2892 37.9435 48.4324 38.4778C46.8317 38.9387 44.8395 39.5125 42.6147 40.0092C41.3213 40.2984 40.1399 40.4039 39.1008 40.4039C36.2466 40.4039 34.4758 39.6043 34.4506 39.5924L34.3317 39.5364L34.3664 39.4032C34.3742 39.3665 35.29 35.7071 34.8482 26.0269C34.4315 16.894 33.8447 4.6102 33.7701 3.04764C31.4602 3.25972 28.2996 3.54799 25.9298 3.76649C25.961 3.8078 25.9949 3.8482 26.0244 3.89318L26.1373 4.07588L25.9385 4.13555C25.9237 4.13923 24.3951 4.6203 23.9333 5.5962L23.8864 5.69352C23.4064 6.7135 22.9515 7.67563 21.9176 8.30727C21.672 8.45783 21.3881 8.624 21.0973 8.79293C20.3777 9.2134 19.4194 9.77343 19.1546 10.0672C19.2623 10.2022 19.3308 10.2894 19.3465 10.3114L19.4168 10.4014L19.3569 10.4996C19.3178 10.562 15.4793 16.8352 14.297 19.3434C13.1711 21.734 10.1511 27.7713 9.82129 28.4295C10.001 29.063 11.3256 33.7791 11.3256 35.5767C11.3256 37.4422 13.0131 41.1026 13.6555 42.1804C13.7275 42.3007 13.8074 42.4209 13.8925 42.5394C13.9011 41.8811 13.8447 40.4517 13.3656 38.4025C12.7258 35.6649 12.6407 31.7502 14.3213 28.9785C15.8491 26.4566 19.1164 25.8241 19.9723 26.0637C20.573 25.9177 21.915 25.634 23.9472 27.0818C25.8187 28.4139 26.56 31.831 26.6616 33.03C26.9324 32.9455 27.1911 32.9823 27.3551 33.1328C27.6659 33.4174 27.8985 34.2134 27.738 35.1838C27.6763 35.5639 27.6824 36.0009 27.6876 36.3855C27.6954 36.8978 27.6989 37.3082 27.5565 37.5377C27.5687 38.0252 27.6928 41.9977 28.7041 43.5777C29.6312 45.0273 29.909 46.2686 30.001 46.6771C30.0044 46.6927 30.0062 46.7047 30.0105 46.7184C30.2961 46.8001 30.6503 46.8974 31.0348 47.0049C32.3959 47.3822 34.0913 47.8522 34.4984 48.0845C35.027 48.3856 35.3213 48.8245 35.4133 48.9796C35.6598 49.0733 36.6503 49.4892 37.2076 50.3521C37.9723 51.5337 41.1321 57.8555 42.08 63.6265C42.9775 69.0955 42.7414 70.2532 42.586 71.017C42.5713 71.0886 42.5574 71.1584 42.5452 71.2254C42.4124 71.9727 38.9202 77.5702 30.7588 83.6074C30.7388 83.993 30.6312 84.3318 30.5418 84.6081C30.494 84.755 30.4532 84.8817 30.4385 84.9799C30.363 85.4729 29.7961 85.8181 29.3334 85.9623C29.1659 86.0155 28.5669 86.1284 27.9801 86.1661C27.9307 86.5287 27.876 86.8216 27.8317 87.0557C27.8083 87.1824 27.7866 87.2935 27.7718 87.3908C27.652 88.1509 27.4341 88.7284 27.363 88.9056C27.4324 89.1654 27.6946 90.2249 27.5973 90.9189C27.7666 91.1457 28.3187 91.9784 28.1919 93.0544C28.0991 93.831 28.8586 95.3605 29.3612 96.3723C29.5991 96.8543 29.7892 97.2343 29.863 97.4694C30.0869 98.1799 30.0626 99.9647 30.0574 100.248C30.9194 102.284 33.8317 116.856 33.9437 121.219C34.0244 124.372 32.8656 135.265 32.1737 141.775C31.8925 144.414 31.6911 146.321 31.6668 146.792L31.6616 146.911L31.5505 146.94C31.5357 146.944 31.0305 147.069 30.2406 147.198C30.1338 147.949 30.2336 148.933 30.8638 149.395C31.2978 149.71 32.4263 151.066 33.3334 152.155C33.8751 152.804 34.4341 153.475 34.5357 153.546C34.7197 153.669 35.3135 154.271 35.4246 154.718C35.8994 154.921 37.6121 155.787 38.1017 156.378C38.6251 157.011 38.731 158.17 38.3256 158.815C38.0053 159.322 37.0878 159.735 35.6789 159.735C35.1173 159.735 34.4775 159.67 33.7657 159.518C31.7761 159.095 30.5696 157.877 29.7718 157.07C29.5001 156.797 29.2848 156.58 29.1138 156.472C28.5548 156.118 25.4958 154.851 24.5713 154.471C24.1494 154.297 23.8447 153.895 23.7796 153.423C23.7145 152.955 23.6624 152.207 23.7788 151.308C23.9697 149.828 24.5999 149.024 24.7709 148.831C24.7935 148.513 24.9584 148.017 25.0947 147.609C25.126 147.516 25.1555 147.43 25.1789 147.355C24.5418 147.273 23.9107 147.139 23.3135 146.936C19.8083 145.747 17.6729 145.035 17.6729 145.035L17.5713 145.001L17.5661 144.888C17.5652 144.834 17.5114 143.375 17.4107 141.146C16.5183 141.304 15.6538 141.376 14.8265 141.376C14.5869 141.376 14.3517 141.369 14.1182 141.358C14.1121 142.011 14.0921 144.843 14.1538 145.523C14.1885 145.903 14.3143 146.307 14.4359 146.699C14.5574 147.088 14.6833 147.491 14.7189 147.875C14.7649 148.361 14.8604 149.596 14.8117 151.056L14.8248 151.06L14.8256 151.178C14.8265 151.446 14.8326 151.828 14.8378 152.283C14.8803 155.611 14.9011 158.901 14.6685 159.396C14.4541 159.85 13.83 160.705 12.1755 160.705C11.6555 160.705 11.0331 160.622 10.29 160.413C7.21712 159.55 7.49229 157.668 7.81348 155.488C8.11209 153.447 9.40028 149.976 9.57216 149.515C9.53309 149.358 9.48882 149.204 9.44368 149.063C9.30306 148.616 9.40028 148.19 9.49403 147.78C9.55219 147.523 9.61209 147.259 9.61209 146.996C9.61209 146.232 9.06782 140.89 8.89334 140.201C6.78917 139.36 5.51313 138.373 5.48795 138.352L5.44368 138.318L5.43066 138.26C4.7475 135.208 4.77788 128.241 4.80306 122.644C4.81608 119.85 4.8265 117.437 4.75358 115.882C4.59993 112.662 3.73101 107.721 3.09646 104.112C2.79959 102.431 2.54438 100.975 2.42459 100.06C1.11035 99.2734 0.447155 98.6628 0.43153 98.6482L0.392468 98.6114L0.382919 98.5564C0.00618294 96.2676 0.533961 91.6993 2.26747 87.3963C2.47059 86.8932 2.69976 86.2212 2.96538 85.4445C3.81174 82.9684 5.08778 79.2438 7.33257 75.5715C6.96191 75.3475 6.80045 74.9766 6.88118 74.5323C6.95497 74.1311 8.67806 64.6924 8.67806 63.5632C8.67806 62.5423 9.09125 62.1282 9.29525 61.9859C8.78743 58.4661 8.42893 55.9551 8.34993 55.1895C8.26573 54.377 8.08865 52.6886 6.22146 47.9854C4.27875 43.0902 2.0192 26.2152 3.28222 23.258C4.52268 20.3514 14.31 7.1964 14.7258 6.63638L14.7744 6.5712L14.8543 6.5767C15.0487 6.58772 15.2588 6.64648 15.4758 6.74104C15.5748 6.54824 15.6459 6.20489 15.705 5.91845C15.7466 5.71739 15.7857 5.52919 15.8317 5.3878C15.8864 5.22071 16.1286 4.86267 16.3473 4.56062L13.7605 4.79014L13.7136 4.74699C13.5452 4.59918 13.4524 4.43117 13.4419 4.24848C13.4263 4.0006 13.5678 3.828 13.5843 3.80964L13.626 3.76282L17.1607 3.50025C17.4463 3.15046 17.8022 2.73825 17.9801 2.62441C18.0314 2.59136 18.0947 2.54913 18.1676 2.50047C18.8265 2.06347 19.5001 1.63473 19.8508 1.6687C20.0722 1.68798 20.2371 1.71919 20.3421 1.74214C20.455 1.51997 20.7102 1.24455 21.1529 1.24455C21.6329 1.24455 21.9281 1.50161 22.0557 1.64483C22.2796 1.58883 22.8248 1.50987 23.356 1.88261C23.4819 1.7908 23.7241 1.65126 24.0826 1.60168C24.3178 1.5723 24.5791 1.70267 24.7866 1.95881C24.9897 2.21036 25.093 2.52526 25.0774 2.82271L34.2987 2.02399L55.5661 0.0170898L55.6164 0.071256C55.7788 0.24569 55.8543 0.434812 55.8413 0.634951C55.8265 0.865387 55.6911 1.04349 55.6077 1.13163C55.6407 1.6788 55.8074 5.00497 55.2814 8.34766ZM20.6772 5.41626L20.7605 5.72473C20.0348 5.94323 19.4194 6.54274 19.1511 7.28821L18.8673 7.17345C19.1685 6.33617 19.8621 5.66231 20.6772 5.41626Z" fill="#5F583F"/>
</g>
</svg>
