<svg width="1440" height="761" viewBox="0 0 1440 761" fill="none" xmlns="http://www.w3.org/2000/svg">
<mask id="mask0_199_137" style="mask-type:luminance" maskUnits="userSpaceOnUse" x="-144" y="0" width="1728" height="761">
<path d="M1584 0.0380859H-144V761H1584V0.0380859Z" fill="black" fill-opacity="0.45"/>
</mask>
<g mask="url(#mask0_199_137)">
<mask id="mask1_199_137" style="mask-type:luminance" maskUnits="userSpaceOnUse" x="0" y="99" width="1440" height="535">
<path d="M1440 99.0566H0V633.036H1440V99.0566Z" fill="white"/>
</mask>
<g mask="url(#mask1_199_137)">
<path d="M11.2429 135.588L33.6457 153.333L43.0485 165.268L50.9166 166.531L64.6041 184.254L70.5763 187.522L71.611 194.565L81.3402 201.697L83.7221 217.275L92.3679 216.907L99.3749 222.871C99.3749 222.871 105.708 225.574 106.229 225.941C106.743 226.301 111.354 230.098 111.354 230.098L125.625 274.878C125.625 274.878 126.312 284.455 127.326 284.639L140.305 287.18L144.625 291.337L147.458 303.28L167.632 326.415L172.5 340.135L182.507 355.778L180.111 364.1L192.083 380.383L203.09 393.787L224.993 410.069L224.305 424.538L264.673 457.471L274.917 460.718L296.819 485.667L300.236 474.827L318.701 481.686L320.062 476.266L334.792 485.138L340.257 442.084L335.111 431.765L341.104 419.125L335.979 410.253L346.423 394.697L334.618 383.13L328.132 374.257L304.868 369.204L304.194 356.902L295.548 351.482L288.542 327.583L272.972 328.317L262.16 318.365L268.542 305.263L265.125 293.834L272.305 287.334L257.75 269.047L226.465 258.544L210.722 238.655L200.132 237.553L194.833 222.739L181.146 214.594L180.111 221.3L172.326 218.435L153.167 197.283L130.25 176.703L101.687 155.668L103.048 143.205L93.4027 138.497L73.8193 119.673L63.7221 121.502L54.1388 116.059L43.3263 120.951L33.0624 116.382L22.1596 105.659C22.1596 105.659 -0.062608 103.052 0.430448 103.368C0.930448 103.691 11.2429 135.588 11.8888 135.956" fill="#FCD295"/>
<path d="M315.632 508.736L326.576 511.028L336.5 502.523L344.194 486.24L365.819 490.037L375.049 496.735L376.93 488.59L387.201 489.853L395.59 497.286L401.062 496.184L410.292 500.76L412.694 497.514C412.694 497.514 417.125 503.823 418.486 504.006C419.847 504.19 425.861 516.676 426.354 516.676C426.854 516.676 443.805 519.738 443.805 519.738L471.917 518.115L479.611 518.482C479.611 518.482 493.646 502.471 496.542 504.006C499.437 505.541 511.417 514.134 511.417 514.134C511.417 514.134 536.91 518.115 536.736 519.393C536.562 520.678 544.604 521.685 544.604 521.685L552.305 537.96L566.486 547.912L589.229 545.628L605.986 547.611L607.028 554.317L605.646 572.95L609.403 578.737H604.972L594.701 577.114C594.701 577.114 571.958 567.162 570.424 566.619C568.889 566.068 550.25 571.327 550.25 571.327L526.139 563.372L518.771 566.619L481.84 558.106L464.736 549.601L451.049 547.317L434.292 544.232L423.028 546.994L417.208 551.158L405.576 548.874C405.576 548.874 387.632 539.723 387.111 540.002C386.597 540.274 361.167 538.922 361.167 538.922L352.778 533.142L355.521 525.731L349.493 521.839L338.035 517.153L331.549 520.399L318.271 516.698L315.632 508.736Z" fill="#FCD295"/>
<path d="M551.59 524.887C552.625 524.057 564.153 517.432 566.076 517.564C568 517.704 577.493 518.776 577.882 518.776H596.347L587.243 526.782L572.5 531.93L557.493 531.402L551.59 524.887Z" fill="#FCD295"/>
<path d="M610.854 559.737L620.083 562.594L630.333 557.695L642.528 563.806L647.264 568.374C647.264 568.374 634.965 573.545 633.819 576.248C632.972 579.303 632.542 582.432 632.521 585.619H625.472L628.542 581.271L626.618 576.108C624.25 573.523 621.521 571.488 618.424 570.005C615.771 569.065 613.076 568.308 610.333 567.713L608.41 559.326L610.854 559.737Z" fill="#FCD295"/>
<path d="M658.181 579.677L656.646 569.659L668.82 561.514L680.236 566.251L670.701 585.391L652.993 584.429C654.611 582.711 656.34 581.124 658.181 579.677Z" fill="#FCD295"/>
<path d="M452.111 225.325L443.889 231.105L432.604 259.323L440.472 286.079L447.653 295.847L441.84 306.342L449.361 327.678L464.5 338.901L481.597 393.537L525.729 390.629L532.562 402.564L553.771 404.738L570.18 397.878L606.097 405.839C606.097 405.839 612.257 420.308 611.917 421.843C611.569 423.378 658.771 410.275 658.771 410.275L671.743 363.968L674.118 350.953L706.965 315.141L706.618 271.375L724.062 260.512L750.014 263.421L732.91 246.036L722.986 221.094L698.035 199.024L697.687 181.118L694.097 170.806L712.562 170.255L708.451 155.625L692.042 147.479L652.021 148.008L642.792 162.117L643.805 187.632L632.521 192.509L627.458 201.697L631.569 208.219L619.764 216.908L620.798 228.343L609.423 245.148L592.5 239.705L582.771 250.017L559.16 245.148V236.892L547.354 237.965L535.048 247.116L530.423 256.877L502.722 257.428L485.792 263.92L471.937 252.007L456.646 241.762L452.111 225.325Z" fill="#FCD295"/>
<path d="M771.917 475.465L766.424 460.262L767.458 436.201L764.042 417.752L765.229 407.462L762.66 405.472L747.785 410.892L745.625 395.681L752.625 379.678L755.354 359.436L759.458 358.892L758.792 330.307L769.597 310.595L773.361 289.442L788.063 262.003L796.451 265.455L806.528 245.536L824.84 249.356L834.424 255.319L861.771 259.484L870.16 263.097L875.111 259.645L905.035 261.474L915.847 250.979L925.083 250.061L934.139 235.063L939.958 233.256L946.118 243.017L928 266.366L918.597 278.851L885.299 282.649L875.375 276.861L836.215 277.941L830.701 274.878L820.278 278.124L808.819 277.941C807.708 276.817 806.444 275.95 805.028 275.326C803.611 274.702 802.139 274.371 800.604 274.327C795.132 273.96 788.132 281.025 788.132 281.025L782.139 308.692L789.146 319.717L804.042 335.728L812.236 339.518L825.75 319.988L850.208 321.09L872.451 316.037L883.264 308.993C883.264 308.993 892.674 314.23 891.132 315.853C889.597 317.476 887.375 326.532 887.375 326.532L879.674 321.296L863.132 327.333L842.965 347.912C842.965 347.912 836.625 349.903 832.021 350.813C829.25 351.306 826.965 352.694 825.167 354.978L843.979 373.273L851.354 391.884L853.063 395.865L850.486 411.435L864 422.092L872.042 435.313C867.653 436.995 863.146 438.199 858.528 438.926C854.208 439.11 844.674 443.796 844.674 443.796L845.014 454.107C841.556 453.366 838.25 452.161 835.09 450.494C832.035 448.342 829.354 445.749 827.049 442.723L831.5 427.351L814.056 414.138L808.757 405.81L815.59 393.17L813.708 379.949L801.75 375.374L784.451 391.385L795.917 401.858L794.375 420.153L787.889 432.088L792.694 451.456L786.701 460.49L795.243 478.579L781.403 478.947L771.917 475.465Z" fill="#FCD295"/>
<path d="M864.694 445.353L855.521 449.921L854.333 462.407L853.319 470.919C853.319 470.919 861.167 476.339 861.34 476.06C861.514 475.788 876.472 467.122 876.153 467.122C874.896 465.638 873.75 464.066 872.715 462.407L878.528 448.687L869.208 448.966C869.208 448.966 862.722 464.147 863.396 463.964C864.062 463.78 864.694 445.353 864.694 445.353Z" fill="#FCD295"/>
<path d="M1438.27 590.672V523.741L1435.2 507.113L1439.98 499.864V376.152L1402.35 369.292L1366.12 349.396L1338.01 341.075L1319.55 347.589L1318.85 358.797L1296.97 363.145L1290.49 380.133L1273.38 393.537L1262.77 403.643L1252.17 400.397L1237.03 377.254L1229.84 379.766L1223.01 349.396L1225.06 334.927L1216.52 316.838L1198.37 317.205L1179.22 301.994L1163.16 303.801L1149.12 314.664L1140.24 316.103L1132.37 327.333L1126.55 331.909L1123.18 322.897L1111.89 323.264L1122.83 342.059L1145.75 339.775L1153.28 346.634L1170.37 368.631C1170.37 368.631 1180.31 368.264 1181.32 368.264C1182.33 368.264 1214.83 359.598 1214.83 359.598L1217.92 371.173L1210.4 379.839L1195.26 371.532L1179.52 386.354L1162.42 380.566L1154.55 385.987L1180.22 402.269L1185.34 413.837L1178.85 421.799L1204.17 421.453L1206.57 401.902L1214.76 393.603L1212.39 408.784L1216.5 415.306L1248.93 434.468C1248.93 434.468 1269.47 439.888 1271.18 440.248C1272.89 440.615 1296.82 441.717 1296.82 441.717L1343.33 464.86L1353.01 489.831L1369.45 518.049L1378.1 524.909L1369.21 526.349L1373.99 540.457L1361.34 535.037L1345.28 548.052C1345.28 548.052 1332.95 569.042 1334.31 568.631C1335.67 568.22 1377.08 570.438 1377.08 570.438L1389.03 562.476L1407.85 559.23L1438.27 590.672Z" fill="#FCD295"/>
<path d="M1028.78 216.269L1017.84 237.964L1014.25 262.936L1017.06 280.019L1022.18 286.306C1022.18 286.306 1020.39 297.742 1021.17 298.249C1021.94 298.748 1027.83 306.115 1027.83 306.115L1035.52 319.144L1036.56 316.147L1028.6 294.172L1031.42 273.593C1031.42 273.593 1056.31 285.528 1056.31 284.705C1056.31 283.883 1052.45 274.665 1052.45 274.665L1040.43 267.556L1048.63 260.218L1055.31 255.07L1051.46 238.515L1044.97 240.961L1034.99 247.821L1037.28 252.169L1032.95 253.263L1027.81 264.699L1022.97 261.151L1021.92 257.361L1031.94 243.524V236.664L1026.81 230.422L1031.94 219.831L1028.78 216.269Z" fill="#FCD295"/>
<path d="M681.104 574.573L692.889 568.969L709.319 577.114L715.132 580.912L728.305 577.298L720.257 571.511L713.423 569.52C710.903 567.111 708.5 564.577 706.229 561.904C706.743 561.904 720.951 560.648 720.951 560.648C723.028 562.822 725.243 564.805 727.611 566.619C728.305 566.619 736.153 563.006 736.153 563.006L752.583 567.346L756.173 577.114L746.423 583.974L741.819 578.187L735.569 582.902L731.979 578.326L722.312 585.869L707.18 586.971L700.5 591.539L695.722 588.822L691.09 592.068L680.236 588.161L681.104 574.573Z" fill="#FCD295"/>
<path d="M771.569 575.829L802.014 563.556L828.347 573.317L836.889 569.682L844.757 572.149L856.736 572.884L874.18 564.922C874.18 564.922 869.729 576.497 868.694 575.763C867.653 575.036 846.812 583.012 846.812 583.012L836.542 588.16L828.347 583.812L816.715 589.255L796.868 584.547L784.91 584.914L771.569 575.829Z" fill="#FCD295"/>
<path d="M748.306 602.247C749.667 601.88 776.41 598.634 777.382 598.634C778.354 598.634 785.299 606.221 785.299 606.221L788.715 605.861L791.438 611.663L797.597 610.936L807.868 622.871L804.111 628.291L785.965 628.658L775.375 619.257L762.403 615.644L761.361 612.375L754.875 613.103L748.306 602.247Z" fill="#FCD295"/>
<path d="M881.361 628.291L891.611 620.33L896.063 603.342L937.452 583.445L939.5 586.692H946.681L943.611 594.286L945.667 600.801L926.16 620.697L911.806 630.098H894.014L881.361 628.291Z" fill="#FCD295"/>
<path d="M1032.19 388.095L1056.13 383.034L1062.99 387.727L1072.89 383.401L1096.84 392.068L1106.77 390.261L1122.14 415.945V421.02L1094.79 409.79L1091.03 400.397L1079.74 406.177L1060.24 403.643L1057.84 397.51L1046.55 407.646L1038.35 399.662L1027.07 404.737L1030.83 395.682L1035.96 393.537L1032.19 388.095Z" fill="#FCD295"/>
<path d="M967.028 395.344L997.556 392.347L1011.67 406.728L995.764 415.666L979.611 414.594L967.028 395.344Z" fill="#FCD295"/>
<path d="M902.896 570.049L906.507 565.179L917.277 559.575L927.694 560.464H940.368L941.382 564.995L925.146 569.336L917.944 572.95L908.715 574.756L907.521 571.51L902.896 570.049Z" fill="#FCD295"/>
<path d="M881.188 572.766C882.035 571.856 888.715 565.701 888.715 565.701L891.611 567.346L900.257 563.894L891.243 576.196L881.188 572.766Z" fill="#FCD295"/>
<path d="M1234.85 469.406L1222.79 491.91L1223.05 520.128L1225.88 525.019L1239.22 503.044L1244.6 487.041L1239.98 473.754L1234.85 469.406Z" fill="#FCD295"/>
<path d="M1144.56 526.371L1130.7 538.856L1122.23 556.212L1133.77 553.237L1144.8 540.48L1147.63 532.342L1144.56 526.371Z" fill="#FCD295"/>
<path d="M323.673 344.872L329.555 364.673L337.514 366.964C337.514 366.964 342.403 381.345 343.159 381.617C343.916 381.896 352.132 386.765 352.132 386.765L364.194 376.454L356.5 370.916L340.604 342.977L333.403 349.492L323.673 344.872Z" fill="#FCD295"/>
</g>
</g>
</svg>
