<svg xmlns="http://www.w3.org/2000/svg" xmlns:xlink="http://www.w3.org/1999/xlink" width="1080" zoomAndPan="magnify" viewBox="0 0 810 809.999993" height="1080" preserveAspectRatio="xMidYMid meet" version="1.0"><defs><filter x="0%" y="0%" width="100%" height="100%" id="32523c47af"><feColorMatrix values="0 0 0 0 1 0 0 0 0 1 0 0 0 0 1 0 0 0 1 0" color-interpolation-filters="sRGB"/></filter><mask id="726f5da85a"><g filter="url(#32523c47af)"><rect x="-81" width="972" fill="#000000" y="-80.999999" height="971.999992" fill-opacity="0.45"/></g></mask><clipPath id="c4de969df9"><rect x="0" width="810" y="0" height="284"/></clipPath></defs><g mask="url(#726f5da85a)"><g transform="matrix(1, 0, 0, 1, 0, 294)"><g clip-path="url(#c4de969df9)"><path fill="#fcd295" d="M 6.324219 19.429688 L 18.925781 28.867188 L 24.214844 35.214844 L 28.640625 35.886719 L 36.339844 45.3125 L 39.699219 47.050781 L 40.28125 50.796875 L 45.753906 54.589844 L 47.09375 62.875 L 51.957031 62.679688 L 55.898438 65.851562 C 55.898438 65.851562 59.460938 67.289062 59.753906 67.484375 C 60.042969 67.675781 62.636719 69.695312 62.636719 69.695312 L 70.664062 93.511719 C 70.664062 93.511719 71.050781 98.605469 71.621094 98.703125 L 78.921875 100.054688 L 81.351562 102.265625 L 82.945312 108.617188 L 94.292969 120.921875 L 97.03125 128.21875 L 102.660156 136.539062 L 101.3125 140.964844 L 108.046875 149.625 L 114.238281 156.753906 L 126.558594 165.414062 L 126.171875 173.109375 L 148.878906 190.625 L 154.640625 192.351562 L 166.960938 205.621094 L 168.882812 199.855469 L 179.269531 203.503906 L 180.035156 200.621094 L 188.320312 205.339844 L 191.394531 182.441406 L 188.5 176.953125 L 191.871094 170.230469 L 188.988281 165.511719 L 194.863281 157.238281 L 188.222656 151.085938 L 184.574219 146.367188 L 171.488281 143.679688 L 171.109375 137.136719 L 166.246094 134.253906 L 162.304688 121.542969 L 153.546875 121.933594 L 147.464844 116.640625 L 151.054688 109.671875 L 149.132812 103.59375 L 153.171875 100.136719 L 144.984375 90.410156 L 127.386719 84.824219 L 118.53125 74.246094 L 112.574219 73.660156 L 109.59375 65.78125 L 101.894531 61.449219 L 101.3125 65.015625 L 96.933594 63.492188 L 86.15625 52.242188 L 73.265625 41.296875 L 57.199219 30.109375 L 57.964844 23.480469 L 52.539062 20.976562 L 41.523438 10.964844 L 35.84375 11.9375 L 30.453125 9.042969 L 24.371094 11.644531 L 18.597656 9.214844 L 12.464844 3.511719 C 12.464844 3.511719 -0.0351562 2.125 0.242188 2.292969 C 0.523438 2.464844 6.324219 19.429688 6.6875 19.625 " fill-opacity="1" fill-rule="nonzero"/><path fill="#fcd295" d="M 177.542969 217.890625 L 183.699219 219.109375 L 189.28125 214.585938 L 193.609375 205.925781 L 205.773438 207.945312 L 210.964844 211.507812 L 212.023438 207.175781 L 217.800781 207.847656 L 222.519531 211.800781 L 225.597656 211.214844 L 230.789062 213.648438 L 232.140625 211.921875 C 232.140625 211.921875 234.632812 215.277344 235.398438 215.375 C 236.164062 215.472656 239.546875 222.113281 239.824219 222.113281 C 240.105469 222.113281 249.640625 223.742188 249.640625 223.742188 L 265.453125 222.878906 L 269.78125 223.074219 C 269.78125 223.074219 277.675781 214.558594 279.304688 215.375 C 280.933594 216.191406 287.671875 220.761719 287.671875 220.761719 C 287.671875 220.761719 302.011719 222.878906 301.914062 223.558594 C 301.816406 224.242188 306.339844 224.777344 306.339844 224.777344 L 310.671875 233.433594 L 318.648438 238.726562 L 331.441406 237.511719 L 340.867188 238.566406 L 341.453125 242.132812 L 340.675781 252.042969 L 342.789062 255.121094 L 340.296875 255.121094 L 334.519531 254.257812 C 334.519531 254.257812 321.726562 248.964844 320.863281 248.675781 C 320 248.382812 309.515625 251.179688 309.515625 251.179688 L 295.953125 246.949219 L 291.808594 248.675781 L 271.035156 244.148438 L 261.414062 239.625 L 253.714844 238.410156 L 244.289062 236.769531 L 237.953125 238.238281 L 234.679688 240.453125 L 228.136719 239.238281 C 228.136719 239.238281 218.042969 234.371094 217.75 234.519531 C 217.460938 234.664062 203.15625 233.945312 203.15625 233.945312 L 198.4375 230.871094 L 199.980469 226.929688 L 196.589844 224.859375 L 190.144531 222.367188 L 186.496094 224.09375 L 179.027344 222.125 Z M 177.542969 217.890625 " fill-opacity="1" fill-rule="nonzero"/><path fill="#fcd295" d="M 310.269531 226.480469 C 310.851562 226.039062 317.335938 222.515625 318.417969 222.585938 C 319.5 222.660156 324.839844 223.230469 325.058594 223.230469 L 335.445312 223.230469 L 330.324219 227.488281 L 322.03125 230.226562 L 313.589844 229.945312 Z M 310.269531 226.480469 " fill-opacity="1" fill-rule="nonzero"/><path fill="#fcd295" d="M 343.605469 245.015625 L 348.796875 246.535156 L 354.5625 243.929688 L 361.421875 247.179688 L 364.085938 249.609375 C 364.085938 249.609375 357.167969 252.359375 356.523438 253.796875 C 356.046875 255.421875 355.804688 257.085938 355.792969 258.78125 L 351.828125 258.78125 L 353.554688 256.46875 L 352.472656 253.722656 C 351.140625 252.347656 349.605469 251.265625 347.863281 250.476562 C 346.371094 249.976562 344.855469 249.574219 343.3125 249.257812 L 342.230469 244.796875 Z M 343.605469 245.015625 " fill-opacity="1" fill-rule="nonzero"/><path fill="#fcd295" d="M 370.226562 255.621094 L 369.363281 250.292969 L 376.210938 245.960938 L 382.632812 248.480469 L 377.269531 258.660156 L 367.308594 258.148438 C 368.21875 257.234375 369.191406 256.390625 370.226562 255.621094 Z M 370.226562 255.621094 " fill-opacity="1" fill-rule="nonzero"/><path fill="#fcd295" d="M 254.3125 67.15625 L 249.6875 70.230469 L 243.339844 85.238281 L 247.765625 99.46875 L 251.804688 104.664062 L 248.535156 110.246094 L 252.765625 121.59375 L 261.28125 127.5625 L 270.898438 156.621094 L 295.722656 155.074219 L 299.566406 161.421875 L 311.496094 162.578125 L 320.726562 158.929688 L 340.929688 163.164062 C 340.929688 163.164062 344.394531 170.859375 344.203125 171.675781 C 344.007812 172.492188 370.558594 165.523438 370.558594 165.523438 L 377.855469 140.894531 L 379.191406 133.972656 L 397.667969 114.925781 L 397.472656 91.648438 L 407.285156 85.871094 L 421.882812 87.417969 L 412.261719 78.171875 L 406.679688 64.90625 L 392.644531 53.167969 L 392.449219 43.644531 L 390.429688 38.160156 L 400.816406 37.867188 L 398.503906 30.085938 L 389.273438 25.753906 L 366.761719 26.035156 L 361.570312 33.539062 L 362.140625 47.109375 L 355.792969 49.703125 L 352.945312 54.589844 L 355.257812 58.058594 L 348.617188 62.679688 L 349.199219 68.761719 L 342.800781 77.699219 L 333.28125 74.804688 L 327.808594 80.289062 L 314.527344 77.699219 L 314.527344 73.308594 L 307.886719 73.878906 L 300.964844 78.746094 L 298.363281 83.9375 L 282.78125 84.230469 L 273.257812 87.683594 L 265.464844 81.347656 L 256.863281 75.898438 Z M 254.3125 67.15625 " fill-opacity="1" fill-rule="nonzero"/><path fill="#fcd295" d="M 434.203125 200.195312 L 431.113281 192.109375 L 431.695312 179.3125 L 429.773438 169.5 L 430.441406 164.027344 L 428.996094 162.96875 L 420.628906 165.851562 L 419.414062 157.761719 L 423.351562 149.25 L 424.886719 138.484375 L 427.195312 138.195312 L 426.820312 122.992188 L 432.898438 112.507812 L 435.015625 101.257812 L 443.285156 86.664062 L 448.003906 88.5 L 453.671875 77.90625 L 463.972656 79.9375 L 469.363281 83.109375 L 484.746094 85.324219 L 489.464844 87.246094 L 492.25 85.410156 L 509.082031 86.382812 L 515.164062 80.800781 L 520.359375 80.3125 L 525.453125 72.335938 L 528.726562 71.375 L 532.191406 76.566406 L 522 88.984375 L 516.710938 95.625 L 497.980469 97.644531 L 492.398438 94.566406 L 470.371094 95.140625 L 467.269531 93.511719 L 461.40625 95.238281 L 454.960938 95.140625 C 454.335938 94.542969 453.625 94.082031 452.828125 93.75 C 452.03125 93.417969 451.203125 93.242188 450.339844 93.21875 C 447.261719 93.023438 443.324219 96.78125 443.324219 96.78125 L 439.953125 111.496094 L 443.894531 117.359375 L 452.273438 125.875 L 456.882812 127.890625 L 464.484375 117.503906 L 478.242188 118.089844 L 490.753906 115.402344 L 496.835938 111.65625 C 496.835938 111.65625 502.128906 114.441406 501.261719 115.304688 C 500.398438 116.167969 499.148438 120.984375 499.148438 120.984375 L 494.816406 118.199219 L 485.511719 121.410156 L 474.167969 132.355469 C 474.167969 132.355469 470.601562 133.414062 468.011719 133.898438 C 466.453125 134.160156 465.167969 134.898438 464.15625 136.113281 L 474.738281 145.84375 L 478.886719 155.742188 L 479.847656 157.859375 L 478.398438 166.140625 L 486 171.808594 L 490.523438 178.839844 C 488.054688 179.734375 485.519531 180.375 482.921875 180.761719 C 480.492188 180.859375 475.128906 183.351562 475.128906 183.351562 L 475.320312 188.835938 C 473.375 188.441406 471.515625 187.800781 469.738281 186.914062 C 468.019531 185.769531 466.511719 184.390625 465.214844 182.78125 L 467.71875 174.605469 L 457.90625 167.578125 L 454.925781 163.148438 L 458.769531 156.425781 L 457.710938 149.394531 L 450.984375 146.960938 L 441.253906 155.476562 L 447.703125 161.046875 L 446.835938 170.777344 L 443.1875 177.125 L 445.890625 187.425781 L 442.519531 192.230469 L 447.324219 201.851562 L 439.539062 202.046875 Z M 434.203125 200.195312 " fill-opacity="1" fill-rule="nonzero"/><path fill="#fcd295" d="M 486.390625 184.179688 L 481.230469 186.609375 L 480.5625 193.25 L 479.992188 197.777344 C 479.992188 197.777344 484.40625 200.660156 484.503906 200.511719 C 484.601562 200.367188 493.015625 195.757812 492.835938 195.757812 C 492.128906 194.96875 491.484375 194.132812 490.902344 193.25 L 494.171875 185.953125 L 488.929688 186.101562 C 488.929688 186.101562 485.28125 194.175781 485.660156 194.078125 C 486.035156 193.980469 486.390625 184.179688 486.390625 184.179688 Z M 486.390625 184.179688 " fill-opacity="1" fill-rule="nonzero"/><path fill="#fcd295" d="M 809.027344 261.46875 L 809.027344 225.871094 L 807.300781 217.027344 L 809.988281 213.171875 L 809.988281 147.375 L 788.824219 143.726562 L 768.441406 133.144531 L 752.632812 128.71875 L 742.246094 132.183594 L 741.855469 138.144531 L 729.546875 140.457031 L 725.898438 149.492188 L 716.277344 156.621094 L 710.308594 161.996094 L 704.347656 160.269531 L 695.832031 147.960938 L 691.785156 149.296875 L 687.941406 133.144531 L 689.097656 125.449219 L 684.292969 115.828125 L 674.085938 116.023438 L 663.3125 107.933594 L 654.277344 108.894531 L 646.382812 114.671875 L 641.382812 115.4375 L 636.957031 121.410156 L 633.683594 123.84375 L 631.789062 119.050781 L 625.4375 119.246094 L 631.59375 129.242188 L 644.484375 128.027344 L 648.71875 131.675781 L 658.335938 143.375 C 658.335938 143.375 663.921875 143.179688 664.492188 143.179688 C 665.0625 143.179688 683.34375 138.570312 683.34375 138.570312 L 685.082031 144.726562 L 680.851562 149.335938 L 672.335938 144.917969 L 663.480469 152.800781 L 653.863281 149.722656 L 649.433594 152.605469 L 663.871094 161.265625 L 666.753906 167.417969 L 663.105469 171.652344 L 677.347656 171.46875 L 678.695312 161.070312 L 683.304688 156.65625 L 681.96875 164.730469 L 684.28125 168.199219 L 702.523438 178.390625 C 702.523438 178.390625 714.078125 181.273438 715.039062 181.464844 C 716 181.660156 729.460938 182.246094 729.460938 182.246094 L 755.621094 194.554688 L 761.070312 207.835938 L 770.316406 222.84375 L 775.179688 226.492188 L 770.179688 227.257812 L 772.867188 234.761719 L 765.753906 231.878906 L 756.71875 238.800781 C 756.71875 238.800781 749.785156 249.964844 750.550781 249.746094 C 751.316406 249.527344 774.609375 250.707031 774.609375 250.707031 L 781.332031 246.472656 L 791.914062 244.746094 Z M 809.027344 261.46875 " fill-opacity="1" fill-rule="nonzero"/><path fill="#fcd295" d="M 578.6875 62.339844 L 572.535156 73.878906 L 570.515625 87.160156 L 572.097656 96.246094 L 574.976562 99.589844 C 574.976562 99.589844 573.96875 105.671875 574.40625 105.941406 C 574.84375 106.207031 578.152344 110.125 578.152344 110.125 L 582.480469 117.054688 L 583.066406 115.460938 L 578.589844 103.773438 L 580.171875 92.828125 C 580.171875 92.828125 594.171875 99.175781 594.171875 98.738281 C 594.171875 98.300781 592.003906 93.398438 592.003906 93.398438 L 585.242188 89.617188 L 589.851562 85.714844 L 593.609375 82.976562 L 591.445312 74.171875 L 587.796875 75.472656 L 582.179688 79.121094 L 583.46875 81.433594 L 581.035156 82.015625 L 578.140625 88.097656 L 575.417969 86.210938 L 574.832031 84.195312 L 580.464844 76.835938 L 580.464844 73.1875 L 577.582031 69.867188 L 580.464844 64.234375 Z M 578.6875 62.339844 " fill-opacity="1" fill-rule="nonzero"/><path fill="#fcd295" d="M 383.121094 252.90625 L 389.75 249.925781 L 398.992188 254.257812 L 402.261719 256.277344 L 409.671875 254.355469 L 405.144531 251.277344 L 401.300781 250.21875 C 399.882812 248.9375 398.53125 247.589844 397.253906 246.167969 C 397.542969 246.167969 405.535156 245.5 405.535156 245.5 C 406.703125 246.65625 407.949219 247.710938 409.28125 248.675781 C 409.671875 248.675781 414.085938 246.753906 414.085938 246.753906 L 423.328125 249.0625 L 425.347656 254.257812 L 419.863281 257.90625 L 417.273438 254.828125 L 413.757812 257.335938 L 411.738281 254.902344 L 406.300781 258.914062 L 397.789062 259.5 L 394.03125 261.929688 L 391.34375 260.484375 L 388.738281 262.210938 L 382.632812 260.132812 Z M 383.121094 252.90625 " fill-opacity="1" fill-rule="nonzero"/><path fill="#fcd295" d="M 434.007812 253.574219 L 451.132812 247.046875 L 465.945312 252.238281 L 470.75 250.304688 L 475.175781 251.617188 L 481.914062 252.007812 L 491.726562 247.773438 C 491.726562 247.773438 489.222656 253.929688 488.640625 253.539062 C 488.054688 253.152344 476.332031 257.394531 476.332031 257.394531 L 470.554688 260.132812 L 465.945312 257.820312 L 459.402344 260.714844 L 448.238281 258.210938 L 441.511719 258.40625 Z M 434.007812 253.574219 " fill-opacity="1" fill-rule="nonzero"/><path fill="#fcd295" d="M 420.921875 267.625 C 421.6875 267.429688 436.730469 265.703125 437.277344 265.703125 C 437.824219 265.703125 441.730469 269.738281 441.730469 269.738281 L 443.652344 269.546875 L 445.183594 272.632812 L 448.648438 272.246094 L 454.425781 278.59375 L 452.3125 281.476562 L 442.105469 281.671875 L 436.148438 276.671875 L 428.851562 274.75 L 428.265625 273.011719 L 424.617188 273.398438 Z M 420.921875 267.625 " fill-opacity="1" fill-rule="nonzero"/><path fill="#fcd295" d="M 495.765625 281.476562 L 501.53125 277.242188 L 504.035156 268.207031 L 527.316406 257.625 L 528.46875 259.351562 L 532.507812 259.351562 L 530.78125 263.390625 L 531.9375 266.855469 L 520.964844 277.4375 L 512.890625 282.4375 L 502.882812 282.4375 Z M 495.765625 281.476562 " fill-opacity="1" fill-rule="nonzero"/><path fill="#fcd295" d="M 580.609375 153.726562 L 594.074219 151.035156 L 597.929688 153.53125 L 603.5 151.230469 L 616.972656 155.839844 L 622.558594 154.878906 L 631.203125 168.539062 L 631.203125 171.238281 L 615.820312 165.265625 L 613.703125 160.269531 L 607.355469 163.34375 L 596.382812 161.996094 L 595.035156 158.734375 L 588.683594 164.125 L 584.074219 159.878906 L 577.726562 162.578125 L 579.84375 157.761719 L 582.726562 156.621094 Z M 580.609375 153.726562 " fill-opacity="1" fill-rule="nonzero"/><path fill="#fcd295" d="M 543.953125 157.582031 L 561.125 155.988281 L 569.066406 163.636719 L 560.117188 168.390625 L 551.03125 167.820312 Z M 543.953125 157.582031 " fill-opacity="1" fill-rule="nonzero"/><path fill="#fcd295" d="M 507.878906 250.5 L 509.910156 247.910156 L 515.96875 244.929688 L 521.828125 245.402344 L 528.957031 245.402344 L 529.527344 247.8125 L 520.394531 250.121094 L 516.34375 252.042969 L 511.152344 253.003906 L 510.480469 251.277344 Z M 507.878906 250.5 " fill-opacity="1" fill-rule="nonzero"/><path fill="#fcd295" d="M 495.667969 251.945312 C 496.144531 251.460938 499.902344 248.1875 499.902344 248.1875 L 501.53125 249.0625 L 506.394531 247.226562 L 501.324219 253.769531 Z M 495.667969 251.945312 " fill-opacity="1" fill-rule="nonzero"/><path fill="#fcd295" d="M 694.605469 196.972656 L 687.820312 208.941406 L 687.964844 223.949219 L 689.558594 226.550781 L 697.0625 214.863281 L 700.089844 206.351562 L 697.488281 199.285156 Z M 694.605469 196.972656 " fill-opacity="1" fill-rule="nonzero"/><path fill="#fcd295" d="M 643.816406 227.269531 L 636.019531 233.910156 L 631.253906 243.140625 L 637.746094 241.558594 L 643.949219 234.773438 L 645.542969 230.445312 Z M 643.816406 227.269531 " fill-opacity="1" fill-rule="nonzero"/><path fill="#fcd295" d="M 182.066406 130.738281 L 185.375 141.269531 L 189.851562 142.488281 C 189.851562 142.488281 192.601562 150.136719 193.027344 150.28125 C 193.453125 150.429688 198.074219 153.019531 198.074219 153.019531 L 204.859375 147.535156 L 200.53125 144.589844 L 191.589844 129.730469 L 187.539062 133.195312 Z M 182.066406 130.738281 " fill-opacity="1" fill-rule="nonzero"/></g></g></g></svg>