<svg width="27" height="23" viewBox="0 0 27 23" fill="none" xmlns="http://www.w3.org/2000/svg">
<path d="M8.44732 22.3345C18.5776 22.3345 24.12 13.9397 24.12 6.66186C24.12 6.42586 24.1147 6.18461 24.1043 5.94861C25.1824 5.1689 26.1129 4.20312 26.8519 3.09665C25.8477 3.5434 24.7816 3.83517 23.6899 3.96199C24.8394 3.27299 25.7001 2.1906 26.1124 0.915463C25.031 1.55632 23.8484 2.00838 22.6153 2.25229C21.7845 1.36948 20.686 0.784951 19.4896 0.589083C18.2933 0.393215 17.0657 0.596914 15.9967 1.16869C14.9277 1.74046 14.0769 2.64846 13.5757 3.7523C13.0745 4.85614 12.9509 6.09434 13.224 7.27547C11.0344 7.16559 8.89237 6.5968 6.93671 5.60596C4.98105 4.61512 3.25544 3.22435 1.87176 1.52382C1.1685 2.73633 0.953304 4.17111 1.2699 5.53658C1.5865 6.90205 2.41114 8.09574 3.57623 8.87504C2.70155 8.84727 1.84604 8.61178 1.08037 8.18801V8.25619C1.07958 9.52862 1.51948 10.7621 2.32527 11.7468C3.13106 12.7316 4.25302 13.4069 5.50043 13.658C4.69019 13.8797 3.8398 13.912 3.01506 13.7524C3.36706 14.8467 4.05191 15.8038 4.97405 16.4902C5.89618 17.1765 7.00959 17.5578 8.15887 17.5809C6.20773 19.1136 3.79749 19.9449 1.31637 19.9409C0.876363 19.9403 0.436789 19.9133 0 19.8602C2.52056 21.4772 5.45264 22.3361 8.44732 22.3345Z" fill="#B7351F"/>
</svg>
