<svg width="440" height="261" viewBox="0 0 440 261" fill="none" xmlns="http://www.w3.org/2000/svg">
<path d="M497.152 156.032C497.152 189.87 471.163 217.296 439.096 217.296C432.409 217.296 425.995 216.08 420.006 213.893C405.734 240.602 378.618 258.653 347.487 258.653C320.46 258.653 296.445 245.039 281.246 223.97C275.934 225.97 270.23 227.061 264.264 227.061C242.404 227.061 223.787 212.439 216.706 191.95C212.028 193.581 207.042 194.485 201.847 194.485C192.421 194.485 183.649 191.558 176.274 186.551C166.781 193.497 154.931 199.482 140.43 202.423C91.8918 212.239 91.0698 154.079 65.5979 188.263C40.1291 222.446 1.84814 200.993 1.84814 200.993C35.0671 211.619 41.1098 166.645 70.9773 156.018C100.845 145.395 102.851 169.833 126.009 166.072C148.063 162.492 135.413 133.473 172.789 105.321C174.674 103.777 176.658 102.37 178.755 101.134C206.503 82.8821 238.456 89.9386 258.694 97.8992C263.217 70.6046 285.766 49.8406 312.929 49.8406C322.929 49.8406 332.289 52.6605 340.372 57.5769C343.124 26.4509 367.939 2.08337 398.155 2.08337C430.222 2.08337 456.211 29.5086 456.211 63.3472C456.211 75.1124 453.066 86.0939 447.608 95.4343C475.637 99.778 497.152 125.251 497.152 156.032Z" fill="#F8E5C8"/>
<mask id="mask0_496_172" style="mask-type:luminance" maskUnits="userSpaceOnUse" x="0" y="0" width="499" height="261">
<path d="M0 0.255493H499V260.759H0V0.255493Z" fill="white"/>
</mask>
<g mask="url(#mask0_496_172)">
<path d="M450.004 94.0884C454.973 84.7115 457.586 74.1285 457.586 63.3245C457.586 28.5471 430.805 0.255493 397.884 0.255493C367.734 0.255493 342.748 23.4884 338.746 54.7181C330.726 50.3395 321.78 48.0279 312.722 48.0279C285.773 48.0279 262.756 67.8572 257.244 95.4921C235.568 87.3045 204.81 81.807 177.826 99.5759C175.685 100.849 173.614 102.303 171.721 103.874C151.441 119.167 145.539 134.913 141.223 146.397C137.516 156.29 135.061 162.809 125.709 164.333C116.097 165.894 110.386 162.3 104.347 158.501C96.2354 153.409 87.8537 148.146 70.4339 154.347C57.5363 158.943 49.1515 169.452 41.052 179.603C30.1111 193.315 20.6703 205.168 2.38469 199.312C1.55065 199.05 0.66269 199.493 0.336048 200.337C0.00940768 201.181 0.336048 202.169 1.10033 202.598C1.49673 202.823 40.9157 224.32 66.9328 189.375C71.788 182.853 75.9234 179.533 79.583 179.211C84.0894 178.819 88.2374 182.792 93.4859 187.828C102.927 196.863 115.85 209.238 140.693 204.206C153.515 201.61 165.467 196.397 176.228 188.709C183.899 193.684 192.699 196.303 201.734 196.303C206.434 196.303 211.074 195.586 215.57 194.196C223.457 215.024 242.758 228.9 264.107 228.9C269.695 228.9 275.194 227.972 280.477 226.129C296.688 247.992 320.968 260.501 347.264 260.501C377.369 260.501 405.298 243.53 420.508 216.096C426.422 218.106 432.574 219.131 438.806 219.131C471.727 219.131 498.505 190.839 498.505 156.062C498.496 125.854 477.809 99.6831 450.004 94.0884ZM91.3453 181.067C87.4256 177.64 83.6518 175.248 79.2913 175.64C74.5819 176.055 69.8028 179.724 64.2626 187.161C48.5775 208.226 28.0625 207.536 15.1174 204.193C27.1841 202.514 35.2264 192.421 43.6335 181.888C51.4284 172.106 59.4962 161.988 71.5058 157.717C87.4478 152.038 94.8147 156.668 102.613 161.559C108.911 165.513 115.422 169.606 126.217 167.844C137.481 166.012 140.513 157.931 144.353 147.693C148.749 135.995 154.213 121.439 173.738 106.705C175.552 105.204 177.49 103.847 179.551 102.621C186.097 98.3129 192.88 95.4452 199.695 93.673C188.507 100.789 171.632 115.643 167.034 142.316C163.067 165.358 152.659 182.4 138.461 189.091C125.281 195.315 108.99 192.528 91.3453 181.067ZM438.793 215.523C432.473 215.523 426.241 214.417 420.283 212.216C419.506 211.942 418.659 212.273 418.256 213.024C403.811 240.089 376.614 256.893 347.254 256.893C321.611 256.893 297.973 244.505 282.402 222.913C282.075 222.461 281.581 222.213 281.064 222.213C280.87 222.213 280.68 222.246 280.499 222.32C275.225 224.307 269.717 225.305 264.094 225.305C243.624 225.305 225.17 211.667 218.161 191.362C217.847 190.457 216.912 189.972 216.043 190.28C211.413 191.898 206.602 192.719 201.725 192.719C197.069 192.719 192.496 191.945 188.126 190.504C190.096 190.685 191.979 190.779 193.758 190.779C211.02 190.779 219.287 183.104 219.728 182.675C220.416 182.018 220.47 180.89 219.852 180.163C219.233 179.436 218.161 179.379 217.464 180.032C217.34 180.152 204.271 192.076 176.576 184.839C176.443 184.806 176.307 184.792 176.171 184.792C176.139 184.792 176.113 184.792 176.082 184.792C175.958 184.806 175.834 184.816 175.711 184.853C175.685 184.863 175.654 184.863 175.631 184.876C175.495 184.923 175.359 184.997 175.235 185.077C175.225 185.091 175.213 185.091 175.203 185.091C164.589 192.863 152.76 198.099 140.027 200.682C121.64 204.407 110.478 198.122 101.947 190.876C109.529 194.22 116.807 195.908 123.648 195.908C129.369 195.908 134.779 194.732 139.802 192.364C155.034 185.184 166.165 167.178 170.323 142.97C176.836 105.147 209.409 92.3162 210.972 91.7199C228.154 90.1018 244.873 94.4234 257.897 99.5625C258.373 99.7534 258.89 99.7066 259.331 99.4452C259.768 99.1839 260.073 98.7317 260.152 98.2057C264.614 71.214 286.708 51.6125 312.688 51.6125C321.678 51.6125 330.532 54.038 338.375 58.6109C338.318 61.1436 338.419 67.3948 340.224 74.286C334.601 70.6779 324.009 65.1804 311.765 65.1804C302.704 65.1804 294.358 68.2257 286.978 74.2257C286.233 74.8321 286.1 75.951 286.674 76.7249C287.238 77.5088 288.307 77.6528 289.039 77.0465C295.823 71.5356 303.472 68.7382 311.765 68.7382C326.917 68.7382 339.783 78.0917 342.047 79.8438C343.401 83.2107 345.237 86.5306 347.749 89.482C353.077 95.73 360.412 99.1002 369.561 99.4687C370.214 99.4921 370.855 99.5055 371.499 99.5055C390.212 99.5055 401.648 88.2928 406.177 77.5322C410.727 66.7148 409.085 55.1703 401.908 47.4115C394.224 39.0898 384.206 36.46 375.127 40.3763C367.624 43.6024 362.575 50.6845 362.575 57.9777C362.575 65.3446 367.275 71.6796 374.28 73.75C380.083 75.4619 388.129 74.0582 393.32 64.9895C393.806 64.1452 393.549 63.0498 392.746 62.5372C391.947 62.0246 390.91 62.2993 390.425 63.1436C386.214 70.5004 379.792 71.6796 375.184 70.3228C370.585 68.966 365.943 64.631 365.943 57.9911C365.943 52.1217 370.148 46.3864 376.389 43.6962C384.162 40.3528 392.791 42.6845 399.473 49.9207C405.669 56.6209 407.046 66.6545 403.078 76.1051C398.854 86.1621 387.856 96.6613 369.685 95.9109C361.484 95.5759 354.948 92.6244 350.261 87.1269C340.82 76.0582 341.755 58.1352 341.778 57.7063C344.549 26.9759 368.648 3.8267 397.884 3.8267C428.934 3.8267 454.206 30.5102 454.206 63.3245C454.206 73.7265 451.637 83.9008 446.769 92.8623C441.803 89.5423 425.702 80.9627 406.142 93.3648C387.419 105.231 389.467 124.333 390.425 129.532C389.242 130.377 387.26 131.985 385.119 134.437C382.665 123.476 374.394 113.335 362.305 106.775C344.955 97.3749 324.234 97.5658 308.226 107.278C307.414 107.764 307.135 108.859 307.607 109.717C308.067 110.574 309.104 110.869 309.916 110.37C327.875 99.4821 347.962 103.016 360.774 109.955C373.043 116.594 381.054 127.094 382.338 138.089C377.153 145.837 372.694 158.859 377.933 178.782C379.417 184.437 382.237 189.137 385.896 192.957C384.647 198.015 376.76 223.416 342.872 233.091C325.09 238.173 309.174 236.005 298.03 226.997C290.099 220.581 285.164 210.883 285.164 201.694C285.164 194.672 287.27 189.161 291.427 185.292C293.263 183.58 295.347 182.354 297.478 181.496C297.5 181.486 297.535 181.472 297.557 181.459C301.499 179.901 305.647 179.616 308.857 180.055C316.382 181.08 323.425 187.65 322.195 200.029C321.837 203.62 320.045 206.893 317.286 208.977C314.692 210.94 311.593 211.62 308.565 210.893C304.239 209.858 300.903 206.146 298.648 199.838C298.322 198.91 297.342 198.457 296.476 198.802C295.598 199.148 295.157 200.183 295.496 201.097C298.176 208.598 302.324 213.061 307.832 214.37C311.819 215.322 315.887 214.441 319.268 211.868C322.817 209.181 325.116 205.004 325.566 200.384C327.019 185.697 318.152 177.71 309.297 176.511C306.266 176.092 302.501 176.246 298.728 177.318C298.75 176.022 298.728 174.307 298.582 172.307C320.27 163.737 330.659 181.449 331.097 182.223C331.414 182.782 331.975 183.091 332.549 183.091C332.844 183.091 333.149 183.007 333.418 182.843C334.217 182.34 334.487 181.245 334.005 180.39C333.881 180.176 322.049 159.774 298.198 168.642C297.941 166.725 297.545 164.655 296.993 162.501C301.896 159.774 322.737 150.112 338.759 172.176C338.768 172.189 338.781 172.199 338.793 172.213C338.86 172.297 338.927 172.38 339.006 172.451C339.041 172.487 339.073 172.511 339.12 172.534C339.164 172.571 339.196 172.605 339.244 172.628C339.266 172.642 339.275 172.642 339.298 172.652C339.39 172.702 339.478 172.735 339.57 172.772C339.615 172.786 339.65 172.809 339.694 172.819C339.818 172.856 339.951 172.866 340.087 172.879H340.1H340.11C340.268 172.879 340.427 172.843 340.582 172.796C340.63 172.786 340.684 172.759 340.731 172.735C340.842 172.688 340.944 172.628 341.045 172.558C341.067 172.534 341.102 172.534 341.124 172.511C341.159 172.487 341.181 172.451 341.213 172.414C341.248 172.38 341.283 172.357 341.315 172.32C341.394 172.226 341.473 172.129 341.53 172.022C341.54 172.012 341.552 171.998 341.552 171.985C341.552 171.985 341.565 171.975 341.565 171.962C341.835 171.476 346.284 163.154 342.691 155.526C339.919 149.646 333.26 146.005 322.883 144.695C321.983 144.564 321.114 145.278 321.003 146.256C320.888 147.231 321.554 148.122 322.477 148.243C331.639 149.399 337.417 152.373 339.65 157.097C341.438 160.893 340.56 165.121 339.659 167.727C323.064 147.445 302.13 155.908 295.969 159.074C292.296 148.089 283.88 136.139 264.884 132.353C243.76 128.139 231.275 139.851 228.617 152.514C226.635 161.978 230.193 173.057 240.865 175.951C248.143 177.915 253.144 176.33 256.255 173.271C257.606 176.427 259.508 182.377 257.438 187.375C255.735 191.459 251.59 194.22 245.101 195.563C244.188 195.754 243.589 196.695 243.769 197.66C243.928 198.514 244.638 199.097 245.428 199.097C245.539 199.097 245.64 199.087 245.755 199.064C253.382 197.479 258.348 194.029 260.523 188.816C263.612 181.412 259.971 172.94 258.563 170.142C259.137 169.06 259.566 167.915 259.86 166.749C261.471 160.253 259.08 151.791 253.483 150.219C252.579 149.968 251.656 150.528 251.409 151.479C251.162 152.43 251.701 153.409 252.605 153.67C255.906 154.598 257.866 160.631 256.581 165.844C256.286 167.037 255.858 168.082 255.306 168.987C255.262 169.047 255.218 169.117 255.173 169.178C252.728 172.987 247.997 174.199 241.676 172.498C232.695 170.072 230.307 160.846 231.883 153.301C234.284 141.898 245.212 132.092 264.218 135.878C282.605 139.543 290.244 151.231 293.333 161.61C293.333 161.928 293.409 162.24 293.568 162.538C293.581 162.548 293.581 162.561 293.59 162.571C294.402 165.546 294.865 168.394 295.1 170.869C295.068 171.141 295.09 171.429 295.179 171.7C295.426 174.806 295.347 177.235 295.258 178.568C293.105 179.543 291.012 180.866 289.128 182.601C284.286 187.114 281.717 193.707 281.717 201.68C281.717 211.965 287.159 222.749 295.902 229.818C303.697 236.126 313.588 239.339 324.732 239.339C330.726 239.339 337.09 238.411 343.671 236.531C376.354 227.198 386.134 203.727 388.602 195.563C397.243 202.836 409.266 206.179 420.216 206.179C420.936 206.179 421.656 206.169 422.366 206.133C439.741 205.429 461.664 195.814 466.272 171.034C469.888 151.576 464.696 135.72 451.998 127.556C440.449 120.119 424.935 120.715 415.088 128.95C402.267 139.687 403.158 152.598 407.823 160.394C412.532 168.26 422.896 173.831 432.857 168.655C441.194 164.323 442.443 158.31 442.456 155.11C442.456 150.313 439.729 145.539 435.809 143.492C433.037 142.042 430.164 142.256 427.922 144.065C427.177 144.662 427.044 145.777 427.605 146.564C428.169 147.348 429.238 147.492 429.971 146.896C431.506 145.66 433.171 146.099 434.309 146.695C436.688 147.935 439.085 151.231 439.076 155.11C439.076 158.002 437.734 162.142 431.369 165.452C423.191 169.7 414.606 165.037 410.683 158.491C406.583 151.633 406.142 141.017 417.197 131.757C425.972 124.414 439.865 123.938 450.242 130.615C456.942 134.936 467.512 145.837 462.949 170.357C458.725 193.087 438.365 201.918 422.233 202.575C405.726 203.218 385.817 195.777 381.098 177.817C376.094 158.789 380.309 146.765 385.062 139.817C385.278 139.636 385.446 139.399 385.548 139.127C389.064 134.283 392.702 132.129 393.063 131.924C393.774 131.532 394.123 130.665 393.898 129.841C393.66 128.986 388.376 108.728 407.81 96.3967C429.238 82.8187 445.485 96.209 446.173 96.7786C446.186 96.792 446.195 96.792 446.208 96.802C446.239 96.8255 446.274 96.8489 446.309 96.8757C446.388 96.9327 446.465 96.9829 446.544 97.0164C446.579 97.0298 446.623 97.0533 446.658 97.0633C446.747 97.1002 446.839 97.1236 446.928 97.1471C446.95 97.1471 446.972 97.1605 446.994 97.1705C474.397 101.432 495.048 126.725 495.048 156.025C495.115 188.839 469.843 215.523 438.793 215.523ZM396.488 221.64C397.186 222.297 397.243 223.426 396.622 224.163C396.533 224.26 394.494 226.675 390.596 229.995C390.279 230.257 389.908 230.387 389.537 230.387C389.039 230.387 388.557 230.163 388.218 229.721C387.631 228.96 387.745 227.831 388.478 227.211C392.137 224.092 394.088 221.808 394.11 221.784C394.719 221.047 395.791 220.987 396.488 221.64ZM381.729 234.484C382.202 235.329 381.942 236.424 381.143 236.933C372.095 242.625 357.304 249.409 338.194 249.409C329.949 249.409 321.453 248.146 312.935 245.67C312.034 245.409 311.505 244.421 311.752 243.479C311.999 242.528 312.935 241.982 313.826 242.23C322.049 244.622 330.241 245.838 338.185 245.838C356.524 245.838 370.722 239.329 379.395 233.865C380.207 233.352 381.244 233.627 381.729 234.484ZM267.655 101.361C270.935 94.1018 274.642 87.8405 278.685 82.7483C279.281 81.9979 280.353 81.8907 281.064 82.5205C281.771 83.1504 281.872 84.2827 281.276 85.0331C277.423 89.8874 273.862 95.8975 270.709 102.886C270.414 103.526 269.818 103.898 269.187 103.898C268.94 103.898 268.692 103.837 268.467 103.717C267.611 103.325 267.25 102.253 267.655 101.361ZM406.57 20.7849C405.682 20.5001 405.175 19.5018 405.444 18.5604C405.714 17.6191 406.662 17.083 407.553 17.3712C408.431 17.6559 429.194 24.5471 437.262 46.9693C437.588 47.8872 437.16 48.9224 436.282 49.2775C436.079 49.3613 435.876 49.3981 435.685 49.3981C435.007 49.3981 434.366 48.9559 434.106 48.2423C426.616 27.4382 406.773 20.8452 406.57 20.7849ZM439.998 58.9191C440.236 61.0631 440.36 63.2977 440.36 65.5489C440.36 68.7985 440.113 72.2022 439.615 75.6528C439.491 76.5339 438.771 77.1771 437.95 77.1771C437.87 77.1771 437.778 77.1637 437.69 77.1537C436.767 77.0096 436.136 76.095 436.269 75.1168C436.741 71.8337 436.979 68.6076 436.979 65.5355C436.979 63.4317 436.868 61.3345 436.643 59.3244C436.529 58.3496 437.195 57.4551 438.127 57.3479C439.053 57.2407 439.887 57.9442 439.998 58.9191ZM206.31 111.787C197.298 117.144 190.873 127.486 187.2 142.517C187.01 143.328 186.322 143.851 185.567 143.851C185.434 143.851 185.285 143.837 185.139 143.791C184.238 143.543 183.696 142.578 183.921 141.613C187.844 125.569 194.827 114.477 204.699 108.635C217.248 101.207 229.733 105.097 230.263 105.278C231.151 105.563 231.658 106.561 231.389 107.502C231.119 108.444 230.171 108.98 229.283 108.692C229.102 108.645 217.552 105.11 206.31 111.787ZM486.664 156.528C486.641 157.992 486.619 159.456 486.562 160.916C486.236 163.821 485.931 166.739 485.493 169.606C484.885 172.451 484.276 175.295 483.578 178.092C483.79 175.188 484.095 172.307 484.399 169.452C484.58 166.571 484.637 163.704 484.818 160.836C484.682 155.121 484.571 149.372 483.318 143.851C482.237 138.316 480.4 132.926 477.549 128.129L476.424 126.367L475.859 125.486L475.228 124.665L473.956 123.01C473.516 122.474 473.021 121.998 472.558 121.475C470.668 119.452 468.537 117.63 466.136 116.216C468.752 117.144 471.128 118.762 473.29 120.608C475.488 122.44 477.324 124.712 479.005 127.08C479.836 128.273 480.515 129.579 481.247 130.842C481.932 132.139 482.452 133.519 483.071 134.852C483.216 135.198 483.388 135.519 483.499 135.878L484.479 139.053C484.682 139.757 484.942 140.457 485.1 141.174L485.528 143.338L485.931 145.516C486.08 146.243 486.213 146.97 486.248 147.707L486.632 152.112C486.778 153.586 486.664 155.064 486.664 156.528ZM479.994 145.221C481.269 149.67 481.685 154.347 481.65 158.953C481.65 163.583 480.93 168.156 480.007 172.642C479.455 174.856 478.834 177.057 478.193 179.235C477.416 181.379 476.639 183.506 475.77 185.59C476.164 183.342 476.649 181.127 477.121 178.926L478.282 172.273C478.834 167.821 479.443 163.382 479.398 158.92C479.465 154.477 479.173 150.015 478.295 145.673C477.797 143.516 477.293 141.352 476.49 139.281C475.748 137.184 474.825 135.151 473.595 133.281C475.206 134.816 476.436 136.782 477.483 138.792C478.035 139.79 478.428 140.876 478.891 141.935C479.332 143.017 479.623 144.126 479.994 145.221ZM473.608 170.142C474.204 171.546 474.419 173.117 474.473 174.665C474.521 175.449 474.442 176.223 474.407 176.997C474.35 177.784 474.194 178.544 474.08 179.318C473.493 182.4 472.231 185.281 470.699 187.925C469.945 189.255 469.044 190.481 468.143 191.697C467.703 192.313 467.173 192.849 466.691 193.422C466.193 193.992 465.686 194.541 465.178 195.087C464.097 196.112 462.993 197.111 461.867 198.062C460.672 198.933 459.489 199.814 458.262 200.598C459.185 199.409 460.155 198.3 461.122 197.208C462.058 196.076 462.962 194.92 463.894 193.828C465.619 191.483 467.398 189.208 468.797 186.685C470.271 184.223 471.524 181.616 472.402 178.853C472.796 177.462 473.189 176.055 473.382 174.605C473.617 173.141 473.719 171.667 473.608 170.142ZM458.262 110.658C455.829 108.169 453.058 106.169 450.039 104.826C448.529 104.159 446.972 103.609 445.383 103.264C443.82 102.933 442.139 102.671 440.642 102.718C440.449 102.718 440.281 102.681 440.122 102.588L440.1 102.574C437.465 101.087 434.715 99.8372 431.855 99.0767C430.434 98.6714 428.981 98.3967 427.516 98.256C426.051 98.1119 424.586 98.0884 423.121 98.2191C420.194 98.4704 417.308 99.3012 414.581 100.624C411.866 101.958 409.297 103.717 407.046 105.921C408.847 103.264 411.257 101.063 413.962 99.3749C416.667 97.6831 419.731 96.5173 422.908 96.1119C426.073 95.6496 429.33 95.9343 432.416 96.7685C435.413 97.5993 438.286 98.8958 440.924 100.551C442.659 100.635 444.235 100.919 445.824 101.408C447.502 101.921 449.125 102.598 450.647 103.492C453.711 105.217 456.337 107.717 458.262 110.658ZM420.666 104.514C421.814 104.802 422.886 105.264 423.844 105.921C422.705 105.764 421.634 105.633 420.565 105.683C419.493 105.73 418.469 105.908 417.466 106.169C415.472 106.752 413.613 107.777 411.879 109.037C408.374 111.549 405.387 114.893 402.279 118.347C403.043 116.085 404.226 114.011 405.625 112.109C407.023 110.206 408.666 108.467 410.604 107.073C412.519 105.67 414.774 104.658 417.14 104.35C418.323 104.192 419.515 104.266 420.666 104.514ZM408.971 189.828C412.925 191.851 417.162 193.292 421.523 194.518C417.026 194.28 412.532 193.315 408.273 191.529C406.11 190.709 404.103 189.493 402.133 188.233C400.205 186.886 398.413 185.305 396.78 183.556C393.571 179.995 391.25 175.556 390.054 170.856C388.862 166.166 388.636 161.204 389.616 156.551C389.569 161.298 390.292 165.951 391.735 170.296C393.197 174.628 395.417 178.628 398.426 181.901C401.379 185.235 405.029 187.828 408.971 189.828ZM402.527 176.353C404.601 178.581 407.077 180.33 409.782 181.65C411.067 182.437 412.519 182.89 413.905 183.506C415.326 184.032 416.778 184.471 418.221 184.96C419.696 185.305 421.174 185.781 422.671 186.126C424.171 186.461 425.69 186.779 427.199 187.208C425.645 187.305 424.091 187.292 422.512 187.281C420.958 187.198 419.391 186.97 417.837 186.769C417.061 186.662 416.293 186.434 415.529 186.256C414.761 186.055 413.984 185.901 413.23 185.65C411.742 185.054 410.211 184.591 408.79 183.781C407.337 183.067 405.996 182.116 404.667 181.151L402.841 179.472C402.267 178.866 401.75 178.213 401.22 177.57C400.757 176.856 400.262 176.189 399.869 175.439C399.495 174.675 399.102 173.938 398.842 173.131C398.29 171.546 397.941 169.868 398.055 168.203C398.426 169.797 399.044 171.271 399.834 172.628C400.554 174.008 401.547 175.201 402.527 176.353ZM413.049 175.533C414.806 176.605 416.598 177.342 418.411 177.962C420.238 178.568 422.084 178.96 423.968 179.271C425.848 179.543 427.751 179.687 429.692 179.757C430.659 179.794 431.629 179.757 432.619 179.807C433.611 179.807 434.591 179.757 435.628 179.831C434.702 180.27 433.745 180.628 432.777 180.96C431.797 181.198 430.805 181.486 429.793 181.616C427.776 181.901 425.69 181.948 423.65 181.627C421.611 181.305 419.594 180.675 417.749 179.677C415.922 178.688 414.187 177.355 413.049 175.533ZM423.844 138.434C422.728 139.543 421.748 140.615 420.901 141.757C420.057 142.899 419.36 144.102 418.852 145.385C418.358 146.672 417.904 147.992 417.714 149.445C417.635 149.801 417.59 150.159 417.555 150.528L417.422 151.646C417.343 152.407 417.352 153.171 417.219 153.992C416.858 153.288 416.553 152.538 416.318 151.764C416.169 150.98 415.922 150.169 415.944 149.348C415.811 147.693 416.147 145.992 416.778 144.434C417.409 142.863 418.434 141.506 419.651 140.457C420.869 139.412 422.312 138.648 423.844 138.434ZM426.444 156.93C426.828 157.194 427.291 157.358 427.719 157.596L429.115 158.179C429.612 158.337 430.094 158.574 430.602 158.762C431.109 158.953 431.639 159.144 432.168 159.456C431.629 159.68 431.065 159.801 430.491 159.931C429.926 160.012 429.34 160.025 428.766 160.025C428.192 159.988 427.605 159.881 427.021 159.75C426.444 159.549 425.87 159.382 425.331 159.027C424.25 158.407 423.257 157.405 422.772 156.146C422.287 154.896 422.255 153.492 422.842 152.384C423.597 154.729 424.811 156.015 426.444 156.93ZM369.279 194.518C368.264 197.158 366.869 199.623 365.324 201.968C363.758 204.313 362.023 206.524 360.085 208.548C358.17 210.595 356.052 212.441 353.809 214.096C351.558 215.737 349.145 217.141 346.646 218.344C341.619 220.689 336.177 221.999 330.726 222.223C325.271 222.437 319.829 221.677 314.682 220.035C320.023 220.712 325.35 220.927 330.602 220.38C333.215 220.045 335.819 219.654 338.34 218.903C340.877 218.213 343.366 217.345 345.732 216.179C350.521 213.965 354.938 210.883 358.893 207.205C362.822 203.503 366.361 199.265 369.279 194.518ZM363.669 189.328C365.832 185.66 367.725 181.804 369.279 177.71C368.626 182.079 367.129 186.293 365.178 190.243C363.228 194.206 360.682 197.848 357.732 201.074C356.289 202.729 354.599 204.109 352.966 205.55C351.174 206.762 349.496 208.156 347.546 209.074C343.829 211.251 339.681 212.417 335.594 213.144C339.456 211.452 343.265 209.848 346.677 207.452C348.447 206.394 350.026 205.027 351.659 203.764C353.169 202.337 354.767 201.014 356.121 199.409C358.969 196.384 361.471 192.97 363.669 189.328ZM345.834 199.73C345.057 200.169 344.267 200.588 343.49 200.99C344.156 200.374 344.819 199.764 345.485 199.181C346.138 198.575 346.858 198.076 347.432 197.385C348.662 196.112 349.934 194.896 350.993 193.483C353.258 190.802 355.129 187.791 356.626 184.601C358.17 181.436 359.331 178.045 360.142 174.544C360.942 171.034 361.436 167.429 361.617 163.727C362.385 167.355 362.372 171.178 361.864 174.889C361.382 178.628 360.244 182.27 358.642 185.663L358.037 186.936C357.821 187.352 357.561 187.744 357.326 188.149C356.828 188.933 356.4 189.781 355.849 190.531C354.701 191.995 353.641 193.529 352.268 194.756L351.298 195.73C350.984 196.065 350.645 196.374 350.273 196.635L348.12 198.29C347.41 198.873 346.611 199.278 345.834 199.73ZM330.421 111.693C325.959 111.787 321.488 112.202 317.013 112.99C321.263 111.251 325.779 110.3 330.329 109.847C334.893 109.395 339.523 109.539 344.077 110.336C348.615 111.157 353.09 112.631 357.155 114.953C361.246 117.204 364.887 120.333 367.792 124.012C364.221 121.047 360.456 118.477 356.391 116.618C354.361 115.68 352.29 114.859 350.159 114.239C348.041 113.559 345.891 113.05 343.706 112.692C339.333 111.857 334.871 111.619 330.421 111.693ZM342.092 117.737C341.407 117.62 340.709 117.63 340.021 117.573C339.672 117.549 339.333 117.512 338.984 117.489L337.937 117.465C337.236 117.465 336.551 117.415 335.851 117.442L333.757 117.465L331.661 117.583C330.263 117.656 328.855 117.787 327.447 117.928C324.64 118.226 321.814 118.571 318.951 118.963C321.554 117.62 324.348 116.738 327.177 116.095C330.015 115.452 332.911 115.084 335.828 115.06C338.746 115.084 341.698 115.358 344.537 116.202C347.365 117.06 350.08 118.44 352.268 120.45C349.573 119.285 346.902 118.511 344.166 118.025C343.468 117.928 342.78 117.844 342.092 117.737ZM251.33 212.799C254.124 213.774 257.041 214.213 260.051 214.762C257.063 215.201 253.933 215.285 250.914 214.595C249.37 214.38 247.917 213.798 246.43 213.332C245.698 213.061 245.009 212.692 244.289 212.37C243.566 212.059 242.881 211.68 242.215 211.275C239.51 209.667 237.011 207.68 234.903 205.312C232.784 202.967 230.961 200.3 229.765 197.339C231.75 199.764 233.856 201.968 236.108 203.968C238.362 205.965 240.763 207.741 243.31 209.205C245.843 210.715 248.526 211.928 251.33 212.799ZM264.906 207.288C266.292 207.489 267.69 207.586 269.178 207.858C267.836 208.561 266.384 209 264.896 209.144C263.409 209.345 261.9 209.238 260.422 208.977C258.947 208.692 257.517 208.146 256.185 207.419C254.869 206.682 253.629 205.727 252.738 204.431C255.567 205.382 258.148 206.122 260.84 206.645C262.179 206.859 263.533 207.134 264.906 207.288ZM283.461 168.213C282.786 166.524 282.291 164.799 281.66 163.144L280.601 160.729L280.093 159.513C279.903 159.121 279.665 158.752 279.462 158.37C279.034 157.62 278.619 156.859 278.213 156.099C277.74 155.382 277.22 154.705 276.735 154.002C276.478 153.67 276.262 153.288 276.002 152.966L275.159 152.028C274.572 151.419 274.09 150.705 273.424 150.196C271.058 147.814 268.185 146.028 265.144 144.672C262.077 143.328 258.789 142.471 255.376 142.079C258.789 141.496 262.359 141.841 265.727 142.933C269.098 144.018 272.32 145.874 274.934 148.434C275.282 148.732 275.609 149.05 275.891 149.422L276.782 150.467L277.67 151.516C277.953 151.884 278.19 152.276 278.438 152.668C278.923 153.456 279.43 154.229 279.881 155.027C280.274 155.861 280.645 156.705 281.016 157.549C281.197 157.978 281.4 158.384 281.558 158.812L281.952 160.132L282.697 162.776C283.068 164.585 283.283 166.417 283.461 168.213ZM279.969 174.106C280.004 175.318 280.014 176.534 279.982 177.747C279.868 178.96 279.757 180.163 279.541 181.352C279.259 180.163 279.069 178.983 278.875 177.817C278.663 176.652 278.416 175.509 278.235 174.353C277.715 172.082 277.233 169.831 276.487 167.69C275.777 165.536 274.934 163.442 273.785 161.513C272.612 159.62 271.271 157.787 269.425 156.36C270.563 156.598 271.623 157.191 272.59 157.894C273.085 158.239 273.513 158.655 273.963 159.06C274.404 159.479 274.788 159.955 275.194 160.407C276.735 162.31 277.842 164.561 278.606 166.893C279.418 169.224 279.757 171.677 279.969 174.106ZM111.264 179.188C106.938 177.235 103.019 174.461 99.6477 171.131C103.58 173.677 107.649 175.901 111.895 177.449C112.945 177.864 114.036 178.139 115.108 178.484C115.647 178.638 116.199 178.735 116.741 178.866C117.28 178.997 117.832 179.117 118.387 179.174C120.572 179.58 122.801 179.7 125.012 179.58C129.439 179.426 133.799 178.186 137.865 176.199C141.921 174.189 145.729 171.499 149.12 168.203C146.418 172.166 142.767 175.425 138.654 177.854C136.603 179.08 134.395 180.022 132.118 180.745C129.832 181.436 127.466 181.831 125.088 181.962C120.356 182.186 115.567 181.174 111.264 179.188ZM124.39 174.521C127.634 173.938 130.644 172.712 133.403 171.08C136.152 169.439 138.619 167.355 140.76 164.93L142.304 163.047C142.844 162.441 143.227 161.69 143.713 161.037C144.715 159.74 145.412 158.216 146.281 156.789C146.744 156.085 147.001 155.278 147.385 154.538L148.488 152.253C149.132 150.682 149.741 149.087 150.461 147.516C150.214 149.231 149.887 150.943 149.525 152.658C148.986 154.3 148.546 156.015 147.857 157.62C146.519 160.859 144.705 163.905 142.415 166.558C140.072 169.141 137.303 171.332 134.18 172.749C131.094 174.152 127.691 174.926 124.39 174.521ZM88.1455 163.75C85.193 163.536 82.3198 163.928 79.583 164.678C76.8462 165.452 74.2331 166.618 71.788 168.095L69.9741 169.261C69.3652 169.643 68.8356 170.152 68.2394 170.571C67.0311 171.379 66.0195 172.464 64.881 173.392C64.2943 173.844 63.844 174.437 63.2922 174.95L61.7034 176.521C60.7013 177.627 59.7086 178.769 58.6177 179.854C59.3027 178.474 60.0702 177.117 60.8598 175.784C61.77 174.544 62.6262 173.238 63.6537 172.082C65.6928 169.75 68.0237 167.667 70.6591 166.049C73.3198 164.487 76.2151 163.312 79.2469 162.869C82.231 162.407 85.3738 162.561 88.1455 163.75ZM228.087 140.899C226.759 142.564 225.63 144.387 224.675 146.313C223.717 148.243 223.039 150.313 222.443 152.42C221.406 156.682 221.101 161.181 221.225 165.737C220.166 161.322 219.953 156.621 220.721 152.015C221.136 149.717 221.824 147.469 222.747 145.325C223.717 143.208 224.932 141.208 226.34 139.375C229.204 135.747 232.876 132.936 236.818 130.926C240.763 128.926 245.009 127.593 249.325 127.248C245.2 128.558 241.28 130.343 237.642 132.554C235.838 133.687 234.094 134.899 232.492 136.306C230.894 137.697 229.384 139.208 228.087 140.899ZM263.926 128.129C261.627 127.76 259.305 127.486 256.908 127.261C259.217 126.497 261.649 126.259 264.072 126.283C266.495 126.306 268.918 126.688 271.283 127.331C272.466 127.663 273.614 128.105 274.753 128.568C275.317 128.806 275.856 129.127 276.408 129.402C276.96 129.677 277.502 129.975 278.01 130.343C280.138 131.616 281.952 133.412 283.474 135.365C281.333 134.152 279.361 132.889 277.21 131.995C275.079 131.057 272.939 130.223 270.709 129.64C268.477 128.986 266.212 128.511 263.926 128.129ZM365.347 24.8084C361.167 28.6409 357.45 33.0195 354.599 37.9709C353.169 40.4466 351.964 43.053 350.971 45.7565C349.969 48.4567 349.303 51.2775 348.729 54.1351C347.759 59.8839 347.683 65.8102 348.187 71.75C346.757 65.9777 346.319 59.8839 346.982 53.8504C347.365 50.8487 348.019 47.8638 348.954 44.9827C349.934 42.115 351.184 39.3512 352.661 36.7347C355.703 31.5454 359.679 27.0228 364.23 23.3678C368.784 19.7263 373.842 16.7748 379.249 15.0127C374.213 17.6928 369.561 21.0127 365.347 24.8084ZM361.741 84.544C358.915 83.1738 356.4 80.879 354.656 78.0113C353.765 76.5942 353.09 75.0331 352.525 73.4384C352.008 71.8337 351.659 70.1654 351.412 68.5004C350.993 65.1436 351.085 61.7767 351.59 58.4903C352.11 55.2172 352.975 52.0045 354.374 49.053C353.867 52.2892 353.518 55.502 353.337 58.6946C353.191 61.8839 353.213 65.0598 353.641 68.1654C354.035 71.2743 354.846 74.296 356.175 77.08C357.507 79.8673 359.432 82.343 361.741 84.544ZM362.045 76.1419C363.082 77.4518 364.256 78.6177 365.47 79.7366C366.675 80.8656 368.029 81.8438 369.371 82.879C370.056 83.3648 370.754 83.8405 371.454 84.3765C372.165 84.8656 372.885 85.3413 373.582 85.9376C372.704 85.8405 371.86 85.6395 370.991 85.4351C370.17 85.1504 369.323 84.8757 368.515 84.4971C366.926 83.7098 365.347 82.8053 364.005 81.5457C362.654 80.3195 361.462 78.8555 360.593 77.1771C359.749 75.5088 359.15 73.6294 359.308 71.75C360.063 73.415 361.021 74.8187 362.045 76.1419ZM439.583 33.2473C437.474 29.3913 435.064 25.6894 432.181 22.3226C435.695 24.9759 438.613 28.4734 441.058 32.2724C443.503 36.0781 445.507 40.2222 446.893 44.6008C448.212 48.9927 449.249 53.5154 449.439 58.1084C449.699 60.3965 449.519 62.6913 449.496 64.9761C449.36 67.2608 449.011 69.5221 448.684 71.76C448.516 69.4753 448.573 67.2273 448.393 64.9895C448.155 62.7516 448.101 60.5137 447.705 58.3127L447.197 55.0028L446.499 51.7532C446.309 50.6611 445.992 49.5991 445.7 48.5405C445.383 47.4818 445.158 46.3998 444.765 45.3646L443.706 42.2322L442.456 39.187C441.587 37.1501 440.62 35.1736 439.583 33.2473ZM298.198 63.7767C294.491 65.0364 291.091 67.0498 287.587 69.0464C290.527 66.2625 293.815 63.693 297.545 62.0481C299.349 61.0632 301.319 60.5506 303.247 59.8705C305.229 59.4317 307.201 58.9191 309.228 58.765C313.262 58.3496 317.34 58.5037 321.294 59.3479C325.239 60.1821 329.093 61.5389 332.54 63.6427C328.731 62.4434 324.891 61.6327 321.025 61.1704C317.159 60.7281 313.284 60.6812 309.453 61.1335C307.528 61.2407 305.647 61.7164 303.754 62.0615C301.896 62.5841 300.002 63.0263 298.198 63.7767ZM194.072 112.752C190.819 116.048 188.047 119.867 185.567 123.988C187.2 119.429 189.658 115.13 192.813 111.455C194.367 109.586 196.159 107.954 197.995 106.407C199.876 104.909 201.893 103.599 203.976 102.434C208.178 100.172 212.71 98.6345 217.318 97.8506C221.926 97.0633 226.635 96.8858 231.208 97.7065C226.6 97.8874 222.072 98.5776 217.667 99.6697C213.271 100.802 208.99 102.373 205.013 104.564C201.014 106.705 197.342 109.479 194.072 112.752ZM201.633 179.603C204.598 179.127 207.547 178.498 210.534 177.724C207.899 179.412 204.978 180.581 201.982 181.426C198.975 182.256 195.855 182.675 192.712 182.628C191.133 182.568 189.566 182.4 188.012 182.092C186.468 181.734 184.936 181.271 183.483 180.591C180.575 179.271 177.997 177.164 176.183 174.521C178.66 176.451 181.298 177.925 184.102 178.853C186.908 179.757 189.826 180.199 192.766 180.246C195.709 180.33 198.671 180.032 201.633 179.603ZM178.279 168.856C179.821 169.844 181.184 170.833 182.716 171.499C184.226 172.189 185.748 172.772 187.346 173.154C188.935 173.546 190.571 173.854 192.236 174.059C193.904 174.246 195.607 174.39 197.386 174.521C195.775 175.365 193.996 175.761 192.214 175.915C190.422 176.055 188.599 175.925 186.82 175.472C185.037 175.057 183.338 174.199 181.838 173.104C180.319 172.045 179.123 170.497 178.279 168.856ZM392.68 19.073C389.841 19.1199 387.127 19.666 384.488 20.4398C381.863 21.2506 379.341 22.3326 376.919 23.6425L375.114 24.6643C374.508 24.9993 373.953 25.4382 373.37 25.7967C372.165 26.5002 371.093 27.4147 369.932 28.2121C369.346 28.594 368.829 29.0931 368.264 29.5354L366.599 30.8654C365.515 31.7967 364.459 32.7716 363.285 33.6627C364.075 32.4131 364.931 31.2104 365.819 30.0345C366.799 28.9491 367.734 27.7833 368.816 26.7849C370.934 24.738 373.313 22.9759 375.882 21.5487C378.472 20.1919 381.231 19.1199 384.105 18.6542C386.956 18.1685 389.943 18.1316 392.68 19.073ZM303.697 75.3915C306.615 74.3329 309.713 73.5959 312.856 73.559C314.435 73.415 315.998 73.6294 317.578 73.7265C318.367 73.8069 319.132 73.9878 319.909 74.1185C320.685 74.2357 321.453 74.4267 322.22 74.6411C323.752 75.0465 325.239 75.6059 326.705 76.1889L328.855 77.214C329.565 77.5691 330.241 77.9845 330.929 78.3798C333.643 80.0214 336.177 82.0448 338.207 84.5306C335.568 82.8053 332.889 81.3179 330.13 80.0348C327.367 78.7584 324.539 77.6897 321.643 76.9393C318.761 76.1285 315.808 75.6059 312.811 75.4049C309.827 75.1068 306.808 75.3078 303.697 75.3915ZM298.886 86.008C296.869 86.6613 294.998 87.6629 292.959 88.601C294.424 86.8757 296.172 85.3279 298.198 84.2927C299.168 83.6763 300.259 83.3547 301.309 82.9025C302.39 82.5909 303.481 82.2592 304.61 82.1286C306.84 81.7835 309.117 81.807 311.324 82.1989C313.522 82.5909 315.684 83.3045 317.578 84.5306C315.393 84.2458 313.274 84.0783 311.165 84.0448C309.06 84.008 306.986 84.1621 304.937 84.4837C303.9 84.5909 302.907 84.8757 301.883 85.08C300.881 85.3782 299.866 85.6261 298.886 86.008ZM388.23 217.989C386.201 221.081 383.746 223.868 380.975 226.26C378.146 228.555 375.162 230.685 371.87 232.116C370.294 232.97 368.559 233.446 366.9 234.079C365.201 234.592 363.466 234.96 361.741 235.292C363.32 234.448 364.941 233.794 366.498 232.984L368.806 231.744L369.954 231.138L371.071 230.448C371.813 229.985 372.545 229.533 373.3 229.104L375.431 227.603L376.5 226.866L377.527 226.056C378.203 225.509 378.901 224.997 379.544 224.414L381.491 222.675C382.135 222.082 382.709 221.426 383.34 220.819C384.568 219.57 385.716 218.236 386.822 216.856C389.017 214.082 391.024 211.121 392.667 207.848C391.903 211.499 390.247 214.903 388.23 217.989ZM345.168 123.807C343.547 123.261 341.879 122.795 340.1 122.39C341.844 121.807 343.728 121.75 345.551 121.998C347.388 122.259 349.202 122.869 350.847 123.867C351.682 124.343 352.424 124.973 353.156 125.606C353.495 125.951 353.809 126.33 354.136 126.688C354.475 127.033 354.745 127.449 355.005 127.867C356.131 129.462 356.717 131.402 356.978 133.281C355.839 131.747 354.891 130.259 353.654 129.057C352.481 127.807 351.161 126.772 349.731 125.928C348.301 125.07 346.779 124.367 345.168 123.807Z" fill="#89490B"/>
</g>
</svg>
