<svg xmlns="http://www.w3.org/2000/svg" xmlns:xlink="http://www.w3.org/1999/xlink" width="1080" zoomAndPan="magnify" viewBox="0 0 810 809.999993" height="1080" preserveAspectRatio="xMidYMid meet" version="1.0"><defs><clipPath id="2869fcbc88"><path d="M 156 124.394531 L 653.960938 124.394531 L 653.960938 685.390625 L 156 685.390625 Z M 156 124.394531 " clip-rule="nonzero"/></clipPath></defs><g clip-path="url(#2869fcbc88)"><path fill="#155940" d="M 286.773438 220.78125 C 286.773438 220.78125 200.410156 207.152344 189.71875 213.859375 C 179.019531 220.5625 174.257812 226.335938 174.257812 226.335938 L 187.996094 228.234375 C 187.996094 228.234375 172.679688 226.488281 167.207031 233.589844 C 161.746094 240.671875 159.929688 245.179688 159.929688 245.179688 C 159.929688 245.179688 208.929688 241.507812 266.605469 254.226562 C 324.277344 266.945312 393.269531 288.695312 415.175781 312.691406 C 415.175781 312.691406 344.464844 266.484375 258.890625 273.074219 C 173.308594 279.660156 156.015625 297.207031 156.015625 297.207031 C 156.015625 297.207031 325.003906 253.179688 450.410156 356.953125 L 459.789062 369.617188 C 459.789062 369.617188 378.757812 317.441406 337.40625 325.222656 C 296.070312 333 200.789062 361.914062 200.789062 361.914062 C 200.789062 361.914062 298.34375 332.273438 350.636719 346.148438 C 402.921875 360.027344 459.667969 381.59375 482.632812 403.980469 L 494.082031 422.4375 C 494.082031 422.4375 439.160156 381.886719 403.449219 385.265625 C 403.449219 385.265625 289.105469 403.414062 251.996094 424.601562 C 251.996094 424.601562 357.613281 405.738281 383.789062 409.105469 C 409.949219 412.476562 431.378906 409.832031 441.996094 414.835938 C 452.609375 419.839844 508.753906 445.246094 508.753906 445.246094 L 516.789062 463.535156 C 516.789062 463.535156 484.464844 441.351562 459.773438 441.269531 C 435.082031 441.203125 396.417969 464.917969 367.464844 477.949219 C 338.519531 490.980469 311.292969 506.183594 311.292969 506.183594 C 311.292969 506.183594 385.449219 480.320312 434.070312 472.851562 C 482.703125 465.363281 512.085938 466.445312 531.464844 493.660156 L 536.316406 507.535156 C 536.316406 507.535156 516.449219 494.382812 494.476562 498.621094 C 472.519531 502.855469 387.820312 536.179688 387.820312 536.179688 C 387.820312 536.179688 519.171875 501.054688 544.359375 523.839844 L 554.71875 553.855469 C 554.71875 553.855469 501.71875 557.558594 509.976562 559.714844 C 518.230469 561.863281 558.160156 562.476562 561.273438 569.183594 C 564.382812 575.890625 593.640625 685.597656 593.640625 685.597656 L 602.816406 685.144531 L 578.070312 597.082031 C 578.070312 597.082031 587.367188 589.378906 583.835938 580.257812 C 583.835938 580.257812 614.417969 547.898438 630.71875 507.378906 C 647.023438 466.851562 653.933594 405.078125 653.933594 405.078125 C 653.933594 405.078125 639.449219 443.960938 619.476562 474.230469 C 599.496094 504.511719 572.054688 548.40625 571.015625 562.109375 L 561.914062 556.378906 L 562.433594 545.253906 L 560.664062 536.484375 C 560.664062 536.484375 598.792969 489.546875 609.15625 451.074219 C 619.523438 412.605469 616.261719 375.675781 611.398438 362.304688 C 611.398438 362.304688 605.421875 382.265625 586.828125 420.15625 C 568.25 458.050781 549.527344 497.5 548.847656 521.546875 L 537.375 496.003906 C 537.375 496.003906 584.035156 442.097656 596.828125 378.160156 C 596.828125 378.160156 612.890625 329.78125 572.027344 307.710938 C 572.027344 307.710938 574.011719 318.164062 568.839844 330.332031 C 563.671875 342.5 548.28125 380.113281 538.644531 416.078125 C 529.019531 452.046875 525.960938 473.308594 525.960938 473.308594 L 514.335938 448.402344 C 514.335938 448.402344 548.109375 388.144531 556.136719 353.28125 C 564.152344 318.417969 568.777344 292.539062 561.273438 276.839844 C 553.761719 261.140625 536.441406 246.246094 536.441406 246.246094 C 536.441406 246.246094 538.011719 259.628906 527.394531 286.832031 C 516.769531 314.046875 508.316406 345.851562 505.066406 372.1875 C 501.8125 398.535156 499.128906 422.976562 499.128906 422.976562 L 487.699219 403.683594 C 487.699219 403.683594 511.113281 356.382812 511.449219 310.984375 C 511.773438 265.589844 514.527344 251.507812 506.703125 237.195312 C 498.882812 222.882812 464.507812 202.332031 464.507812 202.332031 C 464.507812 202.332031 473.210938 212.148438 466.847656 257.558594 C 460.488281 302.972656 463.003906 364.503906 468.277344 373.324219 L 453.457031 355.148438 C 453.457031 355.148438 461.902344 311.976562 459.9375 266.898438 C 457.972656 221.832031 452.285156 218.78125 441.941406 205.074219 C 431.605469 191.382812 392.191406 126.402344 392.191406 126.402344 C 392.191406 126.402344 402.277344 148.734375 401.886719 165.773438 C 401.488281 182.804688 402.730469 199.996094 408.503906 230.828125 C 414.269531 261.671875 415.632812 310.324219 423.21875 317.925781 C 423.21875 317.925781 411.800781 306.648438 407.378906 301.679688 L 405.722656 297.496094 C 405.722656 297.496094 397.191406 233.46875 388.0625 198.335938 C 378.96875 163.234375 331.769531 131.558594 317.628906 124.375 C 317.628906 124.375 327.488281 135.289062 333.457031 159.121094 C 339.433594 182.964844 346.707031 209.519531 354.898438 226.796875 C 363.097656 244.0625 369.179688 266.953125 369.179688 266.953125 L 358.410156 258.96875 C 358.410156 258.96875 348.21875 215.027344 339.09375 190.296875 C 329.984375 165.5625 307.832031 141.570312 302.113281 138.144531 C 296.402344 134.722656 291.53125 136.78125 291.53125 136.78125 L 284.972656 134.269531 C 284.972656 134.269531 302.863281 165.21875 308.949219 185.542969 C 315.035156 205.878906 327.699219 233.351562 329.1875 236.035156 C 330.660156 238.722656 330.28125 239.828125 330.28125 239.828125 L 323.691406 236.652344 C 323.691406 236.652344 311.578125 194.464844 299.71875 184.945312 C 287.871094 175.425781 263.707031 175.628906 259.851562 181.695312 C 256.007812 187.757812 289.265625 218.363281 289.265625 218.363281 Z M 286.773438 220.78125 " fill-opacity="1" fill-rule="evenodd"/></g></svg>