<svg xmlns="http://www.w3.org/2000/svg" xmlns:xlink="http://www.w3.org/1999/xlink" width="1080" zoomAndPan="magnify" viewBox="0 0 810 809.999993" height="1080" preserveAspectRatio="xMidYMid meet" version="1.0"><path fill="#568d33" d="M 156.292969 404.03125 C 156.292969 427.101562 160.042969 445.902344 168.640625 467.332031 C 171.726562 475 175.777344 486.914062 183.09375 491.742188 C 192.261719 497.792969 206.261719 495.886719 216.574219 495.886719 C 241.535156 495.886719 267.246094 497.777344 291.980469 493.9375 C 314.035156 490.527344 334.160156 481.265625 355.824219 477.222656 C 362.445312 475.980469 373.945312 475.648438 375.976562 483.972656 C 379.054688 496.644531 352.976562 500.714844 345.347656 502.199219 C 309.773438 509.101562 272.980469 506.710938 236.929688 506.710938 C 227.308594 506.710938 217.898438 505.523438 208.304688 505.085938 C 206.367188 504.996094 200.136719 504.175781 199.140625 506.597656 C 195.390625 515.738281 205.410156 529.625 209.042969 537.277344 C 218.128906 556.4375 229.121094 574.207031 244.136719 589.207031 C 252.105469 597.144531 261.910156 603.515625 273.636719 602.894531 C 282.867188 602.402344 289.125 597.21875 297.058594 593.070312 C 314.613281 583.863281 330.722656 571.636719 348.433594 562.898438 C 354.441406 559.941406 360.144531 556.566406 366.078125 553.488281 C 367.59375 552.699219 371.222656 551.121094 372.347656 553.382812 C 376.433594 561.695312 366.042969 571.480469 360.480469 575.941406 C 343.417969 589.671875 321.921875 596.84375 300.992188 602.378906 C 293.777344 604.292969 272.851562 607.949219 282.355469 619.132812 C 292.386719 630.949219 316.226562 635.253906 330.246094 640.421875 C 339.945312 643.988281 349.609375 647.261719 359.710938 649.523438 C 395.027344 657.476562 438.785156 661.375 472.667969 647.222656 C 482.070312 643.296875 495.371094 637.425781 502.0625 629.410156 C 507.597656 622.804688 510.398438 612.992188 513.039062 604.976562 C 520.5625 582.175781 518.222656 559.925781 509.382812 537.933594 C 505.828125 529.117188 502.117188 520.519531 498.222656 511.859375 C 496.789062 508.667969 494.140625 503.71875 495.792969 500.160156 C 507.660156 491.253906 519.421875 503.046875 531.125 510.65625 C 549.691406 522.730469 577.816406 541.757812 601.230469 536.742188 C 625.742188 531.480469 634.402344 505.109375 642.140625 484.488281 C 652.382812 457.214844 656.816406 427.816406 650.597656 398.84375 C 646.574219 380.0625 638.152344 362.199219 631.183594 344.371094 C 627.535156 335.039062 623.632812 325.792969 620.171875 316.394531 C 618.992188 313.199219 618.089844 306.476562 615.734375 303.945312 C 615.554688 303.753906 614.714844 307.847656 614.660156 308.199219 C 614.25 310.910156 613.882812 313.628906 613.355469 316.332031 C 611.84375 324.125 608.511719 331.183594 604.96875 338.230469 C 592.777344 362.492188 577.359375 384.363281 558.042969 403.515625 C 552.792969 408.726562 547.738281 413.257812 540.410156 414.953125 C 538.730469 415.355469 535.136719 416.773438 533.703125 415.214844 C 531.464844 412.757812 535.886719 406.207031 537.101562 404.28125 C 543.136719 394.675781 550.960938 386.308594 557.253906 376.863281 C 577.097656 347.050781 603.789062 309.425781 587.09375 273.210938 C 584.984375 266.878906 579.738281 260.242188 576.324219 254.503906 C 565.453125 236.175781 551.503906 216.617188 534.054688 203.984375 C 526.238281 198.332031 516.347656 197.160156 508.679688 191.535156 C 497.46875 183.289062 493.785156 166.042969 482.5625 157.136719 C 464.375 142.683594 441 142.175781 419.816406 136.125 C 407.867188 132.714844 398.125 126.847656 385.234375 125.914062 C 360.710938 124.128906 336.976562 132.429688 312.855469 135.105469 C 289.445312 137.71875 265.191406 133.773438 242.96875 126.148438 C 230.933594 161.761719 211.15625 191.519531 191.363281 223.011719 C 187.550781 229.074219 187.785156 234.699219 187.785156 241.628906 C 187.785156 242.625 188.78125 248.496094 188.082031 248.984375 C 187.449219 249.414062 185.367188 246.710938 185.082031 246.386719 C 183.753906 244.925781 177.324219 236.113281 175.164062 238.980469 C 173.433594 241.296875 173.949219 245.558594 173.703125 248.261719 C 173.03125 255.527344 172.917969 262.972656 171.921875 270.1875 C 167.941406 298.855469 153.214844 327.398438 169.410156 355.0625 C 177.167969 368.339844 193.972656 376.226562 207.792969 381.421875 C 235.652344 391.90625 263.628906 397.621094 292.546875 404.765625 C 304.066406 407.609375 315.496094 410.894531 327.152344 413.117188 C 332 414.035156 336.925781 414.746094 341.75 415.832031 C 342.238281 415.945312 345.898438 416.503906 345.652344 417.394531 C 344.925781 420.054688 336.433594 420.445312 334.546875 420.578125 C 322.949219 421.339844 311.273438 421.277344 299.65625 421.277344 C 266.371094 421.277344 239.328125 410.730469 209.671875 396.222656 C 199.34375 391.167969 189.441406 385.234375 178.957031 380.476562 C 175.066406 378.710938 169.742188 375.886719 165.320312 376.898438 C 154.703125 379.324219 156.1875 395.742188 156.292969 404.03125 Z M 388.085938 418.898438 C 384.519531 414.332031 393.710938 411.308594 397.953125 411.296875 C 401.363281 411.269531 404.828125 411.332031 408.230469 411.648438 C 413.152344 412.101562 424.039062 418.78125 417.160156 424.265625 C 414.378906 426.476562 410.679688 425.988281 407.398438 425.761719 C 400.496094 425.28125 392.679688 424.804688 388.085938 418.898438 Z M 475.230469 381.457031 C 473.753906 381.457031 472.308594 382.089844 470.953125 382.613281 C 467.058594 384.097656 461.515625 386.929688 459.523438 390.824219 C 457.648438 394.480469 457.53125 399.210938 457.335938 403.222656 C 457.144531 407.113281 456.855469 412 459.988281 414.933594 C 464.410156 419.082031 470.832031 411.625 473.148438 408.574219 C 474.96875 406.160156 476.550781 403.484375 477.6875 400.660156 C 479.34375 396.519531 478.542969 385.804688 475.230469 381.457031 Z M 513.054688 203.941406 C 513.054688 228.851562 514.953125 254.046875 513.414062 278.945312 C 512.214844 298.449219 507.492188 318.414062 504.519531 337.777344 C 503.058594 347.34375 498.597656 358.449219 491.347656 365.039062 C 487.082031 368.914062 482.351562 372.585938 478.378906 366.289062 C 470.664062 353.992188 484.714844 332.511719 489.1875 321.160156 C 497.679688 299.585938 502.195312 277.949219 506.121094 255.167969 C 508.144531 243.445312 513.054688 215.886719 513.054688 203.941406 Z M 419.65625 337.335938 C 425.886719 335.320312 427.75 344.980469 427.878906 347.613281 C 427.96875 349.589844 427.722656 351.59375 427.222656 353.519531 C 426.898438 354.71875 426.496094 355.886719 425.96875 357.007812 C 424.816406 359.503906 420.660156 362.414062 418.5625 358.871094 C 416.027344 354.59375 416.445312 347.984375 416.664062 343.191406 C 416.761719 340.878906 417.136719 338.152344 419.65625 337.335938 Z M 222.207031 280.550781 C 223.101562 282.089844 225.542969 283.5 226.875 284.625 C 230.304688 287.484375 233.628906 290.457031 236.90625 293.492188 C 244.070312 300.113281 251.207031 307.3125 259.429688 312.636719 C 269.316406 319.0625 281.933594 323.121094 293.476562 325.019531 C 300.945312 326.246094 308.546875 327.085938 316.101562 327.75 C 317.277344 327.855469 322.292969 328.886719 322.589844 326.796875 C 322.851562 324.894531 319.949219 322.839844 318.722656 321.949219 C 313.800781 318.328125 307.992188 315.992188 302.464844 313.46875 C 293.132812 309.199219 283.371094 305.957031 274.011719 301.78125 C 260.785156 295.867188 234.992188 287.320312 222.207031 280.550781 Z M 426.636719 189.824219 C 429.148438 199.847656 429.988281 210.121094 430.957031 220.375 C 432.6875 238.484375 433.816406 257.902344 431.113281 275.96875 C 430.789062 278.078125 430.351562 280.171875 429.863281 282.242188 C 429.511719 283.753906 429.101562 285.265625 428.683594 286.761719 C 426.976562 292.851562 423.792969 308.480469 414.996094 301.515625 C 413.972656 300.703125 413.132812 299.695312 412.527344 298.53125 C 407.148438 288.125 415.214844 273.386719 418.578125 263.644531 C 424.695312 245.839844 429.261719 208.699219 426.636719 189.824219 Z M 426.636719 189.824219 " fill-opacity="1" fill-rule="evenodd"/><path fill="#155940" d="M 490.820312 483.335938 C 505.855469 501.152344 517.335938 520.578125 530.832031 539.414062 C 541.160156 553.84375 611.203125 663.050781 613.722656 677.902344 C 614.070312 679.957031 602.039062 685.878906 599.824219 681.09375 C 592.15625 664.574219 577.175781 640.488281 567.972656 624.796875 C 553.199219 599.578125 538.617188 574.1875 523.414062 549.226562 C 512.75 531.734375 499.023438 515.242188 490.128906 496.585938 C 488.625 493.429688 492.011719 486.617188 490.820312 483.335938 Z M 490.820312 483.335938 " fill-opacity="1" fill-rule="evenodd"/><path fill="#155940" d="M 437.289062 403.757812 C 438.09375 400.453125 439.136719 397.140625 439.785156 394.113281 C 443.027344 379.144531 448.058594 364.640625 451.132812 349.660156 C 458.644531 313.039062 461.847656 239.078125 462.574219 239.078125 C 463.300781 239.078125 461.242188 313.382812 453.695312 350.1875 C 450.617188 365.167969 445.589844 379.683594 442.34375 394.667969 C 441.558594 398.296875 440.148438 402.382812 439.371094 406.324219 C 439.863281 406.921875 440.300781 407.402344 440.664062 407.785156 C 445.808594 413.148438 461.515625 432.964844 474.210938 450.5 C 476.109375 445.777344 478.96875 441.113281 480.894531 436.863281 C 487.847656 421.515625 494.933594 406.578125 503.570312 392.085938 C 516.070312 371.09375 526.992188 348.804688 536.261719 326.210938 C 543.242188 309.226562 551.285156 273.160156 552.007812 273.210938 C 552.714844 273.261719 545.761719 309.949219 538.679688 327.207031 C 529.355469 349.917969 518.378906 372.324219 505.804688 393.429688 C 497.234375 407.832031 490.183594 422.683594 483.273438 437.9375 C 481.15625 442.632812 477.804688 447.828125 476.03125 453.023438 C 479.484375 457.859375 482.664062 462.433594 485.25 466.414062 C 486.363281 465.933594 487.550781 465.496094 488.6875 465.09375 C 489.230469 464.886719 489.789062 464.695312 490.355469 464.535156 C 491.816406 464.074219 493.042969 463.707031 493.652344 463.53125 C 507.9375 459.304688 523.75 459.832031 538.292969 455.941406 C 572.226562 446.859375 615.4375 388.515625 616.113281 388.796875 C 616.769531 389.085938 573.671875 449.167969 538.976562 458.464844 C 525.59375 462.042969 511.171875 461.875 497.84375 465.121094 C 499.523438 465.636719 501.164062 466.257812 502.585938 466.695312 C 510.882812 469.242188 518.964844 472.476562 527.03125 475.644531 C 546.769531 483.410156 567.296875 491.128906 588.746094 491.621094 C 595.671875 491.777344 605.5 491.542969 613.757812 488.882812 C 619.046875 487.1875 627.550781 479.367188 628.160156 479.757812 C 628.78125 480.132812 620.472656 489.464844 614.5625 491.382812 C 606.019531 494.121094 595.855469 494.40625 588.683594 494.238281 C 566.925781 493.734375 546.101562 485.964844 526.074219 478.078125 C 518.074219 474.921875 510.042969 471.730469 501.824219 469.199219 C 500.300781 468.734375 498.527344 468.027344 496.730469 467.480469 C 495.113281 467 493.472656 466.648438 492.011719 466.875 C 491.703125 466.910156 491.40625 466.976562 491.109375 467.054688 C 490.488281 467.25 489.816406 467.46875 489.140625 467.714844 C 488.355469 468.039062 487.578125 468.4375 486.816406 468.878906 C 488.3125 471.238281 489.527344 473.320312 490.410156 475.03125 C 493.382812 480.796875 501.035156 496.59375 500.929688 496.46875 C 500.894531 496.414062 494.652344 502.363281 492.167969 503.265625 C 492.308594 503.226562 480.351562 489.226562 475.480469 483.175781 C 475.3125 482.957031 475.128906 482.738281 474.949219 482.519531 C 473.269531 494.089844 467.460938 505.617188 463.585938 516.21875 C 444.878906 567.378906 346.53125 622.152344 346.414062 621.445312 C 346.296875 620.734375 442.734375 565.621094 461.128906 515.324219 C 465.238281 504.113281 471.625 491.859375 472.65625 479.632812 C 471.234375 477.824219 469.839844 476.003906 468.441406 474.175781 C 443.273438 493.164062 414.429688 505.863281 385.996094 519.035156 C 367.378906 527.667969 349.21875 539.550781 329.386719 545.210938 C 313.992188 549.617188 298.113281 549.371094 282.238281 549.164062 C 269.261719 548.996094 242.71875 541.859375 243.007812 541.199219 C 243.304688 540.542969 269.636719 546.382812 282.28125 546.550781 C 297.898438 546.742188 313.527344 547.03125 328.675781 542.699219 C 348.363281 537.066406 366.398438 525.234375 384.894531 516.664062 C 413.179688 503.554688 441.855469 490.964844 466.878906 472.078125 C 460.597656 463.675781 454.6875 455 449.351562 445.957031 C 438.515625 445.179688 427.011719 446.339844 416.527344 446.5625 C 387.84375 447.15625 359.699219 448.589844 331.300781 452.726562 C 312.246094 455.507812 294.238281 459.941406 274.742188 459.050781 C 258.285156 458.289062 240.964844 455.597656 225.734375 449.042969 C 223.390625 448.046875 219.402344 446.507812 216.117188 444.558594 C 213.726562 443.125 210.753906 438.171875 211.394531 437.847656 C 212.042969 437.527344 215.542969 441.171875 217.445312 442.308594 C 220.628906 444.207031 224.503906 445.667969 226.75 446.640625 C 241.695312 453.078125 258.707031 455.691406 274.867188 456.4375 C 294.179688 457.328125 312.035156 452.894531 330.921875 450.140625 C 359.4375 445.988281 387.671875 444.542969 416.472656 443.933594 C 426.464844 443.722656 437.375 442.707031 447.78125 443.25 C 447.097656 442.046875 446.425781 440.84375 445.75 439.628906 C 443.382812 435.308594 423.789062 404.027344 401.734375 369.015625 C 383.648438 369.742188 365.449219 369.210938 347.351562 369.210938 C 323.203125 369.210938 274.972656 363.121094 275.140625 362.425781 C 275.296875 361.714844 323.398438 366.597656 347.351562 366.597656 C 364.921875 366.597656 382.5625 367.101562 400.132812 366.457031 C 380.71875 335.636719 360.71875 304.019531 347.984375 283.90625 C 347.992188 284.085938 308.09375 272.421875 308.402344 271.78125 C 308.707031 271.125 334.296875 277.238281 346.058594 281.167969 C 346.148438 281.191406 346.242188 281.230469 346.320312 281.28125 C 339.484375 270.46875 282.566406 190.410156 283.707031 189.632812 C 284.816406 188.871094 356.214844 285.355469 374.765625 313.113281 C 375.824219 307.304688 378.4375 301.105469 379.804688 295.8125 C 382.429688 285.695312 386.214844 263.578125 386.925781 263.675781 C 387.632812 263.765625 384.972656 286.246094 382.332031 296.472656 C 380.757812 302.558594 377.394531 309.914062 376.972656 316.402344 C 399.75 350.429688 426.550781 389.976562 437.289062 403.757812 Z M 437.289062 403.757812 " fill-opacity="1" fill-rule="evenodd"/></svg>