<svg xmlns="http://www.w3.org/2000/svg" xmlns:xlink="http://www.w3.org/1999/xlink" width="1080" zoomAndPan="magnify" viewBox="0 0 810 809.999993" height="1080" preserveAspectRatio="xMidYMid meet" version="1.0"><defs><clipPath id="c1f8fed0f1"><path d="M 144.597656 98.640625 L 665.097656 98.640625 L 665.097656 711.390625 L 144.597656 711.390625 Z M 144.597656 98.640625 " clip-rule="nonzero"/></clipPath></defs><g clip-path="url(#c1f8fed0f1)"><path fill="#2d873d" d="M 413.398438 450.746094 C 413.398438 450.746094 279.722656 540.210938 226.621094 540.726562 C 226.621094 540.726562 328.960938 501.734375 392.179688 456.449219 C 392.179688 456.449219 237.035156 466.898438 178.285156 450.371094 C 178.285156 450.371094 360.851562 452.394531 381.640625 447.621094 C 381.640625 447.621094 195.09375 394.402344 144.613281 358.359375 C 144.613281 358.359375 335.289062 432.035156 366.074219 432.667969 C 366.074219 432.667969 191.027344 324.382812 158.765625 276.203125 C 158.765625 276.203125 346.664062 398.804688 375.039062 421.734375 C 375.039062 421.734375 211.996094 257.992188 190 205.621094 C 190 205.621094 355.78125 381.222656 378.785156 406.230469 C 378.785156 406.230469 251.871094 206.585938 244.726562 154.351562 C 244.726562 154.351562 373.242188 364.855469 379.382812 381.925781 C 379.382812 381.925781 294.800781 170.148438 293.105469 122.324219 C 293.105469 122.324219 373.101562 310.875 388.785156 359.171875 C 388.785156 359.171875 344.054688 151.308594 348.503906 98.746094 C 348.503906 98.746094 399.402344 283.074219 403.402344 357.421875 C 403.402344 357.421875 389.609375 144.691406 400.074219 101.453125 C 400.074219 101.453125 423.75 286.859375 418.914062 327.785156 C 418.914062 327.785156 431.199219 133.628906 448.152344 105.78125 C 448.152344 105.78125 442.832031 292.972656 427.742188 374.792969 C 427.742188 374.792969 490.222656 135.449219 504.039062 119.488281 C 504.039062 119.488281 453.667969 355.347656 437.0625 392.089844 C 437.0625 392.089844 538.363281 157.914062 558.152344 147.980469 C 558.152344 147.980469 483.421875 341.324219 439.371094 410.191406 C 439.371094 410.191406 589.523438 202.285156 609.800781 189.59375 C 609.800781 189.59375 512.800781 352.984375 448.640625 417.96875 C 448.640625 417.96875 612.175781 260.9375 647.089844 244.183594 C 647.089844 244.183594 496.421875 406.292969 445.828125 434.121094 C 445.828125 434.121094 625.023438 351.554688 665.421875 342.625 C 665.421875 342.625 521.242188 431.980469 440.28125 445.183594 C 440.28125 445.183594 638.589844 418.160156 649.941406 426.066406 C 649.941406 426.066406 511.785156 465.816406 435.867188 453.972656 C 435.867188 453.972656 590.929688 487.183594 582.207031 489.78125 C 573.488281 492.390625 425.269531 464.265625 419.730469 452.410156 C 419.730469 452.410156 417.550781 640.90625 431.980469 711.277344 L 421.101562 710.78125 C 421.101562 710.773438 403.859375 527.292969 413.398438 450.746094 Z M 413.398438 450.746094 " fill-opacity="1" fill-rule="evenodd"/></g></svg>