<svg width="73" height="130" viewBox="0 0 73 130" fill="none" xmlns="http://www.w3.org/2000/svg">
<path d="M68.3096 69.9678C68.3096 69.9678 68.4535 69.3079 68.7662 68.572C69.0781 67.8361 69.3416 64.7916 68.2377 63.3463C67.6373 62.5343 66.4137 59.1599 65.3575 55.8111C64.4929 53.0453 63.7009 50.3059 63.4132 48.9606C62.7886 45.9673 62.1405 36.7073 59.9319 33.4338C57.2198 29.4508 53.9073 28.4619 53.9073 28.4619L52.7308 25.5696C52.7065 25.5944 52.6831 25.5944 52.6588 25.62C52.6111 24.7832 52.5869 23.8952 52.6111 23.1849C53.787 22.3729 54.747 21.1806 55.2997 19.8105L55.3951 20.9267C55.4436 21.3327 55.6594 21.7131 55.9955 21.9413L56.3559 22.1695C56.6679 22.3729 57.0517 22.2968 57.2675 21.9669L57.4841 21.637C57.7241 21.2815 57.7718 20.825 57.6521 20.3934L57.1714 18.872C57.1479 18.7951 57.1237 18.7447 57.0994 18.6942C58.0595 17.9327 58.7561 16.9438 58.036 15.954C57.7718 15.5985 57.4841 15.3959 57.1714 15.3198C57.3879 14.1275 57.5318 12.6813 57.2675 11.2856L59.788 9.58636C60.0523 9.40859 60.2204 9.1043 60.2446 8.79921L60.4361 6.38972L58.2041 6.08463C57.8679 6.03418 57.5318 6.1607 57.2917 6.41454L55.7071 8.11456C55.467 7.88634 55.2036 7.65812 54.9151 7.45473L56.3317 5.14613C56.4998 4.86747 56.5475 4.53755 56.4279 4.23326L55.6594 1.94949L53.5227 2.65977C53.1873 2.76147 52.9473 3.01531 52.8269 3.37004L51.8184 6.23677C51.483 6.1607 51.1468 6.11025 50.8107 6.08463L51.0984 3.14183C51.1226 2.78709 51.0022 2.43155 50.7622 2.17771L49.154 0.427246L47.5216 2.12726C47.3059 2.35548 47.1862 2.68539 47.2339 3.01531L47.5943 6.18632C47.3059 6.26239 47.0182 6.33847 46.7539 6.41454L45.7454 3.52219C45.6258 3.19308 45.3615 2.91361 45.0496 2.81191L42.913 2.10164L42.1452 4.38541C42.0491 4.6897 42.0733 5.04444 42.2414 5.29828L43.873 7.98804C43.633 8.19063 43.393 8.39402 43.1772 8.59661L41.2806 6.54186C41.0406 6.28802 40.7044 6.1607 40.369 6.21195L38.1362 6.49061L38.3285 8.9009C38.352 9.23082 38.52 9.51028 38.7843 9.71288L41.2571 11.4129C40.8967 12.377 40.7771 13.442 40.7771 14.4318C40.1047 14.2035 39.1924 14.1779 38.6404 15.1677C38.04 16.2583 38.8804 17.1463 39.9366 17.7805C39.8163 17.8822 39.7209 18.0344 39.6724 18.2122L39.3362 19.8105C39.2408 20.2165 39.3605 20.6473 39.6005 20.9772L39.8647 21.3071C40.1047 21.6114 40.5128 21.637 40.8005 21.4088L41.1125 21.155C41.4486 20.8755 41.641 20.4703 41.641 20.0387V18.5925C41.6887 18.6181 41.7129 18.6181 41.7606 18.643C42.361 21.1293 44.0895 23.1088 46.3216 23.9456C46.37 23.9712 46.4177 23.9961 46.4654 24.0217C46.4177 24.5542 46.3458 25.0875 46.2254 25.5439L44.2334 28.5124C44.2334 28.5124 38.6881 32.2167 37.7523 34.9561C36.8157 37.6963 36.9119 48.3776 36.6719 51.2187C36.4319 54.0606 35.4241 61.1898 34.7275 62.7881C34.7275 62.7881 35.3999 63.219 36.4076 63.5489C36.3122 64.7916 36.1676 66.5429 36.0238 67.6592C35.7595 69.5362 36.288 71.7439 36.5522 73.1388C36.7203 74.0012 37.2003 74.8132 37.5123 75.2704C36.5522 85.4689 35.6399 97.0631 35.6399 97.0631C36.0238 97.5196 36.8642 98.0016 37.6804 98.4076C37.7765 102.898 38.0885 109.774 39.0485 110.611C40.3205 111.727 43.2491 112.184 43.9215 112.26C43.9215 112.286 43.9215 112.31 43.9215 112.362C43.9215 112.438 43.9934 112.488 44.0653 112.488V114.239C43.7776 114.493 43.4172 114.721 43.0091 114.975C42.2414 115.482 41.329 116.015 40.4644 116.725C38.6162 118.273 35.4476 121.241 36.8157 122.104C38.1604 122.966 48.3144 119.44 49.2502 118.527C49.706 118.07 49.6825 117.029 49.5387 116.116C50.0187 116.167 50.5222 116.218 51.003 116.243C51.003 117.258 51.0984 118.781 51.483 119.541C52.0826 120.708 58.5403 127.229 60.5565 126.138C62.1889 125.25 58.516 120.683 56.6913 117.334C56.4279 116.877 56.2113 116.421 56.0675 116.015C58.828 115.609 60.9162 114.772 60.9646 113.833C61.1327 111.55 61.9966 96.505 61.9966 96.505V96.4794L61.9724 96.8093C65.3091 93.9169 70.5659 88.4373 72.2467 84.8091C72.3187 84.6313 72.3906 84.4031 72.4148 84.1749C72.8706 80.5218 68.3096 69.9678 68.3096 69.9678ZM57.3394 44.1913C57.244 47.3879 58.3237 53.6795 59.5003 57.8915C58.7561 57.1556 58.2518 56.547 58.2518 56.547C57.5318 55.5829 55.8517 50.9401 55.8517 50.9401C55.8274 50.8384 55.8274 50.6862 55.8274 50.5341C55.8517 49.8743 56.0432 48.8084 56.2832 47.6674C56.7633 45.4853 57.4356 43.075 57.4356 43.075C57.3879 43.3793 57.3637 43.7596 57.3394 44.1913Z" fill="#FBB040"/>
<path d="M32.4236 36.1236C32.3032 35.1851 32.1109 34.3979 31.8232 33.7893C29.8789 29.5021 22.9178 26.3054 22.9178 26.3054L22.0054 23.5909C22.0054 23.5909 21.9093 23.6413 21.7412 23.7174C21.5973 22.9054 21.4769 21.8396 21.4535 20.5207C21.4535 20.5207 21.4535 20.5207 21.4769 20.5207C23.3016 19.7592 24.7417 18.237 25.486 16.36C26.758 15.7001 29.3504 14.0762 28.1746 12.4531C27.8861 12.0727 27.5742 11.8693 27.2622 11.7932C27.2864 11.565 27.2864 11.2095 27.2864 10.753C27.2864 9.07865 26.998 6.13585 25.2702 4.0803C24.9582 3.69993 24.5736 3.3452 24.1655 3.04011C23.6136 2.63492 22.9655 2.30501 22.1735 2.10161C19.341 1.26482 17.0128 1.49304 15.1639 2.17769C14.3477 2.48198 13.6277 2.86314 13.0038 3.29395C12.0438 3.95378 11.3237 4.68968 10.8672 5.32388C9.7148 6.9222 10.0033 9.96669 10.1471 11.0325C9.6194 11.0069 9.04322 11.2095 8.68282 11.9198C7.91508 13.3659 9.59517 14.4317 10.9875 15.0155C11.4918 16.1566 12.4753 17.8822 14.3243 19.3788C14.3477 19.4045 14.372 19.4301 14.3962 19.4549C14.4923 19.531 14.5643 19.5822 14.6604 19.6583C14.7323 20.4951 14.7323 21.5865 14.5877 22.6516C14.3 22.5507 14.1319 22.4738 14.1319 22.4738L13.3157 24.9858C13.3157 24.9858 7.7947 27.8525 4.79416 30.7953C4.33837 31.2525 3.90604 31.8355 3.52217 32.5466C1.33783 36.5296 0.185466 44.0391 0.305094 49.5948C0.473178 56.6991 1.96171 67.5318 2.27365 71.6926C2.27365 71.7943 2.29788 71.9208 2.29788 72.0225C2.39404 73.2661 2.39404 74.8388 2.58559 76.3098C1.98594 82.9321 1.07359 93.334 1.50591 94.0947C1.674 94.399 2.44174 95.0332 3.56987 95.7443L3.1383 115.863C3.1383 115.863 3.88181 117.131 5.44227 118.146C5.32264 119.287 5.20226 120.759 5.15456 121.672C5.08263 123.322 12.0672 129.943 14.06 129.106C16.052 128.269 12.1876 121.47 11.6591 119.339C11.6357 119.287 11.6357 119.237 11.6114 119.187C14.06 118.781 14.06 117.715 14.06 117.715L15.7643 99.5495C15.9566 99.5239 16.124 99.499 16.3163 99.4734C16.3882 99.4734 16.4601 99.4478 16.5563 99.4478L16.7486 116.573C16.7486 116.573 17.5163 117.283 18.8368 117.791C18.621 119.516 18.3568 121.799 18.5248 122.104C18.7891 122.611 29.7827 124.286 31.5347 123.068C33.3117 121.85 30.1431 120.226 28.5827 119.415C27.7422 118.958 26.446 118.273 25.414 117.563C26.4945 117.081 27.0941 116.573 27.0941 116.573C27.0941 116.573 28.775 103.862 28.775 94.1964C29.1823 94.0443 29.4708 93.8665 29.5669 93.7143C29.6146 93.6383 29.6389 93.41 29.6389 93.0801C29.6866 90.9998 29.1823 84.3783 28.7265 78.6696C29.1346 78.2636 29.9266 77.4268 30.5028 76.6653C31.247 75.6756 31.9671 73.0371 31.6074 69.9421C31.5832 69.7139 31.559 69.4857 31.5113 69.2575C30.9351 65.8574 31.7513 54.5171 31.9671 51.0922C32.1109 48.1999 33.0233 40.6391 32.4236 36.1236Z" fill="#FBB040"/>
<path d="M14.8277 99.6253C15.1404 99.5997 15.4524 99.5749 15.7643 99.5236L14.06 117.689C14.06 117.689 14.06 118.755 11.6114 119.161C11.0837 119.262 10.4114 119.313 9.6194 119.313C7.84315 119.338 6.47425 118.78 5.44227 118.12C3.88181 117.106 3.1383 115.837 3.1383 115.837L3.56987 95.7184C6.40232 97.5193 11.4433 99.9296 14.8277 99.6253ZM24.1898 95.1603C24.1898 95.2107 24.1655 95.2363 24.1421 95.2363L24.2859 97.9005C24.2859 97.9005 22.8935 98.2808 20.853 98.7116C20.2049 98.839 19.4849 98.9911 18.7164 99.1176C18.3568 99.1689 17.9729 99.2449 17.5883 99.2954C17.2529 99.3466 16.8925 99.3971 16.5563 99.4475L16.7486 116.573C16.7486 116.573 17.5163 117.283 18.8368 117.791C19.6772 118.12 20.7334 118.374 21.9577 118.323C23.3736 118.273 24.5501 117.917 25.414 117.537C26.4945 117.055 27.0941 116.547 27.0941 116.547C27.0941 116.547 28.775 103.837 28.775 94.1705C28.0307 94.45 26.926 94.7038 25.9902 94.8808C25.1256 95.0329 24.4055 95.1346 24.1898 95.1603ZM57.1237 96.4543C57.1237 96.5304 57.076 96.5552 57.0276 96.5808V99.5492C57.0276 99.5492 51.5065 105.156 47.8344 104.268C46.8259 104.014 45.7455 103.634 44.6892 103.202C44.7135 104.648 44.6415 106.12 44.5454 107.566C44.4492 109.139 44.4735 110.915 44.0411 112.437C44.0177 112.514 43.9692 112.539 43.9215 112.539V114.442C45.0739 115.228 46.6336 115.736 48.3379 116.04C48.6983 116.091 49.0345 116.142 49.3941 116.192C49.8741 116.243 50.3784 116.294 50.8584 116.319C51.1469 116.344 51.4104 116.344 51.6988 116.344C53.1631 116.37 54.6032 116.268 55.8994 116.066C58.66 115.66 60.7481 114.822 60.7966 113.884C60.9647 111.6 61.8286 96.5552 61.8286 96.5552V96.5304L62.0444 93.2825C61.9724 93.4603 61.9005 93.638 61.8043 93.8158C60.7247 95.5911 57.6999 96.327 57.1237 96.4543ZM61.0124 87.7772C60.9647 88.9448 61.9724 90.4414 62.189 91.9124L62.6205 85.7481C61.8043 86.3063 61.0608 87.0414 61.0124 87.7772ZM44.2092 107.313C44.3296 105.917 44.4015 104.522 44.5212 103.126C41.8333 101.985 39.4567 100.589 39.4567 100.589L39.6005 99.3971C39.5763 99.3971 39.5528 99.3715 39.5528 99.321V99.2954C39.3128 99.1937 38.4482 98.8646 37.56 98.433C37.6562 102.924 37.9681 109.799 38.9282 110.636C40.2009 111.752 43.1295 112.209 43.8011 112.285C43.7292 110.661 44.0896 108.937 44.2092 107.313ZM47.2098 2.98943C47.1863 2.65951 47.2817 2.3296 47.4982 2.10138L49.1306 0.401367L50.7622 2.02531C51.003 2.27915 51.1226 2.63469 51.0984 2.98943L50.8107 5.93223C49.6826 5.80571 48.5779 5.88178 47.5459 6.13562L47.2098 2.98943ZM48.2425 3.24327C48.2425 3.77578 48.6498 4.23301 49.1783 4.23301C49.6826 4.23301 50.1141 3.8014 50.1141 3.24327C50.1141 2.71076 49.706 2.25353 49.1783 2.25353C48.6498 2.27915 48.2425 2.71076 48.2425 3.24327ZM42.193 5.29802C42.0249 5.01936 42.0007 4.68944 42.0968 4.38516L42.8653 2.10138L45.0012 2.81166C45.3139 2.91336 45.5774 3.19282 45.6978 3.52193L46.7055 6.41428C45.6493 6.76982 44.6658 7.30233 43.8011 7.98778L42.193 5.29802ZM43.2492 4.84159C43.393 5.3741 43.8973 5.67838 44.4015 5.52624C44.9058 5.3741 45.1935 4.84159 45.0496 4.30908C44.9058 3.77578 44.4015 3.47149 43.8973 3.62363C43.4173 3.77578 43.1295 4.30908 43.2492 4.84159ZM38.2566 8.90065L38.0643 6.49036L40.2963 6.21169C40.6325 6.16044 40.9687 6.28776 41.2087 6.54161L43.1053 8.59636C42.4814 9.20494 41.953 9.89039 41.5206 10.6511C41.3768 10.8793 41.2806 11.1332 41.1852 11.4126L38.7124 9.687C38.4482 9.51003 38.2801 9.23056 38.2566 8.90065ZM39.5528 9.02797C39.9367 9.38271 40.5371 9.30663 40.849 8.90065C41.1852 8.49466 41.1125 7.86046 40.7287 7.53055C40.3448 7.17581 39.7444 7.25188 39.4324 7.65787C39.0963 8.06385 39.1447 8.69806 39.5528 9.02797ZM53.9793 6.82027C53.2828 6.49036 52.5627 6.26214 51.8427 6.11L52.8512 3.24327C52.9708 2.91336 53.2351 2.65951 53.547 2.53299L55.6836 1.82272L56.4514 4.10569C56.5475 4.40998 56.5233 4.76552 56.356 5.01936L54.9394 7.32795C54.6517 7.17581 54.339 6.99804 53.9793 6.82027ZM54.1709 5.29802C54.6751 5.45017 55.1794 5.14588 55.3232 4.61337C55.4671 4.08007 55.1794 3.54756 54.6751 3.39541C54.1709 3.24327 53.6674 3.54756 53.5228 4.08007C53.3789 4.61337 53.6674 5.14588 54.1709 5.29802ZM55.7313 8.03823L57.316 6.33821C57.556 6.08437 57.8922 5.95785 58.2276 6.0083L60.4604 6.31339L60.2681 8.72288C60.2446 9.05279 60.0766 9.33226 59.8123 9.51003L57.2918 11.2092C57.0995 10.0682 56.6195 8.9519 55.7313 8.03823ZM57.6757 8.72288C58.0118 9.15449 58.588 9.20494 58.9719 8.8502C59.38 8.49466 59.4284 7.88608 59.0923 7.4801C58.7561 7.04849 58.1799 6.99804 57.7961 7.35358C57.4114 7.68269 57.3637 8.29207 57.6757 8.72288ZM46.1301 25.5693L44.1373 28.5377C44.1373 28.5377 38.592 32.2412 37.6562 34.9814C36.7204 37.7217 36.8158 48.4022 36.5758 51.2441C36.3358 54.0852 35.328 61.2144 34.6314 62.8127C34.6314 62.8127 35.3038 63.2443 36.3123 63.5742C36.9604 63.8025 37.7766 64.005 38.6162 64.0307C38.7366 63.1426 38.8328 62.3819 38.9282 61.7725C38.9766 61.4939 39.0243 61.2144 39.0963 60.9605C39.0963 60.9357 39.0963 60.9357 39.0963 60.9101C39.1447 60.6563 39.2167 60.352 39.2644 60.0221C39.4324 59.134 39.6725 57.9417 39.9367 56.6989C40.3448 54.669 40.8006 52.4364 41.161 50.7877C41.1852 50.7116 41.1852 50.6347 41.2087 50.5587C41.4487 49.3919 41.5206 48.5039 41.5206 47.768C41.4729 46.2458 41.0171 45.5107 40.7287 44.5465C40.2963 43.0747 39.5044 41.0704 40.2729 37.7721C40.3206 37.5439 40.369 37.3157 40.441 37.0874C41.6168 36.2755 43.8973 35.3114 47.8821 35.5652C48.026 32.2412 46.1301 25.5693 46.1301 25.5693ZM63.4367 48.9355C62.8128 45.9415 62.1647 36.6815 59.9562 33.4088C57.2441 29.4258 53.9309 28.436 53.9309 28.436L52.755 25.5437C52.7308 25.5693 52.7066 25.5693 52.6831 25.5941C51.2907 26.8633 47.8821 35.514 47.8821 35.514C54.4594 35.9456 57.3395 38.1276 57.4599 43.0491C57.388 43.3534 57.3637 43.7346 57.3395 44.1654C57.2441 47.362 58.3238 53.6544 59.5004 57.8656C60.172 60.2759 60.8927 62.0007 61.4205 62.0768C61.4205 62.0768 61.4205 62.0768 61.4205 62.052C61.4205 62.052 61.4205 62.0264 61.3962 62.0264C61.3962 62.0264 61.3962 62.0007 61.3728 62.0007C61.3728 62.0007 61.3728 62.0007 61.3728 61.9759C61.3728 61.9759 61.3728 61.9503 61.3485 61.9503C61.3485 61.9503 61.3485 61.9503 61.3485 61.9247C61.3485 61.9247 61.3485 61.8998 61.3243 61.8742C61.3243 61.8742 61.3243 61.8742 61.3243 61.8486C61.3243 61.8238 61.3243 61.8238 61.3008 61.7981C61.3008 61.7981 61.3008 61.7981 61.3008 61.7725C61.3008 61.7477 61.3008 61.7477 61.2766 61.7221V61.6964C61.2766 61.6708 61.2766 61.6708 61.2524 61.646V61.6204C61.2524 61.5948 61.2524 61.5699 61.2524 61.5699V61.5443C61.2524 61.5187 61.2524 61.4939 61.2524 61.4682V61.4426C61.2524 61.4178 61.2524 61.3922 61.2524 61.3665V61.3417C61.2524 61.3161 61.2524 61.2905 61.2524 61.2656V61.24C61.2524 61.2144 61.2524 61.1888 61.2524 61.1639V61.1383C61.2524 61.1127 61.2524 61.0879 61.2524 61.0366V61.0118C61.2524 60.9862 61.2524 60.9357 61.2524 60.9101C61.2524 60.8845 61.2524 60.8845 61.2524 60.8597C61.2524 60.834 61.2524 60.7836 61.2766 60.758C61.2766 60.7323 61.2766 60.7323 61.2766 60.7075C61.2766 60.6819 61.3008 60.6306 61.3008 60.6058C61.3008 60.5802 61.3008 60.5802 61.3008 60.5546C61.3008 60.5297 61.3243 60.4785 61.3243 60.428C61.3243 60.4024 61.3243 60.4024 61.3485 60.3776C61.3485 60.3263 61.3728 60.3015 61.3962 60.2503C61.3962 60.2254 61.3962 60.2254 61.4205 60.1998C61.4447 60.1486 61.4447 60.1238 61.4682 60.0725C61.4682 60.0477 61.4924 60.0477 61.4924 60.0221C61.5166 59.9716 61.5166 59.9204 61.5409 59.8955C61.5409 59.8699 61.5643 59.8699 61.5643 59.8443C61.5886 59.7938 61.6128 59.7434 61.6363 59.6921C61.6363 59.6673 61.6605 59.6673 61.6605 59.6417C61.6605 59.6417 61.6605 59.6161 61.6847 59.6161C61.7089 59.5656 61.7324 59.54 61.7324 59.4896C61.7324 59.4639 61.7566 59.4639 61.7566 59.4383C61.7809 59.3879 61.8043 59.3374 61.8528 59.2862C61.8528 59.2613 61.8763 59.2613 61.8763 59.2357C61.9005 59.1853 61.949 59.134 61.9724 59.0579C61.9724 59.0323 61.9967 59.0323 61.9967 59.0075C62.0209 58.9562 62.0686 58.8802 62.117 58.8297C62.117 58.8041 62.1405 58.8041 62.1405 58.7793C62.189 58.728 62.2124 58.652 62.2609 58.6015C62.2609 58.5759 62.2844 58.5759 62.2844 58.5503C62.3328 58.4742 62.3805 58.4237 62.429 58.3477L62.4524 58.322C62.5009 58.246 62.5728 58.1699 62.6205 58.0938C62.6925 58.0177 62.7409 57.9417 62.8128 57.84C63.8214 56.5972 64.7329 56.0134 65.4295 55.7348C64.4929 53.045 63.701 50.28 63.4367 48.9355ZM8.17857 72.2505C7.57891 69.5103 7.65084 66.5427 7.72277 63.7512C7.7947 60.8084 8.01048 57.8912 8.32318 54.9733C8.41858 54.1365 8.49126 53.3245 8.58666 52.4869C8.82668 50.3561 9.09092 48.2501 9.33093 46.1192C9.47478 44.9269 9.59517 43.7346 9.37939 42.5422C9.33093 42.2628 9.259 42.0089 9.18707 41.7551C8.97129 41.02 8.68282 40.2841 8.46704 39.5482C8.44281 39.4977 8.51474 39.4721 8.53896 39.5226C8.73128 40.0046 8.92283 40.4619 9.06669 40.9183C9.57094 42.3132 9.88288 43.6329 9.76326 45.2312C9.57094 48.174 9.16284 51.092 8.87513 54.0091C8.58666 56.851 8.32318 59.6921 8.17857 62.5589C8.17857 62.7879 8.15509 63.0409 8.15509 63.2699C8.10664 64.8426 8.13087 66.4153 8.17857 67.9632C8.22702 69.4094 8.29895 70.8804 8.29895 72.3266C14.9239 72.2257 21.0211 63.2443 21.3331 62.8127C18.141 57.7135 16.0763 51.5484 14.6839 45.6372C13.6996 41.4004 13.0757 37.0362 13.0515 32.6729C13.0515 32.5968 13.1 32.5207 13.1719 32.4703C15.6682 30.948 17.8767 29.3497 19.7968 27.0659C19.7968 27.0659 19.7968 27.0659 19.8211 27.0659C19.7491 26.7873 19.2926 24.9095 18.621 24.4274C18.0683 24.0214 15.6205 23.0829 14.5877 22.6769C14.3 22.5753 14.1319 22.4992 14.1319 22.4992L13.3157 25.0112C13.3157 25.0112 7.7947 27.8779 4.79416 30.8207C4.33837 31.2771 3.90604 31.8609 3.52217 32.5712C1.33783 36.5293 0.185466 44.0389 0.305094 49.5945C0.473178 56.6989 1.96171 67.5316 2.27365 71.6924C3.85834 71.2359 6.64233 70.7034 8.17857 72.2505ZM32.4236 36.1233C33.0475 40.6388 32.1109 48.1996 31.9428 51.0407C31.7271 54.4664 30.9351 65.8068 31.487 69.206C31.5347 69.4342 31.559 69.6632 31.5832 69.8914C31.3432 69.7393 31.0789 69.612 30.7428 69.5359C29.5904 69.2821 28.4623 69.4598 28.1026 69.5103C28.4388 64.6905 28.5584 59.8699 28.9665 55.0493C29.3989 49.7979 30.1908 44.6474 31.1993 39.4977C31.1993 39.4721 31.1751 39.4721 31.1751 39.4977C29.6146 44.3175 29.015 49.5697 28.5584 54.6185C28.5342 54.8467 28.5107 55.1006 28.4865 55.3288C28.0542 60.1238 27.8142 64.9692 27.8861 69.7641C27.5265 69.4855 26.4945 68.6479 25.3421 67.5828C25.3421 67.5572 25.3421 67.5316 25.3421 67.4811C25.3421 67.5068 25.3421 67.5316 25.3421 67.5572C23.7574 66.111 21.9577 64.2333 21.3815 62.7879C21.3815 62.7879 21.405 62.7623 21.405 62.7366C19.7249 58.6776 17.8767 54.7707 16.5563 50.5587C15.572 47.362 14.78 44.1149 14.2523 40.7918C14.0116 39.3456 13.8442 37.8738 13.7238 36.402C13.6761 35.743 13.6277 35.0831 13.58 34.4233C13.5558 34.043 13.3634 33.2054 13.5315 32.8754C13.7715 32.3173 15.1639 31.7592 15.6439 31.4301C16.1005 31.125 16.5563 30.7951 16.9886 30.4403C18.1645 29.4762 19.0768 28.36 19.9172 27.0659C19.9407 27.0403 19.9172 27.0155 19.893 27.0155C19.9172 26.736 20.0611 24.9351 20.7334 24.377C21.165 24.0214 21.5496 23.7932 21.7896 23.6667C21.9577 23.5906 22.0531 23.5394 22.0531 23.5394L22.9655 26.2539C22.9655 26.2539 29.9266 29.4506 31.8709 33.7387C32.0875 34.3977 32.279 35.1848 32.4236 36.1233ZM15.9082 35.337C16.3163 35.337 16.6524 34.9814 16.6524 34.5506C16.6524 34.119 16.3163 33.7635 15.9082 33.7635C15.5001 33.7635 15.1639 34.119 15.1639 34.5506C15.1639 34.9814 15.5001 35.337 15.9082 35.337ZM17.3967 41.502C17.3967 41.0704 17.0605 40.7149 16.6524 40.7149C16.2444 40.7149 15.9082 41.0704 15.9082 41.502C15.9082 41.9329 16.2444 42.2884 16.6524 42.2884C17.0605 42.2884 17.3967 41.9329 17.3967 41.502ZM18.7164 48.174C18.7164 47.7432 18.381 47.3876 17.9729 47.3876C17.5648 47.3876 17.2286 47.7432 17.2286 48.174C17.2286 48.6056 17.5648 48.9603 17.9729 48.9603C18.381 48.9603 18.7164 48.6056 18.7164 48.174ZM20.2534 53.6792C20.2534 53.2484 19.9172 52.8929 19.5091 52.8929C19.101 52.8929 18.7649 53.2484 18.7649 53.6792C18.7649 54.1108 19.101 54.4664 19.5091 54.4664C19.9407 54.4408 20.2534 54.1108 20.2534 53.6792ZM22.7497 59.3622C22.7497 58.9314 22.4135 58.5759 22.0054 58.5759C21.5973 58.5759 21.2611 58.9314 21.2611 59.3622C21.2611 59.7938 21.5973 60.1494 22.0054 60.1494C22.4135 60.1238 22.7497 59.7938 22.7497 59.3622ZM47.6898 35.6917C46.3459 38.4063 45.8174 41.6286 46.0574 44.6474C46.1536 45.7637 46.3459 46.8551 46.4655 47.9458C46.4897 48.2501 46.5382 48.5544 46.5382 48.8843C46.6101 50.2544 46.6578 51.6245 46.7055 52.9946V53.0202C46.7055 53.0706 46.754 53.0706 46.7782 53.0202C46.7782 52.9946 46.7782 52.9946 46.7782 52.969C46.8736 51.7262 46.9697 50.5082 46.9697 49.2654C46.9697 48.6056 46.8978 47.9714 46.8259 47.3372C46.754 46.6774 46.6578 46.0175 46.5859 45.3577C46.2255 42.0346 46.754 38.8635 47.6898 35.6917ZM13.3157 3.42104C13.4119 3.44586 13.5081 3.49711 13.6042 3.52193C13.6996 3.54756 13.82 3.59801 13.9162 3.64926C13.9396 3.64926 13.9396 3.67408 13.9639 3.67408C14.2039 3.75095 14.4439 3.85185 14.7081 3.95354C14.7081 3.95354 14.7081 3.95354 14.7323 3.95354C15.9801 4.4356 17.4202 5.06981 18.5491 5.78008C18.8126 5.95785 19.0768 6.11 19.2926 6.28776C19.341 6.33821 19.413 6.36384 19.4607 6.41428C19.4607 6.41428 19.4849 6.41428 19.4849 6.43991C19.5326 6.49036 19.5811 6.51598 19.6288 6.56643L19.653 6.59205C19.7007 6.61768 19.7249 6.66813 19.7726 6.69375C19.7968 6.71857 19.7968 6.71857 19.8211 6.7442C19.8453 6.76982 19.893 6.82027 19.9172 6.84589C19.9407 6.87152 19.9649 6.89634 19.9649 6.89634C19.9892 6.92197 20.0134 6.94759 20.0369 6.97241C20.0611 6.99804 20.0853 7.02366 20.1088 7.04849C20.133 7.07411 20.133 7.09974 20.1572 7.12456C20.1807 7.17581 20.2292 7.22626 20.2534 7.2767C20.2534 7.2767 20.2534 7.2767 20.2769 7.2767H20.3011C20.3011 7.2767 20.3011 7.2767 20.3253 7.2767C20.3488 7.2767 20.3488 7.2767 20.373 7.25188C20.445 7.22626 20.5653 7.20063 20.685 7.15018H20.7092C20.7334 7.15018 20.7811 7.12456 20.8053 7.12456C20.8053 7.12456 20.8053 7.12456 20.8288 7.12456C20.9734 7.07411 21.1415 6.99804 21.3331 6.92197C21.3331 6.92197 21.3573 6.92197 21.3573 6.89634C21.405 6.87152 21.4292 6.87152 21.4769 6.84589C21.5012 6.84589 21.5012 6.82027 21.5254 6.82027C21.5731 6.79465 21.5973 6.79465 21.645 6.76982C21.6692 6.76982 21.6692 6.7442 21.6935 6.7442C21.7412 6.71857 21.7896 6.71857 21.8131 6.69375C21.885 6.66813 21.9577 6.61768 22.0296 6.59205C22.0531 6.59205 22.0531 6.56643 22.0773 6.56643C22.1493 6.54161 22.1977 6.51598 22.2697 6.49036C22.2931 6.49036 22.3174 6.46553 22.3416 6.46553C22.4135 6.43991 22.4612 6.41428 22.5331 6.36384C22.5574 6.36384 22.5816 6.33821 22.6058 6.33821C22.6777 6.31339 22.7497 6.26214 22.7974 6.23652C22.8216 6.23652 22.8216 6.21169 22.8458 6.21169C23.0139 6.13562 23.1578 6.03392 23.3259 5.93223C23.3493 5.9074 23.3736 5.9074 23.3978 5.88178C23.4455 5.85615 23.5174 5.80571 23.5659 5.78008C23.5893 5.75446 23.6136 5.75446 23.6378 5.72963C23.6855 5.70401 23.734 5.65356 23.7817 5.62794C23.8059 5.60231 23.8294 5.60231 23.8536 5.57749C23.902 5.55186 23.9497 5.50142 23.9974 5.47579C24.0217 5.45017 24.0459 5.45017 24.0701 5.42534C24.1178 5.3741 24.1898 5.34927 24.2375 5.29802C24.2617 5.29802 24.2617 5.2732 24.2859 5.2732C24.3578 5.22195 24.4298 5.1715 24.4775 5.09543C24.5017 5.06981 24.5017 5.06981 24.5259 5.04418C24.5736 4.99373 24.6221 4.96811 24.6698 4.91766C24.694 4.89204 24.7182 4.86721 24.7417 4.84159C24.7902 4.79114 24.8136 4.76552 24.8379 4.71427C24.8621 4.68944 24.8856 4.66382 24.9098 4.6382C24.934 4.58775 24.9817 4.56212 25.0059 4.51168C25.0302 4.48605 25.0536 4.46123 25.0536 4.4356C25.0779 4.38515 25.1021 4.35953 25.1498 4.30908C25.174 4.28346 25.174 4.25783 25.1983 4.23301C25.246 4.15614 25.2702 4.10569 25.2937 4.02962C24.9817 3.64926 24.5978 3.29372 24.1898 2.98943C23.5174 3.64926 22.2454 4.79114 20.7334 5.24758C20.7334 5.24758 17.6367 2.98943 15.1881 2.15263C14.372 2.45692 13.6519 2.83728 13.028 3.26889C13.1 3.29372 13.1961 3.31934 13.2915 3.36979C13.2915 3.39541 13.3157 3.39541 13.3157 3.42104Z" fill="#FBB040"/>
<path d="M23.4454 94.9322C22.7496 96.0229 20.2048 95.287 19.5325 94.9322C19.7006 94.6023 19.8452 94.475 19.7248 94.069C19.6052 93.6887 19.4129 93.6638 19.1009 93.4861C19.4848 92.7758 21.0695 90.6193 22.2695 91.0501C22.6057 91.1775 22.3415 92.3698 22.3415 92.3698C22.3415 92.3698 23.0615 92.5476 23.1811 92.8767C23.2773 93.2066 22.7973 93.816 22.7973 93.816C22.7973 93.816 23.6377 94.6023 23.4454 94.9322ZM19.4606 95.1861C19.4129 95.5664 19.4606 95.7442 19.1486 95.9973C18.8367 96.2263 18.6686 96.1494 18.3324 96.0733C18.2605 96.6315 18.2847 98.1289 18.7163 99.1178C19.4848 98.9913 20.2048 98.8391 20.8529 98.7118L21.4768 98.1033C21.4768 98.1033 22.6292 98.0272 22.6292 97.6212C22.6534 96.2767 20.229 95.363 19.4606 95.1861ZM17.2285 95.9973C16.9166 95.769 16.94 95.5664 16.9166 95.1861C16.1723 95.3126 13.7237 96.2767 13.748 97.6212C13.748 98.0016 14.9003 98.1033 14.9003 98.1033L16.3162 99.4734C16.3881 99.4734 16.46 99.4477 16.5562 99.4477C16.9166 99.3973 17.2527 99.3468 17.5882 99.2956C18.0924 98.3315 18.1166 96.6827 18.0682 96.0733C17.7085 96.1494 17.5405 96.2263 17.2285 95.9973ZM16.8204 94.9322C16.6523 94.6023 16.5085 94.475 16.6281 94.069C16.7485 93.6887 16.94 93.6638 17.2527 93.4861C16.8923 92.7758 15.2842 90.6193 14.0841 91.0501C13.748 91.1775 14.0114 92.3698 14.0114 92.3698C14.0114 92.3698 13.2914 92.5476 13.1718 92.8767C13.0756 93.2066 13.5556 93.816 13.5556 93.816C13.5556 93.816 12.6675 94.6023 12.8833 94.9066C13.6276 96.0229 16.1239 95.2622 16.8204 94.9322ZM18.8844 93.3339C19.4129 92.7758 20.8529 90.4672 20.0852 89.4014C19.8687 89.0971 18.8844 89.7313 18.8844 89.7313C18.8844 89.7313 18.5005 89.0458 18.1643 89.0458C17.8282 89.0458 17.4443 89.7313 17.4443 89.7313C17.4443 89.7313 16.46 89.0971 16.2442 89.4014C15.4757 90.4416 16.94 92.7245 17.4443 93.3339C17.6843 93.0545 17.7805 92.8767 18.1643 92.8767C18.5724 92.8767 18.6444 93.0545 18.8844 93.3339ZM6.73838 93.0545C6.45066 93.2827 7.05032 94.0442 7.05032 94.0442C7.05032 94.0442 4.17017 94.1203 4.17017 95.0844C4.17017 96.0229 7.05032 96.1246 7.05032 96.1246C7.05032 96.1246 6.45066 96.8853 6.73838 97.1135C7.72265 97.9255 11.9717 95.4143 11.9717 95.4143L7.5788 95.0844L11.9717 94.7545C11.9717 94.7545 7.72265 92.2425 6.73838 93.0545ZM24.4296 94.7545L25.9659 94.881C26.9025 94.704 28.0064 94.4502 28.7506 94.1707C29.1587 94.0186 29.4464 93.8408 29.5426 93.6887C29.5903 93.6126 29.6145 93.3844 29.6145 93.0545C28.5583 92.3186 24.4296 94.7545 24.4296 94.7545ZM11.659 88.615C11.2994 88.5133 10.867 89.6296 10.867 89.6296C10.867 89.6296 10.1712 89.3253 9.907 89.5279C9.64276 89.7313 9.71468 90.5176 9.71468 90.5176C9.71468 90.5176 8.56308 90.5937 8.56308 90.9997C8.51462 92.3186 10.9874 93.2827 11.7317 93.4348C11.7794 93.0545 11.7317 92.8767 12.0436 92.6236C12.3556 92.3946 12.5237 92.4707 12.8598 92.5476C12.956 91.71 12.8598 88.9698 11.659 88.615ZM24.6454 93.41C25.3897 93.2827 27.8383 92.3186 27.8141 90.9741C27.8141 90.5937 26.6624 90.492 26.6624 90.492C26.6624 90.492 26.7344 89.7057 26.4701 89.5031C26.2059 89.2997 25.5101 89.604 25.5101 89.604C25.5101 89.604 25.0778 88.4877 24.7181 88.5894C24.6454 88.615 24.5977 88.6399 24.5258 88.6655C24.5735 86.8389 24.622 84.9868 24.6939 83.1602C24.8854 77.9593 25.1497 72.7584 25.342 67.5574C25.342 67.5318 25.342 67.507 25.342 67.4557C25.342 67.4813 25.342 67.507 25.342 67.5318C24.6454 72.631 24.3335 77.8072 24.1419 82.9568C24.0935 84.0227 24.0458 85.0629 24.0216 86.1287C23.7338 86.103 23.2296 86.433 23.2296 86.433C23.2296 86.433 23.1577 84.2509 22.2453 84.2509C21.3572 84.2509 21.261 86.433 21.261 86.433C21.261 86.433 20.541 85.9765 20.3252 86.2047C19.5567 86.9406 21.9334 90.1373 21.9334 90.1373L22.2453 86.8389L22.5572 90.1373C22.5572 90.1373 23.4696 88.9193 23.9739 87.8031C23.9496 88.3356 23.9496 88.8681 23.9496 89.4014C23.4938 90.3903 23.4696 91.9382 23.5415 92.4963C23.7096 92.4459 23.8535 92.4202 23.9739 92.4202C23.9973 93.3339 24.0458 94.2468 24.1177 95.1348C24.1177 95.1861 24.1419 95.1861 24.1896 95.1861C24.2139 95.1861 24.2373 95.1605 24.2373 95.1348C24.31 94.298 24.3577 93.4604 24.4054 92.6236C24.622 92.8767 24.5977 93.0545 24.6454 93.41ZM18.0682 83.6927L18.3809 88.3356C18.3809 88.3356 20.7568 83.8449 19.989 82.8047C19.7725 82.5004 19.0525 83.1346 19.0525 83.1346C19.0525 83.1346 18.9805 80.0901 18.0682 80.0901C17.1801 80.0901 17.0847 83.1346 17.0847 83.1346C17.0847 83.1346 16.3639 82.5004 16.1481 82.8047C15.3803 83.8449 17.7562 88.3356 17.7562 88.3356L18.0682 83.6927ZM15.1638 86.4586C15.1638 86.4586 15.0919 84.2765 14.1795 84.2765C13.2914 84.2765 13.196 86.4586 13.196 86.4586C13.196 86.4586 12.4752 86.0013 12.2594 86.2296C11.4917 86.9655 13.8676 90.1621 13.8676 90.1621L14.1795 86.8646L14.4922 90.1621C14.4922 90.1621 16.8681 86.9655 16.1004 86.2296C15.8604 86.0013 15.1638 86.4586 15.1638 86.4586ZM55.5397 117.461C54.7235 117.943 54.5312 119.668 54.5312 119.668L51.7229 116.345C51.4345 116.345 51.1702 116.319 50.8825 116.319C50.8825 117.334 50.9787 118.857 51.3625 119.617C51.9629 120.785 58.4198 127.305 60.4361 126.214C62.0685 125.326 58.3956 120.759 56.5716 117.41C56.2112 117.309 55.8274 117.283 55.5397 117.461ZM48.362 116.04L44.8814 117.385C44.8814 117.385 44.8572 115.786 44.1856 115.355C43.9214 115.178 43.4171 115.102 42.9129 115.026C42.1451 115.533 41.2328 116.066 40.3689 116.776C38.52 118.323 35.3514 121.292 36.7203 122.154C38.0642 123.017 48.2181 119.491 49.154 118.577C49.6105 118.121 49.5863 117.081 49.4424 116.167C49.0578 116.142 48.7224 116.091 48.362 116.04ZM43.9456 112.539C43.9933 112.539 44.041 112.514 44.0652 112.438C44.4976 110.915 44.4733 109.139 44.5695 107.567C44.6657 106.12 44.7376 104.649 44.7134 103.202C44.6657 103.178 44.5937 103.152 44.5453 103.126C44.4256 104.522 44.3295 105.917 44.2333 107.313C44.0895 108.937 43.7291 110.687 43.8252 112.31C43.8252 112.336 43.8252 112.362 43.8252 112.412C43.801 112.488 43.8729 112.539 43.9456 112.539ZM48.5301 61.5445L48.602 61.9C48.7224 61.671 48.8178 61.5189 48.7224 61.1898C48.6497 60.9359 48.5301 60.8342 48.3862 60.7581L48.4582 61.1641C48.4824 61.1898 48.4824 61.2402 48.5059 61.2906C48.5301 61.3667 48.5301 61.4428 48.5301 61.5445ZM49.6105 66.8215L49.4659 66.1617C49.6824 66.2378 50.0421 66.3394 50.2344 66.1873C50.4986 65.9847 50.4267 65.1976 50.4267 65.1976C50.4267 65.1976 51.5549 65.1215 51.5783 64.7155C51.6026 63.5232 49.6105 62.6351 48.6739 62.3565L48.6262 62.077C49.4424 62.4325 51.7229 63.0667 52.3945 62.0265C52.6111 61.6966 51.7229 60.9359 51.7229 60.9359C51.7229 60.9359 52.203 60.3522 52.1068 59.9966C52.0106 59.6675 51.2664 59.4897 51.2664 59.4897C51.2664 59.4897 51.5306 58.3222 51.1945 58.1957C50.1625 57.7897 48.8178 59.4137 48.2424 60.3017L48.1939 60.0222C48.8178 59.1342 49.6824 57.4094 49.0578 56.5469C48.842 56.2418 47.8577 56.876 47.8577 56.876C47.8577 56.876 47.6662 56.5469 47.4262 56.3435L46.85 53.5273L47.0416 50.8383L47.3535 55.4555C47.3535 55.4555 49.7059 50.9905 48.9624 49.9503C48.7459 49.646 48.0258 50.2802 48.0258 50.2802C48.0258 50.2802 47.9539 47.2357 47.0416 47.2357C46.9462 47.2357 46.8735 47.2613 46.8015 47.3118C46.7296 46.6519 46.6335 45.9921 46.5615 45.3331C46.2019 42.0091 46.7296 38.8381 47.6662 35.6671C47.6662 35.6671 47.6662 35.6415 47.642 35.6671C46.2973 38.3817 45.7696 41.6031 46.0096 44.6228C46.1057 45.7391 46.2973 46.8297 46.4177 47.9203C46.1057 48.8084 46.0573 50.2546 46.0573 50.2546C46.0573 50.2546 45.3372 49.6203 45.1215 49.9246C44.5453 50.7118 45.7453 53.4264 46.37 54.7452L46.0573 56.6478C45.7696 56.4957 45.3615 56.3435 45.2418 56.5213C44.7611 57.1811 45.1457 58.2974 45.6257 59.1854L45.5538 59.5906C44.8814 58.7538 43.8729 57.8658 43.081 58.1701C42.7448 58.2974 43.009 59.4641 43.009 59.4641C43.009 59.4641 42.289 59.6419 42.1686 59.9718C42.0732 60.3017 42.5532 60.9103 42.5532 60.9103C42.5532 60.9103 41.6886 61.6966 41.8809 62.0009C42.4329 62.8641 44.041 62.5847 45.0738 62.2548L45.0253 62.5086C44.0175 62.889 42.6729 63.6753 42.6971 64.6651C42.6971 65.0454 43.8495 65.1471 43.8495 65.1471C43.8495 65.1471 43.7775 65.9335 44.041 66.1369C44.1372 66.2129 44.2576 66.2129 44.4014 66.2129L44.3053 66.7711C44.3053 66.7711 41.5205 65.5787 39.7208 63.1428C40.4166 62.7881 40.9209 62.483 40.9209 62.483L39.1923 62.3565C39.1204 62.2299 39.0485 62.1026 38.9765 61.9761L40.8966 61.824C40.8966 61.824 40.0327 61.3163 39 60.8342C39.0485 60.5804 39.1204 60.2761 39.1681 59.9462C39.7443 60.2505 40.3447 60.4282 40.6324 60.5043C40.6808 60.1239 40.6324 59.9462 40.9443 59.6923C41.257 59.4641 41.4251 59.5402 41.7605 59.6163C41.8332 58.8043 41.7605 56.0649 40.5605 55.7093C40.2727 55.6076 39.9366 56.3692 39.8162 56.623C40.2243 54.5931 40.6808 52.3606 41.0405 50.7118C41.0647 50.6349 41.0647 50.5588 41.0889 50.4828C41.329 49.3161 41.4009 48.428 41.4009 47.6921C41.3524 46.1699 40.8966 45.434 40.6089 44.4707C40.1766 42.9989 39.3846 40.9945 40.1524 37.6962C40.2008 37.468 40.2485 37.2398 40.3204 37.0116C41.497 36.1996 43.7775 35.2355 47.7616 35.4893C54.3388 35.9201 57.2198 38.1022 57.3394 43.0245C57.3394 43.0245 56.6678 45.434 56.1878 47.616C55.9478 48.7323 55.7555 49.8237 55.7312 50.4828C55.7312 50.6349 55.7312 50.7879 55.7555 50.8888C55.7555 50.8888 57.4355 55.5316 58.1556 56.4957C58.1556 56.4957 56.8359 58.5761 55.0831 60.9103C54.0988 61.3667 53.3311 61.8488 53.3311 61.8488L54.3154 61.9248C54.1708 62.1026 54.0269 62.2804 53.883 62.483L53.3311 62.5342C53.3311 62.5342 53.475 62.6103 53.6907 62.7368C52.3945 64.4112 50.9067 66.0095 49.6105 66.8215ZM44.1614 53.6033C44.1614 53.6033 44.0895 51.4469 43.1771 51.4469C42.289 51.4469 42.1928 53.6033 42.1928 53.6033C42.1928 53.6033 41.4728 53.1469 41.257 53.3751C40.4885 54.111 42.841 57.3077 42.841 57.3077L43.1529 54.0093L43.4648 57.3077C43.4648 57.3077 45.8173 54.1366 45.0738 53.3751C44.8572 53.1469 44.1614 53.6033 44.1614 53.6033ZM52.4664 59.6675C52.8268 59.5906 52.9707 59.5146 53.2826 59.7436C53.5953 59.9718 53.5711 60.1744 53.5953 60.5547C54.3388 60.4282 56.7874 59.4641 56.7397 58.1453C56.7397 57.7641 55.5874 57.6632 55.5874 57.6632C55.5874 57.6632 55.6593 56.876 55.3951 56.6735C55.1316 56.4709 54.435 56.7752 54.435 56.7752C54.435 56.7752 54.0034 55.6589 53.643 55.7598C52.4664 56.1409 52.3945 58.8555 52.4664 59.6675ZM53.1146 53.3751C52.8988 53.1469 52.1787 53.6033 52.1787 53.6033C52.1787 53.6033 52.1068 51.4469 51.1945 51.4469C50.3063 51.4469 50.2102 53.6033 50.2102 53.6033C50.2102 53.6033 49.4901 53.1469 49.2744 53.3751C48.5059 54.111 50.8583 57.3077 50.8583 57.3077L51.1702 54.0093L51.4829 57.3077C51.5064 57.282 53.883 54.111 53.1146 53.3751ZM62.5485 58.1701C62.4766 58.2462 62.4289 58.3222 62.3804 58.3983L62.3569 58.4239C62.3085 58.5 62.2608 58.5512 62.2123 58.6273C62.2123 58.6521 62.1888 58.6521 62.1888 58.6778C62.1404 58.7538 62.0927 58.8043 62.0685 58.8555C62.0685 58.8804 62.0442 58.8804 62.0442 58.906C61.9965 58.9564 61.9723 59.0325 61.9246 59.0837C61.9246 59.1094 61.9004 59.1094 61.9004 59.1342C61.8761 59.1854 61.8284 59.2359 61.8042 59.312C61.8042 59.3376 61.7808 59.3376 61.7808 59.3624C61.7565 59.4137 61.7323 59.4641 61.6846 59.5146C61.6846 59.5402 61.6604 59.5402 61.6604 59.5658C61.6361 59.6163 61.6127 59.6419 61.6127 59.6923C61.6127 59.6923 61.6127 59.7179 61.5884 59.7179C61.5884 59.7436 61.5642 59.7436 61.5642 59.7684C61.5407 59.8196 61.5165 59.8701 61.4923 59.9205C61.4923 59.9462 61.4681 59.9462 61.4681 59.9718C61.4446 60.0222 61.4204 60.0727 61.4204 60.0983C61.4204 60.1239 61.3961 60.1239 61.3961 60.1496C61.3727 60.2 61.3727 60.2256 61.3484 60.2761C61.3484 60.3017 61.3484 60.3017 61.3242 60.3265C61.3007 60.3778 61.3007 60.4026 61.2765 60.4538C61.2765 60.4787 61.2765 60.4787 61.2523 60.5043C61.2523 60.5547 61.228 60.5804 61.228 60.6308C61.228 60.6564 61.228 60.6564 61.228 60.6821C61.228 60.7077 61.2046 60.7581 61.2046 60.7838C61.2046 60.8086 61.2046 60.8086 61.2046 60.8342C61.2046 60.8598 61.2046 60.9103 61.1803 60.9359C61.1803 60.9607 61.1803 60.9607 61.1803 60.9864C61.1803 61.012 61.1803 61.0624 61.1803 61.0881V61.1129C61.1803 61.1385 61.1803 61.1641 61.1803 61.2146V61.2402C61.1803 61.2658 61.1803 61.2906 61.1803 61.3163V61.3419C61.1803 61.3667 61.1803 61.3923 61.1803 61.418V61.4428C61.1803 61.4684 61.1803 61.494 61.1803 61.5189V61.5445C61.1803 61.5701 61.1803 61.5949 61.1803 61.6206V61.6462C61.1803 61.671 61.1803 61.6966 61.1803 61.6966V61.7223C61.1803 61.7479 61.1803 61.7479 61.2046 61.7727V61.7983C61.2046 61.824 61.2046 61.824 61.228 61.8488C61.228 61.8488 61.228 61.8488 61.228 61.8744C61.228 61.9 61.228 61.9 61.2523 61.9248C61.2523 61.9248 61.2523 61.9248 61.2523 61.9505C61.2523 61.9761 61.2523 61.9761 61.2765 62.0009C61.2765 62.0009 61.2765 62.0009 61.2765 62.0265C61.2765 62.0265 61.2765 62.0522 61.3007 62.0522C61.3007 62.0522 61.3007 62.0522 61.3007 62.077C61.3007 62.077 61.3007 62.1026 61.3242 62.1026C61.3242 62.1026 61.3242 62.1282 61.3484 62.1282C61.3484 62.1282 61.3484 62.1282 61.3484 62.1531C61.7323 62.2043 63.8205 60.606 63.8205 60.606C63.5328 59.8445 63.0285 58.9564 62.5485 58.1701ZM25.7978 12.047C26.2059 11.8188 26.7101 11.641 27.2379 11.7676C27.2621 11.5393 27.2621 11.1846 27.2621 10.7274C26.3263 9.35726 24.5977 7.58197 21.813 6.6683C21.7653 6.69393 21.7176 6.69393 21.6934 6.71875C21.6691 6.71875 21.6691 6.74437 21.6449 6.74437C21.5972 6.77 21.573 6.77 21.5253 6.79482C21.501 6.79482 21.501 6.82045 21.4768 6.82045C21.4291 6.84607 21.4049 6.84607 21.3572 6.8717C21.3572 6.8717 21.333 6.8717 21.333 6.89652C21.1414 6.97259 20.9733 7.02384 20.8287 7.09991C20.8287 7.09991 20.8287 7.09991 20.8052 7.09991C20.781 7.09991 20.7333 7.12474 20.7091 7.12474H20.6848C20.5652 7.17598 20.4448 7.20081 20.3729 7.22643C20.3487 7.22643 20.3487 7.22643 20.3252 7.25206C20.3252 7.25206 20.3252 7.25206 20.301 7.25206H20.2767H20.2533C20.2533 7.25206 24.9339 9.30681 25.7978 12.047ZM11.7794 11.565C12.3079 11.0573 16.6281 7.02384 20.2533 7.27688C20.229 7.22643 20.2048 7.17598 20.1571 7.12474C20.1329 7.09991 20.1329 7.07429 20.1087 7.04866C20.0852 7.02384 20.061 6.99822 20.0367 6.97259C20.0133 6.94777 19.989 6.92214 19.9648 6.89652C19.9406 6.8717 19.9406 6.84607 19.9171 6.84607C19.8929 6.82045 19.8452 6.77 19.821 6.74437C19.7967 6.71875 19.7967 6.71875 19.7725 6.69393C19.7248 6.6683 19.7006 6.61785 19.6529 6.59223L19.6286 6.56661C19.5809 6.51616 19.5325 6.49053 19.4848 6.44009C19.4848 6.44009 19.4606 6.44009 19.4606 6.41446C19.4129 6.36401 19.3652 6.33839 19.2925 6.28794C19.2448 6.23669 19.1728 6.18624 19.1009 6.16062C14.7799 5.90758 11.659 9.5102 10.5074 11.1085C11.1555 11.235 11.7075 11.6154 11.7075 11.6154C11.7075 11.6154 11.7317 11.5906 11.7794 11.565Z" fill="#5C622A"/>
<path d="M36.288 63.5488C36.9361 63.777 37.7523 63.9804 38.592 64.0052C38.3043 66.3651 37.9439 69.5874 37.6085 73.0883C36.6477 72.0729 36.5038 70.5258 35.8799 69.3079C35.9995 70.1959 36.288 71.1857 36.6 72.0225C36.8157 72.5806 37.08 73.037 37.5842 73.367C37.5123 74.0012 37.4639 74.6354 37.3919 75.2952C37.08 74.8387 36.6 74.0268 36.4319 73.1644C36.1676 71.7943 35.6157 69.5617 35.9042 67.6839C36.0722 66.5677 36.2161 64.7916 36.288 63.5488ZM51.7465 116.319L54.5555 119.643C54.5555 119.643 54.747 117.892 55.5632 117.435C55.8517 117.283 56.2356 117.283 56.596 117.359C56.3317 116.903 56.1152 116.446 55.9713 116.04C54.6516 116.243 53.1873 116.345 51.7465 116.319ZM43.9457 114.29C43.6572 114.544 43.2968 114.772 42.8895 115.026C43.393 115.076 43.8973 115.178 44.1615 115.355C44.8338 115.786 44.8573 117.385 44.8573 117.385L48.3379 116.04C46.6335 115.761 45.0738 115.228 43.9215 114.442V114.29H43.9457ZM58.036 15.9035C58.7561 16.8924 58.036 17.8822 57.0995 18.6429C56.9556 18.4147 56.6914 18.2882 56.4036 18.3386L55.7798 18.4659C55.4436 18.542 55.2271 18.8719 55.2513 19.2267L55.2997 19.7592C54.747 21.1293 53.787 22.3216 52.6111 23.1336C52.6111 23.8695 52.6111 24.7319 52.6588 25.5695C51.2665 26.8379 47.8578 35.4893 47.8578 35.4893C48.0017 32.191 46.1058 25.5182 46.1058 25.5182C46.202 25.0362 46.2981 24.5293 46.3458 23.996C48.0744 24.9353 50.3783 24.9601 51.8911 23.5908L51.9146 23.5652C51.9146 23.5139 51.8911 23.4891 51.8427 23.4891C49.8983 24.0729 48.194 24.4276 46.1777 23.8951C46.1777 23.8951 46.1535 23.8951 46.1777 23.9199H46.202C43.9692 23.0575 42.2414 21.1044 41.641 18.6181C41.5933 18.5925 41.5691 18.5925 41.5206 18.5668V18.4147C41.5206 18.06 41.2571 17.7549 40.9209 17.7044L40.2963 17.6283C40.129 17.6027 39.9609 17.654 39.8405 17.7549C38.8085 17.1207 37.9681 16.2334 38.5443 15.142C39.0962 14.1274 39.9844 14.1779 40.6809 14.4061C40.9686 14.5078 41.2087 14.6095 41.3767 14.7112C41.4487 14.7616 41.5206 14.7872 41.5448 14.8121C41.5925 14.8377 41.6168 14.8633 41.6168 14.8633L41.641 14.9394C41.6652 14.8377 41.6887 14.7616 41.7129 14.6599C42.8895 13.4932 46.2981 10.1444 46.6335 9.53504C46.6335 9.53504 49.4425 11.7427 52.035 13.4171C51.4588 13.3659 50.8826 13.518 50.5464 13.8992C50.4503 14.0001 50.5707 14.153 50.6668 14.153C51.0507 14.153 51.4103 14.0257 51.7949 14.0513C52.1788 14.0762 52.5392 14.2035 52.8989 14.2796C53.0192 14.3052 53.1146 14.2291 53.1873 14.1274C54.267 14.7872 55.2271 15.2437 55.7555 15.2437C55.7555 15.2941 55.7798 15.3454 55.7798 15.3958C56.1879 15.1932 56.6914 15.0403 57.1714 15.1932C57.4841 15.3454 57.796 15.548 58.036 15.9035ZM47.9063 18.6942C48.1221 18.8719 48.4098 18.5164 48.1698 18.3386C48.1463 18.3138 48.1463 18.3138 48.1698 18.2369C48.194 18.1865 48.2182 18.1608 48.2425 18.1104C48.3144 17.9839 48.3863 17.8822 48.4098 17.73C48.4582 17.4762 48.1221 17.4257 48.0501 17.654C48.0259 17.7549 47.9298 17.8317 47.8821 17.9078C47.8344 17.9839 47.7859 18.06 47.7617 18.1608C47.714 18.3899 47.7382 18.5925 47.9063 18.6942ZM46.0339 15.8779C45.9854 15.3958 45.6016 15.0659 45.1458 15.1164C44.6892 15.1676 44.3773 15.5736 44.4257 16.0556C44.4734 16.5377 44.8573 16.8676 45.3139 16.8164C45.7454 16.7659 46.0574 16.3599 46.0339 15.8779ZM46.2497 14.3556C46.3701 14.3556 46.4897 14.2291 46.3935 14.1018C45.8416 13.3915 44.5211 13.3915 43.8253 13.7975C43.5853 13.9496 43.7534 14.3813 44.0176 14.33C44.4015 14.2796 44.7611 14.153 45.1458 14.1779C45.5296 14.2035 45.89 14.3556 46.2497 14.3556ZM50.0906 20.1147C50.0906 20.0891 50.0906 20.0891 50.0906 20.1147C49.4425 20.2668 48.8906 20.4446 48.2182 20.3934C47.6421 20.3429 46.922 20.2164 46.3935 19.9121C46.3458 19.8865 46.2974 19.9369 46.3216 19.9626C46.682 21.3575 49.5145 21.307 50.0906 20.1147ZM52.6588 16.03C52.6111 15.548 52.2265 15.218 51.7707 15.2693C51.3149 15.3197 51.003 15.7257 51.0507 16.2078C51.0984 16.6898 51.483 17.0198 51.9388 16.9685C52.3711 16.9181 52.6831 16.4865 52.6588 16.03ZM19.0291 6.08456C18.9806 6.05974 18.9329 6.00849 18.861 5.98367C18.9087 6.00849 18.9806 6.03411 19.0291 6.08456ZM18.7891 5.93242C18.8125 5.95804 18.8368 5.95804 18.861 5.98367C18.8368 5.95804 18.8125 5.93242 18.7891 5.93242ZM19.1245 6.13581C19.101 6.11019 19.0525 6.08456 19.0291 6.05974C19.1245 6.13581 19.2206 6.18626 19.3168 6.26233C19.2449 6.23671 19.1729 6.18626 19.1245 6.13581ZM18.549 5.78027C18.621 5.83152 18.7164 5.88197 18.7891 5.93242C18.7164 5.88197 18.6444 5.83152 18.549 5.78027ZM8.27469 72.3524C8.25122 72.378 8.20277 72.3524 8.20277 72.3268C8.20277 72.3019 8.20277 72.2763 8.17854 72.2507C6.64231 70.7036 3.85831 71.2361 2.29785 71.6926C2.29785 71.7943 2.32208 71.9208 2.32208 72.0225C2.41748 73.2661 2.41748 74.8387 2.60979 76.3097C2.75365 77.4516 3.01789 78.5174 3.52214 79.3294C3.90601 79.938 4.43449 80.4457 4.98645 80.8517C4.50642 80.3944 4.33834 79.7602 4.09832 79.1516C4.09832 79.126 4.1218 79.126 4.1218 79.1516C4.41026 79.8115 4.81836 80.4201 5.22646 81.0038V81.0286C5.73071 81.3586 6.25844 81.5876 6.71423 81.7397C6.33037 81.5363 6.04265 81.1816 5.80264 80.826C5.34609 80.1662 4.93799 79.3799 4.62605 78.6191C4.62605 78.6191 4.62605 78.5935 4.65028 78.6191C5.0826 79.1773 5.39454 79.7859 5.75418 80.3944C6.09035 80.9277 6.52268 81.3586 6.95425 81.7902V81.8158C7.4108 81.9423 7.77044 81.9928 8.01045 81.9928C8.13084 81.9928 8.25122 81.9679 8.39508 81.9423C7.02693 81.1303 6.28267 79.7859 5.9465 78.1619C5.9465 78.1371 5.97073 78.1115 5.9942 78.1371C6.78692 79.4816 7.31464 80.8765 8.51471 81.9167C9.37936 81.7902 10.4356 81.4346 9.42706 80.6995C8.20277 79.8115 7.0504 76.4114 7.19502 75.7516C7.36234 75.0926 7.84313 75.9294 8.51471 76.9952C9.18704 78.0354 10.531 78.8722 10.771 78.467C11.011 78.061 10.0275 76.6653 9.76323 75.7772C9.57091 74.8892 8.44278 72.7079 8.27469 72.3524ZM30.7427 69.5361C29.5904 69.2823 28.4622 69.46 28.1026 69.5105C28.0784 69.7643 28.0784 70.0182 28.0542 70.272C28.1268 71.5404 28.3426 73.9763 28.5584 76.7918C29.5904 75.7516 29.735 74.0772 30.3831 72.784C30.2385 73.7225 29.9508 74.7371 29.6146 75.6251C29.3988 76.2088 29.1104 76.6909 28.5826 77.0208H28.5584C28.6069 77.5277 28.6303 78.061 28.6788 78.5935C29.0869 78.1875 29.8789 77.3507 30.455 76.5892C31.1993 75.5995 31.9193 72.961 31.5589 69.866C31.3432 69.7395 31.0789 69.6122 30.7427 69.5361ZM68.2377 63.3462C67.6373 62.5342 66.4138 59.1598 65.3576 55.8111C64.661 56.0897 63.7486 56.6991 62.7409 57.9163C62.669 57.9923 62.597 58.0692 62.5486 58.1701C63.0286 58.9564 63.5329 59.8445 63.869 60.5548C63.869 60.5548 64.421 61.7223 64.661 62.1787C64.8768 62.6351 64.349 63.5488 64.7094 65.2993C64.7329 65.477 64.7814 65.6292 64.7814 65.7813C64.8048 65.9335 64.8291 66.0856 64.8291 66.2129C64.9252 67.354 64.7571 67.989 65.0214 68.1916C65.2129 68.3438 65.5249 68.166 65.7656 67.7856C65.7891 67.76 65.7891 67.7352 65.8133 67.6839C65.933 67.4557 66.0291 67.1514 66.0534 66.8215C66.1253 65.8574 66.6053 64.2847 66.6053 64.2847L68.3096 69.9677C68.3096 69.9677 68.4535 69.3079 68.7662 68.572C69.0781 67.8361 69.3416 64.7916 68.2377 63.3462ZM25.4617 16.3343C24.7182 18.2121 23.2774 19.7343 21.4534 20.4951C21.5011 20.4702 21.4769 20.3934 21.4292 20.3934C19.5568 20.9523 17.6367 20.5463 15.8362 19.9626C15.812 19.9626 15.7885 19.9882 15.812 20.013C17.2044 21.3327 19.8687 21.6626 21.4292 20.4951C21.4534 21.8395 21.5731 22.8797 21.7177 23.6917C21.4769 23.819 21.093 24.0216 20.6615 24.402C19.9891 24.9601 19.8453 26.7618 19.821 27.0405C19.7491 26.7618 19.2926 24.884 18.621 24.402C18.0683 23.996 15.6204 23.0575 14.5877 22.6515C14.7323 21.5865 14.7323 20.4951 14.6604 19.6583C14.5642 19.5822 14.4923 19.531 14.3961 19.4549C14.3719 19.4301 14.3477 19.4044 14.3242 19.3788C13.1234 18.3642 12.2118 16.9685 11.8037 15.3454C11.5637 15.2693 11.2752 15.142 10.9875 15.0155C9.59514 14.4061 7.91505 13.3659 8.68279 11.9197C9.06666 11.2094 9.61937 11.0068 10.1471 11.0325C10.2675 11.0325 10.4113 11.0573 10.531 11.0829C11.1791 11.2094 11.7318 11.5906 11.7318 11.5906L11.7553 11.6915C11.7553 11.641 11.7795 11.5906 11.7795 11.5394C12.308 11.0573 16.6282 7.02386 20.2534 7.2769C20.2534 7.2769 24.934 9.30683 25.7979 12.047C26.206 11.8188 26.7102 11.641 27.238 11.7676C27.5507 11.8436 27.8861 12.0214 28.1503 12.4274C29.3269 14.0257 26.7345 15.6497 25.4617 16.3343ZM19.4606 14.7872C19.4849 14.9394 19.5568 15.0403 19.6287 15.1676C19.653 15.218 19.6772 15.2437 19.7007 15.2941C19.7249 15.3454 19.7249 15.3702 19.7007 15.3958C19.4849 15.548 19.7491 15.9283 19.9649 15.7514C20.1088 15.624 20.1572 15.4214 20.1088 15.2437C20.0853 15.142 20.0368 15.0659 19.9891 14.9898C19.9407 14.9138 19.8453 14.8377 19.821 14.736C19.7491 14.5078 19.4129 14.5582 19.4606 14.7872ZM14.8042 11.3872C15.1881 11.3111 15.5243 11.159 15.9082 11.159C16.292 11.1334 16.6524 11.2607 17.0363 11.2607C17.1567 11.2607 17.2528 11.1085 17.1567 11.0068C16.5563 10.347 15.2358 10.4231 14.5642 10.8795C14.3477 11.0325 14.54 11.4633 14.8042 11.3872ZM15.7885 14.0257C16.2443 14.0762 16.6282 13.7214 16.6766 13.265C16.7243 12.7829 16.3882 12.3769 15.9566 12.3257C15.5001 12.2753 15.1162 12.6308 15.0677 13.0872C15.02 13.5437 15.3562 13.9753 15.7885 14.0257ZM21.5254 16.9941C21.5496 16.9437 21.5011 16.9181 21.4534 16.9437C20.9492 17.2224 20.2291 17.3745 19.6287 17.4257C18.9571 17.4762 18.4044 17.2984 17.7806 17.1463C17.7806 17.1463 17.7563 17.1463 17.7563 17.1719C18.3567 18.3386 21.165 18.3899 21.5254 16.9941ZM23.4697 13.0872C23.5174 12.6052 23.1812 12.1992 22.7496 12.1487C22.2931 12.0975 21.9092 12.453 21.8615 12.9095C21.8131 13.3915 22.1492 13.7975 22.5816 13.8479C23.0139 13.8992 23.4212 13.5437 23.4697 13.0872ZM24.0459 10.8547C23.3493 10.4487 22.0296 10.4487 21.4769 11.159C21.3815 11.2855 21.5011 11.4128 21.6215 11.4128C22.0054 11.3872 22.3658 11.2351 22.7496 11.2351C23.1335 11.2351 23.4939 11.3368 23.8778 11.3872C24.1178 11.4128 24.2859 11.0068 24.0459 10.8547Z" fill="#F68953"/>
<path d="M68.3096 69.9679L66.6053 64.2849C66.6053 64.2849 66.1252 65.8576 66.0533 66.8217C66.0291 67.1516 65.9329 67.4311 65.8133 67.6841C64.109 74.2552 62.8847 80.9784 61.0607 87.5238C61.0365 87.5999 60.9161 87.575 60.9404 87.499C62.0443 80.8006 64.0371 74.3064 65.7656 67.7858C65.5248 68.1662 65.2129 68.3439 65.0213 68.1918C64.7571 67.9892 64.9494 67.3542 64.829 66.2131C64.7813 66.2636 64.7094 66.2892 64.6367 66.2636C62.1404 65.832 59.6684 65.249 57.8194 63.2447C57.7717 63.1935 57.8437 63.143 57.8921 63.1686C59.7403 64.9952 62.357 65.4011 64.7571 65.7559C64.7571 65.7559 64.7571 65.7559 64.7813 65.7559C64.7571 65.6037 64.7329 65.4268 64.7094 65.2738C64.349 63.5234 64.8767 62.6353 64.6609 62.1533C64.4451 61.6968 63.869 60.5301 63.869 60.5301C63.869 60.5301 61.8043 62.1284 61.3962 62.0772C60.8684 62.0011 60.1484 60.2763 59.4761 57.866C58.7318 57.1301 58.2275 56.5215 58.2275 56.5215C58.2275 56.5215 56.9078 58.6019 55.1551 60.9361C54.9151 61.266 54.6516 61.5951 54.3873 61.925C54.2435 62.1028 54.0989 62.2806 53.955 62.4832C53.8831 62.5592 53.8354 62.6353 53.7627 62.737C52.3945 64.4114 50.9068 66.0097 49.6106 66.8217L49.4659 66.1619L48.6982 62.3823L48.6505 62.1028L48.602 61.9002L48.5301 61.5447L48.4582 61.1643L48.3863 60.7583L48.2901 60.3019L48.2424 60.0224L47.4981 56.3437L46.922 53.5275L46.8016 52.9693C46.8016 52.995 46.8016 52.995 46.8016 53.0206C46.8016 53.071 46.7539 53.071 46.7296 53.0206V52.995L46.4419 54.771L46.13 56.6736L45.6977 59.2361L45.6257 59.6421L45.1692 62.331L45.1215 62.5849L44.4976 66.2892L44.4015 66.8473C44.4015 66.8473 41.6167 65.655 39.8162 63.2191C39.6247 62.9652 39.4566 62.7114 39.2885 62.4327C39.2166 62.3062 39.1446 62.1789 39.0727 62.0524C39.0243 61.9507 38.9766 61.8746 38.9281 61.7729C38.8327 62.3823 38.7123 63.143 38.6162 64.031C38.3285 66.3909 37.9681 69.6124 37.6319 73.1133C37.6319 73.1902 37.6084 73.2911 37.6084 73.3671C37.5365 74.0013 37.488 74.6355 37.4161 75.2954C36.4561 85.4947 35.5437 97.0889 35.5437 97.0889C35.9276 97.5453 36.768 98.0274 37.5842 98.4334C38.4723 98.865 39.3362 99.2197 39.5762 99.2958C39.4566 96.9872 39.8889 94.6025 40.1047 92.3187C40.3205 89.9597 40.5605 87.6255 40.8005 85.2664C41.2571 80.5724 41.7606 75.8791 42.1452 71.1602C42.1452 71.1346 42.1687 71.1346 42.1687 71.1602C41.9771 75.9552 41.7129 80.7245 41.2805 85.5195C41.0405 87.9554 40.8247 90.3905 40.5605 92.8264C40.3205 94.9829 40.2728 97.2666 39.7208 99.347C39.7208 99.3975 39.6724 99.3975 39.6481 99.3975L39.5043 100.59C39.5043 100.59 41.8809 101.986 44.5695 103.127C44.6172 103.152 44.6892 103.178 44.7376 103.203C45.7938 103.634 46.8735 104.015 47.882 104.269C51.5307 105.157 57.0759 99.5496 57.0759 99.5496V96.5812C57.0275 96.5812 57.004 96.5556 56.9798 96.5051C55.1074 89.2238 53.8112 81.5621 53.3788 74.0269C53.3788 74.0013 53.4031 74.0013 53.4031 74.0269C54.1473 81.6126 55.9713 88.9451 57.1713 96.4547C57.7475 96.3274 60.7723 95.5915 61.9004 93.8162C62.0208 93.6384 62.0927 93.4606 62.1404 93.2829C62.2843 92.8264 62.3085 92.37 62.2366 91.8879C62.0208 90.4161 61.0123 88.9451 61.0607 87.752C61.0842 87.0169 61.8285 86.3066 62.6689 85.6973C63.797 84.9109 65.0933 84.3528 65.0933 84.3528C66.5576 83.4647 68.5254 83.1604 70.0623 83.3126C71.1663 83.4143 72.0544 83.7186 72.3421 84.2006C72.8706 80.5219 68.3096 69.9679 68.3096 69.9679ZM38.9046 61.7481C38.9046 61.7481 38.9766 61.443 39.0727 60.9361C39.0243 61.1899 38.9523 61.4686 38.9046 61.7481ZM49.154 4.23339C49.6583 4.23339 50.0906 3.80178 50.0906 3.24365C50.0906 2.71114 49.6825 2.25391 49.154 2.25391C48.6497 2.25391 48.2182 2.68552 48.2182 3.24365C48.2424 3.80178 48.6497 4.23339 49.154 4.23339ZM44.4015 5.52662C44.9057 5.37447 45.1934 4.84197 45.0496 4.30946C44.9057 3.77615 44.4015 3.47186 43.8972 3.62401C43.3929 3.77615 43.1052 4.30946 43.2491 4.84197C43.3929 5.34965 43.8972 5.67876 44.4015 5.52662ZM40.849 8.90103C41.1851 8.49504 41.1124 7.86084 40.7286 7.53092C40.3447 7.17619 39.7443 7.25226 39.4324 7.65825C39.0962 8.06423 39.1681 8.69843 39.5527 9.02835C39.9366 9.35746 40.537 9.33264 40.849 8.90103ZM54.1708 5.2984C54.675 5.45055 55.1793 5.14626 55.3232 4.61375C55.467 4.08044 55.1793 3.54794 54.675 3.39579C54.1708 3.24365 53.6673 3.54794 53.5227 4.08044C53.3788 4.61375 53.6673 5.14626 54.1708 5.2984ZM58.996 8.85058C59.4041 8.49504 59.4518 7.88646 59.1157 7.48048C58.7802 7.04887 58.2041 6.99842 57.8194 7.35396C57.4121 7.70869 57.3636 8.31727 57.6998 8.72326C58.0118 9.12924 58.5879 9.18049 58.996 8.85058ZM55.2512 19.2525L55.2997 19.785L55.3951 20.9012C55.4435 21.3072 55.6593 21.6876 55.9955 21.9158L56.3559 22.1448C56.6678 22.3474 57.0517 22.2713 57.2675 21.9414L57.484 21.6115C57.724 21.2568 57.7717 20.7995 57.6521 20.3687L57.1713 18.8465C57.1479 18.7704 57.1236 18.7192 57.0994 18.6687C56.9555 18.4405 56.6913 18.3132 56.4036 18.3644L55.7797 18.4909C55.467 18.567 55.227 18.8969 55.2512 19.2525ZM40.3205 17.679C40.1524 17.6542 39.9843 17.7046 39.8647 17.8063C39.7443 17.908 39.6481 18.0601 39.6004 18.2371L39.2643 19.8354C39.1681 20.2414 39.2885 20.673 39.5285 21.0029L39.7928 21.3328C40.0328 21.6371 40.4409 21.6628 40.7286 21.4337L41.0405 21.1807C41.3767 20.9012 41.569 20.4953 41.569 20.0644V18.4661C41.569 18.1106 41.3048 17.8063 40.9686 17.755L40.3205 17.679Z" fill="#E3D067"/>
<path d="M35.8799 69.3079C36.5038 70.5507 36.6476 72.0986 37.6084 73.0883C37.6084 73.1644 37.5842 73.2661 37.5842 73.3422C37.08 73.0371 36.8157 72.5806 36.5999 71.9969C36.288 71.1857 35.9995 70.196 35.8799 69.3079ZM11.6114 119.161C11.0837 119.263 10.4113 119.313 9.61935 119.313C7.84311 119.339 6.4742 118.781 5.44222 118.121C5.3226 119.263 5.20221 120.734 5.15451 121.647C5.08258 123.296 12.0672 129.918 14.06 129.081C16.052 128.243 12.1876 121.444 11.6591 119.313C11.6356 119.263 11.6356 119.211 11.6114 119.161ZM28.5826 119.389C27.7422 118.933 26.446 118.247 25.414 117.537C24.5501 117.917 23.3735 118.273 21.9577 118.323C20.7334 118.375 19.6772 118.121 18.8367 117.791C18.621 119.516 18.3567 121.799 18.5248 122.104C18.789 122.611 29.7827 124.286 31.5347 123.068C33.2875 121.799 30.1188 120.201 28.5826 119.389ZM25.3421 67.5831C25.1255 72.784 24.8855 77.985 24.694 83.1859C24.622 85.0125 24.5978 86.8646 24.5259 88.6912C24.5736 88.6655 24.6455 88.6399 24.7182 88.6151C25.0778 88.5134 25.5101 89.6297 25.5101 89.6297C25.5101 89.6297 26.206 89.3254 26.4702 89.528C26.7344 89.7313 26.6625 90.5177 26.6625 90.5177C26.6625 90.5177 27.8141 90.5938 27.8141 90.9998C27.8626 92.3186 25.3898 93.2827 24.6455 93.4349C24.5978 93.0801 24.622 92.8767 24.3578 92.6741C24.3101 93.5109 24.2616 94.3485 24.1897 95.1861C24.382 95.1605 25.1021 95.0588 25.9659 94.881L24.4297 94.7545C24.4297 94.7545 28.5584 92.3186 29.6146 93.0297C29.663 90.9493 29.1588 84.327 28.7022 78.6192C28.6545 78.0859 28.6068 77.5534 28.5826 77.0457H28.6068C29.1346 76.7158 29.423 76.2337 29.6388 75.6508C29.975 74.7627 30.2627 73.7481 30.4066 72.8089C29.7584 74.1029 29.6146 75.7773 28.5826 76.8175C28.3668 74.0012 28.1503 71.5909 28.0784 70.2977C28.1026 70.0438 28.1268 69.79 28.1268 69.5361C28.4622 64.7156 28.5826 59.8958 28.9907 55.0752C29.423 49.8238 30.215 44.6733 31.2228 39.5228C31.2228 39.498 31.1993 39.498 31.1993 39.5228C29.6388 44.3434 29.0384 49.5948 28.5826 54.6436C28.5584 54.8718 28.5342 55.1256 28.5107 55.3539C28.0784 60.1496 27.8383 64.995 27.9103 69.79C27.5264 69.4601 26.4944 68.6233 25.3421 67.5831ZM17.5882 99.2956C18.0925 98.3315 18.1167 96.6828 18.0682 96.0734C17.7086 96.1495 17.5648 96.2511 17.2528 95.9973C16.9401 95.7691 16.9643 95.5665 16.9401 95.1861C16.1966 95.3127 13.748 96.2768 13.7715 97.6213C13.7715 98.0016 14.9239 98.1033 14.9239 98.1033L16.3405 99.4734C16.1724 99.499 15.9801 99.5239 15.7885 99.5495C15.4758 99.5751 15.1639 99.6256 14.8519 99.6512C11.4675 99.9555 6.4265 97.5452 3.59405 95.7443C2.49015 95.0332 1.72165 94.4246 1.52934 94.0947C1.09777 93.3588 1.98589 82.9321 2.60977 76.3098C2.75363 77.4517 3.01787 78.5175 3.52212 79.3295C3.90599 79.938 4.43447 80.4457 4.98643 80.8517C4.5064 80.3945 4.33832 79.7603 4.0983 79.1517C4.0983 79.1261 4.12178 79.1261 4.12178 79.1517C4.41025 79.8115 4.81834 80.4201 5.22644 81.0038V81.0287C5.73069 81.3586 6.25842 81.5876 6.71421 81.7397C6.33035 81.5364 6.04263 81.1816 5.80262 80.8261C5.34607 80.1663 4.93797 79.3799 4.62603 78.6192C4.62603 78.6192 4.62603 78.5936 4.65026 78.6192C5.08258 79.1773 5.39452 79.7859 5.75416 80.3945C6.09033 80.9278 6.52266 81.3586 6.95423 81.7902V81.8158C7.41078 81.9423 7.77042 81.9928 8.01043 81.9928C8.13082 81.9928 8.2512 81.968 8.39506 81.9423C7.02691 81.1304 6.28265 79.7859 5.94648 78.1619C5.94648 78.1371 5.97071 78.1115 5.99418 78.1371C6.7869 79.4816 7.31462 80.8765 8.51469 81.9167C9.37934 81.7902 10.4355 81.4347 9.42704 80.6996C8.20275 79.8115 7.05038 76.4115 7.195 75.7517C7.36232 75.0926 7.84311 75.9294 8.51469 76.9952C9.18703 78.0354 10.5309 78.8722 10.771 78.467C11.011 78.0611 10.0274 76.6653 9.76321 75.7773C9.52319 74.9405 8.41853 72.7584 8.22698 72.4285C8.20275 72.4541 8.15505 72.4285 8.15505 72.4029C8.15505 72.378 8.15505 72.3524 8.13082 72.3268C7.53041 69.5874 7.60234 66.619 7.67502 63.8283C7.74695 60.8847 7.96273 57.9675 8.27467 55.0496C8.37083 54.2128 8.44276 53.4008 8.53892 52.5632C8.77893 50.4324 9.04317 48.3264 9.28318 46.1955C9.42704 45.0032 9.54742 43.8109 9.33088 42.6185C9.28318 42.3391 9.21125 42.0852 9.13933 41.8314C8.92278 41.0963 8.63507 40.3604 8.41853 39.6245C8.39506 39.574 8.46699 39.5484 8.49122 39.5989C8.68277 40.0809 8.87508 40.5382 9.01894 40.9946C9.52319 42.3895 9.83514 43.7092 9.71475 45.3075C9.52319 48.2503 9.1151 51.1683 8.82663 54.0854C8.53892 56.9274 8.27467 59.7685 8.13082 62.6352C8.13082 62.8642 8.10659 63.1172 8.10659 63.3463C8.05889 64.919 8.08312 66.4916 8.13082 68.0395C8.17852 69.4857 8.2512 70.9567 8.2512 72.4029C14.8762 72.302 20.9734 63.3206 21.2853 62.889C18.0925 57.7898 16.0285 51.6247 14.6361 45.7135C13.6519 41.4767 13.028 37.1125 13.0038 32.7492C13.0038 32.6731 13.0515 32.597 13.1234 32.5466C15.6681 30.9482 17.8767 29.3499 19.7968 27.0662C19.7968 27.0662 19.7968 27.0662 19.821 27.0662C19.8452 27.0662 19.8687 27.0918 19.8452 27.1166C19.0048 28.4106 18.0925 29.5021 16.9166 30.491C16.4843 30.8465 16.052 31.1765 15.572 31.4808C15.0677 31.8107 13.6996 32.3688 13.4596 32.9269C13.3157 33.2817 13.4838 34.0936 13.508 34.474C13.5315 35.1338 13.5799 35.7937 13.6519 36.4535C13.7715 37.9245 13.9396 39.3963 14.1796 40.8425C14.7081 44.1408 15.5 47.4135 16.4843 50.6101C17.8048 54.8214 19.6529 58.7283 21.333 62.7881C21.333 62.813 21.333 62.813 21.3096 62.8386C21.9092 64.2847 23.6854 66.1617 25.2701 67.6079C24.5736 72.708 24.2616 77.8833 24.0701 83.033C24.0216 84.0988 23.9739 85.139 23.9497 86.2048C23.662 86.1792 23.1577 86.5091 23.1577 86.5091C23.1577 86.5091 23.0858 84.327 22.1734 84.327C21.2853 84.327 21.1892 86.5091 21.1892 86.5091C21.1892 86.5091 20.4691 86.0527 20.2533 86.2809C19.4848 87.0168 21.8615 90.2134 21.8615 90.2134L22.1734 86.9151L22.4854 90.2134C22.4854 90.2134 23.3977 88.9954 23.902 87.8792C23.8778 88.4117 23.8778 88.945 23.8778 89.4775C23.422 90.4672 23.3977 92.0143 23.4697 92.5724C23.6377 92.522 23.7816 92.4964 23.902 92.4964C23.9255 93.41 23.9739 94.3229 24.0458 95.211C24.0458 95.2622 24.0701 95.2622 24.1178 95.2622L24.2616 97.9255C24.2616 97.9255 22.8693 98.3067 20.8288 98.7375L21.4534 98.1289C21.4534 98.1289 22.6058 98.0529 22.6058 97.6469C22.6535 96.3272 20.2049 95.3887 19.4372 95.211C19.3887 95.5913 19.4372 95.7691 19.1245 96.0229C18.8125 96.2511 18.6444 96.1751 18.309 96.099C18.2363 96.6571 18.2606 98.1538 18.6929 99.1435C18.3325 99.1691 17.9486 99.2196 17.5882 99.2956ZM19.101 93.4861C19.4372 93.6383 19.6052 93.6639 19.7249 94.0691C19.8452 94.4502 19.7006 94.6024 19.5325 94.9323C20.2049 95.287 22.7254 96.0229 23.4454 94.9323C23.662 94.6024 22.7731 93.8409 22.7731 93.8409C22.7731 93.8409 23.2539 93.2579 23.1577 92.9024C23.0616 92.5724 22.3173 92.3947 22.3173 92.3947C22.3173 92.3947 22.5815 91.228 22.2454 91.0758C21.0688 90.6194 19.4848 92.7758 19.101 93.4861ZM20.1087 89.4271C19.8929 89.122 18.9087 89.7562 18.9087 89.7562C18.9087 89.7562 18.5248 89.0715 18.1886 89.0715C17.8525 89.0715 17.4686 89.7562 17.4686 89.7562C17.4686 89.7562 16.4843 89.122 16.2685 89.4271C15.5 90.4672 16.9643 92.7502 17.4686 93.3588C17.7086 93.0801 17.8048 92.9024 18.1886 92.9024C18.5725 92.9024 18.6687 93.0801 18.9087 93.3588C19.4129 92.7758 20.8772 90.4672 20.1087 89.4271ZM17.7563 88.31L18.0682 83.668L18.3809 88.31C18.3809 88.31 20.7568 83.8201 19.9891 82.7799C19.7726 82.4748 19.0525 83.109 19.0525 83.109C19.0525 83.109 18.9806 80.0654 18.0682 80.0654C17.1801 80.0654 17.0847 83.109 17.0847 83.109C17.0847 83.109 16.3639 82.4748 16.1481 82.7799C15.4039 83.8449 17.7563 88.31 17.7563 88.31ZM13.8676 90.1622L14.1796 86.8646L14.4923 90.1622C14.4923 90.1622 16.8682 86.9655 16.1004 86.2296C15.8839 86.0014 15.1639 86.4586 15.1639 86.4586C15.1639 86.4586 15.0919 84.2766 14.1796 84.2766C13.2915 84.2766 13.1961 86.4586 13.1961 86.4586C13.1961 86.4586 12.4753 86.0014 12.2595 86.2296C11.4918 86.9655 13.8676 90.1622 13.8676 90.1622ZM7.57887 95.0844L11.9718 94.7545C11.9718 94.7545 7.72272 92.2425 6.73844 93.0545C6.45073 93.2827 7.05038 94.0443 7.05038 94.0443C7.05038 94.0443 4.17023 94.1203 4.17023 95.0844C4.17023 96.0229 7.05038 96.1246 7.05038 96.1246C7.05038 96.1246 6.45073 96.8854 6.73844 97.1136C7.72272 97.9255 11.9718 95.4144 11.9718 95.4144L7.57887 95.0844ZM11.6591 88.6151C11.2994 88.5134 10.8671 89.6297 10.8671 89.6297C10.8671 89.6297 10.1713 89.3254 9.90706 89.528C9.64282 89.7313 9.71475 90.5177 9.71475 90.5177C9.71475 90.5177 8.56314 90.5938 8.56314 90.9998C8.51469 92.3186 10.9875 93.2827 11.7318 93.4349C11.7795 93.0545 11.7318 92.8767 12.0437 92.6237C12.3556 92.3947 12.5237 92.4708 12.8599 92.5476C12.9561 91.71 12.8599 88.9698 11.6591 88.6151ZM16.8205 94.9323C16.6524 94.6024 16.5085 94.4751 16.6282 94.0691C16.7486 93.6887 16.9401 93.6639 17.2528 93.4861C16.8924 92.7758 15.2843 90.6194 14.0842 91.0502C13.748 91.1775 14.0115 92.3699 14.0115 92.3699C14.0115 92.3699 13.2915 92.5476 13.1718 92.8767C13.0757 93.2066 13.5557 93.816 13.5557 93.816C13.5557 93.816 12.6676 94.6024 12.8834 94.9067C13.6276 96.0229 16.1239 95.2622 16.8205 94.9323ZM70.0382 83.3381C68.5019 83.2107 66.5334 83.4902 65.0691 84.3783C65.0691 84.3783 63.7728 84.9364 62.6447 85.7227L62.2124 91.8878C62.2843 92.3442 62.2608 92.8263 62.117 93.2827L61.9004 96.5306L61.8762 96.8605C65.2129 93.9682 70.4705 88.4878 72.1506 84.8603C72.2225 84.6825 72.2944 84.4543 72.3187 84.2261C72.1021 83.8449 71.214 83.515 70.0382 83.3381ZM65.7414 67.7601C64.0129 74.3063 62.0443 80.7756 60.9162 87.4732C60.8927 87.5493 61.0123 87.5997 61.0366 87.4988C62.8605 80.9526 64.0848 74.2294 65.7891 67.6592C65.7891 67.7096 65.7656 67.7352 65.7414 67.7601ZM64.8291 66.213C64.8048 66.0857 64.8048 65.9335 64.7814 65.7814C64.7814 65.7814 64.7814 65.7814 64.7571 65.7814C62.3328 65.4266 59.7403 65.0206 57.8922 63.1933C57.8437 63.1429 57.796 63.2189 57.8195 63.2702C59.6442 65.2737 62.1162 65.8318 64.6367 66.2891C64.7094 66.2634 64.7814 66.2378 64.8291 66.213ZM53.3554 74.0268C53.787 81.562 55.0832 89.2237 56.9556 96.505C56.9798 96.5554 57.004 96.5811 57.0517 96.5811C57.0994 96.5811 57.1479 96.5306 57.1479 96.4545C55.9478 88.945 54.0989 81.6124 53.3554 74.0268C53.3554 74.0012 53.3554 74.0012 53.3554 74.0268ZM42.121 71.1857C41.7606 75.9046 41.2329 80.5722 40.7771 85.2911C40.5605 87.651 40.3205 89.9852 40.0805 92.3442C39.8647 94.628 39.4324 97.0375 39.5528 99.3213V99.3469C39.5528 99.3717 39.5762 99.3973 39.6005 99.423C39.6247 99.423 39.6724 99.423 39.6724 99.3717C40.2009 97.2665 40.2728 95.0084 40.5128 92.8519C40.7771 90.416 41.0171 87.9809 41.2329 85.545C41.6887 80.7756 41.9529 75.9807 42.121 71.1857C42.1452 71.1601 42.121 71.1601 42.121 71.1857ZM48.4582 61.1642L48.5302 61.5445C48.5302 61.4685 48.5302 61.3668 48.5059 61.2659C48.4825 61.2403 48.4825 61.1898 48.4582 61.1642ZM51.7465 60.9608C51.7465 60.9608 52.2265 60.3778 52.1311 60.0223C52.0349 59.6924 51.2907 59.5146 51.2907 59.5146C51.2907 59.5146 51.5549 58.3479 51.2188 58.2214C50.1868 57.8154 48.8421 59.4385 48.2659 60.3266L48.3621 60.7838C48.5302 60.8599 48.6263 60.9608 48.6982 61.2146C48.7944 61.5445 48.7225 61.6967 48.5779 61.9249L48.6263 62.1283C49.4425 62.483 51.723 63.1172 52.3946 62.077C52.6346 61.7223 51.7465 60.9608 51.7465 60.9608ZM48.6982 62.3821L49.466 66.1617C49.6825 66.2378 50.0422 66.3395 50.2345 66.1874C50.4987 65.9848 50.4268 65.1976 50.4268 65.1976C50.4268 65.1976 51.5549 65.1215 51.5784 64.7156C51.6268 63.5232 49.6341 62.6608 48.6982 62.3821ZM42.7449 64.7156C42.7449 65.0967 43.8972 65.1976 43.8972 65.1976C43.8972 65.1976 43.8253 65.9848 44.0895 66.1874C44.1857 66.2634 44.3053 66.2634 44.4492 66.2634L45.0738 62.5591C44.0895 62.9403 42.7214 63.7266 42.7449 64.7156ZM43.1053 58.2214C42.7691 58.3479 43.0333 59.5146 43.0333 59.5146C43.0333 59.5146 42.3133 59.6924 42.1929 60.0223C42.0968 60.3522 42.5768 60.9608 42.5768 60.9608C42.5768 60.9608 41.7129 61.7479 41.9052 62.0522C42.4572 62.9146 44.0653 62.6352 45.0973 62.3061L45.5538 59.6163C44.9057 58.8043 43.9215 57.9163 43.1053 58.2214ZM49.0821 56.5718C48.8663 56.2675 47.882 56.9017 47.882 56.9017C47.882 56.9017 47.6897 56.5718 47.4497 56.3692L48.194 60.0479C48.8421 59.1343 49.7302 57.4342 49.0821 56.5718ZM45.2654 56.5718C44.7854 57.2316 45.1692 58.3479 45.6492 59.2359L46.0816 56.6735C45.7939 56.5214 45.3858 56.3692 45.2654 56.5718ZM39.0962 60.8847C39.0962 60.9103 39.0962 60.9103 39.0962 60.936C39.0001 61.4428 38.9281 61.7479 38.9281 61.7479C38.9766 61.8488 39.0243 61.9249 39.0728 62.0266L40.9929 61.8745C40.9929 61.8745 40.129 61.3668 39.0962 60.8847ZM40.9929 62.5343L39.2643 62.407C39.4324 62.6864 39.6005 62.9403 39.7928 63.1933C40.4886 62.8386 40.9929 62.5343 40.9929 62.5343ZM53.955 62.5087L53.4031 62.5591C53.4031 62.5591 53.5469 62.6352 53.7627 62.7625C53.8354 62.6608 53.9073 62.5847 53.955 62.5087ZM55.1793 60.9608C54.1951 61.418 53.4273 61.9001 53.4273 61.9001L54.4108 61.9762C54.6751 61.6206 54.9151 61.2907 55.1793 60.9608ZM41.0648 59.7436C41.3767 59.5146 41.5448 59.5907 41.881 59.6676C41.9529 58.8556 41.881 56.1154 40.6809 55.7598C40.3924 55.6589 40.0563 56.4197 39.9366 56.6735C39.6724 57.9163 39.4566 59.0838 39.2643 59.9967C39.8405 60.3018 40.4409 60.4787 40.7286 60.5548C40.7771 60.1744 40.7528 59.9718 41.0648 59.7436ZM53.6189 60.5548C54.3631 60.4283 56.8117 59.4642 56.7633 58.1453C56.7633 57.7641 55.6117 57.6632 55.6117 57.6632C55.6117 57.6632 55.6836 56.8761 55.4193 56.6735C55.1551 56.4709 54.4593 56.7752 54.4593 56.7752C54.4593 56.7752 54.027 55.6589 53.6673 55.7598C52.4665 56.141 52.3946 58.8556 52.4665 59.6676C52.8269 59.5907 52.9708 59.5146 53.2827 59.7436C53.6189 59.9718 53.5712 60.1744 53.6189 60.5548ZM48.986 49.9503C48.7702 49.646 48.0501 50.2802 48.0501 50.2802C48.0501 50.2802 47.9782 47.2357 47.0659 47.2357C46.9697 47.2357 46.8978 47.2614 46.8258 47.3118C46.8978 47.946 46.9462 48.5802 46.9697 49.24C46.9697 50.4828 46.8735 51.7264 46.7781 52.9444L46.8978 53.5025L47.0901 50.8127L47.402 55.4307C47.3778 55.4812 49.7544 50.9905 48.986 49.9503ZM46.442 47.946C46.13 48.8341 46.0816 50.2802 46.0816 50.2802C46.0816 50.2802 45.3615 49.646 45.1458 49.9503C44.5696 50.7367 45.7696 53.4512 46.3935 54.7709L46.682 52.9948C46.6101 51.6247 46.5858 50.2546 46.5139 48.8845C46.5139 48.5802 46.4897 48.2503 46.442 47.946ZM43.1772 51.4469C42.2891 51.4469 42.1929 53.6034 42.1929 53.6034C42.1929 53.6034 41.4729 53.147 41.2571 53.3752C40.4886 54.1111 42.841 57.3077 42.841 57.3077L43.153 54.0094L43.4649 57.3077C43.4649 57.3077 45.8173 54.1367 45.0738 53.3752C44.8573 53.147 44.1372 53.6034 44.1372 53.6034C44.1372 53.6034 44.0895 51.4469 43.1772 51.4469ZM51.1945 51.4469C50.3064 51.4469 50.2102 53.6034 50.2102 53.6034C50.2102 53.6034 49.4902 53.147 49.2744 53.3752C48.5059 54.1111 50.8584 57.3077 50.8584 57.3077L51.1703 54.0094L51.483 57.3077C51.483 57.3077 53.8354 54.1367 53.0912 53.3752C52.8746 53.147 52.1546 53.6034 52.1546 53.6034C52.1546 53.6034 52.1069 51.4469 51.1945 51.4469ZM10.9875 15.0403C11.4918 16.1822 12.4753 17.9078 14.3242 19.4045C13.1234 18.3899 12.2118 16.9942 11.8037 15.3702C11.5637 15.2693 11.2752 15.1676 10.9875 15.0403ZM55.7313 8.03846C55.4913 7.81024 55.227 7.58203 54.9393 7.37863C54.6516 7.17604 54.3389 6.99827 53.9793 6.8205C53.2827 6.49059 52.5627 6.26237 51.8426 6.11023C51.5065 6.03415 51.1703 5.98371 50.8349 5.95808C49.706 5.83156 48.6021 5.90763 47.5701 6.16067C47.2816 6.23675 46.9939 6.31362 46.7297 6.38969C45.6735 6.74443 44.6892 7.27694 43.8253 7.96239C43.5853 8.16498 43.3453 8.36837 43.1295 8.57097C42.5049 9.18035 41.9771 9.865 41.5448 10.6265C41.401 10.8547 41.3048 11.1086 41.2086 11.3872C40.849 12.3514 40.7286 13.4172 40.7286 14.4061C41.0171 14.5078 41.2571 14.6095 41.4252 14.7112C41.4971 14.7617 41.569 14.7873 41.5925 14.8121C41.641 14.8377 41.6652 14.8634 41.6652 14.8634L41.6887 14.9394C41.7129 14.8377 41.7371 14.7617 41.7606 14.66C42.9372 13.4932 46.3458 10.1445 46.682 9.53508C46.682 9.53508 49.4902 11.7428 52.0826 13.4172C51.5065 13.3659 50.9303 13.5181 50.5949 13.8992C50.4987 14.0001 50.6183 14.1531 50.7145 14.1531C51.0984 14.1531 51.4588 14.0258 51.8426 14.0514C52.2265 14.0762 52.5869 14.2035 52.9473 14.2796C53.0669 14.3052 53.1631 14.2291 53.235 14.1275C54.3154 14.7873 55.2755 15.2437 55.8032 15.2437C55.8032 15.2942 55.8274 15.3454 55.8274 15.3959C56.2355 15.1933 56.7398 15.0403 57.2198 15.1933C57.4356 14.0001 57.5795 12.554 57.316 11.159C57.0994 10.0684 56.6194 8.95213 55.7313 8.03846ZM16.6524 34.5757C16.6524 34.1449 16.3162 33.7893 15.9081 33.7893C15.5 33.7893 15.1639 34.1449 15.1639 34.5757C15.1639 35.0073 15.5 35.362 15.9081 35.362C16.3162 35.3372 16.6524 35.0073 16.6524 34.5757ZM16.6524 42.2886C17.0605 42.2886 17.3967 41.9331 17.3967 41.5023C17.3967 41.0707 17.0605 40.7151 16.6524 40.7151C16.2443 40.7151 15.9081 41.0707 15.9081 41.5023C15.9081 41.9331 16.2443 42.2886 16.6524 42.2886ZM17.9728 48.9606C18.3809 48.9606 18.7164 48.6058 18.7164 48.1742C18.7164 47.7434 18.3809 47.3879 17.9728 47.3879C17.5648 47.3879 17.2286 47.7434 17.2286 48.1742C17.2286 48.6058 17.5648 48.9606 17.9728 48.9606ZM18.789 53.6795C18.789 54.1111 19.1245 54.4666 19.5325 54.4666C19.9406 54.4666 20.2768 54.1111 20.2768 53.6795C20.2768 53.2487 19.9406 52.8931 19.5325 52.8931C19.1245 52.8931 18.789 53.2487 18.789 53.6795ZM22.0054 60.124C22.4135 60.124 22.7496 59.7685 22.7496 59.3376C22.7496 58.906 22.4135 58.5505 22.0054 58.5505C21.5973 58.5505 21.2611 58.906 21.2611 59.3376C21.2853 59.7941 21.5973 60.124 22.0054 60.124ZM24.142 3.04011C23.5893 2.63492 22.9412 2.30501 22.1492 2.10161C19.341 1.26482 17.0128 1.49304 15.1639 2.17769C17.6124 3.04011 20.7091 5.27343 20.7091 5.27343C22.1977 4.8162 23.4939 3.69993 24.142 3.04011ZM23.9974 5.47602C23.9497 5.50165 23.902 5.5521 23.8535 5.57772C23.8293 5.60254 23.8058 5.60254 23.7816 5.62817C23.7339 5.65379 23.6854 5.70424 23.6377 5.72987C23.5893 5.75469 23.5658 5.75469 23.5416 5.78031C23.4939 5.80594 23.4212 5.85639 23.3735 5.88201C23.3493 5.90763 23.3258 5.90763 23.3016 5.93246C23.1335 6.03415 22.9896 6.11023 22.8216 6.21192C22.7973 6.21192 22.7973 6.23675 22.7731 6.23675C22.7012 6.26237 22.6292 6.31362 22.5815 6.33844C22.5573 6.33844 22.5331 6.36407 22.5096 6.36407C22.4377 6.38969 22.3892 6.41452 22.3173 6.46576C22.2931 6.46576 22.2696 6.49059 22.2454 6.49059C22.1734 6.51621 22.125 6.54184 22.0531 6.56666C22.0296 6.56666 22.0296 6.59229 22.0054 6.59229C21.9334 6.61791 21.8615 6.66836 21.7896 6.69398C24.5501 7.60685 26.3021 9.38294 27.2379 10.753C27.2379 9.07865 26.9502 6.13585 25.2217 4.0803C25.1982 4.15637 25.1498 4.20762 25.1255 4.28369C25.1021 4.30931 25.1021 4.33414 25.0778 4.35976C25.0536 4.41021 25.0301 4.43583 24.9817 4.48628C24.9582 4.51191 24.9582 4.53753 24.934 4.56235C24.9097 4.6136 24.862 4.63843 24.8378 4.68968C24.8136 4.7145 24.7901 4.74012 24.7659 4.76575C24.7417 4.8162 24.694 4.84182 24.6697 4.89227C24.6455 4.91789 24.622 4.94352 24.5978 4.96834C24.5501 5.01959 24.5016 5.04441 24.4539 5.09566C24.4297 5.12049 24.4297 5.12049 24.4055 5.14611C24.3336 5.19656 24.2859 5.27343 24.2139 5.32388C24.1897 5.32388 24.1897 5.3495 24.1655 5.3495C24.1178 5.39995 24.0458 5.42558 23.9974 5.47602C24.0458 5.42558 24.0216 5.4504 23.9974 5.47602ZM10.5075 11.083C11.6833 9.48464 14.8042 5.88201 19.101 6.13585C18.9329 6.00853 18.7406 5.88201 18.5248 5.75469C17.3967 5.07004 15.9566 4.41021 14.7323 3.92815C14.7323 3.92815 14.7323 3.92815 14.7081 3.92815C14.4681 3.82726 14.228 3.75118 13.988 3.64949C13.9638 3.64949 13.9638 3.62386 13.9396 3.62386C13.8199 3.57341 13.7238 3.54779 13.6276 3.49734C13.5315 3.47172 13.4361 3.42127 13.3399 3.39565C13.3157 3.39565 13.2915 3.37002 13.268 3.37002C13.1718 3.3452 13.0757 3.29395 13.0038 3.26912C12.0437 3.92815 11.3237 4.66405 10.8671 5.29825C9.71475 6.89657 10.0032 9.94107 10.1471 11.0069C10.2675 11.0573 10.3871 11.0573 10.5075 11.083ZM23.4697 13.0873C23.5174 12.6052 23.1812 12.1992 22.7496 12.1488C22.2931 12.0975 21.9092 12.4531 21.8615 12.9095C21.813 13.3916 22.1492 13.7975 22.5815 13.848C23.0139 13.8992 23.4212 13.5437 23.4697 13.0873ZM17.0363 11.2607C17.1567 11.2607 17.2528 11.1086 17.1567 11.0069C16.5562 10.3471 15.2358 10.4231 14.5642 10.8796C14.3242 11.0325 14.54 11.4633 14.78 11.3872C15.1639 11.3112 15.5 11.159 15.8839 11.159C16.292 11.1334 16.6766 11.2607 17.0363 11.2607ZM24.0458 10.8547C23.3493 10.4488 22.0296 10.4488 21.4769 11.159C21.3815 11.2855 21.5011 11.4129 21.6215 11.4129C22.0054 11.3872 22.3658 11.2351 22.7496 11.2351C23.1335 11.2351 23.4939 11.3368 23.8778 11.3872C24.1178 11.4129 24.2859 11.0069 24.0458 10.8547ZM19.7006 15.3959C19.4848 15.548 19.7491 15.9284 19.9649 15.7514C20.1087 15.6241 20.1572 15.4215 20.1087 15.2437C20.0853 15.142 20.0368 15.0659 19.9891 14.9899C19.9406 14.9138 19.8452 14.8377 19.821 14.736C19.7491 14.5078 19.4129 14.5583 19.4606 14.8121C19.4848 14.9642 19.5568 15.0659 19.6287 15.1933C19.6529 15.2437 19.6772 15.2693 19.7006 15.3198C19.7249 15.3454 19.7249 15.3702 19.7006 15.3959ZM15.7885 14.0258C16.2443 14.0762 16.6282 13.7215 16.6766 13.265C16.7243 12.783 16.3882 12.377 15.9566 12.3257C15.5 12.2753 15.1162 12.6308 15.0677 13.0873C15.02 13.5437 15.3562 13.9753 15.7885 14.0258ZM17.7805 17.1207C18.3567 18.3387 21.1649 18.3899 21.5253 16.9942C21.5496 16.9437 21.5011 16.9181 21.4534 16.9437C20.9492 17.2224 20.2291 17.3745 19.6287 17.4258C18.9571 17.4762 18.4286 17.2985 17.7805 17.1207ZM44.4015 16.0557C44.4492 16.5377 44.8338 16.8677 45.2896 16.8164C45.7454 16.766 46.0573 16.36 46.0096 15.8779C45.9619 15.3959 45.5773 15.0659 45.1215 15.1164C44.6892 15.1676 44.353 15.5736 44.4015 16.0557ZM43.8253 13.8232C43.5853 13.9753 43.7534 14.4061 44.0176 14.3557C44.4015 14.3052 44.7611 14.1779 45.1458 14.2035C45.5296 14.2035 45.89 14.3557 46.2739 14.3813C46.3935 14.3813 46.5139 14.254 46.4177 14.1275C45.8416 13.4172 44.5211 13.4172 43.8253 13.8232ZM48.2424 18.1361C48.3144 18.0087 48.3863 17.9078 48.4098 17.7549C48.4582 17.5019 48.1221 17.4506 48.0501 17.6788C48.0259 17.7805 47.9297 17.8566 47.882 17.9327C47.8343 18.0087 47.7859 18.0848 47.7617 18.1865C47.714 18.3643 47.7382 18.5669 47.9063 18.6942C48.1221 18.872 48.4098 18.5164 48.1698 18.3387C48.1463 18.3138 48.1463 18.3138 48.1698 18.237C48.1698 18.2121 48.2182 18.1865 48.2424 18.1361ZM51.7707 15.2437C51.3149 15.2942 51.003 15.7001 51.0507 16.1822C51.0984 16.6643 51.483 16.9942 51.9388 16.9437C52.3946 16.8925 52.7065 16.4865 52.6588 16.0044C52.6111 15.548 52.203 15.1933 51.7707 15.2437ZM46.3216 19.9626C46.682 21.3575 49.5144 21.3071 50.0906 20.1147C50.0906 20.1147 50.0906 20.0891 50.0664 20.0891C49.4425 20.2413 48.8906 20.4447 48.2182 20.3686C47.642 20.3173 46.922 20.1908 46.3935 19.8865C46.37 19.8865 46.3216 19.9122 46.3216 19.9626ZM46.202 23.92C46.202 23.9456 46.202 23.9456 46.2254 23.9456C46.2739 23.9712 46.3216 23.996 46.37 24.0217C48.0978 24.9602 50.4026 24.9858 51.9146 23.6157L51.9388 23.5909C51.9388 23.5396 51.9146 23.514 51.8669 23.514C49.9225 24.1234 48.2182 24.4533 46.202 23.92ZM21.4534 20.4951C21.5011 20.4703 21.4769 20.3934 21.4292 20.3934C19.5568 20.9523 17.6367 20.5464 15.8362 19.9626C15.812 19.9626 15.7885 19.9882 15.812 20.013C17.2044 21.3327 19.8929 21.6626 21.4534 20.4951Z" fill="#7F2418"/>
</svg>
