<svg width="124" height="143" viewBox="0 0 124 143" fill="none" xmlns="http://www.w3.org/2000/svg">
<mask id="mask0_294_29172" style="mask-type:luminance" maskUnits="userSpaceOnUse" x="74" y="74" width="50" height="69">
<path d="M74.6667 74.3606H123.139V142.059H74.6667V74.3606Z" fill="white"/>
</mask>
<g mask="url(#mask0_294_29172)">
<path d="M121.004 135.425L123.119 135L112.435 76.2317L110.32 76.6567L115.782 106.594L106.812 108.012L104.589 79.1511L101.858 79.3779L104.08 108.21L85.6303 105.261L93.5834 75.3806L90.9593 74.5874L74.8386 135.114L77.4628 135.907L81.185 121.931L105.419 125.815L106.678 142.059L109.409 141.832L108.177 125.729L118.861 123.547L121.004 135.425ZM81.935 119.096L84.8803 108.069L104.294 111.186L105.178 122.838L81.935 119.096ZM107.936 122.782L107.026 110.875L116.291 109.429L118.326 120.655L107.936 122.782Z" fill="#6C6533"/>
</g>
<mask id="mask1_294_29172" style="mask-type:luminance" maskUnits="userSpaceOnUse" x="0" y="74" width="50" height="69">
<path d="M0.805664 74.3606H49.3334V142.048H0.805664V74.3606Z" fill="white"/>
</mask>
<g mask="url(#mask1_294_29172)">
<path d="M46.508 135.879L49.1321 135.085L33.0123 74.5588L30.3882 75.353L38.3413 105.233L19.8908 108.181L22.1139 79.3502L19.3821 79.1235L17.1599 107.983L8.1894 106.566L13.6252 76.6282L11.5097 76.2031L0.825684 135L2.94114 135.425L5.10954 123.519L15.7944 125.702L14.5627 141.804L17.2936 142.031L18.5522 125.786L42.7858 121.903L46.508 135.879ZM16.0349 122.781L5.64513 120.655L7.68072 109.429L16.9455 110.875L16.0349 122.781ZM18.7667 122.81L19.6503 111.158L39.0644 108.04L42.0097 119.068L18.7667 122.81Z" fill="#A94E25"/>
</g>
<path d="M9.58154 74.8711C9.58154 74.8711 10.2239 78.8399 13.8124 79.4064C17.401 79.9737 28.4869 79.4064 28.4869 79.4064V74.8711H9.58154Z" fill="#261E33"/>
<path d="M114.39 74.8711C114.39 74.8711 113.747 78.8399 110.159 79.4064C106.57 79.9737 95.4844 79.4064 95.4844 79.4064V74.8711H114.39Z" fill="#261E33"/>
<path d="M114.363 74.8712C114.363 74.9519 114.339 75.0318 114.289 75.1126C114.24 75.1925 114.167 75.2723 114.069 75.3522C113.971 75.4312 113.849 75.5092 113.703 75.5863C113.557 75.6644 113.389 75.7396 113.197 75.8149C113.005 75.8893 112.791 75.9618 112.554 76.0334C112.318 76.105 112.06 76.1739 111.781 76.2409C111.503 76.3079 111.204 76.3731 110.886 76.4355C110.568 76.498 110.231 76.5576 109.877 76.6146C109.522 76.6715 109.15 76.7257 108.763 76.7771C108.375 76.8285 107.972 76.8762 107.556 76.9212C107.138 76.9662 106.708 77.0075 106.267 77.0461C105.824 77.0837 105.371 77.1186 104.907 77.1498C104.444 77.1801 103.972 77.2076 103.492 77.2306C103.012 77.2545 102.526 77.2737 102.034 77.2894C101.542 77.3059 101.047 77.3178 100.547 77.3252C100.048 77.3334 99.5478 77.3371 99.0461 77.3371C98.5444 77.3371 98.0435 77.3334 97.5444 77.3252C97.0452 77.3178 96.5496 77.3059 96.0574 77.2894C95.5661 77.2737 95.0799 77.2545 94.5999 77.2306C94.1199 77.2076 93.6477 77.1801 93.1841 77.1498C92.7206 77.1186 92.2683 77.0837 91.8256 77.0461C91.3829 77.0075 90.9532 76.9662 90.5365 76.9212C90.119 76.8762 89.7171 76.8285 89.3291 76.7771C88.9411 76.7257 88.5704 76.6715 88.2154 76.6146C87.8603 76.5576 87.5244 76.498 87.2058 76.4355C86.8872 76.3731 86.5895 76.3079 86.3108 76.2409C86.0313 76.1739 85.7744 76.105 85.5374 76.0334C85.3013 75.9618 85.0869 75.8893 84.895 75.8149C84.7032 75.7396 84.5339 75.6644 84.389 75.5863C84.2431 75.5092 84.1216 75.4312 84.0235 75.3522C83.9254 75.2723 83.8516 75.1925 83.803 75.1126C83.7536 75.0318 83.7292 74.9519 83.7292 74.8712C83.7292 74.7904 83.7536 74.7096 83.803 74.6288C83.8516 74.5489 83.9254 74.469 84.0235 74.3892C84.1216 74.3102 84.2431 74.2322 84.389 74.1551C84.5339 74.0779 84.7032 74.0017 84.895 73.9265C85.0869 73.8521 85.3013 73.7796 85.5374 73.708C85.7744 73.6373 86.0322 73.5675 86.3108 73.5005C86.5895 73.4335 86.8872 73.3683 87.2058 73.3058C87.5244 73.2434 87.8603 73.1837 88.2154 73.1268C88.5704 73.0699 88.9411 73.0157 89.3291 72.9643C89.7171 72.9129 90.119 72.8652 90.5365 72.8202C90.9532 72.7752 91.3829 72.7339 91.8256 72.6953C92.2683 72.6577 92.7206 72.6228 93.1841 72.5925C93.6477 72.5613 94.1199 72.5337 94.5999 72.5108C95.0799 72.4869 95.5661 72.4676 96.0574 72.452C96.5496 72.4364 97.0452 72.4245 97.5444 72.4162C98.0435 72.408 98.5444 72.4043 99.0461 72.4043C99.5478 72.4043 100.048 72.408 100.547 72.4162C101.047 72.4245 101.542 72.4364 102.034 72.452C102.526 72.4676 103.012 72.4869 103.492 72.5108C103.972 72.5337 104.444 72.5613 104.907 72.5925C105.371 72.6228 105.824 72.6577 106.267 72.6953C106.708 72.7339 107.138 72.7752 107.556 72.8202C107.972 72.8652 108.375 72.9129 108.763 72.9643C109.15 73.0157 109.522 73.0699 109.877 73.1268C110.231 73.1837 110.568 73.2434 110.886 73.3058C111.204 73.3683 111.503 73.4335 111.781 73.5005C112.06 73.5675 112.318 73.6373 112.554 73.708C112.791 73.7796 113.005 73.8521 113.197 73.9265C113.389 74.0017 113.557 74.0779 113.703 74.1551C113.849 74.2322 113.971 74.3102 114.069 74.3892C114.167 74.469 114.24 74.5489 114.289 74.6288C114.339 74.7096 114.363 74.7904 114.363 74.8712Z" fill="#6C6533"/>
<path d="M40.2421 74.8712C40.2421 74.9519 40.2169 75.0318 40.1683 75.1126C40.1188 75.1925 40.0459 75.2723 39.9478 75.3522C39.8497 75.4312 39.7282 75.5092 39.5824 75.5863C39.4365 75.6644 39.2681 75.7396 39.0763 75.8149C38.8844 75.8893 38.67 75.9618 38.4331 76.0334C38.1969 76.105 37.9391 76.1739 37.6605 76.2409C37.3818 76.3079 37.0832 76.3731 36.7655 76.4355C36.4469 76.498 36.1101 76.5576 35.756 76.6146C35.4009 76.6715 35.0294 76.7257 34.6423 76.7771C34.2542 76.8285 33.8515 76.8762 33.4348 76.9212C33.0173 76.9662 32.5876 77.0075 32.1457 77.0461C31.703 77.0837 31.2499 77.1186 30.7864 77.1498C30.3228 77.1801 29.8515 77.2076 29.3714 77.2306C28.8914 77.2545 28.4053 77.2737 27.9131 77.2894C27.4209 77.3059 26.9252 77.3178 26.4261 77.3252C25.927 77.3334 25.427 77.3371 24.9252 77.3371C24.4235 77.3371 23.9226 77.3334 23.4235 77.3252C22.9244 77.3178 22.4287 77.3059 21.9365 77.2894C21.4452 77.2737 20.9591 77.2545 20.4791 77.2306C19.999 77.2076 19.5268 77.1801 19.0633 77.1498C18.5997 77.1186 18.1475 77.0837 17.7048 77.0461C17.262 77.0075 16.8324 76.9662 16.4157 76.9212C15.9982 76.8762 15.5962 76.8285 15.2082 76.7771C14.8202 76.7257 14.4495 76.6715 14.0945 76.6146C13.7395 76.5576 13.4035 76.498 13.085 76.4355C12.7664 76.3731 12.4686 76.3079 12.19 76.2409C11.9105 76.1739 11.6535 76.105 11.4166 76.0334C11.1804 75.9618 10.966 75.8893 10.7742 75.8149C10.5824 75.7396 10.4131 75.6644 10.2681 75.5863C10.1223 75.5092 10.0008 75.4312 9.90267 75.3522C9.80458 75.2723 9.73079 75.1925 9.68218 75.1126C9.6327 75.0318 9.6084 74.9519 9.6084 74.8712C9.6084 74.7904 9.6327 74.7096 9.68218 74.6288C9.73079 74.5489 9.80458 74.469 9.90267 74.3892C10.0008 74.3102 10.1223 74.2322 10.2681 74.1551C10.4131 74.0779 10.5824 74.0017 10.7742 73.9265C10.966 73.8521 11.1804 73.7796 11.4166 73.708C11.6535 73.6373 11.9105 73.5675 12.19 73.5005C12.4686 73.4335 12.7664 73.3683 13.085 73.3058C13.4035 73.2434 13.7395 73.1837 14.0945 73.1268C14.4495 73.0699 14.8202 73.0157 15.2082 72.9643C15.5962 72.9129 15.9982 72.8652 16.4157 72.8202C16.8324 72.7752 17.262 72.7339 17.7048 72.6953C18.1475 72.6577 18.5997 72.6228 19.0633 72.5925C19.5268 72.5613 19.999 72.5337 20.4791 72.5108C20.9591 72.4869 21.4452 72.4676 21.9365 72.452C22.4287 72.4364 22.9244 72.4245 23.4235 72.4162C23.9226 72.408 24.4235 72.4043 24.9252 72.4043C25.427 72.4043 25.927 72.408 26.4261 72.4162C26.9252 72.4245 27.4209 72.4364 27.9131 72.452C28.4053 72.4676 28.8914 72.4869 29.3714 72.5108C29.8515 72.5337 30.3228 72.5613 30.7864 72.5925C31.2499 72.6228 31.703 72.6577 32.1457 72.6953C32.5876 72.7339 33.0173 72.7752 33.4348 72.8202C33.8515 72.8652 34.2542 72.9129 34.6423 72.9643C35.0294 73.0157 35.4009 73.0699 35.756 73.1268C36.1101 73.1837 36.4469 73.2434 36.7655 73.3058C37.0832 73.3683 37.3818 73.4335 37.6605 73.5005C37.9391 73.5675 38.1969 73.6373 38.4331 73.708C38.67 73.7796 38.8844 73.8521 39.0763 73.9265C39.2681 74.0017 39.4365 74.0779 39.5824 74.1551C39.7282 74.2322 39.8497 74.3102 39.9478 74.3892C40.0459 74.469 40.1188 74.5489 40.1683 74.6288C40.2169 74.7096 40.2421 74.7904 40.2421 74.8712Z" fill="#A94E25"/>
<path d="M80.3013 90.6334L86.4072 110.506C86.8889 111.867 88.1476 112.802 89.5131 112.632C90.7987 112.491 92.1103 111.357 92.1103 107.558L90.7987 89.8108L80.3013 90.6334Z" fill="#D27A4E"/>
<path d="M59.013 89.1875L58.1294 115.921C58.0764 117.367 55.987 117.225 54.6485 117.508C53.3629 117.792 53.336 117.338 52.1849 113.738L48.8108 91.9371L59.013 89.1875Z" fill="#D27A4E"/>
<path d="M44.7943 97.0397L34.1632 110.109C33.2795 111.215 31.7804 111.611 30.5486 110.96C29.3967 110.336 28.5399 108.805 29.7717 105.234L35.2075 92.3906L44.7943 97.0397Z" fill="#D27A4E"/>
<path d="M69.6172 89.9521L75.3212 116.006C75.6155 117.424 77.6502 116.856 79.0165 116.885C80.3281 116.913 80.2743 116.46 80.7569 112.689L80.1137 90.6049L69.6172 89.9521Z" fill="#D27A4E"/>
<path d="M80.7568 112.689C80.7568 112.689 84.7733 116.006 85.0407 117.225C85.3089 118.444 83.2733 122.413 81.828 122.526C80.3818 122.64 79.2039 122.98 79.4982 124.171C79.7924 125.39 76.7933 129.387 72.9105 128.537C69.0277 127.686 69.9114 125.191 71.197 123.887C72.4825 122.583 75.3211 117.112 75.2673 115.723C75.2673 115.723 79.4713 115.553 80.7568 112.689Z" fill="#A94E25"/>
<path d="M92.0572 108.862C92.0572 108.862 95.5911 112.859 95.5911 114.135C95.5911 115.382 92.8333 118.813 91.3871 118.614C89.9418 118.416 88.736 118.472 88.7899 119.72C88.8437 120.967 85.1215 124.228 81.48 122.526C80.8906 122.243 80.4357 121.959 80.0876 121.648C78.2933 120.116 79.4444 118.416 80.7031 117.594C82.2031 116.601 86.1388 111.867 86.3801 110.506C86.4071 110.506 90.236 111.385 92.0572 108.862Z" fill="#A94E25"/>
<path d="M107.427 58.5983L103.732 53.1835L89.4861 47.3152C89.4861 47.3152 85.9783 58.5129 84.8802 59.6182C83.783 60.7245 74.7856 73.113 72.3221 75.7781C67.8767 80.5686 68.3047 87.1181 68.8403 92.1923C68.8941 92.6743 69.0278 93.1563 69.1884 93.6098H92.0035C95.27 87.9683 102.688 79.5486 106.543 74.7003C111.739 68.1517 107.427 58.5983 107.427 58.5983Z" fill="#A94E25"/>
<path d="M91.0929 61.0074C91.0929 61.0074 87.2639 60.4978 85.3091 61.7446C83.3542 63.0207 81.4532 64.6934 81.3993 65.2599C81.3455 65.8272 82.3368 65.4866 82.3368 65.4866C82.3368 65.4866 81.533 66.1109 81.6936 66.536C81.8551 66.9326 83.0599 66.536 83.0599 66.536C83.0599 66.536 82.3099 66.9895 82.3637 67.3301C82.3898 67.443 82.5512 67.6129 82.7648 67.6129C83.3004 67.6129 84.1311 67.2447 84.1311 67.2447C84.1311 67.2447 83.1398 67.6983 83.9696 68.2656C84.7735 68.8321 91.441 66.3377 92.6728 64.5236C93.9045 62.737 91.0929 61.0074 91.0929 61.0074Z" fill="#D27A4E"/>
<path d="M114.309 40.9364C113.907 28.6894 106.222 23.6997 106.222 23.6997C81.9888 8.33392 82.0417 63.7294 82.0417 63.7294C84.4254 61.6316 86.9159 56.3867 88.3352 53.1266C88.3621 53.1266 88.3621 53.155 88.3881 53.155C92.218 55.1959 96.6364 54.8562 98.8586 54.4872C94.4402 58.825 89.9949 60.4978 89.9949 60.4978C90.9593 61.9153 93.3959 69.3709 93.3959 69.3709C111.605 62.8792 114.684 53.1835 114.309 40.9364Z" fill="#A94E25"/>
<path d="M112.97 49.8096C113.104 49.6682 113.372 49.6967 113.72 49.8381C113.747 49.6682 113.773 49.5259 113.8 49.3561C113.425 49.5544 113.104 49.6113 112.97 49.4415C112.675 49.1293 113.077 48.2507 113.854 47.4281C113.934 47.3437 114.042 47.2583 114.122 47.1729C114.175 46.578 114.229 45.9822 114.255 45.3588C114.122 45.245 113.988 45.1036 113.827 44.9622C113.05 44.1396 112.675 43.261 112.944 42.9489C113.158 42.7221 113.72 42.9204 114.309 43.3739C114.309 42.9773 114.309 42.5807 114.309 42.1556C113.72 42.6092 113.158 42.8075 112.944 42.5807C112.649 42.2686 113.05 41.39 113.827 40.5674C113.961 40.426 114.095 40.2846 114.255 40.1708C114.229 39.5474 114.175 38.9516 114.095 38.3567C114.015 38.2713 113.907 38.1859 113.827 38.1014C113.05 37.2789 112.675 36.4003 112.944 36.0881C113.077 35.9467 113.372 35.9752 113.72 36.145C113.694 36.0037 113.667 35.8614 113.64 35.72C113.345 35.8614 113.077 35.8614 112.944 35.7484C112.729 35.5217 112.89 34.9828 113.292 34.4154C112.944 33.1687 112.489 32.0064 112.033 30.9855C111.953 31.0993 111.872 31.1838 111.766 31.2976C110.989 32.1193 110.159 32.5168 109.864 32.2331C109.569 31.921 109.971 31.0424 110.747 30.2198C110.962 29.993 111.149 29.8232 111.364 29.6818C110.721 28.4911 110.024 27.4987 109.355 26.7045C109.221 27.102 108.9 27.584 108.471 28.0376C107.695 28.8592 106.865 29.2558 106.57 28.9731C106.303 28.6609 106.678 27.7823 107.454 26.9597C107.91 26.4778 108.391 26.1381 108.766 25.9958C107.347 24.38 106.195 23.6428 106.195 23.6428C106.168 23.6143 106.115 23.5868 106.089 23.5583C105.928 23.8411 105.687 24.1817 105.392 24.4938C104.615 25.3155 103.786 25.7121 103.491 25.4293C103.223 25.1172 103.598 24.2386 104.375 23.416C104.562 23.2177 104.749 23.0478 104.937 22.9055C103.812 22.2822 102.768 21.8286 101.75 21.5165C101.081 22.1408 100.385 22.4236 100.144 22.1693C99.9835 21.9985 100.063 21.6019 100.305 21.1484C100.09 21.1199 99.8489 21.063 99.6345 21.0345C99.9297 21.545 100.01 21.97 99.8489 22.1693C99.5816 22.4805 98.7248 22.0554 97.9479 21.2337C97.868 21.1484 97.7873 21.063 97.7335 20.9785C96.9305 21.0345 96.1805 21.2053 95.4574 21.4605C94.8151 22.0554 94.1727 22.3676 93.8776 22.1968C93.7439 22.2822 93.5833 22.3676 93.4496 22.4805C93.4496 22.4805 93.4757 22.4805 93.5026 22.5089C93.7977 22.8211 93.3958 23.6997 92.6189 24.5223C91.8429 25.3439 91.0121 25.7405 90.7179 25.4578C90.638 25.3724 90.6111 25.287 90.638 25.1456C90.4236 25.4009 90.2092 25.6845 89.9948 25.9958C90.1024 25.9958 90.2092 26.0242 90.263 26.0812C90.5573 26.3933 90.1554 27.2719 89.3793 28.0936C88.9774 28.5195 88.5755 28.8308 88.2274 28.9731C88.1745 29.086 88.1206 29.1998 88.0668 29.3128C88.4418 29.4551 88.9236 29.7947 89.4062 30.2767C90.1823 31.0993 90.5573 31.9779 90.2899 32.2901C90.0217 32.6013 89.1649 32.1762 88.388 31.3545C88.0399 30.9855 87.7995 30.6173 87.612 30.2767C87.1302 31.3821 86.6745 32.5444 86.2725 33.7636C86.2995 33.792 86.2995 33.792 86.3264 33.8205C87.1033 34.6431 87.4783 35.5217 87.21 35.8329C86.9956 36.0606 86.4071 35.8614 85.7908 35.3518C85.6033 35.9467 85.4427 36.5416 85.2821 37.1375L85.309 37.109C86.085 36.2873 86.9158 35.8898 87.21 36.1735C87.4783 36.4856 87.1033 37.3642 86.3264 38.1859C85.7639 38.7817 85.1484 39.1499 84.7734 39.2068C84.7465 39.3491 84.6927 39.4905 84.6666 39.6319C85.0408 39.6034 85.7109 40.0009 86.3264 40.6528C87.1033 41.4744 87.4783 42.354 87.21 42.6652C86.9158 42.9773 86.085 42.5523 85.309 41.7297C84.9071 41.3046 84.6397 40.8795 84.4791 40.5114C84.184 41.9289 83.9166 43.3464 83.6753 44.7354C83.9965 45.245 84.1041 45.7269 83.9166 45.9262C83.8359 46.0106 83.6753 46.0391 83.4878 45.9822C83.4609 46.1529 83.4349 46.3228 83.408 46.4642C83.6215 46.4081 83.809 46.4081 83.9166 46.5211C84.184 46.8048 83.8359 47.6264 83.1397 48.4206C83.033 49.1578 82.9522 49.8665 82.8724 50.5753C82.9253 50.6322 82.9791 50.6882 83.033 50.7451C83.809 51.5677 84.184 52.4463 83.9166 52.7584C83.7291 52.9567 83.2205 52.8144 82.6849 52.4178C82.631 52.8998 82.6041 53.3534 82.5512 53.8069C83.1397 53.3534 83.7022 53.1551 83.9166 53.3818C84.2109 53.694 83.809 54.5726 83.033 55.3942C82.8185 55.621 82.6041 55.8202 82.3897 55.9616C82.3637 56.3013 82.3368 56.6419 82.3099 56.954C82.5512 57.1239 82.7916 57.3222 83.033 57.5774C83.809 58.4 84.184 59.2786 83.9166 59.5907C83.6484 59.8735 82.9253 59.5338 82.2291 58.8535C82.1762 59.6752 82.1493 60.3839 82.1493 61.0358C82.8724 60.2995 83.6753 59.9304 83.9435 60.2141C84.2378 60.5262 83.8359 61.4048 83.0599 62.2265C82.7378 62.5671 82.3897 62.8508 82.0955 63.0206C82.0955 63.3043 82.0955 63.5026 82.0955 63.644C82.1224 63.6725 82.1762 63.6725 82.2031 63.7009C82.9522 63.0206 83.7291 62.0282 84.4522 60.8944C84.3446 60.6107 84.3446 60.3555 84.4522 60.2426C84.5321 60.1572 84.6927 60.1287 84.8802 60.1856C85.0147 59.9873 85.1215 59.789 85.2552 59.5623C84.9071 59.7321 84.6128 59.789 84.4522 59.6183C84.1571 59.307 84.559 58.4275 85.3359 57.6059C85.8715 57.0385 86.434 56.6988 86.8081 56.6134C86.835 56.5565 86.862 56.5005 86.8889 56.4436C86.487 56.4151 85.8984 56.0185 85.309 55.4227C84.5321 54.601 84.1571 53.7215 84.4253 53.4103C84.7196 53.0981 85.5503 53.5232 86.3264 54.3458C86.7821 54.8278 87.1033 55.3098 87.21 55.7064C87.6389 54.7993 88.0139 53.9483 88.335 53.1835C88.362 53.1835 88.362 53.212 88.388 53.212C88.6562 53.3534 88.9505 53.4947 89.2187 53.6086C89.6736 53.2964 90.0755 53.212 90.263 53.4103C90.3698 53.5232 90.3698 53.75 90.2899 54.0336C90.4505 54.0906 90.5842 54.1475 90.7448 54.1759C90.6111 53.8353 90.5842 53.5517 90.7179 53.4103C91.013 53.0981 91.8429 53.5232 92.6189 54.3458C92.7265 54.4587 92.8064 54.5441 92.8871 54.657C93.3689 54.7139 93.8507 54.7709 94.3064 54.7993C94.4132 54.657 94.5468 54.4872 94.6814 54.3458C95.4574 53.5232 96.2882 53.1266 96.5824 53.4103C96.7968 53.637 96.6363 54.2035 96.2074 54.8278C96.6363 54.7993 97.0642 54.7993 97.4392 54.7424C97.0642 54.1475 96.9036 53.637 97.118 53.4103C97.4123 53.0981 98.2422 53.5232 99.0191 54.3458C99.796 55.1675 100.17 56.047 99.9028 56.3582C99.6354 56.6703 98.7778 56.2453 98.0017 55.4227C97.1718 56.1884 96.3411 56.8402 95.5382 57.436C95.618 57.492 95.6718 57.5774 95.7526 57.6343C96.5286 58.456 96.9036 59.3355 96.6363 59.6467C96.368 59.9589 95.5113 59.5338 94.7343 58.7112C94.6007 58.5698 94.467 58.4 94.3593 58.2577C92.9939 59.1647 91.8159 59.789 91.039 60.1572C91.414 60.1572 92.0833 60.5262 92.6727 61.1781C93.4496 61.9997 93.8246 62.8793 93.5564 63.1905C93.2621 63.5026 92.4314 63.0776 91.6554 62.255C90.9054 61.4618 90.5304 60.6107 90.7717 60.2995C90.638 60.3555 90.5034 60.4124 90.4236 60.4693C90.4505 60.6107 90.3967 60.809 90.3159 61.0358C90.6909 61.773 91.2265 63.0776 91.7092 64.4381C92.4583 63.6725 93.289 63.2759 93.5564 63.5595C93.8507 63.8708 93.4496 64.7503 92.6727 65.572C92.539 65.7143 92.4054 65.8556 92.2448 65.9686C92.6189 67.0179 92.9409 67.9819 93.1545 68.6337C93.3689 68.9174 93.5026 69.2011 93.5833 69.4563C93.6632 69.4278 93.7708 69.3994 93.8507 69.3709C93.9852 68.9743 94.3064 68.4923 94.7343 68.0388C95.5113 67.2162 96.3411 66.8196 96.6363 67.1033C96.8498 67.3301 96.6892 67.8396 96.3142 68.407C96.6363 68.2656 96.9574 68.1517 97.2517 68.0103C97.0642 67.6128 97.0104 67.2731 97.1449 67.1033C97.3585 66.8765 97.868 67.0464 98.4297 67.4714C99.5008 66.961 100.519 66.4505 101.483 65.9126C101.349 65.7987 101.241 65.6858 101.108 65.572C100.332 64.7503 99.9566 63.8708 100.224 63.5595C100.519 63.2474 101.349 63.6725 102.125 64.4951C102.339 64.7218 102.527 64.977 102.687 65.2038C103.759 64.5511 104.723 63.8708 105.607 63.1905C105.259 63.0206 104.83 62.7085 104.455 62.3119C103.679 61.4893 103.304 60.6107 103.571 60.2995C103.866 59.9873 104.696 60.4124 105.472 61.235C105.928 61.7161 106.222 62.198 106.356 62.5956C106.516 62.4533 106.678 62.3403 106.812 62.198C106.972 61.8868 107.214 61.5747 107.508 61.235C107.91 60.809 108.311 60.4978 108.659 60.3555C108.819 60.1572 108.98 59.9873 109.141 59.789C108.766 59.789 108.096 59.42 107.508 58.7681C106.731 57.9465 106.356 57.0669 106.624 56.7557C106.918 56.4436 107.748 56.8686 108.525 57.6912C109.088 58.2861 109.463 58.9664 109.49 59.363C110.319 58.3431 111.016 57.2653 111.605 56.1599C111.337 55.9901 111.069 55.7633 110.801 55.4796C110.025 54.657 109.65 53.7784 109.918 53.4672C110.212 53.1551 111.043 53.5801 111.819 54.4027C111.979 54.5726 112.114 54.7139 112.22 54.8847C112.729 53.75 113.131 52.5877 113.425 51.3969C112.944 50.6322 112.756 50.0364 112.97 49.8096ZM86.3264 51.7945C85.5503 52.6161 84.7196 53.0127 84.4253 52.73C84.131 52.4178 84.5321 51.5392 85.309 50.7167C86.085 49.895 86.9158 49.4975 87.21 49.7811C87.4783 50.0933 87.0764 51.0003 86.3264 51.7945ZM87.1831 49.4415C86.8889 49.7527 86.059 49.3276 85.2821 48.5059C84.5052 47.6833 84.131 46.8048 84.3984 46.4926C84.6927 46.1805 85.5234 46.6065 86.2995 47.4281C87.0764 48.2507 87.4783 49.1578 87.1831 49.4415ZM86.3264 44.9907C85.5503 45.8123 84.7196 46.2089 84.4253 45.9262C84.131 45.614 84.5321 44.7354 85.309 43.9128C86.085 43.0912 86.9158 42.6936 87.21 42.9773C87.4783 43.2895 87.0764 44.1681 86.3264 44.9907ZM90.263 52.73C89.9948 53.0412 89.138 52.6161 88.362 51.7945C87.585 50.9719 87.21 50.0933 87.4783 49.7811C87.7456 49.4699 88.6024 49.895 89.3793 50.7167C90.1554 51.5392 90.5573 52.4178 90.263 52.73ZM89.4062 48.5335C88.6293 49.3561 87.7995 49.7527 87.5043 49.4699C87.21 49.1862 87.612 48.2792 88.388 47.4566C89.1649 46.6349 89.9948 46.2374 90.2899 46.5211C90.5573 46.8332 90.1554 47.7118 89.4062 48.5335ZM90.263 45.8977C89.9948 46.2089 89.138 45.7839 88.362 44.9622C87.585 44.1396 87.21 43.261 87.4783 42.9489C87.7456 42.6376 88.6024 43.0627 89.3793 43.8844C90.1554 44.707 90.5573 45.614 90.263 45.8977ZM89.4062 41.7021C88.6293 42.5238 87.7995 42.9204 87.5043 42.6376C87.21 42.3255 87.612 41.4469 88.388 40.6243C89.1649 39.8026 89.9948 39.4051 90.2899 39.6888C90.5573 40.0009 90.1554 40.908 89.4062 41.7021ZM90.263 39.0939C89.9948 39.4051 89.138 38.98 88.362 38.1584C87.585 37.3358 87.21 36.4572 87.4783 36.145C87.7725 35.8329 88.6024 36.2589 89.3793 37.0806C90.1554 37.9031 90.5573 38.8102 90.263 39.0939ZM89.4062 34.8974C88.6293 35.72 87.7995 36.1166 87.5043 35.8329C87.21 35.5217 87.612 34.6431 88.388 33.8205C89.1649 32.9988 89.9948 32.6013 90.2899 32.885C90.5573 33.1971 90.1554 34.0757 89.4062 34.8974ZM92.6189 51.7945C91.8429 52.6161 91.0121 53.0127 90.7179 52.73C90.4236 52.4178 90.8255 51.5392 91.6015 50.7167C92.3784 49.895 93.2083 49.4975 93.5026 49.7811C93.7977 50.0648 93.3958 51.0003 92.6189 51.7945ZM93.5026 49.4415C93.2083 49.7527 92.3784 49.3276 91.6015 48.5059C90.8255 47.6833 90.4505 46.8048 90.7179 46.4926C91.0121 46.1805 91.8429 46.6065 92.6189 47.4281C93.3958 48.2507 93.7708 49.1578 93.5026 49.4415ZM92.6189 44.9907C91.8429 45.8123 91.0121 46.2089 90.7179 45.9262C90.4236 45.614 90.8255 44.7354 91.6015 43.9128C92.3784 43.0912 93.2083 42.6936 93.5026 42.9773C93.7977 43.261 93.3958 44.1681 92.6189 44.9907ZM93.5026 42.6376C93.2083 42.9489 92.3784 42.5238 91.6015 41.7021C90.8255 40.8795 90.4505 40.0009 90.7179 39.6888C91.0121 39.3766 91.8429 39.8026 92.6189 40.6243C93.3958 41.4469 93.7708 42.354 93.5026 42.6376ZM92.6189 38.1584C91.8429 38.98 91.0121 39.3766 90.7179 39.0939C90.4236 38.8102 90.8255 37.9031 91.6015 37.0806C92.3784 36.2589 93.2083 35.8614 93.5026 36.145C93.7708 36.4572 93.3958 37.3642 92.6189 38.1584ZM93.5026 35.8329C93.2083 36.145 92.3784 35.72 91.6015 34.8974C90.8255 34.0757 90.4505 33.1971 90.7179 32.885C91.0121 32.5728 91.8429 32.9988 92.6189 33.8205C93.3958 34.6146 93.7708 35.5217 93.5026 35.8329ZM92.6189 31.3536C91.8429 32.1762 91.0121 32.5728 90.7179 32.2901C90.4236 32.0064 90.8255 31.0993 91.6015 30.2767C92.3784 29.4551 93.2083 29.0575 93.5026 29.3412C93.7708 29.6534 93.3958 30.5604 92.6189 31.3536ZM93.5026 29.0015C93.2083 29.3128 92.3784 28.8877 91.6015 28.0651C90.8255 27.2434 90.4505 26.3648 90.7179 26.0527C91.0121 25.7405 91.8429 26.1665 92.6189 26.9882C93.3958 27.8108 93.7708 28.7178 93.5026 29.0015ZM96.5824 52.73C96.2882 53.0412 95.4574 52.6161 94.6814 51.7945C93.9045 50.9719 93.5295 50.0933 93.7977 49.7811C94.092 49.4699 94.9218 49.895 95.6988 50.7167C96.4748 51.5392 96.8498 52.4178 96.5824 52.73ZM95.6988 48.5335C94.9218 49.3561 94.092 49.7527 93.7977 49.4699C93.5026 49.1578 93.9045 48.2792 94.6814 47.4566C95.4574 46.6349 96.2882 46.2374 96.5824 46.5211C96.8498 46.8332 96.4748 47.7118 95.6988 48.5335ZM96.5824 45.8977C96.2882 46.2089 95.4574 45.7839 94.6814 44.9622C93.9045 44.1396 93.5295 43.261 93.7977 42.9489C94.092 42.6376 94.9218 43.0627 95.6988 43.8844C96.4748 44.707 96.8498 45.614 96.5824 45.8977ZM95.6988 41.7021C94.9218 42.5238 94.092 42.9204 93.7977 42.6376C93.5026 42.3255 93.9045 41.4469 94.6814 40.6243C95.4574 39.8026 96.2882 39.4051 96.5824 39.6888C96.8498 40.0009 96.4748 40.908 95.6988 41.7021ZM96.5824 39.0939C96.2882 39.4051 95.4574 38.98 94.6814 38.1584C93.9045 37.3358 93.5295 36.4572 93.7977 36.145C94.092 35.8329 94.9218 36.2589 95.6988 37.0806C96.4748 37.9031 96.8498 38.8102 96.5824 39.0939ZM95.6988 34.8974C94.9218 35.72 94.092 36.1166 93.7977 35.8329C93.5026 35.5217 93.9045 34.6431 94.6814 33.8205C95.4574 32.9988 96.2882 32.6013 96.5824 32.885C96.8498 33.1971 96.4748 34.0757 95.6988 34.8974ZM96.5824 32.2901C96.2882 32.6013 95.4574 32.1762 94.6814 31.3536C93.9045 30.532 93.5295 29.6534 93.7977 29.3412C94.092 29.0291 94.9218 29.4551 95.6988 30.2767C96.4748 31.0993 96.8498 31.9779 96.5824 32.2901ZM95.6988 28.0936C94.9218 28.9162 94.092 29.3128 93.7977 29.0291C93.5026 28.7178 93.9045 27.8383 94.6814 27.0167C95.4574 26.1941 96.2882 25.7975 96.5824 26.0812C96.8498 26.3648 96.4748 27.2719 95.6988 28.0936ZM96.5824 25.4578C96.2882 25.769 95.4574 25.3439 94.6814 24.5223C93.9045 23.6997 93.5295 22.8211 93.7977 22.5089C94.092 22.1968 94.9218 22.6228 95.6988 23.4445C96.4748 24.267 96.8498 25.1741 96.5824 25.4578ZM96.5824 66.3661C96.2882 66.6773 95.4574 66.2522 94.6814 65.4306C93.9045 64.608 93.5295 63.7294 93.7977 63.4172C94.092 63.106 94.9218 63.5311 95.6988 64.3528C96.4748 65.1469 96.8498 66.0539 96.5824 66.3661ZM95.6988 62.1705C94.9218 62.9922 94.092 63.3888 93.7977 63.106C93.5026 62.7939 93.9045 61.9153 94.6814 61.0927C95.4574 60.271 96.2882 59.8735 96.5824 60.1572C96.8767 60.4409 96.4748 61.3479 95.6988 62.1705ZM98.9922 65.4306C98.2161 66.2522 97.3854 66.6498 97.0911 66.3661C96.7968 66.0539 97.1979 65.1753 97.9748 64.3528C98.7517 63.5311 99.5816 63.1336 99.8758 63.4172C100.144 63.7294 99.7422 64.608 98.9922 65.4306ZM99.8758 63.0776C99.6085 63.3888 98.7517 62.9637 97.9748 62.142C97.1979 61.3195 96.8229 60.4409 97.0911 60.1287C97.3854 59.8175 98.2161 60.2426 98.9922 61.0642C99.7422 61.8868 100.144 62.7939 99.8758 63.0776ZM98.9922 58.6268C98.2161 59.4484 97.3854 59.845 97.0911 59.5623C96.7968 59.2501 97.1979 58.3715 97.9748 57.5489C98.7517 56.7273 99.5816 56.3297 99.8758 56.6134C100.144 56.8971 99.7422 57.8042 98.9922 58.6268ZM98.9922 51.7945C98.2161 52.6161 97.3854 53.0127 97.0911 52.73C96.7968 52.4178 97.1979 51.5392 97.9748 50.7167C98.7517 49.895 99.5816 49.4975 99.8758 49.7811C100.144 50.0933 99.7422 51.0003 98.9922 51.7945ZM99.8758 49.4415C99.6085 49.7527 98.7517 49.3276 97.9748 48.5059C97.1979 47.6833 96.8229 46.8048 97.0911 46.4926C97.3854 46.1805 98.2161 46.6065 98.9922 47.4281C99.7422 48.2507 100.144 49.1578 99.8758 49.4415ZM98.9922 44.9907C98.2161 45.8123 97.3854 46.2089 97.0911 45.9262C96.7968 45.614 97.1979 44.7354 97.9748 43.9128C98.7517 43.0912 99.5816 42.6936 99.8758 42.9773C100.144 43.2895 99.7422 44.1681 98.9922 44.9907ZM99.8758 42.6376C99.6085 42.9489 98.7517 42.5238 97.9748 41.7021C97.1979 40.8795 96.8229 40.0009 97.0911 39.6888C97.3854 39.3766 98.2161 39.8026 98.9922 40.6243C99.7422 41.4469 100.144 42.354 99.8758 42.6376ZM98.9922 38.1584C98.2161 38.98 97.3854 39.3766 97.0911 39.0939C96.7968 38.7817 97.1979 37.9031 97.9748 37.0806C98.7517 36.2589 99.5816 35.8614 99.8758 36.145C100.144 36.4572 99.7422 37.3642 98.9922 38.1584ZM99.8758 35.8329C99.6085 36.145 98.7517 35.72 97.9748 34.8974C97.1979 34.0757 96.8229 33.1971 97.0911 32.885C97.3854 32.5728 98.2161 32.9988 98.9922 33.8205C99.7422 34.6146 100.144 35.5217 99.8758 35.8329ZM98.9922 31.3536C98.2161 32.1762 97.3854 32.5728 97.0911 32.2901C96.7968 31.9779 97.1979 31.0993 97.9748 30.2767C98.7517 29.4551 99.5816 29.0575 99.8758 29.3412C100.144 29.6534 99.7422 30.5604 98.9922 31.3536ZM99.8758 29.0015C99.6085 29.3128 98.7517 28.8877 97.9748 28.0651C97.1979 27.2434 96.8229 26.3648 97.0911 26.0527C97.3854 25.7405 98.2161 26.1665 98.9922 26.9882C99.7422 27.8108 100.144 28.7178 99.8758 29.0015ZM98.9922 24.5498C98.2161 25.3724 97.3854 25.769 97.0911 25.4853C96.7968 25.1741 97.1979 24.2946 97.9748 23.4729C98.7517 22.6503 99.5816 22.2537 99.8758 22.5374C100.144 22.8495 99.7422 23.7281 98.9922 24.5498ZM102.072 62.1705C101.295 62.9922 100.465 63.3888 100.17 63.106C99.8758 62.7939 100.278 61.9153 101.054 61.0927C101.831 60.271 102.661 59.8735 102.956 60.1572C103.223 60.4409 102.848 61.3479 102.072 62.1705ZM102.956 59.5338C102.661 59.845 101.831 59.42 101.054 58.5983C100.278 57.7757 99.9028 56.8971 100.17 56.585C100.465 56.2737 101.295 56.6988 102.072 57.5205C102.848 58.3431 103.223 59.2501 102.956 59.5338ZM102.072 55.3382C101.295 56.1599 100.465 56.5565 100.17 56.2737C99.8758 55.9901 100.278 55.083 101.054 54.2604C101.831 53.4387 102.661 53.0412 102.956 53.3249C103.223 53.637 102.848 54.5441 102.072 55.3382ZM102.956 52.73C102.661 53.0412 101.831 52.6161 101.054 51.7945C100.278 50.9719 99.9028 50.0933 100.17 49.7811C100.438 49.4699 101.295 49.895 102.072 50.7167C102.848 51.5392 103.223 52.4178 102.956 52.73ZM102.072 48.5335C101.295 49.3561 100.465 49.7527 100.17 49.4699C99.8758 49.1862 100.278 48.2792 101.054 47.4566C101.831 46.6349 102.661 46.2374 102.956 46.5211C103.223 46.8332 102.848 47.7118 102.072 48.5335ZM102.956 45.8977C102.661 46.2089 101.831 45.7839 101.054 44.9622C100.278 44.1396 99.9028 43.261 100.17 42.9489C100.438 42.6376 101.295 43.0627 102.072 43.8844C102.848 44.707 103.223 45.614 102.956 45.8977ZM102.072 41.7021C101.295 42.5238 100.465 42.9204 100.17 42.6376C99.8758 42.3255 100.278 41.4469 101.054 40.6243C101.831 39.8026 102.661 39.4051 102.956 39.6888C103.223 40.0009 102.848 40.908 102.072 41.7021ZM102.956 39.0939C102.661 39.4051 101.831 38.98 101.054 38.1584C100.278 37.3358 99.9028 36.4572 100.17 36.145C100.465 35.8329 101.295 36.2589 102.072 37.0806C102.848 37.9031 103.223 38.8102 102.956 39.0939ZM102.072 34.8974C101.295 35.72 100.465 36.1166 100.17 35.8329C99.8758 35.5217 100.278 34.6431 101.054 33.8205C101.831 32.9988 102.661 32.6013 102.956 32.885C103.223 33.1971 102.848 34.0757 102.072 34.8974ZM102.956 32.2901C102.661 32.6013 101.831 32.1762 101.054 31.3536C100.278 30.532 99.9028 29.6534 100.17 29.3412C100.465 29.0291 101.295 29.4551 102.072 30.2767C102.848 31.0993 103.223 31.9779 102.956 32.2901ZM102.072 28.0936C101.295 28.9162 100.465 29.3128 100.17 29.0291C99.8758 28.7463 100.278 27.8383 101.054 27.0167C101.831 26.1941 102.661 25.7975 102.956 26.0812C103.223 26.3648 102.848 27.2719 102.072 28.0936ZM102.956 25.4578C102.661 25.769 101.831 25.3439 101.054 24.5223C100.278 23.6997 99.9028 22.8211 100.17 22.5089C100.465 22.1968 101.295 22.6228 102.072 23.4445C102.848 24.267 103.223 25.1741 102.956 25.4578ZM105.419 58.6268C104.642 59.4484 103.812 59.845 103.517 59.5623C103.25 59.2501 103.625 58.3715 104.401 57.5489C105.178 56.7273 106.008 56.3297 106.303 56.6134C106.57 56.8971 106.168 57.8042 105.419 58.6268ZM106.276 56.2737C105.981 56.585 105.151 56.1599 104.375 55.3382C103.598 54.5156 103.223 53.637 103.491 53.3249C103.786 53.0127 104.615 53.4387 105.392 54.2604C106.168 55.083 106.57 55.9616 106.276 56.2737ZM105.419 51.7945C104.642 52.6161 103.812 53.0127 103.517 52.73C103.25 52.4178 103.625 51.5392 104.401 50.7167C105.178 49.895 106.008 49.4975 106.303 49.7811C106.57 50.0933 106.168 51.0003 105.419 51.7945ZM106.276 49.4415C105.981 49.7527 105.151 49.3276 104.375 48.5059C103.598 47.6833 103.223 46.8048 103.491 46.4926C103.786 46.1805 104.615 46.6065 105.392 47.4281C106.168 48.2507 106.57 49.1578 106.276 49.4415ZM105.419 44.9907C104.642 45.8123 103.812 46.2089 103.517 45.9262C103.25 45.614 103.625 44.7354 104.401 43.9128C105.178 43.0912 106.008 42.6936 106.303 42.9773C106.57 43.2895 106.168 44.1681 105.419 44.9907ZM106.276 42.6376C105.981 42.9489 105.151 42.5238 104.375 41.7021C103.598 40.8795 103.223 40.0009 103.491 39.6888C103.786 39.3766 104.615 39.8026 105.392 40.6243C106.168 41.4469 106.57 42.354 106.276 42.6376ZM105.419 38.1584C104.642 38.98 103.812 39.3766 103.517 39.0939C103.25 38.7817 103.625 37.9031 104.401 37.0806C105.178 36.2589 106.008 35.8614 106.303 36.145C106.57 36.4572 106.168 37.3642 105.419 38.1584ZM106.276 35.8329C105.981 36.145 105.151 35.72 104.375 34.8974C103.598 34.0757 103.223 33.1971 103.491 32.885C103.786 32.5728 104.615 32.9988 105.392 33.8205C106.168 34.6146 106.57 35.5217 106.276 35.8329ZM105.419 31.3536C104.642 32.1762 103.812 32.5728 103.517 32.2901C103.25 31.9779 103.625 31.0993 104.401 30.2767C105.178 29.4551 106.008 29.0575 106.303 29.3412C106.57 29.6534 106.168 30.5604 105.419 31.3536ZM106.276 29.0015C105.981 29.3128 105.151 28.8877 104.375 28.0651C103.598 27.2434 103.223 26.3648 103.491 26.0527C103.786 25.7405 104.615 26.1665 105.392 26.9882C106.168 27.8108 106.57 28.7178 106.276 29.0015ZM108.498 55.3382C107.722 56.1599 106.891 56.5565 106.597 56.2737C106.33 55.9616 106.704 55.083 107.481 54.2604C108.258 53.4387 109.088 53.0412 109.382 53.3249C109.65 53.637 109.248 54.5441 108.498 55.3382ZM109.382 52.73C109.115 53.0412 108.258 52.6161 107.481 51.7945C106.704 50.9719 106.33 50.0933 106.597 49.7811C106.891 49.4699 107.722 49.895 108.498 50.7167C109.248 51.5392 109.65 52.4178 109.382 52.73ZM108.498 48.5335C107.722 49.3561 106.891 49.7527 106.597 49.4699C106.33 49.1578 106.704 48.2792 107.481 47.4566C108.258 46.6349 109.088 46.2374 109.382 46.5211C109.65 46.8332 109.248 47.7118 108.498 48.5335ZM109.382 45.8977C109.115 46.2089 108.258 45.7839 107.481 44.9622C106.704 44.1396 106.33 43.261 106.597 42.9489C106.891 42.6376 107.722 43.0627 108.498 43.8844C109.248 44.707 109.65 45.614 109.382 45.8977ZM108.498 41.7021C107.722 42.5238 106.891 42.9204 106.597 42.6376C106.33 42.3255 106.704 41.4469 107.481 40.6243C108.258 39.8026 109.088 39.4051 109.382 39.6888C109.65 40.0009 109.248 40.908 108.498 41.7021ZM109.382 39.0939C109.115 39.4051 108.258 38.98 107.481 38.1584C106.704 37.3358 106.33 36.4572 106.597 36.145C106.891 35.8329 107.722 36.2589 108.498 37.0806C109.248 37.9031 109.65 38.8102 109.382 39.0939ZM108.498 34.8974C107.722 35.72 106.891 36.1166 106.597 35.8329C106.33 35.5217 106.704 34.6431 107.481 33.8205C108.258 32.9988 109.088 32.6013 109.382 32.885C109.65 33.1971 109.248 34.0757 108.498 34.8974ZM109.382 32.2901C109.115 32.6013 108.258 32.1762 107.481 31.3536C106.704 30.532 106.33 29.6534 106.597 29.3412C106.891 29.0291 107.722 29.4551 108.498 30.2767C109.248 31.0993 109.65 31.9779 109.382 32.2901ZM111.792 51.7945C111.016 52.6161 110.186 53.0127 109.891 52.73C109.596 52.4178 109.998 51.5392 110.774 50.7167C111.551 49.895 112.381 49.4975 112.675 49.7811C112.97 50.0648 112.542 51.0003 111.792 51.7945ZM112.649 49.4415C112.354 49.7527 111.524 49.3276 110.747 48.5059C109.971 47.6833 109.596 46.8048 109.864 46.4926C110.159 46.1805 110.989 46.6065 111.766 47.4281C112.542 48.2507 112.944 49.1578 112.649 49.4415ZM111.792 44.9907C111.016 45.8123 110.186 46.2089 109.891 45.9262C109.596 45.614 109.998 44.7354 110.774 43.9128C111.551 43.0912 112.381 42.6936 112.675 42.9773C112.97 43.261 112.542 44.1681 111.792 44.9907ZM112.649 42.6376C112.354 42.9489 111.524 42.5238 110.747 41.7021C109.971 40.8795 109.596 40.0009 109.864 39.6888C110.159 39.3766 110.989 39.8026 111.766 40.6243C112.542 41.4469 112.944 42.354 112.649 42.6376ZM111.792 38.1584C111.016 38.98 110.186 39.3766 109.891 39.0939C109.596 38.7817 109.998 37.9031 110.774 37.0806C111.551 36.2589 112.381 35.8614 112.675 36.145C112.944 36.4572 112.542 37.3642 111.792 38.1584ZM112.649 35.8329C112.354 36.145 111.524 35.72 110.747 34.8974C109.971 34.0757 109.596 33.1971 109.864 32.885C110.159 32.5728 110.989 32.9988 111.766 33.8205C112.542 34.6146 112.944 35.5217 112.649 35.8329Z" fill="#C2A576"/>
<path d="M52.1849 113.738C52.1849 113.738 48.8377 117.82 48.8107 119.068C48.7838 120.315 51.4887 123.802 52.9349 123.632C54.3811 123.462 55.5859 123.519 55.5052 124.766C55.4253 126.013 59.1206 129.33 62.7621 127.714C66.4036 126.07 65.092 123.831 63.6189 122.781C62.1198 121.761 58.3437 116.97 58.1293 115.581C58.1562 115.609 53.9791 116.29 52.1849 113.738Z" fill="#C2A576"/>
<path d="M29.4235 106.48C29.4235 106.48 24.7916 108.919 24.3627 110.109C23.9339 111.272 25.407 115.524 26.7994 115.864C28.1917 116.204 29.3437 116.715 28.861 117.849C28.3792 118.983 30.8159 123.433 34.7794 123.178C38.7421 122.923 38.2065 120.343 37.1353 118.841C36.065 117.338 33.9226 111.47 34.1631 110.109C34.19 110.109 30.3072 109.514 29.4235 106.48Z" fill="#C2A576"/>
<path d="M107.91 21.6587C107.91 21.1767 107.722 20.6947 107.508 20.1558C107.026 18.8806 109.918 17.6045 109.73 12.5863C109.543 7.56904 104.107 -1.24811 95.8863 0.509995C87.6389 2.29564 90.316 12.1612 90.316 12.1612L90.9054 18.3701C90.9054 18.3701 93.4496 29.5109 96.4748 29.5963C98.2422 29.6532 100.519 28.065 102.554 26.4776L98.2422 45.0181C98.2422 45.0181 98.1623 46.6908 99.822 45.7837C101.483 44.8767 99.8758 50.5751 103.223 49.4413C106.49 48.3635 112.462 25.6559 107.91 21.6587Z" fill="#6C6533"/>
<path d="M52.7474 75.2106C50.2839 72.5454 40.1884 60.7528 39.0903 59.6466C38.4479 58.9947 36.9488 54.7991 35.8507 51.4822C38.2066 45.5285 27.8437 23.9263 27.8437 23.9263L21.3099 25.9956L18.2578 51.1985L20.855 52.9281L20.2387 53.1833L16.5434 58.5981C16.5434 58.5981 12.2326 68.1516 17.4271 74.7002C21.605 79.9736 28.513 88.989 31.2448 94.5736C32.2891 96.6999 34.2708 98.1459 36.52 98.4011C39.0642 98.6838 42.1163 99.0529 43.7231 99.3366C46.776 99.903 61.3429 92.3051 61.8785 87.2594C62.4141 82.1843 57.1927 80.002 52.7474 75.2106Z" fill="#6C6533"/>
<path d="M61.2622 88.6771C61.0218 88.4219 61.2891 87.6846 61.8785 86.9474C61.9584 85.4739 61.5574 84.2263 60.8343 83.0925C60.6737 83.4321 60.4054 83.8012 60.0574 84.1409C59.2813 84.9635 58.4245 85.3886 58.1563 85.0764C57.862 84.7652 58.2631 83.8572 59.04 83.064C59.415 82.6665 59.8169 82.3552 60.165 82.1845C59.4419 81.3344 58.5582 80.5127 57.5938 79.6616C57.4332 80.0307 57.1389 80.4558 56.7639 80.8524C55.987 81.675 55.1303 82.1 54.8629 81.7879C54.5678 81.4757 54.9697 80.5687 55.7466 79.7755C56.0947 79.4064 56.4428 79.1236 56.7639 78.9529C55.9341 78.2441 55.0504 77.4785 54.1667 76.6283C54.033 76.8551 53.8455 77.0534 53.6311 77.2802C52.8542 78.1027 51.9975 78.5278 51.7301 78.2157C51.435 77.9044 51.8369 76.9974 52.6138 76.2033C52.8004 76.005 52.9879 75.8342 53.1754 75.6928C53.0148 75.5514 52.8811 75.3807 52.7205 75.2393C52.3186 74.8142 51.7032 74.1055 50.9532 73.2544C50.7926 73.5096 50.6051 73.7649 50.3638 73.9916C49.5877 74.8142 48.731 75.2393 48.4627 74.9271C48.1685 74.6159 48.5704 73.7079 49.3464 72.9147C49.5877 72.6595 49.8551 72.4327 50.0964 72.2629C49.4002 71.4688 48.6502 70.6186 47.8733 69.7107C47.7127 69.9659 47.5252 70.2211 47.2848 70.4763C46.5079 71.2989 45.6511 71.724 45.3837 71.4118C45.0886 71.1006 45.4905 70.1926 46.2674 69.3994C46.5348 69.1158 46.7761 68.9174 47.0435 68.7476C46.2935 67.8681 45.5174 66.9895 44.7674 66.1109C44.6068 66.4506 44.3395 66.8197 43.9914 67.1878C43.2145 68.0104 42.3577 68.4355 42.0895 68.1233C41.7952 67.8121 42.1971 66.9041 42.9731 66.1109C43.3212 65.7418 43.6962 65.4306 44.0443 65.2599C43.1876 64.2683 42.3846 63.3328 41.6615 62.5387C41.5009 62.8793 41.2327 63.2474 40.8846 63.6156C40.1086 64.4382 39.2509 64.8633 38.9836 64.5511C38.6893 64.2399 39.0903 63.3328 39.8672 62.5387C40.2153 62.1706 40.5903 61.8584 40.9384 61.6886C40.0278 60.6677 39.3855 59.9305 39.1442 59.6752C38.9836 59.5054 38.7422 59.0803 38.5018 58.513C38.5287 58.9096 38.1537 59.6468 37.5374 60.2986C36.7613 61.1212 35.9037 61.5463 35.6363 61.2341C35.3421 60.9229 35.7431 60.0158 36.52 59.2217C37.27 58.4276 38.0999 58.031 38.3942 58.2577C38.3143 58.0879 38.2605 57.918 38.1806 57.7473C37.7787 57.7473 37.1355 57.3791 36.52 56.7273C35.7431 55.9047 35.3421 54.9977 35.6363 54.714C35.8777 54.4588 36.5738 54.7424 37.2431 55.3658C37.0825 54.9407 36.9488 54.5157 36.7874 54.0906C36.2787 54.4588 35.8238 54.5726 35.6363 54.3743C35.395 54.1191 35.6632 53.3534 36.2787 52.6162C36.145 52.248 36.0382 51.879 35.9037 51.5393C36.1181 51.0004 36.2257 50.3486 36.2518 49.5829C35.6632 48.8457 35.3681 48.1085 35.6363 47.8532C35.7431 47.7403 35.9575 47.7403 36.1988 47.8248C36.1988 47.7403 36.1719 47.6549 36.1719 47.5705C35.9306 47.6549 35.7431 47.6265 35.6363 47.5136C35.4219 47.2868 35.5825 46.7763 35.9575 46.209C35.7431 44.9622 35.4219 43.6292 35.02 42.2402C34.8594 42.4954 34.6719 42.7506 34.4315 43.0058C33.6546 43.8275 32.7978 44.2535 32.5304 43.9413C32.2353 43.6292 32.6372 42.7221 33.4141 41.9289C33.8421 41.4745 34.2978 41.1348 34.6719 40.9925C34.619 40.8511 34.5921 40.7382 34.5382 40.5959C34.1902 40.4261 33.7882 40.1139 33.4141 39.7173C32.6372 38.8947 32.2353 37.9877 32.5304 37.704C32.7179 37.5057 33.1728 37.6195 33.6815 37.9877C33.5747 37.6764 33.4671 37.3358 33.3334 37.0237C32.9853 37.1944 32.6641 37.2504 32.5304 37.0806C32.316 36.8538 32.4766 36.3149 32.8785 35.7485C32.4497 34.5862 31.9948 33.4239 31.566 32.3461C31.4323 32.5169 31.2987 32.6867 31.1381 32.8566C30.3612 33.6792 29.5044 34.1042 29.2362 33.7921C28.9419 33.4799 29.3438 32.5729 30.1198 31.7797C30.415 31.4675 30.7362 31.2123 31.0304 31.014C30.816 30.5035 30.6285 30.05 30.415 29.568C30.3073 29.4827 30.2006 29.3697 30.1198 29.2843C29.3438 28.4627 28.9419 27.5556 29.2362 27.2719C29.2631 27.2435 29.3169 27.215 29.3707 27.1866C29.3438 27.1021 29.29 27.0167 29.2631 26.9313C29.2631 26.9313 29.2362 26.9313 29.2362 26.9029C29.1832 26.8469 29.1563 26.7615 29.1563 26.6761C28.4332 25.0603 27.9514 24.0679 27.9514 24.0679L27.3082 24.2671C27.5495 24.4369 27.7909 24.6352 28.0313 24.8905C28.8082 25.7121 29.2093 26.6201 28.915 26.9029C28.6207 27.215 27.7639 26.79 27.0139 25.9674C26.5851 25.5138 26.2639 25.0318 26.1303 24.6352L25.6216 24.8051C25.461 25.1741 25.1659 25.5708 24.7917 25.9674C24.0148 26.79 23.158 27.215 22.8898 26.9029C22.6763 26.6761 22.8369 26.1381 23.2379 25.5423L22.2475 25.7121C22.5148 26.1941 22.5955 26.6201 22.435 26.79C22.2475 26.9883 21.7657 26.8469 21.2301 26.4778L21.0964 27.5272C21.685 27.0736 22.1936 26.9029 22.408 27.1296C22.7023 27.4418 22.3013 28.3488 21.5244 29.143C21.283 29.3982 21.0426 29.5965 20.8282 29.7663L20.6945 30.9286C20.9619 31.0994 21.257 31.3537 21.5513 31.6374C22.3282 32.46 22.7292 33.367 22.435 33.6507C22.1407 33.9619 21.283 33.5368 20.5339 32.7152L20.507 32.6867L20.1858 35.3519C20.2926 35.2096 20.4002 35.0682 20.5339 34.9259C21.31 34.1042 22.1667 33.6792 22.435 33.9904C22.7292 34.3025 22.3282 35.2096 21.5513 36.0037C20.9888 36.5986 20.3733 36.9961 19.9714 37.0237L19.9176 37.4497C20.3195 37.4497 20.9619 37.8463 21.5513 38.4696C22.3282 39.2922 22.7292 40.1993 22.435 40.483C22.1407 40.7942 21.283 40.3691 20.5339 39.5475C20.2127 39.2069 19.9714 38.8387 19.7839 38.5266L19.1945 43.4024C19.2214 43.5447 19.1945 43.6292 19.1685 43.7146L19.0877 44.3949C19.0877 44.3949 19.1146 44.3949 19.1415 44.4233C19.3021 44.5932 19.2214 45.0182 18.981 45.5002L18.5252 49.044C19.1146 49.7527 19.3551 50.4899 19.1146 50.7452C18.981 50.8865 18.6858 50.859 18.3108 50.6882L18.2579 51.2271L18.4714 51.3685C18.7665 51.2556 18.981 51.2556 19.1146 51.3685C19.1945 51.4539 19.2214 51.6238 19.1685 51.823L19.6502 52.1627C19.4896 51.823 19.4896 51.5108 19.6233 51.3685C19.9176 51.0573 20.7744 51.4824 21.5244 52.304C22.3013 53.1266 22.7023 54.0337 22.408 54.3174C22.1138 54.6295 21.257 54.2035 20.507 53.3819C20.4263 53.2965 20.3733 53.2396 20.3195 53.1551L20.2388 53.1836L18.4454 55.8203C19.0877 56.5565 19.382 57.3507 19.1146 57.6059C18.8733 57.8611 18.2579 57.6059 17.5877 57.0385L16.5435 58.5699C16.5435 58.5699 16.2492 59.2217 15.928 60.2711C16.1155 60.6677 16.1693 61.0074 16.0079 61.1781C15.928 61.2626 15.7943 61.291 15.6337 61.2626C15.6068 61.3195 15.6068 61.3764 15.5799 61.4618C15.7674 61.4333 15.9011 61.4333 16.0079 61.5463C16.303 61.8584 15.9011 62.737 15.1511 63.5596C15.0443 64.2683 14.9376 65.0331 14.9106 65.8272C14.9905 65.9126 15.0712 65.9686 15.1511 66.054C15.928 66.8766 16.3299 67.7836 16.0348 68.0664C15.8473 68.2656 15.4193 68.1518 14.9376 67.8396C14.9636 68.0949 14.9905 68.3501 15.0174 68.6053C15.4723 68.3216 15.8742 68.2372 16.0348 68.407C16.303 68.6907 15.9818 69.4839 15.3117 70.2496C15.5799 71.3834 16.0348 72.4897 16.678 73.5666C16.8386 73.3398 17.0261 73.0846 17.2396 72.8578C18.0165 72.0361 18.8733 71.6102 19.1415 71.9223C19.4358 72.2344 19.0339 73.1415 18.2579 73.9356C17.9896 74.2184 17.6954 74.4736 17.4271 74.6444L17.454 74.6719C18.1233 75.523 18.8733 76.4585 19.6771 77.4785C19.8108 77.0819 20.132 76.5999 20.5608 76.1463C21.3369 75.3247 22.1936 74.8987 22.4619 75.2108C22.7561 75.523 22.3542 76.43 21.5782 77.2242C21.0964 77.7337 20.6138 78.0743 20.2388 78.1872C20.4801 78.4994 20.7214 78.8115 20.9888 79.1512C21.2032 79.2935 21.3907 79.4918 21.6051 79.7186C22.0869 80.229 22.435 80.7954 22.5417 81.2214C22.5955 81.3059 22.6494 81.3913 22.7292 81.4482C22.7292 81.0222 23.1042 80.3419 23.6936 79.7186C24.4697 78.896 25.3273 78.4709 25.5947 78.783C25.8889 79.0952 25.4879 80.0022 24.711 80.7954C24.0686 81.4767 23.3725 81.8733 22.9975 81.8163C23.0504 81.8733 23.0773 81.9302 23.1311 81.9862C23.533 82.0146 24.1485 82.4122 24.7379 83.0071C25.5139 83.8297 25.9159 84.7367 25.6216 85.0195C25.5678 85.0764 25.5139 85.1049 25.4341 85.1049C25.6216 85.3601 25.8091 85.6438 25.9966 85.899C25.9966 85.7852 26.0235 85.7007 26.0764 85.6153C26.3716 85.3032 27.2284 85.7282 27.9775 86.5508C28.7544 87.3725 29.1563 88.2805 28.8612 88.5632C28.6476 88.79 28.1389 88.6202 27.5495 88.1666C27.737 88.4219 27.8976 88.7055 28.0582 88.9608C28.4063 88.79 28.7006 88.7625 28.8351 88.9038C28.9957 89.0737 28.915 89.4712 28.6745 89.9247C29.3438 91.0016 29.9593 92.0225 30.4948 92.958C31.1112 92.4476 31.6997 92.2208 31.941 92.4476C32.2084 92.7313 31.8872 93.5245 31.2179 94.2902C31.2448 94.3186 31.2718 94.3755 31.2718 94.404C31.7535 95.3671 32.4228 96.1897 33.1997 96.8415C33.2535 96.7846 33.2796 96.7286 33.3334 96.6716C34.1103 95.8491 34.9671 95.424 35.2344 95.7361C35.5027 96.0198 35.1546 96.8415 34.4584 97.6356C35.1007 97.9478 35.7969 98.1461 36.52 98.2305C36.6806 98.259 36.8412 98.259 37.0018 98.2874C36.8143 98.1461 36.6268 97.9753 36.4393 97.777C35.6632 96.9553 35.2613 96.0483 35.5556 95.7646C35.8507 95.4524 36.7075 95.8775 37.4575 96.7001C38.073 97.3519 38.448 98.0607 38.4211 98.4573C38.5547 98.4857 38.6893 98.4857 38.823 98.5142C38.7692 98.1176 39.1442 97.3804 39.7865 96.7001C40.5634 95.8775 41.4202 95.4524 41.6884 95.7646C41.9827 96.0758 41.5808 96.9838 40.8047 97.777C40.4567 98.1461 40.0817 98.4288 39.7605 98.6281C41.3134 98.8264 42.7596 99.0247 43.6962 99.1945C44.6606 99.3653 46.7492 98.741 49.2127 97.6356C48.5435 96.8699 48.1954 96.0483 48.4627 95.7646C48.757 95.4524 49.6146 95.8775 50.3638 96.7001C50.4445 96.7846 50.5244 96.8699 50.6051 96.9838C51.5955 96.4733 52.6138 95.9344 53.6311 95.3111C53.31 95.1403 52.935 94.8575 52.5869 94.4885C51.81 93.6668 51.408 92.7597 51.7032 92.4761C51.9975 92.1924 52.8542 92.589 53.6042 93.4116C54.0591 93.8936 54.3811 94.404 54.5148 94.8006C54.6485 94.7152 54.7822 94.6308 54.8898 94.5454C55.0504 94.2048 55.3178 93.7797 55.6928 93.4116C56.4697 92.589 57.3264 92.1639 57.5938 92.4761C57.6207 92.5045 57.6207 92.533 57.6476 92.5605C57.915 92.3622 58.1563 92.1355 58.3976 91.9371C58.29 91.9371 58.1832 91.9087 58.1294 91.8518C57.8351 91.5405 58.237 90.6335 59.0131 89.8394C59.79 89.0168 60.6468 88.5917 60.9141 88.9038C60.9679 88.9608 60.9949 89.0452 60.9949 89.1591C61.1285 88.9892 61.2362 88.79 61.316 88.6202C61.3429 88.7055 61.2891 88.7055 61.2622 88.6771ZM19.1146 71.3834C18.8195 71.6955 17.9627 71.2705 17.2136 70.4479C16.4367 69.6262 16.0348 68.7191 16.3299 68.4355C16.6242 68.1233 17.481 68.5484 18.231 69.371C19.007 70.1926 19.4089 71.1006 19.1146 71.3834ZM18.231 67.1593C17.454 67.9819 16.5973 68.407 16.3299 68.0949C16.0348 67.7836 16.4367 66.8766 17.2136 66.0825C17.9896 65.2599 18.8464 64.8348 19.1146 65.1469C19.4089 65.4306 19.007 66.3377 18.231 67.1593ZM19.1146 64.4951C18.8195 64.8063 17.9627 64.3813 17.2136 63.5596C16.4367 62.737 16.0348 61.8299 16.3299 61.5463C16.6242 61.235 17.481 61.6601 18.231 62.4818C19.007 63.3044 19.4089 64.2114 19.1146 64.4951ZM18.231 60.2711C17.454 61.0927 16.5973 61.5178 16.3299 61.2066C16.0348 60.8944 16.4367 59.9874 17.2136 59.1932C17.9896 58.3716 18.8464 57.9465 19.1146 58.2577C19.4089 58.5414 19.007 59.4485 18.231 60.2711ZM22.435 74.8987C22.1407 75.2108 21.283 74.7858 20.5339 73.9632C19.757 73.1415 19.3551 72.2344 19.6502 71.9508C19.9445 71.6386 20.8013 72.0646 21.5513 72.8863C22.3282 73.7089 22.7292 74.6159 22.435 74.8987ZM21.5513 70.4479C20.7744 71.2705 19.9176 71.6955 19.6502 71.3834C19.3551 71.0722 19.757 70.1651 20.5339 69.371C21.31 68.5484 22.1667 68.1233 22.435 68.4355C22.7292 68.7191 22.3282 69.6262 21.5513 70.4479ZM22.435 68.0949C22.1407 68.407 21.283 67.9819 20.5339 67.1593C19.757 66.3377 19.3551 65.4306 19.6502 65.1469C19.9445 64.8348 20.8013 65.2599 21.5513 66.0825C22.3282 66.8766 22.7292 67.7836 22.435 68.0949ZM21.5513 63.5596C20.7744 64.3813 19.9176 64.8063 19.6502 64.4951C19.382 64.183 19.757 63.2759 20.5339 62.4818C21.31 61.6601 22.1667 61.235 22.435 61.5463C22.7292 61.8584 22.3282 62.7655 21.5513 63.5596ZM22.435 61.2066C22.1407 61.5178 21.283 61.0927 20.5339 60.2711C19.757 59.4485 19.3551 58.5414 19.6502 58.2577C19.9445 57.9456 20.8013 58.3716 21.5513 59.1932C22.3282 59.9874 22.7292 60.8944 22.435 61.2066ZM21.5513 56.6989C20.7744 57.5205 19.9176 57.9456 19.6502 57.6344C19.3551 57.3222 19.757 56.4152 20.5339 55.621C21.31 54.7994 22.1667 54.3743 22.435 54.6855C22.7292 54.9692 22.3282 55.8763 21.5513 56.6989ZM21.5513 49.8097C20.7744 50.6322 19.9176 51.0573 19.6502 50.7452C19.3551 50.433 19.757 49.526 20.5339 48.7328C21.31 47.9102 22.1667 47.4851 22.435 47.7972C22.7292 48.08 22.3282 48.988 21.5513 49.8097ZM22.435 47.4282C22.1407 47.7403 21.283 47.3153 20.5339 46.4927C19.757 45.671 19.3551 44.7639 19.6502 44.4803C19.9445 44.1681 20.8013 44.5932 21.5513 45.4158C22.3282 46.2374 22.7292 47.1445 22.435 47.4282ZM21.5513 42.9204C20.7744 43.743 19.9176 44.1681 19.6502 43.856C19.3551 43.5447 19.757 42.6377 20.5339 41.8436C21.31 41.021 22.1667 40.5959 22.435 40.908C22.7292 41.1917 22.3282 42.0988 21.5513 42.9204ZM25.5409 78.2157C25.2466 78.5278 24.3898 78.1027 23.6398 77.2802C22.8638 76.4585 22.4619 75.5514 22.7561 75.2677C23.0504 74.9556 23.908 75.3807 24.6572 76.2033C25.4341 76.9974 25.836 77.9044 25.5409 78.2157ZM24.6572 73.9632C23.8811 74.7858 23.0244 75.2108 22.7561 74.8987C22.4619 74.5875 22.8638 73.6804 23.6398 72.8863C24.4167 72.0637 25.2735 71.6386 25.5409 71.9508C25.836 72.2629 25.4341 73.17 24.6572 73.9632ZM25.5409 71.3834C25.2466 71.6955 24.3898 71.2705 23.6398 70.4479C22.8638 69.6262 22.4619 68.7191 22.7561 68.4355C23.0504 68.1233 23.908 68.5484 24.6572 69.371C25.4341 70.1926 25.836 71.1006 25.5409 71.3834ZM24.6572 67.1593C23.8811 67.9819 23.0244 68.407 22.7561 68.0949C22.4619 67.7836 22.8638 66.8766 23.6398 66.0825C24.4167 65.2599 25.2735 64.8348 25.5409 65.1469C25.836 65.4306 25.4341 66.3377 24.6572 67.1593ZM25.5409 64.4951C25.2466 64.8063 24.3898 64.3813 23.6398 63.5596C22.8638 62.737 22.4619 61.8299 22.7561 61.5463C23.0504 61.235 23.908 61.6601 24.6572 62.4818C25.4341 63.3044 25.836 64.2114 25.5409 64.4951ZM24.6572 60.2711C23.8811 61.0927 23.0244 61.5178 22.7561 61.2066C22.4619 60.8944 22.8638 59.9874 23.6398 59.1932C24.4167 58.3716 25.2735 57.9465 25.5409 58.2577C25.836 58.5414 25.4341 59.4485 24.6572 60.2711ZM25.5409 57.6344C25.2466 57.9465 24.3898 57.5205 23.6398 56.6989C22.8638 55.8763 22.4619 54.9692 22.7561 54.6855C23.0504 54.3743 23.908 54.7994 24.6572 55.621C25.4341 56.4152 25.836 57.3222 25.5409 57.6344ZM24.6572 53.3819C23.8811 54.2035 23.0244 54.6295 22.7561 54.3174C22.4619 54.0052 22.8638 53.0982 23.6398 52.304C24.4167 51.4824 25.2735 51.0573 25.5409 51.3685C25.836 51.6522 25.4341 52.5593 24.6572 53.3819ZM25.5409 50.7452C25.2466 51.0573 24.3898 50.6322 23.6398 49.8097C22.8638 48.988 22.4619 48.08 22.7561 47.7972C23.0504 47.4851 23.908 47.9102 24.6572 48.7328C25.4072 49.5544 25.836 50.433 25.5409 50.7452ZM24.6572 46.4927C23.8811 47.3153 23.0244 47.7403 22.7561 47.4282C22.4619 47.1169 22.8638 46.209 23.6398 45.4158C24.4167 44.5932 25.2735 44.1681 25.5409 44.4803C25.836 44.7639 25.4341 45.671 24.6572 46.4927ZM25.5409 43.856C25.2466 44.1681 24.3898 43.743 23.6398 42.9204C22.8638 42.0988 22.4619 41.1917 22.7561 40.908C23.0504 40.5959 23.908 41.021 24.6572 41.8436C25.4341 42.6377 25.836 43.5447 25.5409 43.856ZM24.6572 39.6035C23.8811 40.4261 23.0244 40.8511 22.7561 40.539C22.4619 40.2277 22.8638 39.3207 23.6398 38.5266C24.4167 37.7049 25.2735 37.2789 25.5409 37.591C25.836 37.9032 25.4341 38.8102 24.6572 39.6035ZM25.5409 36.9677C25.2466 37.2789 24.3898 36.8538 23.6398 36.0322C22.8638 35.2096 22.4619 34.3025 22.7561 34.0188C23.0504 33.7067 23.908 34.1327 24.6572 34.9544C25.4341 35.7769 25.836 36.684 25.5409 36.9677ZM24.6572 32.7436C23.8811 33.5653 23.0244 33.9904 22.7561 33.6792C22.4619 33.367 22.8638 32.46 23.6398 31.6658C24.4167 30.8441 25.2735 30.4182 25.5409 30.7303C25.836 31.014 25.4341 31.921 24.6572 32.7436ZM25.5409 30.0785C25.2466 30.3906 24.3898 29.9646 23.6398 29.143C22.8638 28.3204 22.4619 27.4133 22.7561 27.1296C23.0504 26.8184 23.908 27.2435 24.6572 28.0652C25.4341 28.8877 25.836 29.7948 25.5409 30.0785ZM27.9245 84.1694C27.1476 84.9919 26.2909 85.417 26.0235 85.1049C25.7284 84.7927 26.1303 83.8857 26.9072 83.0925C27.6832 82.2699 28.54 81.8448 28.8082 82.1569C29.0756 82.4397 28.7006 83.3477 27.9245 84.1694ZM28.8082 81.7879C28.5131 82.1 27.6563 81.675 26.9072 80.8524C26.1303 80.0307 25.7284 79.1236 26.0235 78.84C26.3178 78.5278 27.1745 78.9529 27.9245 79.7755C28.7006 80.5971 29.0756 81.4767 28.8082 81.7879ZM27.9245 77.2802C27.1476 78.1027 26.2909 78.5278 26.0235 78.2157C25.7284 77.9044 26.1303 76.9974 26.9072 76.2033C27.6832 75.3807 28.54 74.9556 28.8082 75.2677C29.0756 75.5514 28.7006 76.4585 27.9245 77.2802ZM28.8082 74.8987C28.5131 75.2108 27.6563 74.7858 26.9072 73.9632C26.1303 73.1415 25.7284 72.2344 26.0235 71.9508C26.3178 71.6386 27.1745 72.0646 27.9245 72.8863C28.7006 73.7089 29.0756 74.6159 28.8082 74.8987ZM27.9245 70.4479C27.1476 71.2705 26.2909 71.6955 26.0235 71.3834C25.7284 71.0722 26.1303 70.1651 26.9072 69.371C27.6832 68.5484 28.54 68.1233 28.8082 68.4355C29.0756 68.7191 28.7006 69.6262 27.9245 70.4479ZM28.8082 68.0949C28.5131 68.407 27.6563 67.9819 26.9072 67.1593C26.1303 66.3377 25.7284 65.4306 26.0235 65.1469C26.3178 64.8348 27.1745 65.2599 27.9245 66.0825C28.7006 66.8766 29.0756 67.7836 28.8082 68.0949ZM27.9245 63.5596C27.1476 64.3813 26.2909 64.8063 26.0235 64.4951C25.7284 64.183 26.1303 63.2759 26.9072 62.4818C27.6832 61.6601 28.54 61.235 28.8082 61.5463C29.0756 61.8584 28.7006 62.7655 27.9245 63.5596ZM28.8082 61.2066C28.5131 61.5178 27.6563 61.0927 26.9072 60.2711C26.1303 59.4485 25.7284 58.5414 26.0235 58.2577C26.3178 57.9456 27.1745 58.3716 27.9245 59.1932C28.7006 59.9874 29.0756 60.8944 28.8082 61.2066ZM27.9245 56.6989C27.1476 57.5205 26.2909 57.9456 26.0235 57.6344C25.7284 57.3222 26.1303 56.4152 26.9072 55.621C27.6832 54.7994 28.54 54.3743 28.8082 54.6855C29.0756 54.9692 28.7006 55.8763 27.9245 56.6989ZM28.8082 54.3174C28.5131 54.6295 27.6563 54.2035 26.9072 53.3819C26.1303 52.5593 25.7284 51.6522 26.0235 51.3685C26.3178 51.0573 27.1745 51.4824 27.9245 52.304C28.7006 53.0982 29.0756 54.0052 28.8082 54.3174ZM27.9245 49.8097C27.1476 50.6322 26.2909 51.0573 26.0235 50.7452C25.7284 50.433 26.1303 49.526 26.9072 48.7328C27.6832 47.9386 28.54 47.4851 28.8082 47.7972C29.0756 48.08 28.7006 48.988 27.9245 49.8097ZM28.8082 47.4282C28.5131 47.7403 27.6563 47.3153 26.9072 46.4927C26.1572 45.671 25.7284 44.7639 26.0235 44.4803C26.3178 44.1681 27.1745 44.5932 27.9245 45.4158C28.7006 46.2374 29.0756 47.1445 28.8082 47.4282ZM27.9245 42.9204C27.1476 43.743 26.2909 44.1681 26.0235 43.856C25.7284 43.5447 26.1303 42.6377 26.9072 41.8436C27.6832 41.021 28.54 40.5959 28.8082 40.908C29.0756 41.1917 28.7006 42.0988 27.9245 42.9204ZM28.8082 40.539C28.5131 40.8511 27.6563 40.4261 26.9072 39.6035C26.1303 38.7818 25.7284 37.8747 26.0235 37.591C26.3178 37.2789 27.1745 37.7049 27.9245 38.5266C28.7006 39.3492 29.0756 40.2562 28.8082 40.539ZM27.9245 36.0322C27.1476 36.8538 26.2909 37.2789 26.0235 36.9677C25.7284 36.6555 26.1303 35.7485 26.9072 34.9544C27.6832 34.1327 28.54 33.7067 28.8082 34.0188C29.0756 34.331 28.7006 35.2096 27.9245 36.0322ZM28.8082 33.6792C28.5131 33.9904 27.6563 33.5653 26.9072 32.7436C26.1303 31.921 25.7284 31.014 26.0235 30.7303C26.3178 30.4182 27.1745 30.8441 27.9245 31.6658C28.7006 32.46 29.0756 33.367 28.8082 33.6792ZM27.9245 29.1714C27.1476 29.9931 26.2909 30.4182 26.0235 30.1069C25.7284 29.7948 26.1303 28.8877 26.9072 28.0936C27.6832 27.2719 28.54 26.8469 28.8082 27.1581C29.0756 27.4418 28.7006 28.3488 27.9245 29.1714ZM31.9141 91.9656C31.6198 92.2778 30.7631 91.8518 30.0131 91.0301C29.2362 90.2075 28.8351 89.3005 29.1294 89.0168C29.4237 88.7055 30.2804 89.1306 31.0304 89.9523C31.8073 90.7749 32.2084 91.6819 31.9141 91.9656ZM31.0304 87.7416C30.2544 88.5632 29.3968 88.9892 29.1294 88.6771C28.8351 88.3649 29.2362 87.4579 30.0131 86.6638C30.79 85.8421 31.6468 85.417 31.9141 85.7282C32.2084 86.0119 31.8073 86.919 31.0304 87.7416ZM31.9141 85.1049C31.6198 85.417 30.7631 84.9919 30.0131 84.1694C29.2362 83.3477 28.8351 82.4397 29.1294 82.1569C29.4237 81.8448 30.2804 82.2699 31.0304 83.0925C31.8073 83.8857 32.2084 84.7927 31.9141 85.1049ZM31.0304 80.8524C30.2544 81.675 29.3968 82.1 29.1294 81.7879C28.8351 81.4767 29.2362 80.5687 30.0131 79.7755C30.79 78.9529 31.6468 78.5278 31.9141 78.84C32.2084 79.1236 31.8073 80.0307 31.0304 80.8524ZM31.9141 78.2157C31.6198 78.5278 30.7631 78.1027 30.0131 77.2802C29.2362 76.4585 28.8351 75.5514 29.1294 75.2677C29.4237 74.9556 30.2804 75.3807 31.0304 76.2033C31.8073 76.9974 32.2084 77.9044 31.9141 78.2157ZM31.0304 73.9632C30.2544 74.7858 29.3968 75.2108 29.1294 74.8987C28.8351 74.5875 29.2362 73.6804 30.0131 72.8863C30.79 72.0637 31.6468 71.6386 31.9141 71.9508C32.2084 72.2629 31.8073 73.17 31.0304 73.9632ZM31.9141 71.3834C31.6198 71.6955 30.7631 71.2705 30.0131 70.4479C29.2362 69.6262 28.8351 68.7191 29.1294 68.4355C29.4237 68.1233 30.2804 68.5484 31.0304 69.371C31.8073 70.1926 32.2084 71.1006 31.9141 71.3834ZM31.0304 67.1593C30.2544 67.9819 29.3968 68.407 29.1294 68.0949C28.8351 67.7836 29.2362 66.8766 30.0131 66.0825C30.79 65.2599 31.6468 64.8348 31.9141 65.1469C32.2084 65.4306 31.8073 66.3377 31.0304 67.1593ZM31.9141 64.4951C31.6198 64.8063 30.7631 64.3813 30.0131 63.5596C29.2362 62.737 28.8351 61.8299 29.1294 61.5463C29.4237 61.235 30.2804 61.6601 31.0304 62.4818C31.8073 63.3044 32.2084 64.2114 31.9141 64.4951ZM31.0304 60.2711C30.2544 61.0927 29.3968 61.5178 29.1294 61.2066C28.8351 60.8944 29.2362 59.9874 30.0131 59.1932C30.79 58.3716 31.6468 57.9465 31.9141 58.2577C32.2084 58.5414 31.8073 59.4485 31.0304 60.2711ZM31.9141 57.6344C31.6198 57.9465 30.7631 57.5205 30.0131 56.6989C29.2362 55.8763 28.8351 54.9692 29.1294 54.6855C29.4237 54.3743 30.2804 54.7994 31.0304 55.621C31.8073 56.4152 32.2084 57.3222 31.9141 57.6344ZM31.0304 53.3819C30.2544 54.2035 29.3968 54.6295 29.1294 54.3174C28.8351 54.0052 29.2362 53.0982 30.0131 52.304C30.79 51.4824 31.6468 51.0573 31.9141 51.3685C32.2084 51.6522 31.8073 52.5593 31.0304 53.3819ZM31.9141 50.7452C31.6198 51.0573 30.7631 50.6322 30.0131 49.8097C29.2362 48.988 28.8351 48.08 29.1294 47.7972C29.4237 47.4851 30.2804 47.9102 31.0304 48.7328C31.7804 49.5544 32.2084 50.433 31.9141 50.7452ZM31.0304 46.4927C30.2544 47.3153 29.3968 47.7403 29.1294 47.4282C28.8351 47.1169 29.2362 46.209 30.0131 45.4158C30.79 44.5932 31.6468 44.1681 31.9141 44.4803C32.2084 44.7639 31.8073 45.671 31.0304 46.4927ZM31.9141 43.856C31.6198 44.1681 30.7631 43.743 30.0131 42.9204C29.2362 42.0988 28.8351 41.1917 29.1294 40.908C29.4237 40.5959 30.2804 41.021 31.0304 41.8436C31.8073 42.6377 32.2084 43.5447 31.9141 43.856ZM31.0304 39.6035C30.2544 40.4261 29.3968 40.8511 29.1294 40.539C28.8351 40.2277 29.2362 39.3207 30.0131 38.5266C30.79 37.7049 31.6468 37.2789 31.9141 37.591C32.2084 37.9032 31.8073 38.8102 31.0304 39.6035ZM31.9141 36.9677C31.6198 37.2789 30.7631 36.8538 30.0131 36.0322C29.2362 35.2096 28.8351 34.3025 29.1294 34.0188C29.4237 33.7067 30.2804 34.1327 31.0304 34.9544C31.8073 35.7769 32.2084 36.684 31.9141 36.9677ZM35.2344 95.5663C34.9402 95.8775 34.0834 95.4524 33.3334 94.6308C32.5565 93.8082 32.1554 92.9011 32.4497 92.6174C32.744 92.3053 33.6016 92.7313 34.3507 93.553C35.1277 94.3471 35.5296 95.2541 35.2344 95.5663ZM34.3507 91.0586C33.5747 91.8802 32.7179 92.3053 32.4497 91.9941C32.1554 91.6819 32.5565 90.7749 33.3334 89.9807C34.1103 89.1591 34.9671 88.734 35.2344 89.0452C35.5296 89.3289 35.1277 90.236 34.3507 91.0586ZM35.2344 88.6771C34.9402 88.9892 34.0834 88.5632 33.3334 87.7416C32.5565 86.919 32.1554 86.0119 32.4497 85.7282C32.744 85.417 33.6016 85.8421 34.3507 86.6638C35.1277 87.4579 35.5296 88.3649 35.2344 88.6771ZM34.3507 84.1694C33.5747 84.9919 32.7179 85.417 32.4497 85.1049C32.1554 84.7927 32.5565 83.8857 33.3334 83.0925C34.1103 82.2699 34.9671 81.8448 35.2344 82.1569C35.5296 82.4397 35.1277 83.3477 34.3507 84.1694ZM35.2344 81.7879C34.9402 82.1 34.0834 81.675 33.3334 80.8524C32.5565 80.0307 32.1554 79.1236 32.4497 78.84C32.744 78.5278 33.6016 78.9529 34.3507 79.7755C35.1277 80.5971 35.5296 81.4767 35.2344 81.7879ZM34.3507 77.2802C33.5747 78.1027 32.7179 78.5278 32.4497 78.2157C32.1554 77.9044 32.5565 76.9974 33.3334 76.2033C34.1103 75.3807 34.9671 74.9556 35.2344 75.2677C35.5296 75.5514 35.1277 76.4585 34.3507 77.2802ZM35.2344 74.8987C34.9402 75.2108 34.0834 74.7858 33.3334 73.9632C32.5565 73.1415 32.1554 72.2344 32.4497 71.9508C32.744 71.6386 33.6016 72.0646 34.3507 72.8863C35.1277 73.7089 35.5296 74.6159 35.2344 74.8987ZM34.3507 70.4479C33.5747 71.2705 32.7179 71.6955 32.4497 71.3834C32.1554 71.0722 32.5565 70.1651 33.3334 69.371C34.1103 68.5484 34.9671 68.1233 35.2344 68.4355C35.5296 68.7191 35.1277 69.6262 34.3507 70.4479ZM35.2344 68.0949C34.9402 68.407 34.0834 67.9819 33.3334 67.1593C32.5565 66.3377 32.1554 65.4306 32.4497 65.1469C32.744 64.8348 33.6016 65.2599 34.3507 66.0825C35.1277 66.8766 35.5296 67.7836 35.2344 68.0949ZM34.3507 63.5596C33.5747 64.3813 32.7179 64.8063 32.4497 64.4951C32.1554 64.183 32.5565 63.2759 33.3334 62.4818C34.1103 61.6601 34.9671 61.235 35.2344 61.5463C35.5296 61.8584 35.1277 62.7655 34.3507 63.5596ZM35.2344 61.2066C34.9402 61.5178 34.0834 61.0927 33.3334 60.2711C32.5565 59.4485 32.1554 58.5414 32.4497 58.2577C32.744 57.9456 33.6016 58.3716 34.3507 59.1932C35.1277 59.9874 35.5296 60.8944 35.2344 61.2066ZM34.3507 56.6989C33.5747 57.5205 32.7179 57.9456 32.4497 57.6344C32.1554 57.3222 32.5565 56.4152 33.3334 55.621C34.1103 54.7994 34.9671 54.3743 35.2344 54.6855C35.5296 54.9692 35.1277 55.8763 34.3507 56.6989ZM35.2344 54.3174C34.9402 54.6295 34.0834 54.2035 33.3334 53.3819C32.5565 52.5593 32.1554 51.6522 32.4497 51.3685C32.744 51.0573 33.6016 51.4824 34.3507 52.304C35.1277 53.0982 35.5296 54.0052 35.2344 54.3174ZM34.3507 49.8097C33.5747 50.6322 32.7179 51.0573 32.4497 50.7452C32.1554 50.433 32.5565 49.526 33.3334 48.7328C34.1103 47.9386 34.9671 47.4851 35.2344 47.7972C35.5296 48.08 35.1277 48.988 34.3507 49.8097ZM35.2344 47.4282C34.9402 47.7403 34.0834 47.3153 33.3334 46.4927C32.5834 45.671 32.1554 44.7639 32.4497 44.4803C32.744 44.1681 33.6016 44.5932 34.3507 45.4158C35.1277 46.2374 35.5296 47.1445 35.2344 47.4282ZM37.4575 94.6308C36.6806 95.4524 35.8238 95.8775 35.5556 95.5663C35.2613 95.2541 35.6632 94.3471 36.4393 93.553C37.2162 92.7313 38.073 92.3053 38.3412 92.6174C38.6086 92.9296 38.2336 93.8082 37.4575 94.6308ZM38.3412 91.9656C38.0461 92.2778 37.1893 91.8518 36.4393 91.0301C35.6632 90.2075 35.2613 89.3005 35.5556 89.0168C35.8507 88.7055 36.7075 89.1306 37.4575 89.9523C38.2336 90.7749 38.6355 91.6819 38.3412 91.9656ZM37.4575 87.7416C36.6806 88.5632 35.8238 88.9892 35.5556 88.6771C35.2613 88.3649 35.6632 87.4579 36.4393 86.6638C37.2162 85.8421 38.073 85.417 38.3412 85.7282C38.6086 86.0404 38.2336 86.919 37.4575 87.7416ZM38.3412 85.1049C38.0461 85.417 37.1893 84.9919 36.4393 84.1694C35.6632 83.3477 35.2613 82.4397 35.5556 82.1569C35.8507 81.8448 36.7075 82.2699 37.4575 83.0925C38.2336 83.8857 38.6355 84.7927 38.3412 85.1049ZM37.4575 80.8524C36.6806 81.675 35.8238 82.1 35.5556 81.7879C35.2613 81.4767 35.6632 80.5687 36.4393 79.7755C37.2162 78.9529 38.073 78.5278 38.3412 78.84C38.6355 79.1236 38.2336 80.0307 37.4575 80.8524ZM38.3412 78.2157C38.0461 78.5278 37.1893 78.1027 36.4393 77.2802C35.6632 76.4585 35.2613 75.5514 35.5556 75.2677C35.8507 74.9556 36.7075 75.3807 37.4575 76.2033C38.2336 76.9974 38.6355 77.9044 38.3412 78.2157ZM37.4575 73.9632C36.6806 74.7858 35.8238 75.2108 35.5556 74.8987C35.2613 74.5875 35.6632 73.6804 36.4393 72.8863C37.2162 72.0637 38.073 71.6386 38.3412 71.9508C38.6355 72.2629 38.2336 73.17 37.4575 73.9632ZM38.3412 71.3834C38.0461 71.6955 37.1893 71.2705 36.4393 70.4479C35.6632 69.6262 35.2613 68.7191 35.5556 68.4355C35.8507 68.1233 36.7075 68.5484 37.4575 69.371C38.2336 70.1926 38.6355 71.1006 38.3412 71.3834ZM37.4575 67.1593C36.6806 67.9819 35.8238 68.407 35.5556 68.0949C35.2613 67.7836 35.6632 66.8766 36.4393 66.0825C37.2162 65.2599 38.073 64.8348 38.3412 65.1469C38.6355 65.4306 38.2336 66.3377 37.4575 67.1593ZM38.3412 64.4951C38.0461 64.8063 37.1893 64.3813 36.4393 63.5596C35.6632 62.737 35.2613 61.8299 35.5556 61.5463C35.8507 61.235 36.7075 61.6601 37.4575 62.4818C38.2336 63.3044 38.6355 64.2114 38.3412 64.4951ZM41.7145 95.5663C41.4202 95.8775 40.5634 95.4524 39.8134 94.6308C39.0374 93.8082 38.6355 92.9011 38.9297 92.6174C39.2249 92.3053 40.0817 92.7313 40.8308 93.553C41.6077 94.3471 42.0096 95.2541 41.7145 95.5663ZM40.8308 91.0586C40.0547 91.8802 39.198 92.3053 38.9297 91.9941C38.6355 91.6819 39.0374 90.7749 39.8134 89.9807C40.5903 89.1591 41.4471 88.734 41.7145 89.0452C42.0096 89.3289 41.6077 90.236 40.8308 91.0586ZM41.7145 88.6771C41.4202 88.9892 40.5634 88.5632 39.8134 87.7416C39.0374 86.919 38.6355 86.0119 38.9297 85.7282C39.2249 85.417 40.0817 85.8421 40.8308 86.6638C41.6077 87.4579 42.0096 88.3649 41.7145 88.6771ZM40.8308 84.1694C40.0547 84.9919 39.198 85.417 38.9297 85.1049C38.6355 84.7927 39.0374 83.8857 39.8134 83.0925C40.5903 82.2699 41.4471 81.8448 41.7145 82.1569C42.0096 82.4397 41.6077 83.3477 40.8308 84.1694ZM41.7145 81.7879C41.4202 82.1 40.5634 81.675 39.8134 80.8524C39.0374 80.0307 38.6355 79.1236 38.9297 78.84C39.2249 78.5278 40.0817 78.9529 40.8308 79.7755C41.6077 80.5971 42.0096 81.4767 41.7145 81.7879ZM40.8308 77.2802C40.0547 78.1027 39.198 78.5278 38.9297 78.2157C38.6355 77.9044 39.0374 76.9974 39.8134 76.2033C40.5903 75.3807 41.4471 74.9556 41.7145 75.2677C42.0096 75.5514 41.6077 76.4585 40.8308 77.2802ZM41.7145 74.8987C41.4202 75.2108 40.5634 74.7858 39.8134 73.9632C39.0374 73.1415 38.6355 72.2344 38.9297 71.9508C39.2249 71.6386 40.0817 72.0646 40.8308 72.8863C41.6077 73.7089 42.0096 74.6159 41.7145 74.8987ZM40.8308 70.4479C40.0547 71.2705 39.198 71.6955 38.9297 71.3834C38.6355 71.0722 39.0374 70.1651 39.8134 69.371C40.5903 68.5484 41.4471 68.1233 41.7145 68.4355C42.0096 68.7191 41.6077 69.6262 40.8308 70.4479ZM41.7145 68.0949C41.4202 68.407 40.5634 67.9819 39.8134 67.1593C39.0374 66.3377 38.6355 65.4306 38.9297 65.1469C39.2249 64.8348 40.0817 65.2599 40.8308 66.0825C41.6077 66.8766 42.0096 67.7836 41.7145 68.0949ZM44.8212 98.8548C44.5261 99.166 43.6693 98.741 42.9202 97.9193C42.1433 97.0967 41.7414 96.1897 42.0365 95.906C42.3308 95.5947 43.1876 96.0198 43.9376 96.8415C44.7136 97.6641 45.1155 98.5711 44.8212 98.8548ZM43.9376 94.6308C43.1606 95.4524 42.3039 95.8775 42.0365 95.5663C41.7414 95.2541 42.1433 94.3471 42.9202 93.553C43.6962 92.7313 44.553 92.3053 44.8212 92.6174C45.1155 92.9011 44.7136 93.8082 43.9376 94.6308ZM44.8212 91.9656C44.5261 92.2778 43.6693 91.8518 42.9202 91.0301C42.1433 90.2075 41.7414 89.3005 42.0365 89.0168C42.3308 88.7055 43.1876 89.1306 43.9376 89.9523C44.7136 90.7749 45.1155 91.6819 44.8212 91.9656ZM43.9376 87.7416C43.1606 88.5632 42.3039 88.9892 42.0365 88.6771C41.7414 88.3649 42.1433 87.4579 42.9202 86.6638C43.6962 85.8421 44.553 85.417 44.8212 85.7282C45.1155 86.0119 44.7136 86.919 43.9376 87.7416ZM44.8212 85.1049C44.5261 85.417 43.6693 84.9919 42.9202 84.1694C42.1433 83.3477 41.7414 82.4397 42.0365 82.1569C42.3308 81.8448 43.1876 82.2699 43.9376 83.0925C44.7136 83.8857 45.1155 84.7927 44.8212 85.1049ZM43.9376 80.8524C43.1606 81.675 42.3039 82.1 42.0365 81.7879C41.7414 81.4767 42.1433 80.5687 42.9202 79.7755C43.6962 78.9529 44.553 78.5278 44.8212 78.84C45.1155 79.1236 44.7136 80.0307 43.9376 80.8524ZM44.8212 78.2157C44.5261 78.5278 43.6693 78.1027 42.9202 77.2802C42.1433 76.4585 41.7414 75.5514 42.0365 75.2677C42.3308 74.9556 43.1876 75.3807 43.9376 76.2033C44.7136 76.9974 45.1155 77.9044 44.8212 78.2157ZM43.9376 73.9632C43.1606 74.7858 42.3039 75.2108 42.0365 74.8987C41.7414 74.5875 42.1433 73.6804 42.9202 72.8863C43.6962 72.0637 44.553 71.6386 44.8212 71.9508C45.1155 72.2629 44.7136 73.17 43.9376 73.9632ZM44.8212 71.3834C44.5261 71.6955 43.6693 71.2705 42.9202 70.4479C42.1433 69.6262 41.7414 68.7191 42.0365 68.4355C42.3308 68.1233 43.1876 68.5484 43.9376 69.371C44.7136 70.1926 45.1155 71.1006 44.8212 71.3834ZM47.2579 97.9193C46.481 98.741 45.6242 99.166 45.3568 98.8548C45.0886 98.5427 45.4636 97.6356 46.2405 96.8415C47.0165 96.0198 47.8733 95.5947 48.1415 95.906C48.4358 96.2181 48.0348 97.0967 47.2579 97.9193ZM48.1415 95.5663C47.8473 95.8775 46.9896 95.4524 46.2405 94.6308C45.4636 93.8082 45.0617 92.9011 45.3568 92.6174C45.6511 92.3338 46.5079 92.7313 47.2579 93.553C48.0348 94.3471 48.4358 95.2541 48.1415 95.5663ZM47.2579 91.0586C46.481 91.8802 45.6242 92.3053 45.3568 91.9941C45.0617 91.6819 45.4636 90.7749 46.2405 89.9807C47.0165 89.1591 47.8733 88.734 48.1415 89.0452C48.4358 89.3289 48.0348 90.236 47.2579 91.0586ZM48.1415 88.6771C47.8473 88.9892 46.9896 88.5632 46.2405 87.7416C45.4636 86.919 45.0617 86.0119 45.3568 85.7282C45.6511 85.4455 46.5079 85.8421 47.2579 86.6638C48.0348 87.4579 48.4358 88.3649 48.1415 88.6771ZM47.2579 84.1694C46.481 84.9919 45.6242 85.417 45.3568 85.1049C45.0617 84.7927 45.4636 83.8857 46.2405 83.0925C47.0165 82.2699 47.8733 81.8448 48.1415 82.1569C48.4358 82.4397 48.0348 83.3477 47.2579 84.1694ZM48.1415 81.7879C47.8473 82.1 46.9896 81.675 46.2405 80.8524C45.4636 80.0307 45.0617 79.1236 45.3568 78.84C45.6511 78.5278 46.5079 78.9529 47.2579 79.7755C48.0348 80.5971 48.4358 81.4767 48.1415 81.7879ZM47.2579 77.2802C46.481 78.1027 45.6242 78.5278 45.3568 78.2157C45.0617 77.9044 45.4636 76.9974 46.2405 76.2033C47.0165 75.3807 47.8733 74.9556 48.1415 75.2677C48.4358 75.5514 48.0348 76.4585 47.2579 77.2802ZM48.1415 74.8987C47.8473 75.2108 46.9896 74.7858 46.2405 73.9632C45.4636 73.1415 45.0617 72.2344 45.3568 71.9508C45.6511 71.6386 46.5079 72.0646 47.2579 72.8863C48.0348 73.7089 48.4358 74.6159 48.1415 74.8987ZM50.3907 94.6308C49.6146 95.4524 48.757 95.8775 48.4896 95.5663C48.1954 95.2541 48.5964 94.3471 49.3733 93.553C50.1502 92.7313 51.007 92.3053 51.2744 92.6174C51.5426 92.9296 51.1676 93.8082 50.3907 94.6308ZM51.2744 91.9656C50.9801 92.2778 50.1233 91.8518 49.3733 91.0301C48.5964 90.2075 48.1954 89.3005 48.4896 89.0168C48.7839 88.7055 49.6407 89.1306 50.3907 89.9523C51.1676 90.7749 51.5426 91.6819 51.2744 91.9656ZM50.3907 87.7416C49.6146 88.5632 48.757 88.9892 48.4896 88.6771C48.1954 88.3649 48.5964 87.4579 49.3733 86.6638C50.1502 85.8421 51.007 85.417 51.2744 85.7282C51.5426 86.0404 51.1676 86.919 50.3907 87.7416ZM51.2744 85.1049C50.9801 85.417 50.1233 84.9919 49.3733 84.1694C48.5964 83.3477 48.1954 82.4397 48.4896 82.1569C48.7839 81.8448 49.6407 82.2699 50.3907 83.0925C51.1676 83.8857 51.5426 84.7927 51.2744 85.1049ZM50.3907 80.8524C49.6146 81.675 48.757 82.1 48.4896 81.7879C48.1954 81.4767 48.5964 80.5687 49.3733 79.7755C50.1502 78.9529 51.007 78.5278 51.2744 78.84C51.5426 79.1236 51.1676 80.0307 50.3907 80.8524ZM51.2744 78.2157C50.9801 78.5278 50.1233 78.1027 49.3733 77.2802C48.5964 76.4585 48.1954 75.5514 48.4896 75.2677C48.7839 74.9556 49.6407 75.3807 50.3907 76.2033C51.1676 76.9974 51.5426 77.9044 51.2744 78.2157ZM53.6311 91.0586C52.8542 91.8802 51.9975 92.3053 51.7301 91.9941C51.435 91.6819 51.8369 90.7749 52.6138 89.9807C53.3898 89.1591 54.2466 88.734 54.5148 89.0452C54.8091 89.3289 54.4072 90.236 53.6311 91.0586ZM54.5148 88.6771C54.2197 88.9892 53.3629 88.5632 52.6138 87.7416C51.8369 86.919 51.435 86.0119 51.7301 85.7282C52.0244 85.4455 52.8811 85.8421 53.6311 86.6638C54.4072 87.4579 54.8091 88.3649 54.5148 88.6771ZM53.6311 84.1694C52.8542 84.9919 51.9975 85.417 51.7301 85.1049C51.435 84.7927 51.8369 83.8857 52.6138 83.0925C53.3898 82.2699 54.2466 81.8448 54.5148 82.1569C54.8091 82.4397 54.4072 83.3477 53.6311 84.1694ZM54.5148 81.7879C54.2197 82.1 53.3629 81.675 52.6138 80.8524C51.8369 80.0307 51.435 79.1236 51.7301 78.84C52.0244 78.5278 52.8811 78.9529 53.6311 79.7755C54.4072 80.5971 54.8091 81.4767 54.5148 81.7879ZM57.6207 91.9656C57.3264 92.2778 56.4697 91.8518 55.7197 91.0301C54.9428 90.2075 54.5417 89.3005 54.836 89.0168C55.1303 88.7055 55.987 89.1306 56.737 89.9523C57.5139 90.7749 57.915 91.6819 57.6207 91.9656ZM56.737 87.7416C55.961 88.5632 55.1034 88.9892 54.836 88.6771C54.5417 88.3649 54.9428 87.4579 55.7197 86.6638C56.4966 85.8421 57.3534 85.417 57.6207 85.7282C57.8889 86.0404 57.5139 86.919 56.737 87.7416ZM57.6207 85.1049C57.3264 85.417 56.4697 84.9919 55.7197 84.1694C54.9428 83.3477 54.5417 82.4397 54.836 82.1569C55.1303 81.8448 55.987 82.2699 56.737 83.0925C57.5139 83.8857 57.915 84.7927 57.6207 85.1049ZM60.941 88.6771C60.6468 88.9892 59.79 88.5632 59.04 87.7416C58.2631 86.919 57.862 86.0119 58.1563 85.7282C58.4506 85.417 59.3082 85.8421 60.0574 86.6638C60.8343 87.4579 61.2362 88.3649 60.941 88.6771Z" fill="#C2A576"/>
<path d="M32.8786 61.0074C32.8786 61.0074 36.7075 60.4978 38.6624 61.7446C40.6173 63.0207 42.5183 64.6934 42.5721 65.2599C42.6251 65.8272 41.6346 65.4866 41.6346 65.4866C41.6346 65.4866 42.4376 66.1109 42.277 66.536C42.1164 66.9326 40.9115 66.536 40.9115 66.536C40.9115 66.536 41.6615 66.9895 41.6077 67.3301C41.5808 67.443 41.4202 67.6129 41.2058 67.6129C40.6702 67.6129 39.8404 67.2447 39.8404 67.2447C39.8404 67.2447 40.8308 67.6983 40.0009 68.2656C39.198 68.8321 32.5305 66.3377 31.2987 64.5236C30.0669 62.737 32.8786 61.0074 32.8786 61.0074Z" fill="#D27A4E"/>
<path d="M15.5799 24.2948C15.5799 24.2948 8.16239 29.7381 8.40371 41.9851C8.64416 54.2322 12.2327 63.7296 30.7362 69.1729C30.7362 69.1729 32.7709 61.5749 33.6815 60.1005C33.6815 60.1005 26.4245 57.8328 20.882 50.7453L25.461 50.5186C25.461 50.5186 22.5148 32.3178 23.4254 28.4344C24.336 24.55 27.4957 26.7901 28.165 28.8595C28.8082 30.9288 30.7631 50.0081 30.7631 50.0081L33.7084 49.9237C33.7084 49.9237 38.073 59.9306 41.8221 62.8795C41.7683 62.851 38.9567 7.54094 15.5799 24.2948Z" fill="#A94E25"/>
<path d="M30.8698 11.8493C30.8698 11.8493 33.0121 1.84233 24.7109 0.537748C16.4097 -0.765912 11.4028 8.39092 11.4826 13.4091C11.5634 18.4264 14.5087 19.5326 14.0799 20.8363C13.6788 22.1409 13.2769 23.0764 15.5529 24.2947C17.829 25.5139 22.5686 29.9087 25.5677 29.6534C28.5937 29.3982 30.5486 18.1151 30.5486 18.1151L30.8698 11.8493Z" fill="#6C6533"/>
<path d="M17.8559 17.3777C18.204 18.4261 18.7934 19.3901 19.6771 20.2412C22.0061 22.4519 24.9783 22.6502 27.7639 21.3465C33.092 18.8237 31.4592 8.44763 27.362 5.47033C23.3186 2.5224 18.4713 7.93718 17.6684 12.1328C17.3203 14.0038 17.3203 15.7904 17.8559 17.3777Z" fill="#D27A4E"/>
<path d="M103.571 16.9241C103.277 18.001 102.741 18.9934 101.885 19.9005C99.6884 22.2535 96.7162 22.5941 93.8777 21.4603C88.415 19.2487 89.54 8.81572 93.4766 5.58411C97.3586 2.40942 102.473 7.54052 103.491 11.6792C103.946 13.5217 104.027 15.3083 103.571 16.9241Z" fill="#D27A4E"/>
<path d="M74.1155 119.068C74.9462 119.096 75.803 119.181 76.6059 119.436C76.8203 119.493 76.9011 119.181 76.6867 119.096C75.8568 118.841 74.9731 118.727 74.0894 118.727C73.9019 118.727 73.9019 119.068 74.1155 119.068Z" fill="#261E33"/>
<path d="M73.6336 120.145C74.4634 120.173 75.3211 120.259 76.124 120.514C76.3384 120.57 76.4183 120.259 76.2048 120.173C75.374 119.918 74.4903 119.805 73.6067 119.805C73.4192 119.805 73.4192 120.145 73.6336 120.145Z" fill="#261E33"/>
<path d="M73.0713 121.08C73.902 121.109 74.7588 121.194 75.5617 121.449C75.7761 121.505 75.8569 121.194 75.6425 121.109C74.8117 120.854 73.9289 120.741 73.0452 120.741C72.8577 120.741 72.8577 121.08 73.0713 121.08Z" fill="#261E33"/>
<path d="M95.0826 113.029C94.4671 114.191 93.7171 115.354 92.8065 116.262C91.4949 117.565 89.6737 116.828 88.3881 118.019C87.7458 118.586 87.3977 119.465 86.7284 120.088C85.0409 121.676 82.8456 122.13 80.6494 121.932C80.4359 121.903 80.4359 122.243 80.6494 122.271C82.6312 122.47 84.586 122.13 86.2466 120.939C87.1303 120.287 87.639 119.493 88.3083 118.643C89.165 117.565 90.2631 117.849 91.4142 117.565C92.0574 117.424 92.593 116.97 93.0479 116.517C93.9854 115.581 94.7614 114.39 95.3777 113.228C95.4845 113.001 95.1902 112.831 95.0826 113.029Z" fill="#261E33"/>
<path d="M83.8898 114.532C84.7197 114.617 85.5764 114.787 86.3534 115.128C86.5409 115.212 86.6207 114.872 86.4341 114.787C85.6303 114.446 84.7466 114.277 83.8898 114.191C83.6754 114.164 83.6754 114.532 83.8898 114.532Z" fill="#261E33"/>
<path d="M84.4792 113.596C85.3091 113.682 86.1659 113.852 86.9428 114.191C87.1303 114.277 87.2102 113.937 87.0227 113.852C86.2197 113.511 85.336 113.341 84.4792 113.256C84.2917 113.228 84.2917 113.568 84.4792 113.596Z" fill="#261E33"/>
<path d="M83.2475 115.41C84.0773 115.496 84.9341 115.666 85.711 116.006C85.8985 116.091 85.9784 115.751 85.7909 115.666C84.9879 115.326 84.1042 115.155 83.2475 115.071C83.0331 115.042 83.0331 115.41 83.2475 115.41Z" fill="#261E33"/>
<path d="M80.7568 121.959C80.3549 121.534 79.9799 121.08 79.7126 120.57C79.0962 119.379 79.8732 118.699 80.6223 117.906C81.5329 116.942 82.4704 116.035 83.381 115.099C83.5416 114.957 83.3002 114.702 83.1397 114.844C81.9079 116.063 80.3011 117.31 79.3376 118.784C78.5607 119.947 79.7126 121.393 80.5155 122.214C80.6761 122.357 80.9174 122.101 80.7568 121.959Z" fill="#261E33"/>
<path d="M80.1136 121.648C79.7655 121.789 79.3905 121.931 79.0962 122.187C78.1058 122.98 78.052 124.256 77.3827 125.304C76.0702 127.289 73.9018 128.082 71.6787 127.998C71.4652 127.998 71.4652 128.338 71.6787 128.338C73.4461 128.395 75.1336 127.97 76.5259 126.779C77.0884 126.268 77.624 125.673 77.9721 124.965C78.427 124.085 78.5077 123.15 79.3107 122.498C79.6318 122.243 80.0068 122.073 80.3818 121.959C80.2742 121.846 80.1943 121.732 80.1136 121.648Z" fill="#261E33"/>
<path d="M15.6598 34.5862C16.0079 36.9677 16.4906 39.3207 17.0791 41.6452C17.856 44.7639 18.7397 48.3637 20.7484 50.859C20.8821 51.0288 21.1225 50.7736 20.9888 50.6038C18.8465 47.9386 17.9897 44.0827 17.2137 40.7666C16.731 38.6964 16.3031 36.5986 15.9819 34.4724C15.9281 34.2741 15.6338 34.3879 15.6598 34.5862Z" fill="#261E33"/>
<path d="M31.8601 32.7152C32.664 33.6223 33.039 35.0682 33.3332 36.202C34.4044 40.6244 34.0563 45.3873 33.4938 49.8381C33.4669 50.0649 33.7881 50.1503 33.815 49.9235C34.4044 45.3873 34.7525 40.5675 33.6544 36.0882C33.3601 34.8699 32.9582 33.367 32.1015 32.4315C31.9678 32.3177 31.7265 32.5729 31.8601 32.7152Z" fill="#261E33"/>
<path d="M42.4114 65.8556C41.4201 65.033 40.322 64.0975 39.1171 63.644C38.9296 63.5595 38.8229 63.8992 39.0373 63.9846C40.1614 64.4097 41.2864 65.3452 42.197 66.1109C42.3576 66.2238 42.572 65.9685 42.4114 65.8556Z" fill="#261E33"/>
<path d="M41.7682 66.8197C40.7777 65.9971 39.6796 65.0616 38.4747 64.6081C38.2872 64.5236 38.1805 64.8633 38.394 64.9487C39.519 65.3738 40.644 66.3093 41.5537 67.075C41.6883 67.2163 41.9287 66.9611 41.7682 66.8197Z" fill="#261E33"/>
<path d="M40.3489 67.4429C39.519 66.7626 38.6084 66.0539 37.6179 65.6857C37.4304 65.6004 37.3228 65.941 37.5372 66.0254C38.4747 66.366 39.3315 67.0463 40.1344 67.6981C40.2959 67.812 40.5094 67.5852 40.3489 67.4429Z" fill="#261E33"/>
<path d="M18.3107 51.0288C16.4904 50.7166 14.6423 50.377 12.822 50.0648C12.6076 50.0364 12.5268 50.3485 12.7412 50.4054C14.5624 50.7166 16.4097 51.0573 18.2308 51.3685C18.4183 51.3969 18.4982 51.0857 18.3107 51.0288Z" fill="#261E33"/>
<path d="M20.2386 53.0128C17.7751 52.7301 15.3385 52.4464 12.8749 52.1343C12.6605 52.1058 12.6605 52.4464 12.8749 52.4749C15.3385 52.7585 17.7751 53.0413 20.2386 53.3535C20.453 53.3819 20.453 53.0413 20.2386 53.0128Z" fill="#261E33"/>
<path d="M35.5296 53.0128C36.1181 50.9719 36.6806 48.9311 37.27 46.8617C37.323 46.635 37.0287 46.5496 36.9489 46.7763C36.3594 48.8172 35.7969 50.859 35.2075 52.9283C35.1546 53.1266 35.4758 53.212 35.5296 53.0128Z" fill="#261E33"/>
<path d="M80.3819 93.5815C79.552 90.9448 79.6588 87.827 80.0607 85.1334C81.1579 77.4785 85.4157 70.9015 90.5572 65.6005C90.7178 65.4591 90.4773 65.2039 90.3159 65.3453C85.1484 70.6747 80.8367 77.3087 79.7395 85.0196C79.3376 87.7701 79.2299 90.9448 80.0607 93.6669C80.1136 93.8652 80.4357 93.7798 80.3819 93.5815Z" fill="#261E33"/>
<path d="M101.054 49.4974C100.626 50.5183 100.197 51.5107 99.7153 52.5032C99.5009 52.9282 98.9922 54.3173 98.5903 54.544C98.1624 54.7708 97.1181 54.6009 96.6624 54.6009C94.4132 54.6294 91.2266 54.8562 89.2986 53.3817C89.1381 53.2394 88.9775 53.5516 89.1381 53.6939C91.1467 55.1959 94.467 54.9691 96.8229 54.9406C97.3325 54.9406 98.2422 55.1114 98.6979 54.8562C99.0729 54.6569 99.4479 53.7214 99.6354 53.3533C100.278 52.1625 100.813 50.9149 101.322 49.6682C101.429 49.4698 101.161 49.2991 101.054 49.4974Z" fill="#261E33"/>
<path d="M90.2899 29.0861C87.1831 36.4288 86.8619 45.4158 88.2274 53.2121C88.2543 53.4388 88.5755 53.325 88.5486 53.1267C87.1831 45.4443 87.4783 36.5417 90.5573 29.2844C90.664 29.0576 90.3698 28.8878 90.2899 29.0861Z" fill="#261E33"/>
<path d="M81.7744 66.0824C82.7119 65.3168 83.783 64.3813 84.9341 63.9562C85.1216 63.8708 85.0408 63.5596 84.8533 63.6156C83.6485 64.0691 82.5513 65.0055 81.5599 65.8272C81.3724 65.9686 81.6138 66.2238 81.7744 66.0824Z" fill="#261E33"/>
<path d="M82.4436 67.0748C83.3811 66.3091 84.4523 65.3736 85.6033 64.9486C85.7908 64.8632 85.7109 64.551 85.5234 64.608C84.3186 65.0615 83.2205 65.997 82.2292 66.8196C82.0417 66.961 82.2561 67.2162 82.4436 67.0748Z" fill="#261E33"/>
<path d="M83.836 67.6983C84.6129 67.0464 85.4697 66.3661 86.4341 66.0255C86.6207 65.9411 86.5409 65.6289 86.3534 65.6858C85.3629 66.054 84.4523 66.7627 83.6216 67.443C83.435 67.5853 83.6754 67.8121 83.836 67.6983Z" fill="#261E33"/>
<path d="M106.865 8.33414C107.026 12.5022 105.901 18.0014 101.858 19.7311C101.67 19.8164 101.751 20.1561 101.937 20.0707C106.142 18.2851 107.347 12.7005 107.187 8.33414C107.187 8.10737 106.839 8.10737 106.865 8.33414Z" fill="#261E33"/>
<path d="M105.472 10.9709C104.776 8.58938 103.25 6.32175 101.215 5.07409C101.028 4.96117 100.867 5.27239 101.054 5.38623C103.009 6.60543 104.482 8.78768 105.151 11.0847C105.232 11.283 105.553 11.1976 105.472 10.9709Z" fill="#261E33"/>
<path d="M97.8681 24.5222C95.7526 24.6921 93.4497 23.8979 92.191 22.0269C92.0573 21.8571 91.7891 22.0269 91.8959 22.1967C93.2353 24.1816 95.6181 25.0602 97.8681 24.8619C98.0816 24.8334 98.0816 24.4937 97.8681 24.5222Z" fill="#261E33"/>
<path d="M97.2518 29.7095C101.135 27.8109 105.499 25.5993 108.418 22.2254C108.552 22.0555 108.338 21.8288 108.177 21.9702C105.285 25.3156 100.92 27.5272 97.0912 29.3983C96.9037 29.4827 97.0643 29.7949 97.2518 29.7095Z" fill="#261E33"/>
<path d="M106.865 26.3651C106.543 28.4913 106.168 30.6176 105.74 32.7438C105.124 35.8616 104.562 39.3493 103.089 42.1559C102.983 42.3542 103.277 42.524 103.384 42.3257C104.83 39.6036 105.392 36.2591 106.008 33.2258C106.464 30.9857 106.865 28.7181 107.213 26.4495C107.213 26.2228 106.891 26.1383 106.865 26.3651Z" fill="#261E33"/>
<path d="M100.037 43.1471C101.081 41.8719 102.5 40.2846 102.902 38.5834C102.956 38.3566 102.634 38.2713 102.581 38.498C102.206 40.1423 100.813 41.6736 99.7961 42.9204C99.6616 43.0627 99.9029 43.3179 100.037 43.1471Z" fill="#261E33"/>
<path d="M49.0252 118.161C49.6407 119.209 50.3369 120.259 51.1407 121.166C51.5686 121.648 52.0513 122.158 52.6398 122.413C53.336 122.725 54.1667 122.612 54.8898 122.839C56.4966 123.349 57.139 125.531 58.5851 126.495C60.2179 127.573 62.1199 127.714 63.9671 127.261C64.1815 127.204 64.0738 126.864 63.8872 126.92C61.6641 127.459 59.3343 127.063 57.7015 125.304C56.8447 124.369 56.6034 123.178 55.3716 122.64C54.5947 122.3 53.7917 122.441 53.0148 122.187C52.2657 121.959 51.6494 121.223 51.1676 120.627C50.4714 119.805 49.882 118.897 49.3195 117.962C49.1858 117.792 48.8916 117.962 49.0252 118.161Z" fill="#261E33"/>
<path d="M60.4593 119.295C59.6025 119.493 58.7457 119.777 57.9957 120.202C57.8082 120.315 57.9688 120.598 58.1563 120.514C58.9063 120.088 59.7362 119.834 60.54 119.634C60.7535 119.578 60.6737 119.238 60.4593 119.295Z" fill="#261E33"/>
<path d="M61.1824 120.088C60.3256 120.287 59.4689 120.57 58.7189 120.996C58.5314 121.109 58.692 121.392 58.8795 121.307C59.6295 120.882 60.4593 120.627 61.2623 120.429C61.4767 120.372 61.3968 120.06 61.1824 120.088Z" fill="#261E33"/>
<path d="M24.8984 109.315C25.0859 110.591 25.3802 111.867 25.8888 113.057C26.1571 113.653 26.4783 114.277 26.9869 114.702C28.0043 115.581 29.2899 115.609 29.7717 117.112C30.8159 120.287 32.5303 122.328 35.717 123.235C35.9305 123.292 36.0112 122.951 35.7968 122.894C33.7083 122.3 31.8602 121.109 30.7899 119.068C30.3072 118.188 30.2803 117.083 29.7717 116.261C29.4236 115.694 28.8611 115.297 28.2994 115.014C27.335 114.475 26.7456 114.107 26.2638 113.057C25.7283 111.895 25.4071 110.534 25.2196 109.258C25.1658 109.004 24.8446 109.117 24.8984 109.315Z" fill="#261E33"/>
<path d="M35.3152 114.475C34.4853 114.248 33.6016 114.078 32.7179 114.107C32.5035 114.107 32.5035 114.446 32.7179 114.446C33.5478 114.419 34.4046 114.589 35.2075 114.815C35.4219 114.872 35.5027 114.532 35.3152 114.475Z" fill="#261E33"/>
<path d="M35.6093 115.553C34.7795 115.326 33.8958 115.155 33.0121 115.184C32.7977 115.184 32.7977 115.524 33.0121 115.524C33.842 115.496 34.6988 115.666 35.5026 115.892C35.743 115.921 35.8238 115.609 35.6093 115.553Z" fill="#261E33"/>
<path d="M59.7898 118.331C58.9331 118.529 58.0763 118.813 57.3263 119.238C57.1388 119.352 57.2994 119.635 57.4869 119.55C58.2369 119.125 59.0667 118.87 59.8697 118.671C60.0841 118.615 60.0042 118.274 59.7898 118.331Z" fill="#261E33"/>
<path d="M34.8593 113.2C34.0295 112.973 33.1458 112.802 32.2621 112.83C32.0477 112.83 32.0477 113.171 32.2621 113.171C33.092 113.143 33.9496 113.312 34.7526 113.539C34.9939 113.596 35.0738 113.256 34.8593 113.2Z" fill="#261E33"/>
<path d="M24.9523 11.8215C25.1398 12.331 25.2735 12.8699 25.3803 13.4089C25.4341 13.7201 25.5947 14.259 25.4341 14.5711C25.2197 15.0247 24.6042 15.0531 24.2023 14.9108C24.0148 14.8548 23.961 15.1376 24.1216 15.1945C24.8716 15.4497 25.7284 15.1376 25.7553 14.2305C25.7822 13.3804 25.4879 12.4733 25.2197 11.7077C25.1659 11.5663 24.8716 11.6507 24.9523 11.8215Z" fill="#261E33"/>
<path d="M22.8367 12.6151C22.8367 12.751 22.8194 12.8805 22.7855 13.0062C22.7517 13.1311 22.703 13.2413 22.6405 13.3367C22.5772 13.4322 22.5051 13.5066 22.4235 13.558C22.3411 13.6103 22.256 13.636 22.1666 13.636C22.078 13.636 21.993 13.6103 21.9105 13.558C21.8289 13.5066 21.756 13.4322 21.6935 13.3367C21.631 13.2413 21.5824 13.1311 21.5485 13.0062C21.5147 12.8805 21.4973 12.751 21.4973 12.6151C21.4973 12.4802 21.5147 12.3498 21.5485 12.225C21.5824 12.1001 21.631 11.989 21.6935 11.8935C21.756 11.798 21.8289 11.7246 21.9105 11.6723C21.993 11.6209 22.078 11.5942 22.1666 11.5942C22.256 11.5942 22.3411 11.6209 22.4235 11.6723C22.5051 11.7246 22.5772 11.798 22.6405 11.8935C22.703 11.989 22.7517 12.1001 22.7855 12.225C22.8194 12.3498 22.8367 12.4802 22.8367 12.6151Z" fill="#261E33"/>
<path d="M28.165 12.3598C28.165 12.4957 28.1485 12.6251 28.1146 12.7509C28.0808 12.8758 28.0321 12.9859 27.9696 13.0814C27.9063 13.1778 27.8342 13.2513 27.7518 13.3027C27.6702 13.355 27.5842 13.3807 27.4957 13.3807C27.4071 13.3807 27.3221 13.355 27.2396 13.3027C27.158 13.2513 27.0851 13.1778 27.0226 13.0814C26.9601 12.9859 26.9115 12.8758 26.8776 12.7509C26.8438 12.6251 26.8264 12.4957 26.8264 12.3598C26.8264 12.2249 26.8438 12.0945 26.8776 11.9696C26.9115 11.8448 26.9601 11.7337 27.0226 11.6382C27.0851 11.5427 27.158 11.4693 27.2396 11.417C27.3221 11.3655 27.4071 11.3398 27.4957 11.3398C27.5842 11.3398 27.6702 11.3655 27.7518 11.417C27.8342 11.4693 27.9063 11.5427 27.9696 11.6382C28.0321 11.7337 28.0808 11.8448 28.1146 11.9696C28.1485 12.0945 28.165 12.2249 28.165 12.3598Z" fill="#261E33"/>
<path d="M20.5069 11.2542C21.0694 10.5454 21.98 10.2333 22.783 10.7153C22.9705 10.8291 23.1041 10.5454 22.9435 10.4316C22.033 9.89359 20.9618 10.2048 20.2925 11.0274C20.1588 11.1688 20.3732 11.424 20.5069 11.2542Z" fill="#261E33"/>
<path d="M29.0755 10.6869C28.4062 9.83672 27.335 9.55304 26.4244 10.0919C26.2369 10.2049 26.3975 10.4886 26.585 10.3756C27.3888 9.89364 28.2994 10.2049 28.8611 10.9136C28.9956 11.0559 29.2092 10.8292 29.0755 10.6869Z" fill="#261E33"/>
<path d="M13.8125 9.01431C13.8663 13.3522 15.3655 18.8808 19.6502 20.4397C19.8377 20.5251 19.9444 20.1845 19.73 20.0991C15.6068 18.6256 14.1875 13.2108 14.1337 9.01431C14.1337 8.78755 13.8125 8.78755 13.8125 9.01431Z" fill="#261E33"/>
<path d="M15.9817 11.6224C16.5434 9.29781 17.8828 7.03017 19.7838 5.69805C19.9713 5.58421 19.7838 5.27207 19.6232 5.38591C17.6415 6.77495 16.2491 9.0995 15.6597 11.5094C15.6067 11.7647 15.9279 11.8491 15.9817 11.6224Z" fill="#261E33"/>
<path d="M13.9731 20.3826C15.6067 22.0269 17.9626 22.9624 20.1857 22.339C20.4001 22.2821 20.2925 21.9415 20.105 21.9984C18.0165 22.5942 15.7673 21.6872 14.2144 20.1274C14.0538 19.986 13.8125 20.2128 13.9731 20.3826Z" fill="#261E33"/>
<path d="M29.9324 19.0791C29.1025 21.2338 27.764 24.3231 25.5678 25.1742C25.3803 25.2586 25.461 25.5708 25.6485 25.5139C27.9775 24.6353 29.3707 21.4606 30.2544 19.192C30.3343 18.9653 30.0131 18.8808 29.9324 19.0791Z" fill="#261E33"/>
<path d="M95.1364 11.5938C94.6815 12.9553 94.2258 15.8188 96.3951 15.4497C96.6095 15.4213 96.5019 15.0816 96.3144 15.11C94.494 15.4213 95.1095 12.7286 95.4576 11.6792C95.5114 11.4809 95.1902 11.3671 95.1364 11.5938Z" fill="#261E33"/>
<path d="M93.5027 12.388C93.5027 12.5083 93.4845 12.624 93.448 12.735C93.4115 12.8461 93.3586 12.9444 93.2909 13.0297C93.2232 13.1142 93.145 13.1803 93.0565 13.2262C92.968 13.2721 92.8759 13.2951 92.7796 13.2951C92.6841 13.2951 92.5921 13.2721 92.5036 13.2262C92.415 13.1803 92.3369 13.1142 92.2692 13.0297C92.2006 12.9444 92.1485 12.8461 92.1121 12.735C92.0756 12.624 92.0574 12.5083 92.0574 12.388C92.0574 12.2677 92.0756 12.1521 92.1121 12.041C92.1485 11.9299 92.2006 11.8317 92.2692 11.7463C92.3369 11.6618 92.415 11.5957 92.5036 11.5498C92.5921 11.5039 92.6841 11.481 92.7796 11.481C92.8759 11.481 92.968 11.5039 93.0565 11.5498C93.145 11.5957 93.2232 11.6618 93.2909 11.7463C93.3586 11.8317 93.4115 11.9299 93.448 12.041C93.4845 12.1521 93.5027 12.2677 93.5027 12.388Z" fill="#261E33"/>
<path d="M98.8854 12.388C98.8854 12.5083 98.8672 12.624 98.8298 12.735C98.7934 12.8461 98.7413 12.9444 98.6736 13.0297C98.6059 13.1142 98.5278 13.1803 98.4392 13.2262C98.3507 13.2721 98.2578 13.2951 98.1623 13.2951C98.0659 13.2951 97.9739 13.2721 97.8854 13.2262C97.7968 13.1803 97.7187 13.1142 97.651 13.0297C97.5833 12.9444 97.5312 12.8461 97.4939 12.735C97.4574 12.624 97.4392 12.5083 97.4392 12.388C97.4392 12.2677 97.4574 12.1521 97.4939 12.041C97.5312 11.9299 97.5833 11.8317 97.651 11.7463C97.7187 11.6618 97.7968 11.5957 97.8854 11.5498C97.9739 11.5039 98.0659 11.481 98.1623 11.481C98.2578 11.481 98.3507 11.5039 98.4392 11.5498C98.5278 11.5957 98.6059 11.6618 98.6736 11.7463C98.7413 11.8317 98.7934 11.9299 98.8298 12.041C98.8672 12.1521 98.8854 12.2677 98.8854 12.388Z" fill="#261E33"/>
<path d="M92.191 10.6872C92.5391 10.2906 93.0478 10.319 93.3959 10.6872C93.5565 10.8295 93.7709 10.6027 93.6372 10.432C93.1545 9.92243 92.4315 9.89397 91.9497 10.432C91.816 10.6027 92.0304 10.8295 92.191 10.6872Z" fill="#261E33"/>
<path d="M97.546 10.6872C97.894 10.2906 98.4036 10.319 98.7517 10.6872C98.9123 10.8295 99.1258 10.6027 98.9921 10.432C98.5104 9.92243 97.7873 9.89397 97.3055 10.432C97.1718 10.6027 97.3854 10.8295 97.546 10.6872Z" fill="#261E33"/>
<path d="M95.1902 16.3285C95.3508 16.3854 95.5652 16.3854 95.7258 16.4139C96.5018 16.4708 97.3056 16.4139 98.0817 16.357C98.0287 16.2725 97.9749 16.2156 97.9211 16.1302C97.8143 16.8105 97.4124 17.6331 96.6624 17.6331C95.9133 17.6331 95.5114 16.8105 95.4046 16.1302C95.3777 15.9034 95.0565 16.0173 95.0826 16.2156C95.2171 17.0657 95.7787 17.9728 96.6624 17.9728C97.573 17.9728 98.1086 17.0657 98.2423 16.2156C98.2692 16.1017 98.1893 15.9888 98.0817 15.9888C97.3326 16.0457 96.5556 16.1017 95.8056 16.0457C95.6451 16.0457 95.4306 16.0457 95.2701 15.9888C95.0826 15.9319 95.0027 16.2725 95.1902 16.3285Z" fill="#261E33"/>
<path d="M23.4253 16.4993C23.5859 16.5553 23.8003 16.5553 23.9609 16.5838C24.7378 16.6407 25.5408 16.5838 26.3177 16.5278C26.2639 16.4424 26.2109 16.3855 26.1571 16.3001C26.0495 16.9813 25.6484 17.803 24.8984 17.803C24.1484 17.803 23.7465 16.9813 23.6397 16.3001C23.5859 16.0734 23.2647 16.1587 23.3186 16.3855C23.4522 17.2356 24.0147 18.1436 24.8984 18.1436C25.809 18.1436 26.3446 17.2356 26.4783 16.3855C26.5052 16.2726 26.4245 16.1587 26.3177 16.1587C25.5677 16.2157 24.7916 16.2726 24.0416 16.2157C23.8811 16.2157 23.6666 16.2157 23.5061 16.1587C23.3186 16.1018 23.2378 16.4424 23.4253 16.4993Z" fill="#261E33"/>
<path d="M15.4723 24.437C17.9627 26.0244 20.4801 27.6402 22.9705 29.2284C23.158 29.3413 23.3186 29.0577 23.1311 28.9163C20.6407 27.3289 18.1233 25.7122 15.6337 24.1249C15.4723 24.0119 15.3117 24.3232 15.4723 24.437Z" fill="#261E33"/>
</svg>
