<svg width="73" height="127" viewBox="0 0 73 127" fill="none" xmlns="http://www.w3.org/2000/svg">
<path d="M38.4497 21.9058C38.2937 18.8515 38.0868 15.9199 38.6846 12.8803C39.3014 9.73791 40.5524 6.75306 42.5754 4.57432C45.1144 1.84092 48.8128 0.306341 52.421 0.662808C56.0293 1.02001 59.4522 3.32299 61.143 6.71164C63.473 11.3834 62.4429 16.8221 60.9514 21.5553C59.9626 24.694 57.3012 26.9666 54.9699 28.996C53.828 29.9907 52.6861 30.9846 51.5435 31.9786C51.5351 32.054 51.526 32.1295 51.5169 32.2049C51.4162 33.0584 51.2994 33.954 50.8127 34.6432C50.1372 35.601 48.8534 35.8502 47.8325 36.2717C46.6696 36.7524 45.5067 37.2332 44.3438 37.7139C43.6662 37.9942 42.8837 38.27 42.2404 37.9098C41.6558 37.5822 41.4013 36.8138 41.4307 36.1142C41.46 35.4153 41.7153 34.7527 41.909 34.0834C42.2495 32.909 42.0243 31.8647 41.8209 30.6881C41.7971 30.5513 41.7656 30.4159 41.739 30.2798C41.6705 30.1807 41.5964 30.0861 41.5307 29.9855C39.9629 27.5975 38.6007 24.8633 38.4497 21.9058ZM72.1306 111.974C71.7488 111.224 71.0299 110.747 70.3412 110.304C67.8518 108.702 65.3624 107.098 62.8723 105.497C62.5471 105.288 62.2206 105.042 61.8919 104.792C61.3402 104.376 60.7808 103.953 60.2025 103.69C59.1011 103.19 57.9313 103.327 56.9915 102.377C56.167 101.543 55.6677 100.424 55.037 99.4195C52.7427 95.7646 48.6918 93.6769 44.6018 92.938C41.1209 92.3094 37.5721 92.5439 34.0765 92.8974C30.8878 93.2198 27.6313 92.6149 24.3881 92.8153C18.9254 93.1533 13.3033 92.7369 8.97208 96.908C8.72384 97.1469 8.61406 97.4087 8.55742 97.6697C8.43854 98.2222 7.75186 98.626 7.43859 99.049C7.16238 99.4217 7.00294 99.8647 6.73163 100.239C3.62618 104.517 1.14099 108.694 0.506055 114.245C0.19558 116.96 0.679473 119.899 2.37939 121.96C4.14924 124.105 6.9533 124.987 9.64128 125.145C12.33 125.303 15.0158 124.844 17.708 124.803C25.0727 124.694 32.3465 127.713 39.6615 126.807C48.7988 125.675 56.5299 118.607 65.6575 117.391C67.2847 117.174 68.9951 117.13 70.4349 116.301C71.8754 115.471 72.9075 113.501 72.1306 111.974Z" fill="#230827"/>
<path d="M18.4184 24.2653C18.3904 23.9953 18.3617 23.718 18.4247 23.4547C18.4869 23.19 18.6596 22.9385 18.9086 22.869C18.703 22.4615 18.4925 22.0296 18.5044 21.5674C18.5163 21.1059 18.84 20.6178 19.2771 20.6193C18.9253 20.3405 18.8435 19.7503 19.1051 19.3761C19.3666 19.0033 19.9246 18.9124 20.2791 19.1867C20.1428 19.081 20.4959 18.5389 20.5721 18.4738C20.8001 18.2786 21.1686 18.2534 21.428 18.3843C21.8448 18.5936 22.0832 19.0581 22.2797 19.4988C23.4923 22.2138 24.1915 25.1831 24.3223 28.1812C24.3908 27.9963 24.4656 27.8085 24.5426 27.6199C24.8034 26.9802 25.0894 26.3212 25.225 25.6638C25.3691 24.9701 25.5117 24.5618 26.0879 24.0974C26.2893 23.934 26.5907 23.8008 26.7774 23.982C26.9089 24.1092 26.9054 24.3259 26.8928 24.5138C26.8299 25.4079 26.7676 26.3013 26.7054 27.1954C26.6341 28.2175 26.562 29.2447 26.3383 30.2424C26.0593 31.4878 25.5523 32.6556 25.1572 33.861C24.7957 34.9659 24.5467 36.1004 24.337 37.2393C24.2244 37.8502 23.9419 38.8456 23.3587 39.1481C22.8175 39.4292 22.2413 38.93 21.821 38.6001C21.0071 37.9619 20.3176 37.1535 19.7966 36.2343C19.5973 35.883 19.5246 35.6582 19.5421 35.2625C19.5638 34.784 19.4764 34.2974 19.426 33.8218C19.3141 32.7598 19.2022 31.6978 19.0904 30.6358C18.8666 28.5126 18.6421 26.3893 18.4184 24.2653ZM31.1122 76.0343C30.2206 74.4228 28.1648 73.1049 26.39 73.1115C25.6635 73.1145 25.1264 73.3896 24.5796 73.843C24.0677 74.2675 23.2664 74.4154 22.6412 74.5145C21.2574 74.7356 19.8113 74.638 18.4778 75.149C17.7715 75.4189 17.1345 75.8538 16.5045 76.285C16.0234 76.6133 15.543 76.9424 15.0619 77.2715C14.8962 77.3847 14.7165 77.5171 14.6703 77.7205C14.6193 77.946 14.7605 78.1812 14.9514 78.2966C15.1416 78.4112 15.3696 78.4312 15.5884 78.4378C16.7303 78.4711 17.8792 78.2086 18.9065 77.679C16.5751 79.221 14.1563 80.6151 11.6676 81.8524C11.2628 82.0543 10.8348 82.2695 10.5859 82.6622C10.3362 83.0549 10.3593 83.682 10.7509 83.9113C10.3691 84.213 10.2971 84.8675 10.6048 85.2536C10.9124 85.6389 11.5348 85.6751 11.8802 85.3275C11.9376 85.7809 12.2725 86.181 12.6914 86.2963C13.1095 86.4125 13.5864 86.2365 13.8466 85.8711C14.0654 86.2165 14.4626 86.3999 14.8542 86.4391C15.2465 86.4783 15.6388 86.3925 16.0227 86.2978C19.5519 85.4325 22.7189 83.8011 25.8145 81.8649C26.6823 81.3221 27.6123 80.7482 28.6361 80.641C30.7667 80.4198 32.2911 78.1657 31.1122 76.0343Z" fill="#F2C5B1"/>
<path d="M39.7991 20.2052C39.946 23.1952 41.2131 26.2836 43.6563 27.7967C45.545 28.9667 47.9442 29.0488 49.9973 28.2442C52.6831 27.1903 54.853 24.5538 56.2997 22.0171C57.82 19.3517 56.6997 15.0867 54.99 12.8488C52.9621 10.1938 49.4749 8.88626 46.3177 9.59846C44.2213 10.071 42.3354 11.42 41.0655 13.2356C39.5474 15.404 39.6705 17.6056 39.7991 20.2052Z" fill="#F2C5B1"/>
<path d="M65.3078 57.8884C65.333 58.0503 65.3589 58.1849 65.3589 58.3462C65.4351 60.1507 65.0526 61.9012 64.4162 63.5704C63.8044 65.1597 63.066 66.6677 62.5569 68.3102C62.073 69.8722 61.487 71.1915 60.4682 72.4029C59.9843 73.0227 58.8634 74.7192 57.9459 73.9116C57.8187 73.777 57.7424 73.6417 57.6914 73.5078C55.832 74.612 53.9468 75.5002 51.8581 75.9846C50.2792 76.3618 48.7254 76.4158 47.1464 76.4697C46.3821 76.685 45.5416 76.631 44.7515 76.7123C43.7585 76.7929 42.7907 76.7929 41.7971 76.7123C39.9118 76.5237 37.9504 75.9846 36.3966 74.7998C34.7918 73.5611 33.7226 71.4607 33.1618 69.495C33.0345 69.0912 32.9331 68.66 32.831 68.2562C32.6527 67.4753 32.5506 66.6677 32.4996 65.8593C32.4744 65.4289 32.2199 62.7088 32.5765 62.4936C30.6654 63.5438 29.1627 65.1863 27.4817 66.5597C27.4306 66.5863 27.3803 66.6403 27.3285 66.6677C25.5461 68.0137 23.2532 69.0106 21.1904 68.2296C19.8911 67.7445 18.8723 66.6137 18.0318 65.4555C16.3759 63.1666 15.1025 60.4739 14.7711 57.5926C14.4914 55.169 14.8983 52.6915 15.306 50.2946C15.9682 46.1206 16.7577 42.0005 17.3696 37.8264C17.4206 37.4492 17.4709 37.0994 17.522 36.7223C17.5479 36.6683 17.5479 36.6416 17.5479 36.5877C17.7262 35.2949 17.9297 34.2447 19.1268 33.5717C20.6806 32.7094 23.2791 33.2752 24.9853 33.3018C25.3929 33.3018 25.8265 33.3292 26.1314 33.5984C26.5901 33.9755 26.6411 34.6485 26.6411 35.2683V37.1261C26.667 37.6105 26.667 38.069 26.667 38.5534C26.667 42.0271 26.6922 45.5282 26.7174 49.0019C28.246 43.2392 28.7809 41.9199 30.9717 39.1458C32.2961 37.5032 34.1303 36.4797 35.9638 35.6721C37.849 34.8371 39.53 33.4638 41.2621 32.2516C41.3383 32.171 41.4404 32.117 41.5166 32.0631C41.5936 31.9824 41.695 31.9285 41.8222 31.9018C42.1026 31.9018 42.2299 32.3056 42.2809 32.6288C42.3572 33.3292 42.4341 34.0562 42.5103 34.7831C42.5355 35.1337 42.4844 36.8302 42.7397 37.0454C43.0963 37.3413 45.5927 35.2143 46.0766 34.8638C47.5282 33.8409 48.9799 32.7908 50.4575 31.7132C50.5085 31.6866 50.5847 31.6326 50.6358 31.6053C51.3742 31.0669 52.1385 30.5285 52.9028 29.9901C52.979 29.9087 53.0811 29.8555 53.1573 29.8015C53.3105 29.6935 53.514 29.5589 53.7182 29.6129C53.8965 29.6395 54.0237 29.8281 54.151 29.9901C54.2272 30.0973 54.3034 30.2319 54.4055 30.3665C54.9153 31.2821 55.5265 32.5208 56.2908 33.006C56.6726 33.2486 57.1816 33.3558 57.5641 33.5444C57.997 33.7596 58.8375 34.406 59.2962 34.406C61.5632 35.6181 63.6771 37.1527 64.4925 39.8461C65.2819 42.5655 65.5113 45.5548 65.7148 48.3821C65.919 51.4254 65.8938 54.8185 65.3078 57.8884Z" fill="#429678"/>
<path d="M54.1509 29.9901C54.0236 29.8281 53.8963 29.6395 53.718 29.6129C53.5138 29.5589 53.3103 29.6935 53.1572 29.8015C53.081 29.8555 52.9789 29.9095 52.9027 29.9901C52.6733 30.1787 52.4439 30.3939 52.1894 30.5825C51.7055 30.9589 51.1706 31.2821 50.6356 31.606C50.5846 31.6326 50.5084 31.6866 50.4573 31.7132C48.9798 32.7908 47.5281 33.8409 46.0764 34.8638C45.5925 35.2143 43.0961 37.3413 42.7395 37.0454C42.4843 36.8302 42.5353 35.133 42.5102 34.7831C42.4339 34.0562 42.357 33.3292 42.2808 32.6288C42.2297 32.3056 42.1025 31.9018 41.8221 31.9018C41.6948 31.9292 41.5934 31.9824 41.5165 32.0631C41.4403 32.117 41.3382 32.171 41.262 32.2516C41.313 32.6288 41.4913 33.06 41.5417 33.3558C41.6696 34.0295 41.6696 34.7292 41.6696 35.4029C41.6696 36.0759 41.5675 36.8302 41.6696 37.5032C41.7207 37.8264 41.771 38.1496 41.8221 38.4728C41.8417 38.5534 41.8549 38.634 41.8703 38.7154C41.8298 38.9165 41.7885 39.1169 41.75 39.3188C41.6864 39.6568 41.5843 39.9859 41.5123 40.3224C41.4375 40.1294 41.355 39.9393 41.2892 39.7419C41.0578 39.043 40.8697 38.3315 40.7375 37.6046C40.6033 36.8672 40.4872 36.1284 40.4117 35.3814C40.3347 34.6197 40.3145 33.8461 40.197 33.0903C40.1655 32.8891 39.8438 32.8891 39.8131 33.0903C39.5795 34.6042 39.5942 36.2904 39.7984 37.8072C39.8998 38.5615 40.0487 39.3129 40.2781 40.037C40.3942 40.4023 40.527 40.7617 40.6711 41.1167C40.7536 41.3223 40.8312 41.5383 40.9466 41.7254C40.9599 41.7468 40.9746 41.7505 40.9878 41.769C40.4998 42.7016 40.4144 44.0032 40.2634 44.9565C39.9382 47.008 39.7243 49.0869 39.5564 51.1584C39.3753 53.3948 39.2704 55.6372 39.16 57.878C39.0495 60.1241 38.7285 62.6097 39.2928 64.8062C39.3537 65.0421 39.683 65.0414 39.7439 64.8062C40.2375 62.9018 40.1452 60.7357 40.2557 58.7729C40.3774 56.6067 40.4676 54.4391 40.6242 52.2744C40.8837 48.6802 41.2829 45.1355 42.0976 41.6381C43.1045 41.8171 44.2842 41.2143 45.1653 40.8201C46.1792 40.3675 47.1938 39.9061 48.1826 39.3943C49.1266 38.9069 50.0427 38.3604 50.8797 37.6844C51.5601 37.1349 52.5279 36.3125 52.7383 35.3866C52.7985 35.1241 52.5425 34.9303 52.3223 35.0486C51.9286 35.2594 51.6307 35.6262 51.2741 35.8954C50.9049 36.175 50.5293 36.4442 50.1468 36.7038C49.3105 37.2718 48.4406 37.7843 47.5519 38.2539C46.6834 38.7124 45.7897 39.114 44.9107 39.5496C44.4045 39.8003 43.8926 40.0399 43.3751 40.264C42.9961 40.4282 42.5927 40.5694 42.2137 40.7521C42.2172 40.7284 42.2221 40.7018 42.2255 40.6796C42.2913 40.2936 42.3752 39.9083 42.4171 39.5185C42.4192 39.4963 42.4178 39.4742 42.4199 39.4527C42.4227 39.446 42.4311 39.449 42.4339 39.4423C42.5612 39.0918 42.6115 38.742 42.6885 38.3914C42.7395 38.2302 42.7647 38.0416 42.8157 37.853C43.0703 37.6918 43.3248 37.4759 43.6052 37.3413C43.9618 37.1527 44.3185 36.9648 44.6751 36.7489C45.8212 36.0759 46.9673 35.4561 48.0882 34.7831C49.184 34.1368 50.1769 33.3832 51.2468 32.7102C51.7817 32.387 52.3167 32.0904 52.8006 31.7132C53.2845 31.3094 53.7432 30.8783 54.2781 30.5011C54.3292 30.4745 54.3802 30.4205 54.4054 30.3672C54.3033 30.2327 54.2271 30.0973 54.1509 29.9901Z" fill="#F7D96B"/>
<path d="M42.9019 60.3549C43.0481 60.4947 42.9152 61.1691 42.8886 61.3518C42.7956 61.9834 42.5565 62.6009 42.2243 63.1341C41.6404 64.103 40.8034 64.8617 39.9265 65.5355C38.5986 66.5886 37.1644 67.4872 35.6638 68.2452C34.8799 68.6387 34.0303 68.9892 33.18 68.8213C33.3793 68.1328 33.194 67.4169 33.1136 66.701C33.0206 65.9984 33.0604 65.1982 33.552 64.7072C33.8709 64.384 34.3226 64.2723 34.7603 64.174C36.3015 63.8227 37.8819 63.5135 39.3426 62.8819C40.4845 62.4042 41.5607 61.7024 42.3705 60.7335C42.5299 60.5368 42.6893 60.1301 42.9019 60.3549ZM64.2575 51.4107C63.5002 50.751 62.2255 52.9275 61.973 53.4607C61.4947 54.4998 61.2423 55.6506 60.8171 56.7177C59.1438 60.874 55.0538 63.3871 52.849 67.2483C52.5833 67.726 52.3308 68.3155 52.5301 68.8354C52.756 69.4389 53.4601 69.6496 54.0706 69.7754C55.9565 70.1547 58.1347 70.4498 59.5955 69.1438C60.5521 68.2733 60.95 66.9258 61.2954 65.6479C62.2255 62.0958 63.0751 58.5015 63.8457 54.9066C63.9519 54.3733 64.7883 51.8744 64.2575 51.4107ZM33.273 50.8494C33.4059 50.0773 33.5653 49.3044 33.5387 48.5323C33.4989 47.5635 32.6758 45.3034 31.4668 46.3839C30.8298 46.9741 30.8829 48.3075 30.7633 49.1077C30.4312 51.3123 30.099 53.5591 29.7802 55.763C29.2627 59.4275 28.7047 63.1068 27.4831 66.5605C27.7222 65.8727 29.4886 64.7915 30.0459 64.3137C30.7899 63.6821 31.8122 63.3168 32.357 62.4885C32.4101 62.4042 32.4632 62.3066 32.5031 62.2215C32.9283 61.337 32.8485 60.3127 32.7821 59.358C32.6094 56.5218 32.7688 53.6575 33.273 50.8494ZM26.4999 49.459C26.4468 50.3857 26.5398 51.3264 26.5398 52.253C26.553 53.2219 26.5265 54.1907 26.4468 55.1595C26.3803 56.1424 26.2607 57.1112 26.1013 58.08C25.9552 58.9645 25.7034 59.8771 25.6636 60.7757C25.6636 60.8881 25.823 60.9303 25.8629 60.8319C26.274 60.0176 26.4335 59.0067 26.5929 58.1081C26.7523 57.1674 26.8586 56.2126 26.9251 55.2579C27.0712 53.3905 27.1775 51.2561 26.6726 49.4309C26.646 49.3185 26.4999 49.3466 26.4999 49.459Z" fill="#230827"/>
<path d="M64.3916 87.646C64.3182 87.2223 64.2427 86.8037 64.1665 86.391C63.6819 83.7641 63.1805 81.1409 62.6791 78.5169C62.6812 78.5169 62.6826 78.5169 62.684 78.5162C62.7092 77.8698 62.7092 77.1968 62.7344 76.5505C62.7344 75.6349 62.7602 74.6927 62.7861 73.7771C62.8113 72.8342 62.8113 71.8646 62.8364 70.9224C62.8623 70.1681 62.8623 69.4145 62.8875 68.6601V67.8252C62.9134 67.61 62.8875 67.3674 62.7602 67.2328C62.6071 67.0716 62.4036 67.0716 62.2001 67.0716H50.3301C47.1463 67.0716 43.0451 66.5058 40.0648 67.8525C37.1608 69.1453 33.6966 71.2722 31.8121 73.9923C31.7365 74.0981 31.6813 74.2186 31.6149 74.3318C31.303 74.3909 30.9946 74.4671 30.6925 74.5729C29.5744 74.9656 28.529 75.788 28.1325 76.9616C27.778 78.0111 27.9808 79.1811 27.7647 80.2719C27.0536 83.8595 23.0586 85.0827 20.421 86.6461C17.131 88.5964 13.9276 90.7107 10.825 92.9782C9.98725 93.5906 9.15722 94.2133 8.33418 94.8486C6.89789 95.9564 5.45041 97.2832 4.47213 98.8777C3.98824 99.6668 3.65119 100.557 3.48756 101.482C3.40295 101.959 3.36449 102.445 3.37638 102.93C3.38058 103.088 3.58126 104.119 3.52183 104.182C4.42388 103.223 5.33153 102.259 6.37064 101.47C7.22375 100.823 8.19083 100.268 9.22295 100.023C10.153 99.8006 11.2711 99.896 12.2319 99.8827C15.4247 99.8398 18.5959 100.072 21.7832 100.168C21.9944 100.175 22.1958 100.182 22.4006 100.189L22.2895 100.2C22.3643 100.205 22.4398 100.21 22.5153 100.214C23.43 100.272 24.3614 100.353 25.2676 100.544C25.5152 100.596 25.7508 100.694 25.9935 100.764C27.271 101.24 28.471 101.916 29.6492 102.616C30.0779 102.902 30.5135 103.179 30.9198 103.484C32.3869 104.584 33.8693 105.903 35.6636 106.03C36.4132 106.083 37.144 105.92 37.853 105.653C40.6123 105.507 43.1213 103.876 45.4604 102.28C46.3736 101.658 47.2861 101.035 48.1987 100.413C48.2889 100.394 48.3791 100.394 48.4693 100.38C50.9153 102.289 53.0509 104.64 54.611 107.399C54.8445 107.811 55.1298 108.248 55.4858 108.521C55.5424 108.57 55.5864 108.634 55.6487 108.678C56.7829 109.489 57.3724 108.612 57.9947 107.854C58.1674 107.644 58.3639 107.458 58.5625 107.273C59.5478 106.514 60.5128 105.727 61.368 104.811C65.5881 100.289 65.4 93.4649 64.3916 87.646Z" fill="#BA2040"/>
<path d="M43.5291 64.4861C44.1661 64.3249 44.5227 63.6512 44.8024 63.0588C46.2548 59.9623 47.0953 56.8657 47.9359 53.6072C48.8274 50.2408 50.0749 46.9557 51.6797 43.8858C52.5461 42.2159 53.5398 40.5467 54.8894 39.2266C56.2138 37.9072 57.9459 36.965 59.7549 36.857C60.901 36.803 62.0981 37.1528 63.0407 37.8266C63.4225 38.0692 64.0337 38.4996 64.1358 39.0114C64.1358 39.1193 64.0847 39.3612 64.212 39.3612C64.4413 39.3612 64.4162 38.8228 64.4162 38.6882C64.3903 37.9612 64.3141 37.2342 64.1868 36.5072L64.1106 36.0221C64.0595 35.7529 64.0085 35.4563 63.8561 35.2411C63.677 35.0259 63.4225 34.8913 63.1932 34.7567C62.5568 34.4601 61.9457 34.1369 61.3338 33.8411C60.6464 33.4906 59.9583 33.1674 59.271 32.8176C59.0416 32.7096 58.8374 32.6024 58.6088 32.4678C58.2011 32.2518 56.8893 32.9477 56.4564 32.7858C55.9467 32.5979 56.341 31.4982 55.8571 31.3362C55.832 31.3362 55.832 31.3362 55.8068 31.3096C55.6026 31.229 55.0425 31.013 54.9152 31.1476C50.5595 34.5947 47.1464 39.3345 44.9297 44.5854C42.6886 49.8636 41.6438 55.627 41.5676 61.3896C41.5676 62.1166 41.5676 62.8702 41.8732 63.5166C42.1788 64.1629 42.8669 64.6481 43.5291 64.4861Z" fill="#BA2040"/>
<path d="M32.7036 69.4145C32.805 69.4412 32.9833 69.4412 33.1365 69.4145C33.4421 69.3339 33.7735 69.1986 33.9511 69.1453C33.977 69.1453 34.028 69.118 34.0532 69.0913C34.4098 68.9567 34.4868 68.7948 34.4609 68.3104C34.1301 64.3789 33.9259 60.4474 33.8239 56.4886C33.7735 54.3608 33.7735 52.2065 34.1043 50.0796C34.4098 48.2477 34.9707 46.4705 35.5818 44.7207C35.8363 43.9398 36.1168 43.1854 36.3965 42.4311C37.0335 40.8159 37.6957 39.1999 38.4089 37.6106C38.9187 36.4532 39.4537 35.3217 39.9886 34.2175C40.09 34.0297 40.1921 33.8677 40.2683 33.6791C40.3452 33.5179 40.3963 33.356 40.4725 33.1947C40.6249 32.8715 40.8291 32.6023 41.1088 32.3598C41.1347 32.3331 41.1857 32.3058 41.1857 32.2518C41.1857 32.1978 41.1088 32.1712 41.0836 32.1446C40.8543 32.0632 40.5998 32.1712 40.3963 32.3058C39.8606 32.6563 39.3005 33.0328 38.7404 33.4099C38.5621 33.5179 38.4089 33.6252 38.2565 33.7331C37.874 33.9757 36.2986 36.4532 35.9168 36.7224C35.2797 37.1802 35.5559 35.2685 34.7916 35.6989C34.2826 36.0221 33.8749 36.3719 33.6455 36.911C33.0092 38.4729 32.3722 40.0881 31.8883 41.7314C30.8184 45.2591 30.3093 48.948 30.2324 52.6103C30.1052 58.0505 30.9457 63.4633 32.2701 68.7142C32.347 68.9834 32.4484 69.3066 32.7036 69.4145Z" fill="#BA2040"/>
<path d="M54.3712 16.1602C54.3649 16.2571 54.2908 16.3155 54.2013 16.297C53.9139 16.2386 53.7048 15.9065 53.4817 15.729C53.244 15.5382 52.9761 15.3829 52.6964 15.2727C52.4062 15.1581 52.1069 15.0767 51.7979 15.0442C51.4958 15.0131 51.1909 15.062 50.8923 15.0287C50.7678 15.0146 50.7091 14.8475 50.8266 14.7713C51.1168 14.5812 51.5133 14.5642 51.8475 14.5775C52.1846 14.5901 52.5321 14.6596 52.8496 14.7839C53.1789 14.9133 53.4894 15.0864 53.7705 15.3104C54.0124 15.5035 54.3949 15.7949 54.3712 16.1602ZM52.1909 20.108C52.4181 20.2773 52.7489 20.2359 52.9691 20.0577C53.1901 19.8787 53.3104 19.5873 53.3439 19.2952C53.3705 19.0689 53.3474 18.8293 53.2391 18.6325C52.6069 17.4773 51.242 19.4032 52.1909 20.108ZM45.001 12.9328C45.294 12.9964 45.5751 13.091 45.8443 13.2286C46.1282 13.3735 46.3695 13.5969 46.6506 13.7396C46.7708 13.801 46.889 13.6775 46.8303 13.5496C46.6862 13.2367 46.3681 13.0082 46.0919 12.8352C45.7912 12.6466 45.4478 12.5046 45.1059 12.4299C44.766 12.3559 44.4157 12.3278 44.0696 12.3596C43.764 12.3877 43.2969 12.4225 43.1305 12.7471C43.0864 12.8337 43.1291 12.9224 43.2109 12.9557C43.4829 13.0644 43.8185 12.9032 44.0954 12.8788C44.3982 12.8514 44.7038 12.8684 45.001 12.9328ZM44.8723 16.0885C44.6814 16.1942 44.5423 16.3843 44.4507 16.5906C44.3325 16.8569 44.2877 17.1712 44.3849 17.447C44.4821 17.7229 44.7416 17.9425 45.0192 17.927C46.1772 17.8634 45.9884 15.465 44.8723 16.0885ZM46.0268 19.9231C45.8338 20.2773 45.7793 20.704 46.0065 21.0568C46.2184 21.3852 46.5918 21.6248 46.9715 21.5375C47.0862 21.5116 47.0848 21.3548 47.0016 21.2942C46.7492 21.1086 46.3604 20.9954 46.2772 20.6419C46.1911 20.2736 46.5093 19.9282 46.6904 19.6516C47.1519 18.9468 47.2317 18.1444 47.1289 17.3132C47.1184 17.2303 47.0093 17.2259 47.003 17.3132C46.9715 17.7917 46.8911 18.2916 46.7261 18.7413C46.5611 19.1894 46.2499 19.5134 46.0268 19.9231ZM48.7456 23.6379C48.8833 23.9758 48.4512 24.4144 48.2295 24.6074C47.926 24.8714 47.561 25.0556 47.1778 25.1495C46.7275 25.2597 46.2583 25.2457 45.8072 25.1473C45.4667 25.0726 45.0583 24.9439 44.7451 24.725C44.7374 24.7228 44.7318 24.7354 44.7248 24.7309C44.6954 24.7132 44.6891 24.6814 44.6667 24.6599C44.6157 24.6185 44.5591 24.5815 44.5164 24.5342C44.4786 24.4935 44.4877 24.4462 44.501 24.404C44.4765 24.3279 44.4535 24.251 44.4332 24.1718C44.3724 23.9396 44.3157 23.7074 44.2633 23.4737C44.2087 23.2318 44.1591 22.9893 44.1276 22.743C44.1045 22.5574 44.0451 22.3007 44.1227 22.1247C44.1486 22.0663 44.2437 22.0515 44.2821 22.1033C44.2884 22.1114 44.2877 22.1225 44.2926 22.1314C44.9395 22.5566 45.6856 22.9005 46.4093 23.1409C46.7967 23.2696 47.1953 23.3657 47.5981 23.4234C47.9358 23.4722 48.3302 23.4234 48.6351 23.6053C48.64 23.6031 48.6428 23.5972 48.6484 23.5957C48.6812 23.5861 48.7309 23.6009 48.7456 23.6379ZM48.3218 23.9241C48.0456 23.9707 47.733 23.91 47.4757 23.8716C47.0631 23.8094 46.6569 23.7022 46.2625 23.5617C45.5569 23.3102 44.9548 22.9286 44.3989 22.4324C44.4227 22.5233 44.4458 22.6151 44.4709 22.706C44.5318 22.9308 44.5891 23.1571 44.65 23.382C44.7122 23.612 44.7772 23.842 44.8395 24.072C44.8681 24.177 44.9157 24.2953 44.9227 24.4063C45.0318 24.4514 45.1394 24.5017 45.2485 24.5446C45.4415 24.6215 45.6394 24.6829 45.8408 24.7294C46.2338 24.8189 46.6478 24.8404 47.0415 24.7457C47.3855 24.6636 47.7155 24.5017 47.9925 24.2687C48.1141 24.1674 48.2232 24.0498 48.3218 23.9241Z" fill="#230827"/>
<path d="M62.8876 68.3643V68.6601C62.8624 69.4145 62.8624 70.1681 62.8365 70.9224C62.6841 70.9491 62.5309 70.9491 62.3526 70.9764C61.1555 71.0837 59.9583 71.1377 58.7612 71.1916C57.513 71.2456 56.2648 71.3536 55.0166 71.3262C54.4565 71.3262 53.8964 71.2723 53.3356 71.1916C52.8006 71.0837 52.2916 70.9224 51.7566 70.9491C51.2728 70.9764 50.9923 70.1415 51.5014 69.9255C52.4951 69.4685 53.667 69.4145 54.7621 69.2259C55.9844 69.0107 57.2585 68.8221 58.5067 68.6875C59.729 68.5795 60.9772 68.4176 62.2254 68.337C62.4547 68.337 62.6841 68.337 62.8876 68.3643ZM54.3803 74.4501C52.2657 74.5847 50.177 74.7193 48.0631 75.0425C45.8723 75.3923 43.6815 75.3923 41.5418 76.0387C41.0075 76.2273 41.0837 77.1702 41.6949 77.1162C43.8095 76.9543 45.9744 77.1968 48.0883 77.1162C50.3553 77.0349 52.5972 76.9543 54.8383 76.9003C57.0291 76.847 59.194 76.793 61.3597 76.5771C61.7666 76.5505 62.2505 76.5505 62.7344 76.5505C62.7344 75.6349 62.7603 74.6927 62.7862 73.7771C62.2002 73.8311 61.6394 73.9117 61.1303 73.965C58.8885 74.1536 56.6473 74.3155 54.3803 74.4501ZM42.9683 60.258C44.4458 53.4726 45.5926 46.821 49.4896 41.0044C51.3741 38.2303 53.6922 35.6988 56.418 33.8137C57.1312 33.3293 57.8696 32.8715 58.6081 32.4677C58.2011 32.2518 57.7675 32.0366 57.3347 31.8753C56.8256 31.6867 56.341 31.4982 55.8571 31.3362C55.832 31.3362 55.832 31.3362 55.8068 31.3096C55.5774 31.4708 55.3733 31.6328 55.1439 31.8213C52.5202 33.9757 50.3812 36.965 48.7505 39.9809C45.4905 45.9861 42.841 53.23 42.5865 60.2048C42.5613 60.4474 42.9179 60.5006 42.9683 60.258ZM34.7917 35.6988C33.7477 39.0113 32.7799 42.4044 32.0408 45.7975C31.1751 49.9176 31.2003 53.9304 31.5317 58.1045C31.6849 60.1234 31.7352 62.1705 32.0667 64.1629C32.3471 65.9134 32.831 67.664 33.1366 69.4145C33.2128 69.9529 33.2897 70.4913 33.3149 71.0304C33.3659 71.5688 34.1302 71.5688 34.1302 71.0304C34.1302 70.3841 34.1043 69.7377 34.0533 69.0913C33.926 67.9065 33.7225 66.7484 33.5184 65.5636C33.0855 63.4093 33.0093 61.255 32.882 59.0466C32.6268 54.8992 32.6016 50.8871 33.4932 46.821C34.3078 43.212 35.6581 39.7383 37.0846 36.3452C37.4664 35.4563 37.8489 34.5947 38.2566 33.7331C37.8741 33.9757 37.5175 34.2449 37.1357 34.5141C36.4986 34.9719 35.556 35.2684 34.7917 35.6988Z" fill="#F7D96B"/>
<path d="M64.6197 49.2984V50.052C64.5945 51.3714 64.5435 52.3949 64.0337 53.6071C63.5247 54.7645 62.8625 55.842 62.3786 57.0001C61.5373 58.8853 60.7227 60.743 59.9074 62.6008C59.7549 62.978 58.9647 65.1597 58.3284 66.6136C57.997 67.3946 57.6914 67.9604 57.5641 67.9604C57.0292 69.1991 56.4691 70.4379 55.6027 71.4607C54.6859 72.5382 53.4888 73.2652 52.2658 73.9382C44.7514 78.1389 36.4735 80.751 27.9914 81.586C27.5327 81.6673 27.074 81.6939 26.616 81.7206C26.3607 81.7746 26.081 81.7746 25.8265 81.8019C25.2908 81.8285 24.7307 81.8552 24.221 81.6133C23.4315 81.2362 23.0497 80.2666 22.7952 79.351C22.3875 78.0043 22.056 76.4697 22.591 75.1503C23.0238 74.1268 23.9154 73.3998 24.7818 72.7268C24.9853 72.5649 25.1636 72.4303 25.3678 72.269C25.6985 72.0265 26.0551 71.7573 26.3866 71.5147C29.5193 69.0912 32.7289 66.7482 36.2442 64.9711C37.6707 64.2707 39.1734 63.6243 40.3195 62.4662C42.2551 60.4465 42.841 57.296 44.2165 54.8991C46.0255 51.7759 47.2227 48.3015 49.082 45.205C51.0686 41.9198 53.4126 38.8766 56.3411 36.5336C57.3096 35.7527 58.5319 34.9177 59.8311 34.9983C61.0031 35.0523 62.1233 35.6721 62.9135 36.5876C63.0149 36.6682 63.0911 36.7762 63.168 36.8568C63.9323 37.907 64.34 39.1998 64.4925 40.4925C64.5687 41.2735 64.5435 42.0811 64.4673 42.862C64.4162 43.4818 64.289 44.0202 64.4414 44.6392C64.5945 45.3662 64.5687 46.1745 64.5945 46.9015C64.6197 47.6825 64.6197 48.4901 64.6197 49.2984Z" fill="#429678"/>
<path d="M66.858 9.58444C66.335 10.1975 65.7797 10.8069 65.091 11.2144C64.4232 11.6094 63.7043 11.7758 62.9533 11.8083C63.161 12.3533 63.3169 12.8496 63.2498 13.5019C63.1246 14.7229 62.8722 15.9424 62.6813 17.1545C62.6288 17.4888 62.5736 17.8305 62.4233 18.13C62.2729 18.4295 62.0079 18.6862 61.689 18.7254C61.3758 16.8624 60.8961 14.7192 59.9765 13.084C59.0703 11.4725 57.8018 10.1191 56.4991 8.86486C54.7754 7.20529 52.5014 5.85042 50.1644 5.50505C48.0128 5.18704 45.5283 6.26014 43.5941 7.18089C42.648 7.63054 41.8068 8.30427 41.0837 9.08598C40.7474 9.44837 40.4348 9.83663 40.1467 10.2427C39.9146 10.5695 39.2698 11.2973 38.8524 12.4798C38.6873 12.9457 38.551 13.4294 38.5503 13.9279C38.5496 14.0033 38.5412 14.0957 38.4762 14.1253C38.3971 14.1601 38.3223 14.0684 38.2832 13.9878C37.9286 13.2578 37.4287 11.2973 38.8657 9.09634C39.8188 7.63719 40.7138 6.12702 42.0186 5.02212C44.3192 3.07265 47.331 1.45672 50.3413 1.56765C52.6916 1.65418 54.9362 2.60155 56.9179 3.9616C56.9172 3.90983 56.9116 3.85954 56.9137 3.80925C56.9032 3.77892 56.8935 3.74934 56.8823 3.71902C56.8543 3.63323 56.8375 3.54301 56.8172 3.45426C56.6221 2.59637 57.0725 1.78508 57.857 1.5181C58.736 1.22006 59.9527 1.29919 60.7247 1.86421C60.9052 1.99585 61.0856 2.14007 61.2303 2.31608C61.3366 2.44476 61.4471 2.58824 61.5338 2.73393C61.6653 2.95506 61.3492 2.46843 61.3932 2.5594C61.4946 2.76869 61.6848 2.93139 61.7946 3.14143C61.9079 3.35738 62.0079 3.5933 62.061 3.83217C62.2484 4.67601 62.124 5.5583 62.01 6.39991C62.0086 6.40953 62.0058 6.4184 62.0044 6.42802C62.0939 6.4147 62.1792 6.38438 62.2694 6.37477C63.6784 6.2239 65.2497 6.12406 66.528 6.87989C67.4832 7.44491 67.544 8.78203 66.858 9.58444ZM57.2864 84.6125C56.9459 86.1522 56.6291 87.7075 56.0837 89.1844C55.5124 90.7323 54.5453 92.1611 53.5545 93.4398C52.5944 94.6771 51.5364 95.8493 50.4532 96.9668C49.9267 97.5103 49.4442 98.0857 48.9428 98.6537C48.4946 99.1625 47.9932 99.6114 47.6233 100.193C47.5149 100.363 47.731 100.592 47.8918 100.477C48.482 100.056 49.1253 99.7312 49.6987 99.2845C50.2945 98.8201 50.8469 98.2869 51.3874 97.7529C52.5769 96.58 53.6447 95.3264 54.567 93.9087C55.4096 92.6115 56.1928 91.2877 56.6263 89.7724C57.0997 88.1165 57.3067 86.3992 57.5738 84.6968C57.6046 84.5001 57.3305 84.4113 57.2864 84.6125ZM39.7621 101.738C37.9538 101.646 36.207 101.88 34.4106 101.47C32.8527 101.115 31.3835 100.376 29.9066 99.7601C26.7292 98.4348 23.4398 96.9653 20.0875 96.2257C17.2059 95.5905 13.8704 95.998 11.0124 96.6746C9.64818 96.9971 8.30419 97.5059 7.12452 98.3113C5.9994 99.0789 5.12881 100.147 4.08201 101.015C3.95684 101.119 4.12257 101.349 4.25403 101.251C5.31832 100.443 6.27072 99.5338 7.46157 98.9214C9.0573 98.1012 10.7635 97.6472 12.5222 97.4564C16.0157 97.077 19.2274 97.1746 22.5839 98.3446C25.6096 99.3984 28.5634 100.669 31.545 101.851C34.2645 102.928 37.028 103.161 39.8264 102.244C40.0922 102.157 40.0376 101.752 39.7621 101.738ZM21.9798 37.5301C23.0748 37.5841 24.1447 37.8533 25.2146 38.1225C25.6733 38.2304 26.1572 38.419 26.6669 38.5536C26.6669 38.0692 26.6669 37.6107 26.6411 37.1263C26.2593 37.0183 25.9026 36.9111 25.5712 36.8305C24.4503 36.5339 23.3042 36.2913 22.1581 36.2107C21.0371 36.1301 19.891 36.1027 18.7701 36.3187C18.3373 36.3993 17.9296 36.5605 17.5219 36.7225C17.4709 37.0997 17.4205 37.4495 17.3695 37.8266C17.8275 37.7727 18.2862 37.5841 18.6939 37.5035C19.7379 37.3149 20.9099 37.4495 21.9798 37.5301ZM26.4879 72.8883C26.4628 72.4571 26.4879 71.9727 26.3865 71.5149C26.0551 71.7575 25.6985 72.0267 25.3677 72.2693C25.3677 72.6191 25.3929 72.9689 25.4187 73.2655C25.4187 74.0464 25.4691 74.8 25.5201 75.581C25.6222 76.6852 25.8005 77.7893 25.9789 78.8935C26.1061 79.7011 26.2593 80.7513 26.6152 81.7208C27.0739 81.6942 27.5326 81.6676 27.9914 81.5862C27.9144 81.425 27.8382 81.263 27.7872 81.1018C27.4564 80.1589 27.2781 79.19 27.125 78.2205C26.9725 77.1703 26.7683 76.1468 26.6669 75.0966C26.59 74.3696 26.5397 73.6153 26.4879 72.8883Z" fill="#F7D96B"/>
<path d="M40.5468 8.61306C40.6419 8.62711 40.644 8.75357 40.5971 8.81496C40.5328 8.9 40.4552 8.96213 40.3817 9.03682C40.3062 9.113 40.2342 9.19435 40.1545 9.26535C39.9818 9.41991 39.8048 9.56635 39.6244 9.71056C39.4769 9.82889 39.3237 9.93169 39.1671 10.0345C39.0937 10.0826 39.0252 10.1291 38.972 10.178C38.9231 10.2216 38.8461 10.2926 38.8154 10.3347C38.6888 10.5093 38.4315 10.4117 38.4748 10.1824C38.5161 9.96275 38.6685 9.80005 38.8231 9.65805C38.9077 9.58114 38.9958 9.50644 39.086 9.43692C39.107 9.42065 39.1273 9.40438 39.1475 9.38885C39.193 9.35335 39.1245 9.4103 39.1699 9.37036C39.2077 9.33782 39.2461 9.30454 39.2839 9.27126C39.472 9.10486 39.6545 8.91775 39.8727 8.79573C40.0643 8.68849 40.3174 8.57756 40.5468 8.61306ZM42.5795 6.81519C42.5495 6.79227 42.5075 6.79523 42.4697 6.78339C42.4096 6.7405 42.3411 6.72201 42.2698 6.71461C42.3257 6.73384 42.3033 6.7331 42.2019 6.71166C42.1579 6.70648 42.1145 6.71092 42.0705 6.72349C41.9887 6.73976 41.9054 6.76269 41.8236 6.78413C41.6439 6.8322 41.4628 6.88397 41.2887 6.95201C41.0894 7.02967 40.8971 7.1369 40.7111 7.24414C40.6265 7.29295 40.5433 7.3425 40.458 7.38983C40.3705 7.4379 40.2573 7.49115 40.2153 7.59173C40.1838 7.66864 40.1817 7.75887 40.244 7.82173C40.4055 7.98517 40.695 7.89347 40.8887 7.84762C41.0859 7.80102 41.2817 7.73077 41.4761 7.67086C41.6551 7.61466 41.8383 7.58211 42.0201 7.53848C42.2677 7.47932 42.4907 7.38909 42.5781 7.14799C42.6131 7.09105 42.6579 7.0378 42.6634 6.96976C42.6697 6.90468 42.6257 6.84921 42.5795 6.81519ZM42.6019 7.11545C42.5984 7.13098 42.583 7.13394 42.5781 7.14799C42.5593 7.17906 42.5593 7.22047 42.5313 7.24414C42.5551 7.20124 42.5788 7.15835 42.6019 7.11545ZM44.8906 5.19113C44.8487 5.16672 44.8032 5.15489 44.7584 5.13862C44.7584 5.13862 44.7633 5.1401 44.7459 5.12974C44.7032 5.10386 44.6564 5.09351 44.6109 5.07871C44.4137 5.01511 44.2018 5.00846 43.9969 5.00106C43.7977 4.99367 43.6026 4.99736 43.404 5.02177C42.9774 5.07502 42.5145 5.19409 42.232 5.5646C42.174 5.64152 42.1495 5.73988 42.1998 5.82937C42.2425 5.90628 42.3495 5.9647 42.4327 5.92994C42.4991 5.90184 42.5662 5.88261 42.6362 5.87004C42.646 5.86782 42.7543 5.85229 42.7012 5.85821C42.7502 5.85303 42.7991 5.85007 42.8481 5.84637C43.0278 5.83232 43.2075 5.8412 43.3872 5.84933C43.5844 5.85821 43.7823 5.87448 43.9795 5.88631C44.0697 5.89223 44.1599 5.90258 44.2508 5.9048C44.2941 5.90628 44.3382 5.9048 44.3815 5.90258C44.4165 5.9011 44.448 5.89888 44.4836 5.89371C44.5221 5.88853 44.606 5.86708 44.5228 5.88409C44.5662 5.87522 44.6116 5.87596 44.6543 5.86634C44.685 5.85303 44.7151 5.83898 44.7459 5.82567L44.748 5.82419C44.7473 5.82641 44.7424 5.8301 44.7612 5.82789C44.7759 5.82641 44.7976 5.81975 44.813 5.81383C44.9486 5.76872 45.0815 5.64891 45.0815 5.48769C45.0808 5.35975 44.992 5.24881 44.8906 5.19113ZM46.9758 4.16536C47.0269 4.17498 47.0031 4.1624 46.9038 4.12764C46.8793 4.11729 46.8535 4.11064 46.8269 4.10694C46.766 4.09141 46.7052 4.07957 46.6416 4.07292C46.45 4.05221 46.2584 4.03742 46.0661 4.02854C45.8801 4.01967 45.6976 4.01449 45.5123 4.03224C45.3102 4.05221 45.1165 4.13356 44.9179 4.16832C44.7291 4.20086 44.7305 4.5344 44.9179 4.56916C45.0109 4.58617 45.0913 4.62315 45.1822 4.64607C45.2689 4.669 45.3507 4.72077 45.4402 4.74739C45.6234 4.80212 45.8115 4.83096 45.9989 4.8635C46.2059 4.899 46.4122 4.92785 46.622 4.9382C46.6521 4.93968 46.8625 4.91231 46.7625 4.92711C46.8101 4.92341 46.8569 4.91601 46.9038 4.90418C46.9975 4.85981 47.0241 4.84797 46.9849 4.86794C46.9639 4.87903 46.973 4.87608 47.0129 4.86202C47.052 4.84871 47.0898 4.83318 47.1262 4.81469C47.1898 4.77846 47.2367 4.72816 47.273 4.66308C47.322 4.57803 47.3199 4.46784 47.273 4.38279C47.2038 4.25337 47.0961 4.21935 46.9758 4.16536ZM49.868 3.82147C49.854 3.81333 49.8379 3.80668 49.8239 3.80002C49.803 3.79115 49.8093 3.79854 49.8183 3.80668C49.8121 3.8015 49.8072 3.7978 49.789 3.78449C49.7743 3.77266 49.6596 3.70092 49.7232 3.74086C49.6722 3.70906 49.6295 3.6632 49.5771 3.63436C49.5023 3.59368 49.4282 3.55597 49.3561 3.51011C49.2191 3.42433 49.0813 3.34298 48.9345 3.27568C48.5051 3.07821 48.0611 2.98947 47.6045 2.89185C47.4338 2.85487 47.3094 3.10854 47.48 3.20394C47.8247 3.39696 48.1562 3.62031 48.4862 3.83996C48.559 3.88803 48.6289 3.93758 48.6974 3.99157C48.6471 3.95237 48.7303 4.01967 48.7436 4.03076C48.7953 4.0744 48.8471 4.11729 48.9009 4.15723C49.0554 4.2689 49.2177 4.38797 49.4065 4.41533C49.5128 4.43012 49.4435 4.41385 49.4233 4.41237C49.4659 4.41607 49.5079 4.42938 49.5505 4.43012C49.5743 4.4316 49.7128 4.41016 49.6491 4.41829C49.7792 4.40128 49.9079 4.38427 49.9953 4.26816C50.0722 4.1661 50.0722 4.03224 49.9953 3.93018C49.9624 3.88507 49.9155 3.84809 49.868 3.82147ZM53.1273 4.68453C53.0839 4.57064 53.0168 4.46636 52.9336 4.35765C52.8518 4.25041 52.749 4.15649 52.6574 4.05887C52.456 3.84587 52.2441 3.64471 52.0245 3.45317C51.7805 3.2424 51.5134 3.06342 51.2232 2.93474C50.9651 2.82085 50.7183 2.7713 50.4456 2.75577C50.2449 2.74393 50.1442 3.08265 50.3386 3.17214C50.4603 3.22834 50.5372 3.29047 50.6428 3.37182C50.6652 3.38957 50.6896 3.40584 50.7127 3.42433C50.7218 3.43098 50.7742 3.47388 50.7435 3.44799C50.7931 3.48941 50.8414 3.53378 50.8882 3.57889C51.084 3.76822 51.2714 3.96568 51.4616 4.1624C51.6504 4.35839 51.8294 4.5662 52.0147 4.76588C52.1266 4.88717 52.2343 5.00846 52.3623 5.11126C52.4301 5.16598 52.3182 5.08093 52.3644 5.11273C52.4105 5.14454 52.449 5.18595 52.4972 5.21479C52.5651 5.25547 52.6322 5.28061 52.7014 5.29171C52.7224 5.30058 52.7434 5.30872 52.7658 5.31611C53.0042 5.39303 53.2951 5.12605 53.1972 4.85981C53.1755 4.80064 53.1511 4.74296 53.1273 4.68453ZM55.5789 6.2413C55.5684 6.15477 55.5467 6.06824 55.523 5.98763C55.4866 5.86117 55.4335 5.74136 55.3803 5.62229C55.2873 5.41373 55.1971 5.20592 55.0677 5.01881C54.9188 4.8036 54.7559 4.62315 54.5615 4.45527C54.3895 4.30662 54.1517 4.06182 53.9133 4.06256C53.8272 4.0633 53.7189 4.13282 53.7042 4.23044C53.6671 4.48707 53.8321 4.71633 53.9657 4.91453C54.0958 5.1083 54.2377 5.30206 54.344 5.5121C54.4433 5.70808 54.5272 5.91367 54.6153 6.11631C54.6678 6.23686 54.7321 6.34188 54.8125 6.44542C54.8412 6.48165 54.8712 6.51715 54.9013 6.55191C54.9454 6.60368 54.9929 6.6377 55.0454 6.66137C55.1146 6.72497 55.1845 6.78783 55.2621 6.84182C55.3726 6.91799 55.5125 7.00008 55.6418 6.91577C55.7719 6.82999 55.7376 6.65471 55.6838 6.53342C55.6418 6.43802 55.6132 6.33892 55.5789 6.2413ZM57.976 7.78401C57.9753 7.7781 57.9718 7.75295 57.969 7.73742C57.9655 7.70784 57.9543 7.63167 57.9459 7.60282C57.8697 7.33362 57.7417 7.06295 57.5823 6.83738C57.4271 6.61699 57.2599 6.41435 57.0648 6.23242C56.8991 6.07712 56.7187 5.89593 56.5845 5.67997C56.4551 5.47068 56.102 5.59714 56.1845 5.85821C56.3474 6.37442 56.5984 6.79671 56.8201 7.28333C56.832 7.30922 56.8425 7.3351 56.8544 7.36099C56.8558 7.36395 56.8551 7.36173 56.8558 7.36395C56.8586 7.3706 56.8579 7.3706 56.8628 7.38391C56.8858 7.4453 56.9089 7.50594 56.9299 7.5688C56.9781 7.71524 57.0152 7.87128 57.0844 8.00884C57.1516 8.14492 57.2432 8.27804 57.3585 8.37196C57.3446 8.36087 57.4452 8.44148 57.4173 8.41633C57.3907 8.39341 57.4613 8.45775 57.469 8.46367C57.5383 8.52061 57.6026 8.5783 57.6914 8.59901C57.8152 8.62785 57.9718 8.55981 57.9991 8.41412C58.0138 8.33646 58.0068 8.25067 57.9991 8.18707C57.9984 8.17968 57.9956 8.1353 57.9921 8.0998L57.9998 8.04064C58.0054 7.95559 57.9872 7.86832 57.976 7.78401ZM60.0913 9.75345C60.0612 9.49683 59.9997 9.2402 59.9242 8.99393C59.8493 8.75135 59.7647 8.50286 59.6416 8.28321C59.5004 8.03103 59.3256 7.7744 59.0242 7.76109C58.9067 7.75665 58.8095 7.85057 58.7746 7.96225C58.6927 8.22331 58.8312 8.48437 58.9123 8.72621C58.9878 8.95251 59.0536 9.17882 59.1039 9.41326C59.1522 9.63882 59.192 9.87326 59.2724 10.0885C59.3228 10.2238 59.3815 10.3555 59.4528 10.4782C59.4885 10.5396 59.5158 10.5633 59.5486 10.6173C59.5913 10.686 59.6319 10.7445 59.7011 10.7851C59.8123 10.8487 59.9451 10.811 60.013 10.6979C60.0731 10.598 60.0689 10.4738 60.0801 10.3592C60.0654 10.4154 60.0514 10.4708 60.0374 10.527C60.1416 10.297 60.1234 10.033 60.0913 9.75345ZM61.4807 12.0905C61.4674 11.9122 61.4569 11.7355 61.4381 11.5572C61.4262 11.4493 61.4171 11.3435 61.387 11.2392C61.3611 11.1512 61.3353 11.0632 61.3101 10.9745C61.2388 10.7223 60.8975 10.7215 60.8262 10.9745C60.7689 11.1764 60.7206 11.3672 60.7052 11.5779C60.6926 11.7628 60.694 11.9462 60.6989 12.1311C60.7045 12.3345 60.7052 12.5527 60.7647 12.7472C60.8115 12.8448 60.8199 12.8699 60.7891 12.8234C60.7926 12.8367 60.7954 12.85 60.7989 12.8625C60.8129 12.9409 60.8472 12.9639 60.8668 13.0105C60.9157 13.1303 60.9549 13.2161 61.0563 13.2989C61.1633 13.3854 61.3031 13.3048 61.3709 13.2116C61.4332 13.1258 61.4269 13.0334 61.45 12.9343C61.4653 12.8692 61.48 12.8411 61.4863 12.7642C61.4898 12.7154 61.4891 12.7102 61.4863 12.7472C61.4905 12.7124 61.4947 12.6769 61.4989 12.6422C61.5185 12.4595 61.4933 12.2731 61.4807 12.0905ZM62.1233 13.4342C61.9919 13.5725 61.8926 13.7559 61.8199 13.9349C61.7653 14.0688 61.7143 14.1989 61.7024 14.3461C61.6968 14.4134 61.6961 14.4837 61.7185 14.548C61.7555 14.653 61.7877 14.727 61.8772 14.7943C61.9269 14.832 62.0199 14.8416 62.0765 14.8216C62.1422 14.7994 62.194 14.758 62.2317 14.6959C62.2604 14.6486 62.266 14.5916 62.2807 14.5376C62.2982 14.474 62.2961 14.4053 62.3045 14.3394C62.301 14.3675 62.2968 14.3957 62.2933 14.4238C62.3045 14.3431 62.308 14.2618 62.3156 14.1812C62.3296 14.0843 62.3478 13.9882 62.3758 13.895C62.3821 13.8735 62.3891 13.8513 62.3968 13.8299C62.3996 13.8225 62.4024 13.8151 62.4045 13.8084C62.4219 13.7744 62.4359 13.7382 62.4555 13.7049C62.5114 13.611 62.4814 13.4823 62.401 13.4165C62.3184 13.3492 62.1989 13.3551 62.1233 13.4342ZM64.8561 7.37874C64.4771 7.20124 64.0554 7.17462 63.647 7.14873C62.9471 7.10436 62.1674 7.16279 61.5052 7.42755C61.48 7.43716 61.4688 7.45787 61.4541 7.47562C61.4472 7.46674 61.4402 7.45491 61.4332 7.44604C61.2821 7.25301 61.0828 7.08661 60.8884 6.93278C60.9388 6.7331 60.9682 6.52085 60.9849 6.33226C61.0115 6.02831 60.9884 5.71547 60.98 5.41152C60.9619 4.78437 60.8828 4.15131 60.6038 3.58925C60.1633 2.70178 59.2682 2.06132 58.3026 2.21663C58.1802 2.2366 58.22 2.42592 58.3305 2.43332C59.1815 2.49396 59.8291 3.39696 59.9773 4.22527C60.071 4.74444 60.0535 5.28061 60.0563 5.80718C60.0577 6.04014 60.0836 6.25905 60.1353 6.47796C59.8661 6.36111 59.5864 6.26718 59.3018 6.18879C59.0585 6.12075 58.9158 6.47722 59.1312 6.61625C59.5382 6.87806 59.8668 7.26115 60.2234 7.59099C60.4087 7.76257 60.578 7.95411 60.764 8.12421C60.8738 8.22479 60.9898 8.32019 61.1171 8.39341C61.2241 8.45553 61.3926 8.53836 61.5185 8.53171C61.6234 8.52505 61.7269 8.45627 61.7534 8.34238C61.801 8.13234 61.7192 7.909 61.608 7.71302C62.2073 7.56732 62.8814 7.59838 63.4848 7.68417C63.8149 7.73077 64.1463 7.83652 64.4204 7.98148C64.4883 8.01697 64.5561 8.05173 64.6211 8.09389C64.6498 8.11312 64.6771 8.13234 64.7043 8.15231C64.6456 8.10794 64.7323 8.17746 64.7435 8.18855C64.7924 8.23588 64.8344 8.28913 64.8771 8.34312C64.8959 8.36604 64.9141 8.39267 64.9344 8.41412C64.9792 8.46071 65.0323 8.49399 65.0931 8.51174C65.2001 8.52727 65.2204 8.53023 65.154 8.51987C65.277 8.53984 65.4127 8.5073 65.477 8.3801C65.7106 7.92083 65.2064 7.54218 64.8561 7.37874ZM64.4379 8.86451C64.4351 8.86451 64.4204 8.86229 64.41 8.86081C64.4176 8.86155 64.3918 8.85859 64.3862 8.85711C64.3582 8.85341 64.3309 8.84824 64.303 8.84824C64.2428 8.84676 64.1834 8.84602 64.1233 8.84306C64.0051 8.83862 63.8876 8.82975 63.7694 8.81865C63.6848 8.80978 63.6114 8.89409 63.6009 8.97544C63.5904 9.06049 63.6401 9.15515 63.724 9.17512C63.8421 9.20248 63.9603 9.22689 64.0792 9.2476C64.1512 9.26017 64.2232 9.27126 64.296 9.28088C64.3568 9.28901 64.419 9.2831 64.4806 9.28014C64.5442 9.27792 64.6197 9.24464 64.6484 9.17882C64.6687 9.13075 64.6862 9.0738 64.6673 9.02055C64.6344 8.92589 64.5729 8.88078 64.4806 8.86968C64.4666 8.8682 64.4519 8.86672 64.4379 8.86451Z" fill="#BA2040"/>
</svg>
